<?xml version="1.0" encoding="UTF-8"?>
<svg width="397px" height="281px" viewBox="0 0 397 281" version="1.1" xmlns="http://www.w3.org/2000/svg" xmlns:xlink="http://www.w3.org/1999/xlink">
    <title>coding_</title>
    <defs>
        <linearGradient x1="-0.0288374265%" y1="50.0021353%" x2="99.9207053%" y2="50.0021353%" id="linearGradient-1">
            <stop stop-color="#E5C6D6" offset="0%"></stop>
            <stop stop-color="#EAD4D0" offset="42%"></stop>
            <stop stop-color="#F0E9CB" offset="100%"></stop>
        </linearGradient>
        <linearGradient x1="0.0211108197%" y1="49.995135%" x2="99.996426%" y2="49.995135%" id="linearGradient-2">
            <stop stop-color="#E5C6D6" offset="0%"></stop>
            <stop stop-color="#EAD4D0" offset="42%"></stop>
            <stop stop-color="#F0E9CB" offset="100%"></stop>
        </linearGradient>
        <linearGradient x1="49.4981314%" y1="65.8764978%" x2="53.9183956%" y2="39.1839273%" id="linearGradient-3">
            <stop stop-color="#010101" stop-opacity="0" offset="0%"></stop>
            <stop stop-color="#010101" offset="100%"></stop>
        </linearGradient>
        <linearGradient x1="49.9956945%" y1="-116.838046%" x2="49.9956945%" y2="606.895887%" id="linearGradient-4">
            <stop stop-color="#010101" stop-opacity="0" offset="0%"></stop>
            <stop stop-color="#010101" offset="100%"></stop>
        </linearGradient>
        <linearGradient x1="42.866528%" y1="71.8092651%" x2="57.122249%" y2="28.2271028%" id="linearGradient-5">
            <stop stop-color="#FFFFFF" stop-opacity="0" offset="0%"></stop>
            <stop stop-color="#FFFFFF" offset="100%"></stop>
        </linearGradient>
        <linearGradient x1="0%" y1="49.9874969%" x2="100%" y2="49.9874969%" id="linearGradient-6">
            <stop stop-color="#010101" stop-opacity="0" offset="0%"></stop>
            <stop stop-color="#010101" offset="95%"></stop>
        </linearGradient>
        <linearGradient x1="0%" y1="50%" x2="100%" y2="50%" id="linearGradient-7">
            <stop stop-color="#FFFFFF" stop-opacity="0" offset="0%"></stop>
            <stop stop-color="#FFFFFF" offset="95%"></stop>
        </linearGradient>
        <linearGradient x1="0.0478943005%" y1="50.1382388%" x2="100.123484%" y2="50.1382388%" id="linearGradient-8">
            <stop stop-color="#E5C6D6" offset="0%"></stop>
            <stop stop-color="#EAD4D0" offset="42%"></stop>
            <stop stop-color="#F0E9CB" offset="100%"></stop>
        </linearGradient>
        <linearGradient x1="-0.0167335674%" y1="50.0559836%" x2="100.003861%" y2="50.0559836%" id="linearGradient-9">
            <stop stop-color="#E5C6D6" offset="0%"></stop>
            <stop stop-color="#EAD4D0" offset="42%"></stop>
            <stop stop-color="#F0E9CB" offset="100%"></stop>
        </linearGradient>
    </defs>
    <g id="Page-1" stroke="none" stroke-width="1" fill="none" fill-rule="evenodd">
        <g id="landing-page" transform="translate(-6209.000000, -1403.000000)">
            <g id="front-end-development" transform="translate(6209.000000, 1382.000000)">
                <g id="coding_" transform="translate(0.000000, 21.000000)">
                    <rect id="Rectangle" fill="#F6FAFF" fill-rule="nonzero" opacity="0.24" transform="translate(263.000000, 140.500000) rotate(-180.000000) translate(-263.000000, -140.500000) " x="210" y="108" width="106" height="65" rx="10.6"></rect>
                    <rect id="Rectangle" fill="#F6FAFF" fill-rule="nonzero" opacity="0.24" transform="translate(95.000000, 164.500000) rotate(-180.000000) translate(-95.000000, -164.500000) " x="54" y="139" width="82" height="51" rx="8.24"></rect>
                    <path d="M376.395255,129 L251.612544,129 C240.236935,128.98712 231.017189,119.774342 231,108.403034 L231,20.6047622 C231.012894,9.23040925 240.233895,0.0128887976 251.612544,0 L376.395255,0 C387.770858,0.017182912 396.987115,9.2334482 397,20.6047622 L397,108.403034 C396.987106,119.773081 387.769596,128.987111 376.395255,129 Z M251.612544,3.07941016 C241.933468,3.08800672 234.089173,10.9293406 234.080573,20.6047622 L234.080573,108.403034 C234.093471,118.075411 241.936509,125.912001 251.612544,125.92059 L376.395255,125.92059 C386.068244,125.907706 393.906538,118.072371 393.919427,108.403034 L393.919427,20.6047622 C393.910834,10.9323805 386.071285,3.09230287 376.395255,3.07941016 L251.612544,3.07941016 Z" id="Shape" fill="#73B3FF" fill-rule="nonzero" opacity="0.63"></path>
                    <path d="M155.748647,57 L105.251353,57 C100.14375,56.9957133 96.0042903,52.8597256 96,47.7564066 L96,12.2513677 C96,7.1450129 100.140714,3.00429105 105.251353,3 L155.748647,3 C160.859286,3.00429105 165,7.1450129 165,12.2513677 L165,47.7564066 C164.99571,52.8597256 160.85625,56.9957133 155.748647,57 L155.748647,57 Z M105.251353,6.10970343 C101.849953,6.13509837 99.0988263,8.8839173 99.07341,12.2824647 L99.07341,47.7875036 C99.0988263,51.186051 101.849953,53.93487 105.251353,53.9602649 L155.748647,53.9602649 C159.150047,53.93487 161.901174,51.186051 161.92659,47.7875036 L161.92659,12.2513677 C161.884315,8.86497033 159.138057,6.13483995 155.748647,6.10970343 L105.251353,6.10970343 Z" id="Shape" fill="#73B3FF" fill-rule="nonzero" opacity="0.63"></path>
                    <path d="M174.637762,189.009876 C174.660259,189.900892 174.931647,190.768057 175.421499,191.514146 C175.865785,192.026804 176.447532,192.402937 177.098697,192.59855 C180.092573,193.651748 183.368594,192.434719 186.307609,191.225492 C187.61541,190.811846 188.792875,190.067206 189.724703,189.064487 C190.511022,187.832835 190.912017,186.39641 190.876797,184.937512 C191.175374,180.226142 190.930822,175.496232 190.147921,170.840266 C190.035513,169.618236 189.623785,168.442285 188.948803,167.415424 C187.498889,165.504065 184.771484,165.246617 182.365411,165.152999 C176.307122,164.926757 174.528039,164.154412 174.183195,170.473598 C173.833019,176.654461 173.985036,182.853383 174.637762,189.009876 L174.637762,189.009876 Z" id="Path" fill="url(#linearGradient-1)" fill-rule="nonzero"></path>
                    <path d="M157.175656,144.272116 C158.617246,147.591684 160.615279,150.640702 163.083585,153.287668 C168.241044,158.660174 175.519817,161.463025 182.949204,160.937358 C190.378591,160.411691 197.190048,156.611885 201.539396,150.566723 C205.260926,145.380649 206.858083,138.985266 207.974542,132.698411 C208.943691,127.194505 209.602711,121.465792 208.168372,116.062663 C206.284347,109.00061 200.880375,103.178873 194.367698,99.8765298 C187.85502,96.5741865 180.334428,95.6129411 173.046431,96.1323237 C168.487557,96.4656588 163.882164,97.3881444 159.920285,99.6517224 C152.089565,104.101359 151.732918,110.271934 152.089565,118.318489 C152.51599,127.140241 153.508398,136.140289 157.175656,144.272116 Z" id="Path" fill="url(#linearGradient-2)" fill-rule="nonzero"></path>
                    <path d="M173.740478,76.1338304 C171.572628,73.7992955 169.00708,71.4180699 165.809891,71.0367625 C162.612702,70.6554552 158.963229,73.2934796 159.571474,76.4840106 C154.619731,74.1105668 148.818003,72.1573393 143.74929,74.2662025 C139.49157,76.0248854 136.731071,80.4916288 136.138421,85.0206265 C135.545772,89.5496242 136.918223,94.218694 139.070477,98.2496576 C140.270888,100.620616 141.890236,102.755919 143.850664,104.552902 C148.420304,108.568302 154.767893,109.688879 160.834754,110.397021 C171.128141,111.595415 181.764642,112.031195 191.629138,108.840664 C194.607982,107.883505 198.327638,106.762928 200.495488,109.019645 C202.109678,110.692729 202.593156,114.007768 204.924764,114 C206.811885,114 207.669667,111.665451 207.849022,109.774478 C208.26813,105.288908 207.812655,100.764791 206.507762,96.4520657 C204.238538,88.9582087 198.83451,83.2230347 190.607597,83.2852889 C182.988931,83.3786703 179.004142,81.8767862 173.740478,76.1338304 Z" id="Path" fill="#8D5A38" fill-rule="nonzero"></path>
                    <rect id="Rectangle" stroke="#FFFFFF" stroke-width="3.95" x="156" y="117" width="20" height="14" rx="7"></rect>
                    <rect id="Rectangle" stroke="#FFFFFF" stroke-width="3.95" x="183" y="117" width="20" height="14" rx="7"></rect>
                    <rect id="Rectangle" fill="#FFFFFF" fill-rule="nonzero" x="174" y="122" width="11" height="2"></rect>
                    <rect id="Rectangle" fill="#FFFFFF" fill-rule="nonzero" x="148" y="121" width="9" height="3"></rect>
                    <rect id="Rectangle" fill="#FFFFFF" fill-rule="nonzero" x="202" y="122" width="10" height="2"></rect>
                    <path d="M154.242402,145.350849 C154.116976,147.88406 154.288831,150.423406 154.754354,152.915516 C156.010963,158.419951 160.184149,162.972906 165.133019,165.55999 C166.612792,166.235844 168.050483,167.002649 169.438071,167.856126 C170.849818,168.839061 172.021102,170.160126 173.440606,171.14306 C176.923076,173.484692 181.41416,173.621825 185.02934,171.496917 C186.107542,170.844248 187.177987,169.963539 188.434597,170.026446 C189.396447,170.026446 190.234186,170.663388 191.141738,170.977927 C193.212817,171.693504 195.477817,170.91502 197.463571,169.979266 C199.449324,169.043512 201.287698,167.926898 202.117681,166.008209 C202.668417,164.765779 202.691688,163.358216 202.955421,162.021425 C203.62251,158.592948 205.802185,155.683461 207.14412,152.459434 C209.936586,145.783341 209.005764,138.179356 208.028401,131 L204.801551,136.417937 C203.715592,138.242264 202.474496,140.184544 200.504256,140.907984 C197.905711,141.843738 195.144273,140.318223 192.631053,139.146564 C184.612838,135.481049 175.477007,135.240162 167.281667,138.478169 C165.606187,139.154428 163.829868,139.987957 162.069063,139.563329 C159.974714,139.060066 156.910758,133.476996 155.258549,133.964532 C153.241768,134.577883 154.257915,143.636611 154.242402,145.350849 Z" id="Path" fill="#8D5A38" fill-rule="nonzero"></path>
                    <path d="M174.644831,181.506602 C195.812964,178.479739 218.302152,189.246273 229.277063,207.658378 C232.935367,213.806201 235.38987,220.651929 239.439018,226.556663 C243.714856,232.829952 249.600973,237.762326 254.517795,243.518069 C258.485715,248.170634 261.811665,253.337545 264.406159,258.879787 C266.751226,263.929785 268.416223,270.234441 265.266017,274.837468 C262.373768,279.071938 256.66744,280.091348 251.547378,280.475587 C241.385423,281.259748 231.137483,281 220.928627,280.742201 L120.622316,278.25641 C116.151056,278.146628 111.57036,278.01332 107.419592,276.343057 C103.268824,274.672794 99.6027036,271.097019 99.0711552,266.642983 C98.2894663,260.118762 104.113048,255.006031 108.451421,250.073657 C121.060062,235.676457 123.881959,214.731512 136.029403,199.942231 C145.251377,188.868695 158.80948,182.354298 173.19089,182.086881" id="Path" fill="#73B3FF" fill-rule="nonzero"></path>
                    <path d="M174.644831,181.506602 C195.812964,178.479739 218.302152,189.246273 229.277063,207.658378 C232.935367,213.806201 235.38987,220.651929 239.439018,226.556663 C243.714856,232.829952 249.600973,237.762326 254.517795,243.518069 C258.485715,248.170634 261.811665,253.337545 264.406159,258.879787 C266.751226,263.929785 268.416223,270.234441 265.266017,274.837468 C262.373768,279.071938 256.66744,280.091348 251.547378,280.475587 C241.385423,281.259748 231.137483,281 220.928627,280.742201 L120.622316,278.25641 C116.151056,278.146628 111.57036,278.01332 107.419592,276.343057 C103.268824,274.672794 99.6027036,271.097019 99.0711552,266.642983 C98.2894663,260.118762 104.113048,255.006031 108.451421,250.073657 C121.060062,235.676457 123.881959,214.731512 136.029403,199.942231 C145.251377,188.868695 158.80948,182.354298 173.19089,182.086881" id="Path" fill="url(#linearGradient-3)" fill-rule="nonzero"></path>
                    <rect id="Rectangle" fill="#3F97FF" fill-rule="nonzero" x="139" y="273" width="91" height="6"></rect>
                    <rect id="Rectangle" fill="url(#linearGradient-4)" fill-rule="nonzero" x="139" y="273" width="91" height="6"></rect>
                    <rect id="Rectangle" fill="#3F97FF" fill-rule="nonzero" x="114" y="173" width="143" height="86" rx="20.61"></rect>
                    <rect id="Rectangle" fill="url(#linearGradient-5)" fill-rule="nonzero" x="114" y="176" width="143" height="86" rx="20.61"></rect>
                    <polygon id="Path" fill="url(#linearGradient-6)" fill-rule="nonzero" opacity="0.26" points="165 258.565891 180.168387 228 194.049333 228 196 259"></polygon>
                    <polygon id="Path" fill="#3385E6" fill-rule="nonzero" points="200 279 173 279 179.317829 227 193.108527 227"></polygon>
                    <polygon id="Path" fill="url(#linearGradient-7)" fill-rule="nonzero" points="202 279 175 279 181.319644 227 195.106548 227"></polygon>
                    <rect id="Rectangle" fill="#FFFFFF" fill-rule="nonzero" x="233" y="0" width="163" height="126" rx="24.45"></rect>
                    <path d="M97.7139659,156 L14.2860341,156 C6.39838858,155.987089 0.00862863537,149.615163 0,141.753838 L0,83.2461621 C0.00862863537,75.3848372 6.39838858,69.012911 14.2860341,69 L97.7139659,69 C105.601611,69.012911 111.991371,75.3848372 112,83.2461621 L112,141.753838 C111.991371,149.615163 105.601611,155.987089 97.7139659,156 L97.7139659,156 Z M14.2860341,72.0851064 C8.10488994,72.0937105 3.09623435,77.0856487 3.08760146,83.2461621 L3.08760146,141.753838 C3.09623435,147.914351 8.10488994,152.90629 14.2860341,152.914894 L97.7139659,152.914894 C103.89511,152.90629 108.903766,147.914351 108.912399,141.753838 L108.912399,83.2461621 C108.903766,77.0856487 103.89511,72.0937105 97.7139659,72.0851064 L14.2860341,72.0851064 Z" id="Shape" fill="#73B3FF" fill-rule="nonzero" opacity="0.63"></path>
                    <rect id="Rectangle" fill="#FFFFFF" fill-rule="nonzero" x="2" y="69" width="108" height="84" rx="16.26"></rect>
                    <rect id="Rectangle" fill="#FFFFFF" fill-rule="nonzero" x="98" y="3" width="66" height="51" rx="9.91"></rect>
                    <polygon id="Path" fill="#0D4485" fill-rule="nonzero" points="106 29.5410707 123 21 123 23.4691459 108.687558 30.4572946 108.687558 30.5349407 123 37.5230895 123 40 106 31.4589293"></polygon>
                    <polygon id="Path" fill="#0D4485" fill-rule="nonzero" points="125 41 134.651032 15 137 15 127.318949 41"></polygon>
                    <polygon id="Path" fill="#0D4485" fill-rule="nonzero" points="157 31.5144133 140 40 140 37.500609 154.445225 30.5578563 154.445225 30.4421437 140 23.499391 140 21 157 29.4855867"></polygon>
                    <path d="M163.87988,262.32123 C160.301712,261.625479 156.614169,262.26073 152.94225,262.366605 C149.442209,262.464918 145.910917,262.064105 142.449938,262.366605 C138.98896,262.669105 135.363917,263.879106 133.129516,266.457921 C131.689926,268.139515 130.934257,270.2721 131.00449,272.454988 C131,273.270774 131.215701,274.073549 131.629498,274.78424 C132.582634,276.258929 134.567033,276.705117 136.317053,276.954679 C136.676345,277.015107 137.043712,277.015107 137.403004,276.954679 C138.692081,276.682429 139.145212,275.079178 140.262413,274.413677 C141.020279,274.053601 141.869056,273.911855 142.707754,274.005302 C151.864113,274.186802 161.023075,274.15151 170.184642,273.899427 C170.813725,273.933961 171.441216,273.80883 172.004976,273.536427 C174.505006,272.023925 171.614346,268.635923 170.715898,267.017546 C169.269088,264.548583 166.765086,262.828344 163.87988,262.32123 L163.87988,262.32123 Z" id="Path" fill="url(#linearGradient-8)" fill-rule="nonzero"></path>
                    <path d="M202.268577,267.271211 C201.001678,269.016274 200.309211,271.787844 202.016771,273.098616 C203.551214,274.283047 205.80173,273.303917 207.233877,272.001042 C208.666024,270.698167 209.972268,269.008378 211.876551,268.637256 C212.159833,270.29546 212.537542,272.111589 213.891,273.098616 C215.944793,274.598896 218.777611,273.303917 221.311409,273.327606 C223.593401,273.327606 226.19802,274.409387 227.960662,272.948588 C228.873459,272.158966 229.912159,270.761337 230.856432,271.487788 C231.130654,271.749359 231.31988,272.087844 231.399389,272.459022 C232.266465,275.127295 233.540634,277.644509 235.176479,279.920943 C236.325345,280.371027 237.190928,278.807577 237.411258,277.552079 C238.024378,274.129003 238.159448,270.636922 237.812574,267.176457 C237.623719,265.249781 237.214535,263.228351 235.845339,261.838617 C234.05909,260.046177 231.234141,259.967215 228.708212,260.006696 L218.573018,260.156724 C212.545411,260.275167 206.022061,262.122881 202.268577,267.271211 Z" id="Path" fill="url(#linearGradient-9)" fill-rule="nonzero"></path>
                    <path d="M196.999604,204.016203 C196.990954,209.534671 192.513244,214.002882 186.994583,214 C181.475923,213.997115 177.002885,209.524228 177,204.005754 C176.997118,198.48728 181.46548,194.009721 186.984134,194.001071 C187.510517,193.991664 188.036178,194.044229 188.550275,194.15768 C188.683593,198.941062 192.227683,202.940402 196.96045,203.648172 C196.989356,203.768641 197.002517,203.892349 196.999604,204.016203 Z" id="Path" fill="#3F97FF" fill-rule="nonzero" opacity="0.59"></path>
                    <g id="Group" opacity="0.52" transform="translate(253.000000, 16.000000)" fill="#73B3FF" fill-rule="nonzero">
                        <rect id="Rectangle" x="0.74797546" y="0.313793103" width="41.606135" height="3.07517241"></rect>
                        <rect id="Rectangle" x="0.74797546" y="6.26017241" width="25.3922086" height="2.88689655"></rect>
                        <rect id="Rectangle" x="36.3858896" y="6.26017241" width="79.9087117" height="2.90258621"></rect>
                        <rect id="Rectangle" x="13.9544172" y="12.2143966" width="34.9211043" height="3.0437931"></rect>
                        <rect id="Rectangle" x="25.1662577" y="18.1607759" width="41.606135" height="3.07517241"></rect>
                        <rect id="Rectangle" x="69.4838037" y="18.1607759" width="34.8743558" height="3.4125"></rect>
                        <rect id="Rectangle" x="25.1039264" y="24.1071552" width="32.1239877" height="2.88689655"></rect>
                        <rect id="Rectangle" x="60.3133129" y="24.1071552" width="66.2893252" height="3.19284483"></rect>
                        <rect id="Rectangle" x="0.74797546" y="32.1481034" width="41.606135" height="3.07517241"></rect>
                        <rect id="Rectangle" x="0.74797546" y="38.0944828" width="25.3922086" height="2.88689655"></rect>
                        <rect id="Rectangle" x="36.3858896" y="38.0944828" width="79.9087117" height="2.90258621"></rect>
                        <rect id="Rectangle" x="13.9544172" y="44.0408621" width="34.9211043" height="3.0437931"></rect>
                        <rect id="Rectangle" x="25.1662577" y="49.9950862" width="41.606135" height="3.07517241"></rect>
                        <rect id="Rectangle" x="69.4838037" y="49.9950862" width="34.8743558" height="3.4125"></rect>
                        <rect id="Rectangle" x="25.1039264" y="55.9414655" width="32.1239877" height="2.88689655"></rect>
                        <rect id="Rectangle" x="60.3133129" y="55.9414655" width="66.2893252" height="3.19284483"></rect>
                        <rect id="Rectangle" x="0.74797546" y="63.9902586" width="41.606135" height="3.07517241"></rect>
                        <rect id="Rectangle" x="0.74797546" y="69.9287931" width="25.3922086" height="2.88689655"></rect>
                        <rect id="Rectangle" x="36.3858896" y="69.9287931" width="79.9087117" height="2.90258621"></rect>
                        <rect id="Rectangle" x="13.9544172" y="75.8751724" width="34.9211043" height="3.0437931"></rect>
                        <rect id="Rectangle" x="25.1662577" y="81.8215517" width="41.606135" height="3.07517241"></rect>
                        <rect id="Rectangle" x="69.4838037" y="81.8215517" width="34.8743558" height="3.4125"></rect>
                        <rect id="Rectangle" x="25.1039264" y="87.7836207" width="32.1239877" height="2.88689655"></rect>
                        <rect id="Rectangle" x="60.3133129" y="87.7836207" width="66.2893252" height="3.19284483"></rect>
                    </g>
                    <g id="Group" opacity="0.52" transform="translate(14.000000, 81.000000)" fill="#3F97FF" fill-rule="nonzero">
                        <rect id="Rectangle" x="0.399339623" y="0.724675325" width="27.1629245" height="1.97922078"></rect>
                        <rect id="Rectangle" x="0.399339623" y="4.55844156" width="16.5843396" height="1.86233766"></rect>
                        <rect id="Rectangle" x="23.6706604" y="4.55844156" width="52.1725472" height="1.87012987"></rect>
                        <rect id="Rectangle" x="9.02037736" y="8.40779221" width="22.8015094" height="1.96363636"></rect>
                        <rect id="Rectangle" x="16.3416038" y="12.2415584" width="27.1629245" height="1.97922078"></rect>
                        <rect id="Rectangle" x="45.2741509" y="12.2415584" width="22.7701887" height="2.20519481"></rect>
                        <rect id="Rectangle" x="16.3024528" y="16.0831169" width="20.9770755" height="1.86233766"></rect>
                        <rect id="Rectangle" x="39.2840566" y="16.0831169" width="43.285283" height="2.06493506"></rect>
                        <rect id="Rectangle" x="0.399339623" y="21.2727273" width="27.1629245" height="1.97922078"></rect>
                        <rect id="Rectangle" x="0.399339623" y="25.1064935" width="16.5843396" height="1.86233766"></rect>
                        <rect id="Rectangle" x="23.6706604" y="25.1064935" width="52.1725472" height="1.87012987"></rect>
                        <rect id="Rectangle" x="9.02037736" y="28.9480519" width="22.8015094" height="1.96363636"></rect>
                        <rect id="Rectangle" x="16.3416038" y="32.7896104" width="27.1629245" height="1.97922078"></rect>
                        <rect id="Rectangle" x="45.2741509" y="32.7896104" width="22.7701887" height="2.20519481"></rect>
                        <rect id="Rectangle" x="16.3024528" y="36.6233766" width="20.9770755" height="1.86233766"></rect>
                        <rect id="Rectangle" x="39.2840566" y="36.6233766" width="43.285283" height="2.06493506"></rect>
                        <rect id="Rectangle" x="0.399339623" y="41.8207792" width="27.1629245" height="1.97922078"></rect>
                        <rect id="Rectangle" x="0.399339623" y="45.6545455" width="16.5843396" height="1.86233766"></rect>
                        <rect id="Rectangle" x="23.6706604" y="45.6545455" width="52.1725472" height="1.87012987"></rect>
                        <rect id="Rectangle" x="9.02037736" y="49.4883117" width="22.8015094" height="1.96363636"></rect>
                        <rect id="Rectangle" x="16.3416038" y="53.3298701" width="27.1629245" height="1.97922078"></rect>
                        <rect id="Rectangle" x="45.2741509" y="53.3298701" width="22.7701887" height="2.20519481"></rect>
                        <rect id="Rectangle" x="16.3024528" y="57.1714286" width="20.9770755" height="1.86233766"></rect>
                        <rect id="Rectangle" x="39.2840566" y="57.1714286" width="43.285283" height="2.06493506"></rect>
                    </g>
                    <g id="P2hkdg" opacity="0.61" transform="translate(264.000000, 176.000000)" fill="#73B3FF" fill-rule="nonzero">
                        <path d="M0.0388235294,20.1460759 C0.287294118,18.8040506 0.551294118,17.4620253 0.815294118,16.12 C0.955058824,15.3351899 1.08705882,14.6053165 1.23458824,13.7655696 C2.47694118,13.9774684 3.68823529,14.1736709 4.89176471,14.4091139 C5.05316552,14.4708701 5.23270995,14.461976 5.38736253,14.3845636 C5.5420151,14.3071511 5.6578342,14.1681989 5.70705882,14.0010127 C6.25058824,12.9336709 6.85623529,11.8977215 7.49294118,10.8617722 C7.60589474,10.7401991 7.66411792,10.5768491 7.6538253,10.4103985 C7.64353267,10.2439478 7.56563944,10.0891965 7.43858824,9.98278481 C6.66211765,9.04886076 5.88564706,8.0835443 5.02376471,7.08683544 L10.2261176,2.66835443 C11.0025882,3.63367089 11.8256471,4.56759494 12.5943529,5.53291139 C12.684029,5.69704418 12.8386095,5.81481677 13.0194132,5.85675837 C13.2002168,5.89869997 13.3901363,5.86084214 13.5416471,5.75265823 C14.5863319,5.28687985 15.6601758,4.89100552 16.7562353,4.56759494 C17.2609412,4.41848101 17.3774118,4.21443038 17.3696471,3.7356962 C17.3696471,2.53493671 17.3696471,1.33417722 17.3696471,0.0863291139 L24.156,0.0863291139 C24.156,1.31848101 24.156,2.53493671 24.156,3.75139241 C24.156,4.23797468 24.2802353,4.41848101 24.7694118,4.53620253 C25.8644742,4.86578831 26.9380948,5.26420147 27.984,5.72911392 C28.1362481,5.83587063 28.3265929,5.87122619 28.506446,5.82615558 C28.6862991,5.78108498 28.8382567,5.65994954 28.9235294,5.49367089 C29.7,4.54405063 30.4764706,3.61797468 31.2917647,2.63696203 L36.4863529,7.04759494 L33.8230588,10.2731646 C34.5451765,11.6151899 35.2207059,12.9022785 35.9428235,14.1579747 C36.0204706,14.2992405 36.3621176,14.3698734 36.564,14.338481 C37.7752941,14.1501266 38.9865882,13.9225316 40.2755294,13.6949367 L41.4557647,20.4443038 C40.1901176,20.6718987 38.9632941,20.8837975 37.7442353,21.1270886 C37.5423529,21.1663291 37.2472941,21.3546835 37.2162353,21.5194937 C36.9755294,22.9478481 36.7814118,24.3840506 36.5562353,25.8987342 L40.1435294,28.0020253 L36.7503529,33.943038 L33.1397647,31.8475949 C31.9750588,32.7893671 30.8491765,33.6840506 29.7388235,34.6179747 C29.6154521,34.7842056 29.5779527,34.9999559 29.6378824,35.1987342 C30.0416471,36.4151899 30.4842353,37.6159494 30.9345882,38.8716456 L24.5597647,41.2260759 C24.1637647,40.1351899 23.7367059,39.0678481 23.4028235,37.9691139 C23.3697401,37.6994381 23.2220885,37.4576998 22.9983889,37.306965 C22.7746893,37.1562302 22.4971283,37.1114489 22.2381176,37.1843038 C21.1393538,37.2588472 20.0368815,37.2588472 18.9381176,37.1843038 C18.7882258,37.147285 18.6298449,37.1754529 18.5014582,37.2619634 C18.3730715,37.3484738 18.2864309,37.4854079 18.2625882,37.6394937 C17.8588235,38.8167089 17.424,39.9939241 16.9736471,41.2182278 L10.5910588,38.8637975 L12.0197647,34.876962 L8.42470588,31.8162025 L4.78305882,33.9351899 L1.38211765,27.9941772 C2.508,27.3349367 3.564,26.7070886 4.63552941,26.1027848 C4.78410332,26.0451531 4.90335003,25.9293127 4.96621458,25.7815459 C5.02907914,25.633779 5.03023206,25.466613 4.96941176,25.3179747 C4.72094118,24.2113924 4.51905882,23.0891139 4.37929412,21.9668354 C4.30941176,21.4174684 4.18517647,21.1820253 3.60282353,21.08 C2.42258824,20.9465823 1.27341176,20.6875949 0.0931764706,20.4756962 L0.0388235294,20.1460759 Z M20.8171765,11.9605063 C16.0299727,11.8875669 12.0897855,15.7491458 12.0143483,20.5877146 C11.9389111,25.4262835 15.7567615,29.4114286 20.5438621,29.490984 C25.3309627,29.5705394 29.2763702,25.7144094 29.3583529,20.8759494 C29.4147586,16.0384393 25.6026175,12.0592536 20.8171765,11.9605063 Z" id="Shape"></path>
                        <path d="M58.6468235,39.9939241 L60.1298824,44.7027848 C59.268,44.9931646 58.4371765,45.2443038 57.6374118,45.5503797 C57.4322464,45.6465671 57.2850328,45.8362075 57.2414118,46.0605063 C57.1715294,46.8924051 57.1948235,47.7243038 57.1327059,48.5562025 C57.0979343,48.6999439 57.1220042,48.8517851 57.1994663,48.977351 C57.2769283,49.1029169 57.4012316,49.1915884 57.5442353,49.2232911 C58.3207059,49.5136709 59.0971765,49.8589873 59.9357647,50.2043038 C59.3145882,51.7739241 58.7244706,53.2258228 58.1110588,54.7483544 C57.2647059,54.403038 56.4649412,54.0498734 55.6496471,53.7594937 C55.4321411,53.704279 55.2016172,53.756704 55.0284706,53.9007595 C54.3762353,54.5992405 53.7628235,55.3448101 53.0795294,56.1374684 L54.4694118,58.821519 L50.1832941,61.1288608 C49.7562353,60.3440506 49.368,59.5592405 48.9409412,58.7744304 C48.8270466,58.5956223 48.6380018,58.4798191 48.4284706,58.4605063 C47.4423529,58.5782278 46.4562353,58.7587342 45.4390588,58.9156962 L44.7945882,61.8744304 L40.0581176,60.8463291 L40.6715294,57.8875949 C39.7941176,57.3068354 38.9555294,56.7339241 38.0936471,56.2002532 C37.9079352,56.1429226 37.7063337,56.177854 37.5501176,56.2944304 C36.8512941,56.8124051 36.1757647,57.3617722 35.4458824,57.9346835 L32.4564706,54.0655696 C33.1708235,53.5005063 33.8230588,52.9668354 34.4985882,52.4567089 C34.6306869,52.3947945 34.7310674,52.2797577 34.7753388,52.1395507 C34.8196102,51.9993437 34.8037201,51.8468007 34.7315294,51.7189873 C34.4296371,50.9627048 34.1703978,50.1897352 33.9550588,49.4037975 C33.9437688,49.255881 33.8720704,49.11939 33.757168,49.0270764 C33.6422655,48.9347628 33.4945301,48.8949586 33.3494118,48.9172152 C32.5030588,48.9172152 31.6644706,48.9172152 30.8957647,48.9172152 L30.8957647,43.9729114 L33.9550588,43.9729114 C34.3432941,43.0468354 34.7315294,42.1207595 35.1275294,41.1711392 C35.1818824,41.0298734 35.0343529,40.7394937 34.9023529,40.6060759 C34.2967059,40.0096203 33.6522353,39.4524051 32.9844706,38.8402532 L36.2301176,35.1908861 L38.4663529,37.2078481 C39.4136471,36.7212658 40.3376471,36.2660759 41.2461176,35.7637975 C41.3548235,35.7010127 41.4014118,35.4027848 41.3858824,35.2301266 C41.2927059,34.3825316 41.1607059,33.5349367 41.0364706,32.6167089 L45.8428235,31.9417722 C45.9670588,32.8129114 46.0912941,33.6134177 46.1767059,34.4217722 C46.2232941,34.876962 46.4096471,35.0653165 46.8832941,35.1202532 C47.5946623,35.2240795 48.2978412,35.3788143 48.9875294,35.5832911 C49.1358665,35.6595994 49.3089609,35.6699543 49.4651681,35.6118646 C49.6213752,35.5537749 49.7465542,35.4324992 49.8105882,35.2772152 C50.2221176,34.5473418 50.6802353,33.8567089 51.1616471,33.0875949 L55.2691765,35.6931646 L53.7162353,38.2594937 C54.3296471,39.0992405 54.9275294,39.9311392 55.5564706,40.7237975 C55.7349651,40.835616 55.9506586,40.8695916 56.1543529,40.8179747 C56.9774118,40.5746835 57.8004706,40.3 58.6468235,39.9939241 Z M45.6021176,53.1394937 C48.1169015,53.1008598 50.360467,51.5333264 51.2847788,49.1691345 C52.2090906,46.8049426 51.6317188,44.110709 49.8223707,42.3449894 C48.0130226,40.5792697 45.3288063,40.0905613 43.0235982,41.1071542 C40.7183901,42.1237471 39.2471655,44.4449979 39.2971765,46.9865823 C39.3524927,50.4511754 42.174286,53.2154647 45.6021176,53.163038 L45.6021176,53.1394937 Z" id="Shape"></path>
                        <path d="M59.7261176,13.4202532 L61.5974118,11.936962 L63.9734118,14.9741772 C63.5152941,15.343038 63.1115294,15.7589873 62.6534118,16.0258228 C62.1952941,16.2926582 62.0244706,16.661519 62.3350588,17.1716456 C62.4397943,17.3585364 62.5181983,17.5592932 62.568,17.7681013 C62.9717647,19.0081013 62.9717647,19.0081013 64.2917647,19.063038 C64.6101176,19.063038 64.9284706,19.063038 65.2312941,19.063038 L65.2312941,22.9007595 C64.5169412,22.9007595 63.8802353,22.9007595 63.2512941,22.9007595 C62.8863529,22.9007595 62.7077647,22.9870886 62.6301176,23.3481013 C62.5639764,23.6415591 62.4703787,23.9279958 62.3505882,24.2035443 C61.8691765,25.42 61.8614118,25.42 62.8552941,26.3068354 L63.6317647,26.9896203 L61.0849412,29.8855696 L59.2990588,28.3159494 C58.6002353,28.6848101 57.9014118,29.0301266 57.2258824,29.4225316 C57.0894015,29.5549761 57.0182677,29.7419105 57.0317647,29.9326582 C57.0938824,30.5918987 57.2025882,31.2432911 57.2957647,31.9574684 L53.5143529,32.5146835 C53.4134118,31.8162025 53.3357647,31.156962 53.196,30.5212658 C53.1311279,30.3046541 52.9705088,30.1307139 52.7611765,30.0503797 C52.0623529,29.8698734 51.3557647,29.7521519 50.5715294,29.5951899 L49.3058824,31.6356962 L46.0524706,29.603038 C46.4018824,29.0222785 46.7202353,28.4650633 47.0696471,27.9313924 C47.183606,27.8283837 47.2433642,27.6774477 47.2311725,27.5234151 C47.2189809,27.3693825 47.1362415,27.2299688 47.0075294,27.1465823 C46.7369806,26.8728609 46.4901914,26.5761588 46.2698824,26.2597468 C45.672,25.42 45.6797647,25.42 44.6781176,25.7496203 C44.2821176,25.8908861 43.9016471,26.0164557 43.3891765,26.1734177 L42.1856471,22.5083544 C42.8145882,22.2964557 43.3969412,22.0767089 44.0025882,21.9040506 C44.1581931,21.8835882 44.2981264,21.7979707 44.3882111,21.6681093 C44.4782958,21.538248 44.5102377,21.3760991 44.4762353,21.2212658 C44.4542676,20.6658776 44.475036,20.1096037 44.5383529,19.5574684 C44.5754219,19.4135928 44.5523355,19.2606412 44.4745078,19.1344826 C44.3966801,19.008324 44.2709575,18.9200564 44.1268235,18.8903797 C43.5289412,18.678481 42.9465882,18.4273418 42.3176471,18.1683544 L43.7308235,14.5739241 C44.3830588,14.8329114 44.9887059,15.0997468 45.6098824,15.3037975 C45.812765,15.3553364 46.0278248,15.3089642 46.1922353,15.1782278 C46.7047059,14.6367089 47.1705882,14.0559494 47.6908235,13.4516456 L46.5882353,11.3326582 L49.9503529,9.49620253 L51.0995294,11.6073418 L53.7084706,11.2149367 L54.2054118,8.86050633 L57.948,9.64531646 C57.816,10.304557 57.6995294,10.924557 57.5597647,11.544557 C57.4917235,11.6924411 57.4892656,11.8626262 57.5530072,12.0124546 C57.6167489,12.1622831 57.7406474,12.2775514 57.8936471,12.3293671 C58.5070588,12.6275949 59.0894118,13.0278481 59.7261176,13.4202532 Z M48.8555065,20.6718987 C48.847394,23.3845891 51.009615,25.5939686 53.6934092,25.6152937 C56.3772034,25.6366188 58.5735238,23.4618718 58.6075849,20.7493874 C58.641646,18.0369031 56.5006417,15.8065153 53.8171765,15.7589873 C52.5094805,15.7249461 51.2440553,16.2285158 50.3103286,17.1545202 C49.3766019,18.0805245 48.8544481,19.3497497 48.8632941,20.6718987 L48.8555065,20.6718987 Z" id="Shape"></path>
                    </g>
                </g>
            </g>
        </g>
    </g>
</svg>