<?xml version="1.0" encoding="UTF-8" standalone="no"?> <svg id="Layer_1" data-name="Layer 1" xmlns="http://www.w3.org/2000/svg" viewBox="0 0 24 24"><title>clip, document, attachment, paperclip, attach</title><path d="M12.76,19.94A5.49,5.49,0,0,1,5,12.18l8.76-8.75A3.72,3.72,0,0,1,20.1,6.06,3.68,3.68,0,0,1,19,8.68L10.67,17A1.36,1.36,0,0,1,8.75,15.1l8.34-8.34L15.67,5.35,7.33,13.69a3.36,3.36,0,0,0,4.75,4.75l8.35-8.34A5.72,5.72,0,0,0,12.34,2L3.58,10.77A7.49,7.49,0,0,0,14.17,21.36l7.92-7.93L20.68,12Z"/></svg>