<?xml version="1.0" encoding="UTF-8" standalone="no"?>
<svg
   xmlns:dc="http://purl.org/dc/elements/1.1/"
   xmlns:cc="http://creativecommons.org/ns#"
   xmlns:rdf="http://www.w3.org/1999/02/22-rdf-syntax-ns#"
   xmlns:svg="http://www.w3.org/2000/svg"
   xmlns="http://www.w3.org/2000/svg"
   viewBox="0 0 496.06846 369.9438"
   version="1.1"
   id="svg21"
   width="496.06845"
   height="369.94379">
  <defs
     id="defs4">
    <style
       id="style2">.cls-1{fill:#5e98e5;}.cls-2{fill:#fbb630;}.cls-3{fill:#1a4373;}</style>
  </defs>
  <title
     id="title6">SpacedLogoSVG</title>
  <path
     class="cls-3"
     d="m 458.71844,0.52790978 a 1073.86,1073.86 0 0 0 -116.61,2.68000002 c -21.41,1.65 -42.73,4.15 -64,6.77 -26.75,3.3000002 -53.37,7.3300002 -79.69,13.1400002 -31.24,6.9 -61.72,16.18 -90.94,29.35 -39.760002,17.92 -75.460002,41.79 -106.3800018,72.67 -1.58999995,1.59 -1.43999995,2.18 0.36,3.32 a 259.38,259.38 0 0 0 66.4499998,30.36 c 4.35,1.28 8.64,2.91 13.24,3.25 l -1.67,-2.05 a 401.45,401.45 0 0 1 -27.53,-30 c -1,-1.23 -1,-1.71 0.43,-2.54 6.51,-3.86 13,-7.7 19.68,-11.29 a 349.45,349.45 0 0 1 91.190002,-34 361.15,361.15 0 0 1 38.67,-6.64 c 1.82,-0.2 3.62,-0.37 3.62,-0.37 0,0 0,1.72 0,3.52 v 105 c 0,46.66 -1.13,96.91 -1.13,143.57 -10,9.31 -20.19,18.39 -31,26.75 -6.76,5.23 -13.64,10.33 -20.46,15.48 l -0.7,0.43 a 3.13,3.13 0 0 0 1,-0.06 c 0.72,-0.21 1.44,-0.41 2.15,-0.64 32.69,-10.47 68.19,-26.84 100.18,-39.3 -0.08,-44.66 0,-89.32 -0.12,-134 l -0.05,-3.11 c 3.9,0.31 10.91,0.6 14.83,0.75 21.46,0.83 42.9,2 64.08,5.88 h 0.33 v 0 l 1.58,0.27 v -1.71 c 0,0 0,-0.07 0,-0.11 0,-0.85 0,-1.71 0,-2.56 v -30.11 c 0,-0.52 0,-1 0,-1.57 0,-0.16 0,-0.3 0,-0.44 v -1.31 l -1.23,-0.24 h -0.09 l -0.21,-0.05 -1,-0.17 -1,-0.18 v 0 c -7.46,-1.32 -14.95,-2.39 -22.48,-3.13 -17.5,-1.72 -37.13,-2.55 -54.7,-3 0.05,-27 0,-56.15 0,-83.05 26.39,-0.15 54.74,1.68 80.59,7.4 l 1.71,-1 c 4.51,-2.5 9,-5 13.62,-7.32 45.87,-23.49 92.81,-44.53 139.48,-66.2600002 l 5.15,-2.42 a 25.89,25.89 0 0 0 -3.78,-0.47 c -11.22,-0.54 -22.37,-1.11000002 -33.57,-1.49000002 z"
     id="path16"
     style="fill:#3385e6;fill-opacity:1" />
  <path
     class="cls-3"
     d="M 81.108438,162.08791 Z"
     id="path18" />
  <metadata
     id="metadata985">
    <rdf:RDF>
      <cc:Work
         rdf:about="">
        <dc:title>SpacedLogoSVG</dc:title>
      </cc:Work>
    </rdf:RDF>
  </metadata>
</svg>
