<?xml version="1.0" encoding="UTF-8" standalone="no"?>
<svg
   xmlns:dc="http://purl.org/dc/elements/1.1/"
   xmlns:cc="http://creativecommons.org/ns#"
   xmlns:rdf="http://www.w3.org/1999/02/22-rdf-syntax-ns#"
   xmlns:svg="http://www.w3.org/2000/svg"
   xmlns="http://www.w3.org/2000/svg"
   xmlns:sodipodi="http://sodipodi.sourceforge.net/DTD/sodipodi-0.dtd"
   xmlns:inkscape="http://www.inkscape.org/namespaces/inkscape"
   width="119.21339mm"
   height="119.2134mm"
   viewBox="0 0 119.21339 119.2134"
   version="1.1"
   id="svg904"
   inkscape:version="1.0 (4035a4fb49, 2020-05-01)"
   sodipodi:docname="icon.svg">
  <style
     id="style2008" />
  <defs
     id="defs898" />
  <sodipodi:namedview
     fit-margin-bottom="0"
     fit-margin-right="0"
     fit-margin-left="0"
     fit-margin-top="0"
     id="base"
     pagecolor="#ffffff"
     bordercolor="#666666"
     borderopacity="1.0"
     inkscape:pageopacity="0.0"
     inkscape:pageshadow="2"
     inkscape:zoom="0.43122682"
     inkscape:cx="-692.73381"
     inkscape:cy="404.63444"
     inkscape:document-units="mm"
     inkscape:current-layer="g1981"
     inkscape:document-rotation="0"
     showgrid="false"
     inkscape:window-width="1920"
     inkscape:window-height="1080"
     inkscape:window-x="0"
     inkscape:window-y="0"
     inkscape:window-maximized="0" />
  <metadata
     id="metadata901">
    <rdf:RDF>
      <cc:Work
         rdf:about="">
        <dc:format>image/svg+xml</dc:format>
        <dc:type
           rdf:resource="http://purl.org/dc/dcmitype/StillImage" />
        <dc:title></dc:title>
      </cc:Work>
    </rdf:RDF>
  </metadata>
  <g
     transform="translate(-45.393306,-88.893302)"
     inkscape:label="Layer 1"
     inkscape:groupmode="layer"
     id="layer1">
    <g
       id="g1981">
      <rect
         style="opacity:1;fill:none;stroke:#000000;stroke-width:0;stroke-miterlimit:4;stroke-dasharray:none"
         id="rect2006"
         width="119.21339"
         height="119.2134"
         x="45.393307"
         y="88.893303"
         inkscape:export-xdpi="130.23"
         inkscape:export-ydpi="130.23" />
      <g
         style="fill:#000000"
         transform="matrix(0.26458333,0,0,0.26458333,-8.7311196,86.290803)"
         id="XMLID_55_"
         inkscape:export-xdpi="130.23"
         inkscape:export-ydpi="130.23">
        <path
           d="m 351.1,312.3 c -0.5,0 -1,0.3 -1.3,0.7 l -4.6,6.6 c -0.7,1 0,2.5 1.3,2.5 h 3.2 c 0.5,0 1,-0.3 1.3,-0.7 l 4.6,-6.6 c 0.7,-1 0,-2.5 -1.3,-2.5 z m 14.3,0 c -0.5,0 -1,0.3 -1.3,0.7 l -4.6,6.6 c -0.7,1 0,2.5 1.3,2.5 h 3.2 c 0.5,0 1,-0.3 1.3,-0.7 l 4.6,-6.6 c 0.7,-1 0,-2.5 -1.3,-2.5 z m 14.4,0 c -0.5,0 -1,0.3 -1.3,0.7 l -4.6,6.6 c -0.7,1 0,2.5 1.3,2.5 h 3.2 c 0.5,0 1,-0.3 1.3,-0.7 l 4.6,-6.6 c 0.7,-1 0,-2.5 -1.3,-2.5 z m 14.3,0 c -0.5,0 -1,0.3 -1.3,0.7 l -4.6,6.6 c -0.7,1 0,2.5 1.3,2.5 h 3.2 c 0.5,0 1,-0.3 1.3,-0.7 l 4.6,-6.6 c 0.7,-1 0,-2.5 -1.3,-2.5 z M 496.5,198.4 c -0.7,-0.7 -1.5,-1.4 -2.1,-2.1 l -6.6,6.6 v 17.5 l 15.5,-15.5 c -2.2,-2.2 -4.5,-4.4 -6.8,-6.5 z m -21.8,77 v -17.5 l -31.5,31.5 v 17.5 z m -42.8,42.8 8.8,-8.8 v -17.5 l -8.8,8.8 z m -15.3,-54.6 c 0.2,0 0.5,-0.1 0.6,-0.3 l 37,-37 c 0.2,-0.2 0.3,-0.4 0.3,-0.6 v -29.3 c 0,-0.2 -0.1,-0.5 -0.3,-0.6 l -6.7,-6.7 31.3,-31.3 c 0,-0.2 0,-0.5 0,-0.7 0,-0.4 0,-0.7 0,-1.1 0,-0.2 0,-0.5 0,-0.7 l -33.2,33.3 c -0.3,0.3 -0.3,0.9 0,1.2 l 7.1,7.1 v 28.6 l -18.8,18.8 h -75 c -0.2,0 -0.4,0.1 -0.6,0.3 l -31.2,31.2 v 0.7 c 0,0.4 0,0.7 0,1.1 v 0 c 0,0.2 0,0.5 0,0.7 l 32.1,-32.1 h 72.9 l -15.9,15.9 h -60 c -0.2,0 -0.5,0.1 -0.6,0.3 L 328,290 c 0,0.2 0,0.4 0.1,0.6 0,0.3 0.1,0.6 0.1,0.9 0,0.2 0.1,0.4 0.1,0.6 l 28.3,-28.3 h 60 z m 25.9,-151.2 -31.8,31.8 c -0.3,0.3 -0.3,0.8 0,1.1 0.1,0.1 0.3,0.2 0.5,0.2 0.2,0 0.4,-0.1 0.5,-0.2 l 30.8,-30.8 c 0,-0.2 0,-0.4 0,-0.7 0,-0.2 0,-0.4 0,-0.7 0,-0.2 0,-0.5 0,-0.7 z m 46.7,117.3 v 48.1 l -54.3,54.3 c -0.4,0.4 -0.6,1.1 -0.3,1.6 0.2,0.6 0.8,0.9 1.4,0.9 h 24.5 c 0.4,0 0.8,-0.2 1.1,-0.4 l 70.1,-70.1 c 0,-0.2 0,-0.4 -0.1,-0.6 0,-0.2 -0.1,-0.4 -0.1,-0.6 -0.1,-0.4 -0.1,-0.8 -0.2,-1.2 0,-0.2 -0.1,-0.4 -0.1,-0.6 0,-0.2 -0.1,-0.4 -0.1,-0.6 l -71.3,71.3 h -20.3 l 52.2,-52.2 c 0.3,-0.3 0.4,-0.7 0.4,-1.1 v -48.1 l 17.7,-17.7 c -0.1,-0.1 -0.2,-0.3 -0.3,-0.4 -0.1,-0.1 -0.2,-0.3 -0.3,-0.4 -0.2,-0.3 -0.4,-0.5 -0.6,-0.8 -0.1,-0.1 -0.2,-0.3 -0.3,-0.4 -0.1,-0.1 -0.2,-0.3 -0.3,-0.4 l -18.4,18.4 c -0.3,0.2 -0.4,0.6 -0.4,1 z m -64.8,59 c 0.4,0 0.8,-0.2 1.1,-0.4 l 42.8,-42.8 c 0.3,-0.3 0.4,-0.7 0.4,-1.1 v -51 l 14.2,-14.2 c -0.1,-0.2 -0.1,-0.3 -0.2,-0.5 -0.1,-0.2 -0.1,-0.3 -0.2,-0.5 -0.1,-0.3 -0.3,-0.7 -0.4,-1 -0.1,-0.2 -0.1,-0.3 -0.2,-0.5 -0.1,-0.2 -0.1,-0.3 -0.2,-0.5 l -15.6,15.6 c -0.3,0.3 -0.4,0.7 -0.4,1.1 v 51 l -42,41.9 h -67.5 c -0.4,0 -0.8,0.2 -1.1,0.4 L 332.3,309 c 0.1,0.2 0.1,0.3 0.2,0.5 0,0.2 0.1,0.4 0.2,0.5 0.1,0.4 0.2,0.7 0.4,1.1 0.1,0.2 0.1,0.3 0.2,0.5 0.1,0.2 0.1,0.4 0.2,0.5 l 23.4,-23.4 z m 3.9,74.9 -6.8,-6.8 6.9,-6.9 h 31.2 c 0.1,0 0.1,0 0.2,-0.1 l 72.6,-72.6 c 0,-0.2 0,-0.5 0,-0.7 l -72.9,72.9 h -31.2 c -0.1,0 -0.1,0 -0.2,0.1 l -7,7 -25,-25 c -0.3,-0.3 -0.7,-0.4 -1.1,-0.4 h -52.7 c 0.1,0.2 0.2,0.3 0.3,0.5 0.1,0.2 0.2,0.3 0.3,0.5 0.2,0.3 0.4,0.7 0.6,1 0.1,0.2 0.2,0.3 0.3,0.5 0.1,0.2 0.2,0.3 0.3,0.5 h 50.3 l 24.6,24.6 -13.7,13.7 -21.5,-21.5 c -0.1,0 -0.1,-0.1 -0.2,-0.1 h -26.2 c 0.2,0.2 0.3,0.3 0.5,0.5 h 25.6 l 21.6,21.6 c 0.1,0.1 0.3,0.1 0.3,0 l 13.9,-13.9 7.2,7.2 c 0.3,0.3 0.7,0.4 1.1,0.4 h 37.9 c 0.4,0 0.8,-0.2 1.1,-0.4 l 62.9,-62.9 c 0.1,-0.3 0.2,-0.6 0.2,-0.9 v 0 c 0.1,-0.3 0.2,-0.6 0.2,-0.9 0.1,-0.6 0.3,-1.2 0.4,-1.8 0.1,-0.3 0.1,-0.6 0.2,-0.9 0.1,-0.3 0.1,-0.6 0.2,-0.9 l -65.8,65.8 H 428.3 Z M 450,72.9 c 0.3,-0.8 0.7,-1.6 1,-2.4 0.2,-0.4 0.3,-0.8 0.5,-1.1 0.2,-0.4 0.3,-0.7 0.5,-1.1 v -7.4 l 2.2,-2.2 c -0.5,0.2 -0.9,0.4 -1.3,0.6 -0.3,0.1 -0.5,0.3 -0.7,0.4 -0.2,0.1 -0.5,0.3 -0.7,0.4 -0.5,0.3 -1,0.5 -1.4,0.8 -0.2,0.1 -0.3,0.2 -0.5,0.3 -0.2,0.1 -0.3,0.2 -0.5,0.3 v 14 c 0.2,-0.4 0.3,-0.8 0.5,-1.3 0.1,-0.5 0.2,-0.9 0.4,-1.3 z m -53,84.4 c 0,0.3 0,0.7 0.1,1 0,0.2 0,0.3 0,0.5 0,0.2 0,0.3 0,0.5 H 416 c 0.4,0 0.8,-0.1 1.1,-0.4 l 28,-28 c -0.1,-0.2 -0.1,-0.4 -0.1,-0.6 v 0 c 0,-0.2 -0.1,-0.4 -0.1,-0.6 -0.1,-0.4 -0.2,-0.8 -0.3,-1.2 0,-0.2 -0.1,-0.4 -0.1,-0.6 0,-0.2 -0.1,-0.4 -0.1,-0.6 l -28.9,28.9 H 397 c 0,0.2 0,0.3 0,0.5 -0.1,0.2 -0.1,0.4 0,0.6 z m 46.3,-59.9 c 0,-0.3 0.1,-0.5 0.1,-0.8 0.1,-0.5 0.2,-1.1 0.3,-1.7 0.1,-0.3 0.1,-0.6 0.2,-0.9 0,-0.3 0.1,-0.6 0.1,-0.8 l -46.7,46.7 c 0,0.3 -0.1,0.5 -0.1,0.8 0,0.3 0,0.5 -0.1,0.8 0,0.5 -0.1,1 -0.1,1.5 0,0.3 0,0.5 -0.1,0.8 0,0.3 0,0.5 -0.1,0.8 l 46.3,-46.3 c 0.1,-0.3 0.1,-0.6 0.2,-0.9 z m -26.2,122.9 18,-18 c 0.3,-0.3 0.4,-0.7 0.4,-1.1 0,-0.4 -0.2,-0.8 -0.4,-1.1 l -11.7,-11.7 31.7,-31.7 c -0.1,-0.2 -0.2,-0.3 -0.3,-0.5 -0.1,-0.2 -0.2,-0.3 -0.2,-0.5 -0.2,-0.3 -0.3,-0.6 -0.5,-0.9 -0.1,-0.2 -0.2,-0.3 -0.2,-0.5 -0.1,-0.2 -0.2,-0.3 -0.2,-0.5 l -33.4,33.5 c -0.3,0.3 -0.4,0.7 -0.4,1.1 0,0.4 0.1,0.8 0.4,1.1 l 11.7,11.7 -16.5,16.5 h -26.9 c -0.3,0.2 -0.5,0.3 -0.8,0.5 -0.3,0.2 -0.5,0.3 -0.8,0.5 -0.6,0.4 -1.2,0.7 -1.8,1 -0.3,0.2 -0.7,0.3 -1,0.5 -0.4,0.2 -0.8,0.3 -1.1,0.5 h 33 c 0.3,0.1 0.7,-0.1 1,-0.4 z m -49.9,2.7 c -0.2,0 -0.4,0 -0.6,-0.1 -0.4,0 -0.8,-0.1 -1.2,-0.2 -0.2,0 -0.4,-0.1 -0.6,-0.1 -0.2,0 -0.4,-0.1 -0.6,-0.1 l -35.3,35.3 c -0.1,0.3 -0.1,0.6 -0.2,0.9 -0.1,0.3 -0.1,0.6 -0.2,0.8 -0.1,0.6 -0.2,1.1 -0.3,1.7 0,0.3 -0.1,0.6 -0.1,0.8 0,0.3 -0.1,0.5 -0.1,0.8 L 367.8,223 c -0.1,0 -0.4,0 -0.6,0 z m 104.7,-83 2.7,-2.7 c -0.9,0.9 -1.8,1.8 -2.7,2.7 z m 60.49998,137.20002 c 0,4.49998 -0.19994,9.09997 -0.69997,13.8 -0.19994,2.29999 -0.6,4.49998 -1.00002,6.79997 -0.10016,0.3001 -0.10016,0.6 -0.19994,0.89998 -0.10016,0.3001 -0.10016,0.6 -0.19994,0.90002 -0.10016,0.6 -0.30009,1.2 -0.39999,1.8 -0.10015,0.3001 -0.10015,0.6 -0.19993,0.89998 v 0 c -0.10016,0.3001 -0.10016,0.6 -0.19994,0.90002 -8.50001,33.5 -36.29998,63.5 -69.19997,73.1 -38.70002,11.29999 -76.90002,0.6 -102.40002,-25.1 -0.20001,-0.19993 -0.29998,-0.30009 -0.5,-0.49999 -4.9,-5.00001 -9.4,-10.60002 -13.3,-16.8 -0.1,-0.19994 -0.20001,-0.30009 -0.30002,-0.49999 -0.1,-0.19994 -0.20001,-0.3001 -0.29998,-0.50003 -0.20001,-0.3001 -0.4,-0.69997 -0.6,-0.99999 -0.1,-0.19994 -0.20001,-0.3001 -0.29998,-0.5 -0.1,-0.19993 -0.20001,-0.30009 -0.29998,-0.49999 -3.5,-5.89999 -6.4,-12.20001 -8.8,-18.90002 -0.1,-0.19994 -0.1,-0.39999 -0.20001,-0.49999 -0.10001,-0.19994 -0.10001,-0.3001 -0.20001,-0.5 -0.10001,-0.39998 -0.20002,-0.7 -0.4,-1.09999 -0.10001,-0.19994 -0.10001,-0.40003 -0.20001,-0.49999 -0.10001,-0.19994 -0.10001,-0.3001 -0.20002,-0.50004 -0.9,-2.79998 -1.7,-5.69998 -2.4,-8.69998 -0.7,-2.79998 -1.2,-5.60001 -1.6,-8.5 0,-0.19994 -0.10001,-0.39999 -0.10001,-0.6 0,-0.3001 -0.1,-0.6 -0.1,-0.89998 0,-0.19994 -0.10001,-0.39999 -0.10001,-0.6 -0.5,-3.90002 -0.8,-7.8 -0.9,-11.70002 0,-0.19994 0,-0.5 0,-0.69997 v 0 c 0,-0.40003 0,-0.70001 0,-1.10003 v -0.69997 c 0,-4.30001 0.29998,-8.50001 0.9,-12.70001 0,-0.30009 0.10001,-0.49999 0.10001,-0.80001 0.1,-0.30009 0.1,-0.6 0.1,-0.80001 0.10001,-0.6 0.20002,-1.1 0.29999,-1.7 0,-0.30009 0.1,-0.6 0.20001,-0.80001 0.1,-0.30009 0.1,-0.6 0.20001,-0.89998 0.4,-2.19999 0.9,-4.30001 1.5,-6.49999 4,-15 11.4,-31.30001 23,-42 2.7,-2.50001 5.7,-4.60003 9,-6.20002 1.4,-0.7 9.1,-2.19998 9.6,-3 -0.6,0.99999 -1.1,2.10002 -1.8,2.9 -4.4,5.60001 -7.5,11.89999 -9.4,18.6 1.1,0.40002 2.2,0.7 3.4,0.90002 0.20002,0 0.4,0.10015 0.6,0.10015 0.20002,0 0.4,0.10016 0.6,0.10016 0.4,0.10016 0.8,0.10016 1.2,0.19994 0.20002,0 0.4,0.10015 0.6,0.10015 0.20002,0 0.4,0 0.6,0.10016 1.4,0.10016 2.8,0.19994 4.2,0.10016 3.9,-0.10016 7.5,-0.99999 10.9,-2.4 0.4,-0.19994 0.8,-0.30009 1.1,-0.49999 0.29998,-0.19994 0.7,-0.3001 1,-0.5 0.6,-0.30009 1.2,-0.6 1.8,-1.00002 0.29998,-0.19994 0.5,-0.3001 0.8,-0.5 0.29998,-0.19993 0.5,-0.30009 0.8,-0.49999 11,-7.50002 16.8,-21.6 12.8,-35.50001 -2.2,-7.8 -3.6,-15.39998 -4.2,-23.00001 0,-0.19994 0,-0.30009 0,-0.49999 0,-0.19994 0,-0.3001 0,-0.5 0,-0.30009 -0.1,-0.7 -0.1,-0.99998 0,-0.19994 0,-0.3001 0,-0.5 0,-0.19994 0,-0.30009 0,-0.50003 -0.20002,-3.99999 -0.20002,-7.89997 0,-11.79999 0,-0.30009 0,-0.49999 0.1,-0.80001 0,-0.30009 0,-0.49999 0.10001,-0.79997 0,-0.5 0.1,-1.00003 0.1,-1.50002 0,-0.3001 0,-0.5 0.10001,-0.79998 0,-0.30009 0.10001,-0.50003 0.10001,-0.80001 3.3,-32.79999 21.89998,-61.500021 51.69997,-78.499996 0.19994,-0.100157 0.30009,-0.199937 0.49999,-0.300094 0.19994,-0.100158 0.3001,-0.199938 0.50004,-0.300095 0.49999,-0.300094 0.89998,-0.499994 1.39997,-0.800013 0.19994,-0.100157 0.49999,-0.300094 0.70001,-0.399987 0.19993,-0.100157 0.49999,-0.300094 0.80001,-0.400025 0.39999,-0.199937 0.79997,-0.399988 1.30001,-0.6 0.99998,-0.399988 2.09998,-0.899981 3.6,-1.599988 -2.20003,3.800013 -4.10004,7.500019 -5.80003,11.199988 -0.19994,0.400025 -0.30009,0.700006 -0.49999,1.100031 -0.19994,0.399988 -0.3001,0.799975 -0.5,1.099994 -0.30009,0.799975 -0.7,1.599988 -0.99998,2.4 -0.19994,0.399988 -0.3001,0.799975 -0.50004,1.2 -0.19993,0.399988 -0.30009,0.799975 -0.49999,1.300006 -2.29999,6.000001 -3.99999,11.899994 -5.09998,17.799988 0,0.300095 -0.10016,0.6 -0.10016,0.800013 -0.10016,0.300094 -0.10016,0.6 -0.19994,0.899981 -0.10015,0.6 -0.19993,1.099994 -0.30009,1.699994 0,0.300094 -0.10016,0.499993 -0.10016,0.800012 0,0.300095 -0.10016,0.6 -0.10016,0.800013 -0.6,4.699998 -0.80001,9.399988 -0.7,14.199988 0,0.19994 0,0.49999 0,0.70001 0,0.19993 0,0.49999 0,0.7 0,0.19994 0,0.5 0,0.69997 0.30009,4.30001 0.80001,8.60001 1.69999,13.00003 0,0.19993 0.10016,0.39998 0.10016,0.6 0,0.19993 0.10016,0.39998 0.10016,0.6 0.10015,0.39998 0.19993,0.79997 0.30009,1.2 0,0.19993 0.0998,0.39998 0.0998,0.6 v 0 c 0,0.19993 0.10016,0.39998 0.10016,0.6 1.9,7.69999 4.69999,15.39998 8.60001,23.09998 0.10016,0.19993 0.19994,0.30009 0.19994,0.49999 0.0998,0.10016 0.19994,0.3001 0.19994,0.50003 0.19993,0.3001 0.30009,0.6 0.49999,0.89998 0.10016,0.19994 0.19994,0.3001 0.19994,0.5 0.10015,0.19993 0.19993,0.30009 0.30009,0.49999 1.2,2.20003 2.49997,4.50002 3.79998,6.70001 3,-9.39999 7.09999,-17.19999 13.00002,-23.50001 0.89998,-0.89998 1.8,-1.8 2.69998,-2.69998 0.6,-0.6 1.30001,-1.2 1.90001,-1.69999 2.60001,-2.20003 5.5,-4.1 9.29998,-5.4 -0.39999,1.09999 -0.69997,2.19998 -1.2,3.19997 -3.49999,6.90002 -5.4,14.30003 -5.79999,21.80001 0,0.3001 0,0.5 0,0.70001 0,0.39999 0,0.70001 0,1.09999 0,0.19994 0,0.5 0,0.70001 0,6.20001 0.99999,12.39999 3,18.29998 0.10016,0.19994 0.10016,0.3001 0.19994,0.50003 0.10016,0.19994 0.10016,0.39999 0.19994,0.5 0.10015,0.30009 0.30009,0.7 0.40002,0.99998 0.10016,0.19994 0.10016,0.3001 0.19994,0.5 0.10016,0.19993 0.10016,0.30009 0.19994,0.49999 2.60001,6.30002 6.39998,12.20001 11.29999,17.20003 0.70001,0.7 1.40001,1.39997 2.10002,2.09998 2.4,2.10002 4.59999,4.3 6.7,6.49999 1.7,1.8 3.29999,3.50003 4.8,5.30003 0.10016,0.10016 0.19994,0.3001 0.3001,0.39999 0.10016,0.10016 0.19994,0.3001 0.30009,0.39999 0.19994,0.30009 0.39999,0.49999 0.6,0.80001 0.0998,0.10016 0.19994,0.3001 0.3001,0.39999 0.10016,0.10016 0.19993,0.30009 0.30009,0.40002 11.49997,14.3 18.5,30.19998 21.19998,47.79999 0,0.19994 0.10015,0.39999 0.10015,0.6 0,0.19994 0.10016,0.39999 0.10016,0.6 0.10016,0.39999 0.10016,0.79998 0.19994,1.2 0,0.19994 0.10016,0.39999 0.10016,0.6 0,0.19994 0,0.39999 0.10015,0.6 0.5,4.1 0.70001,8.19999 0.80002,12.39999 0.30009,0.49999 0.30009,0.70001 0.30009,0.90002 z"
           style="fill:#000000"
           id="XMLID_121_" />
      </g>
      <path
         style="stroke-width:0.264583"
         id="XMLID_651_"
         d="m 120.83534,127.6808 c 1.42875,0.8 2.69875,1.5 3.88937,2.3 7.83167,5.4 12.93813,12.7 14.97542,22 4.20687,18.9 -7.17021,37.2 -25.02959,42.2 -18.229786,5.1 -37.041661,-4.8 -43.232911,-22.6 -6.376458,-18.3 2.8575,-38.1 21.140208,-45.3 0.396875,-0.2 1.217083,-0.1 1.375833,0.2 0.582084,1 0.291042,2.1 -0.502708,2.4 -3.148542,1.2 -6.058958,2.9 -8.678333,5 -6.641042,5.3 -10.662708,12.2 -12.038542,20.6 -2.566458,15.8 6.35,30.8 20.875625,36.2 16.218958,6 34.422288,-1.5 41.407288,-17.9 5.92667,-13.9 2.11667,-28.9 -9.47208,-38.7 -0.76729,-0.6 -1.61396,-1.2 -2.43417,-1.8 -2.14312,-1.4 -2.14312,-1.4 -2.27541,-4.6 z"
         inkscape:export-xdpi="130.23"
         inkscape:export-ydpi="130.23" />
    </g>
  </g>
</svg>
