<?xml version="1.0" encoding="UTF-8" standalone="no"?>
<svg
   xmlns:svg="http://www.w3.org/2000/svg"
   xmlns="http://www.w3.org/2000/svg"
   width="64.558334mm"
   height="51.064583mm"
   viewBox="0 0 64.558334 51.064583"
   version="1.1"
   id="svg2080">
  <defs
     id="defs2076">
    <linearGradient
       x1="157.79765"
       y1="100.71192"
       x2="61.415932"
       y2="-0.36081025"
       id="linearGradient-1"
       gradientTransform="scale(0.80757285,1.2382784)"
       gradientUnits="userSpaceOnUse">
      <stop
         stop-color="#000000"
         offset="1%"
         id="stop4" />
      <stop
         stop-color="#000000"
         stop-opacity="0.69"
         offset="8%"
         id="stop6" />
      <stop
         stop-color="#000000"
         stop-opacity="0.32"
         offset="21%"
         id="stop8" />
      <stop
         stop-color="#000000"
         stop-opacity="0"
         offset="100%"
         id="stop10" />
    </linearGradient>
    <linearGradient
       x1="95.229279"
       y1="135.44479"
       x2="84.664795"
       y2="161.07869"
       id="linearGradient-2"
       gradientTransform="scale(1.4491377,0.69006556)"
       gradientUnits="userSpaceOnUse">
      <stop
         stop-color="#000000"
         offset="0%"
         id="stop13" />
      <stop
         stop-color="#000000"
         stop-opacity="0.69"
         offset="8%"
         id="stop15" />
      <stop
         stop-color="#000000"
         stop-opacity="0.32"
         offset="21%"
         id="stop17" />
      <stop
         stop-color="#000000"
         stop-opacity="0"
         offset="100%"
         id="stop19" />
    </linearGradient>
    <linearGradient
       x1="87.662064"
       y1="137.39989"
       x2="125.60324"
       y2="151.31265"
       id="linearGradient-3"
       gradientTransform="scale(1.4638501,0.68313005)"
       gradientUnits="userSpaceOnUse">
      <stop
         stop-color="#000000"
         offset="1%"
         id="stop22" />
      <stop
         stop-color="#000000"
         stop-opacity="0.69"
         offset="8%"
         id="stop24" />
      <stop
         stop-color="#000000"
         stop-opacity="0.32"
         offset="21%"
         id="stop26" />
      <stop
         stop-color="#000000"
         stop-opacity="0"
         offset="100%"
         id="stop28" />
    </linearGradient>
    <linearGradient
       x1="25.124294"
       y1="527.56927"
       x2="45.803402"
       y2="527.19"
       id="linearGradient-4"
       gradientTransform="scale(5,0.2)"
       gradientUnits="userSpaceOnUse">
      <stop
         stop-color="#000000"
         offset="1%"
         id="stop31" />
      <stop
         stop-color="#000000"
         stop-opacity="0.69"
         offset="8%"
         id="stop33" />
      <stop
         stop-color="#000000"
         stop-opacity="0.32"
         offset="21%"
         id="stop35" />
      <stop
         stop-color="#000000"
         stop-opacity="0"
         offset="100%"
         id="stop37" />
    </linearGradient>
    <linearGradient
       x1="128.36188"
       y1="120.0516"
       x2="157.24629"
       y2="144.13564"
       id="linearGradient-5"
       gradientTransform="scale(1.2535663,0.79772404)"
       gradientUnits="userSpaceOnUse">
      <stop
         stop-color="#000000"
         offset="0%"
         id="stop40" />
      <stop
         stop-color="#000000"
         stop-opacity="0.69"
         offset="8%"
         id="stop42" />
      <stop
         stop-color="#000000"
         stop-opacity="0.32"
         offset="21%"
         id="stop44" />
      <stop
         stop-color="#000000"
         stop-opacity="0"
         offset="100%"
         id="stop46" />
    </linearGradient>
    <linearGradient
       x1="92.032127"
       y1="126.44041"
       x2="101.20082"
       y2="133.32751"
       id="linearGradient-6"
       gradientTransform="scale(1.4142136,0.70710678)"
       gradientUnits="userSpaceOnUse">
      <stop
         stop-color="#000000"
         offset="1%"
         id="stop49" />
      <stop
         stop-color="#000000"
         stop-opacity="0.69"
         offset="8%"
         id="stop51" />
      <stop
         stop-color="#000000"
         stop-opacity="0.32"
         offset="21%"
         id="stop53" />
      <stop
         stop-color="#000000"
         stop-opacity="0"
         offset="100%"
         id="stop55" />
    </linearGradient>
  </defs>
  <g
     id="layer1"
     transform="translate(-10.054167,135.14539)">
    <g
       id="sending_emails_monochromatic"
       fill-rule="nonzero"
       style="fill:none;stroke:none;stroke-width:1"
       transform="matrix(0.26458333,0,0,0.26458333,10.054167,-135.14539)">
      <path
         d="m 48.720654,28.246947 c 17.108048,-2.488203 34.723002,-0.77439 51.685316,-4.189321 17.74168,-3.573617 33.89928,-12.567961 51.00099,-18.5409167 17.10172,-5.97295548 36.85201,-8.6579291 52.71814,0.095212 9.71357,5.3635997 16.86093,14.4468077 22.46857,24.0568557 11.05265,18.95152 17.04304,40.43676 17.39318,62.382791 0.15841,10.879542 -1.10252,21.835242 -4.43542,32.194292 -11.13924,34.61902 -44.85477,58.58067 -80.40783,65.9691 -39.04437,8.1184 -81.497672,-1.77728 -113.027172,-26.22133 C 19.269465,143.14223 -7.2796923,105.96519 1.8255914,72.101516 7.8640989,49.580744 23.071253,31.97925 48.720654,28.246947 Z"
         id="Path"
         fill="#3385e6"
         opacity="0.5" />
      <path
         d="M 186,29.174247 164.34619,60.020989 160.18442,48.47789 C 145.81268,52.294261 131.664,56.905571 117.80373,62.290522 101.82506,68.65152 86.439123,76.557061 82.018819,84.727381 71.885541,103.49516 95.689602,111.79157 95.689602,111.79157 c -4.52872,0.36206 -9.082827,0.2522 -13.588809,-0.32782 C 70.227139,109.90659 55.484386,104.15711 59.753352,84.727381 63.126908,69.37651 85.089701,56.465386 106.66785,47.267472 h 0.0315 c 3.15286,-1.336503 6.30571,-2.591051 9.37029,-3.782556 l 0.0883,-0.03782 c 11.54367,-4.412783 23.31666,-8.200824 35.26784,-11.347667 L 149.3512,22 Z"
         id="path361"
         fill="#3f97ff" />
      <path
         d="m 82.591653,84.549514 c -10.191293,18.890176 13.74905,27.240696 13.74905,27.240696 -4.554647,0.36443 -9.134827,0.25384 -13.666606,-0.32996 -1.794417,-2.09005 -3.471246,-4.27836 -5.022716,-6.55477 C 63.908673,84.904855 93.385418,69.142944 93.385418,69.142944 95.8397,60.176929 107.3818,52.759186 107.3818,52.759186 v -5.913889 h 0.0317 L 116.83744,43.038072 116.92623,43 119,60.335564 l -0.41856,1.61807 c -16.07015,6.415174 -31.544176,14.372274 -35.989787,22.59588 z"
         id="path363"
         fill="url(#linearGradient-1)"
         style="fill:url(#linearGradient-1)" />
      <path
         d="m 149.05498,149.37282 c -0.58172,1.00256 -0.94167,2.12121 -1.05498,3.2786 0.0195,1.15845 0.39006,2.2828 1.06134,3.22062 1.37926,2.07375 3.49367,3.52933 5.90408,4.06443 0.31537,0.0981 0.65458,0.0822 0.95965,-0.0451 0.20892,-0.12984 0.37146,-0.32392 0.46393,-0.55394 0.57834,-1.19164 0.34319,-2.60871 -0.0381,-3.86475 -0.38132,-1.25605 -0.90245,-2.53142 -0.84525,-3.86475 0.0953,-2.49277 3.60981,-7.30438 -0.48301,-8.47669 -3.4128,-1.00484 -4.88087,4.01934 -5.96763,6.24157 z"
         id="path365"
         fill="#b2857f" />
      <path
         d="m 146.02503,153 c 0,0 -1.22845,0.99181 -0.99569,2.08535 0.23276,1.09353 4.6487,8.7165 10.93964,7.84548 6.29094,-0.87101 -4.04094,-6.99354 -4.04094,-6.99354 z"
         id="path367"
         fill="#68e1fd" />
      <path
         d="m 149.02946,150 c 0.52435,0.0191 0.95522,0.42058 1.01177,0.94277 0.32839,1.47924 1.39682,2.68371 2.82531,3.18504 1.61627,0.43953 3.09256,-0.91092 3.81798,-0.52872 0.72541,0.38221 2.76167,5.70122 2.22715,7.2173 -0.53451,1.51608 -3.04166,1.47785 -5.26881,0.43953 -2.22716,-1.03832 -6.28694,-5.18524 -6.59875,-6.82235 -0.3118,-1.63711 1.10086,-3.99404 1.98535,-4.43357 z"
         id="path369"
         fill="#ffffff" />
      <path
         d="m 123.02053,159.02576 c -0.60179,1.09215 -0.95002,2.29759 -1.02053,3.53263 0.0877,1.21864 0.55454,2.38337 1.33944,3.34183 1.63797,2.14207 4.06863,3.59247 6.78651,4.0496 0.35531,0.0905 0.73228,0.0579 1.06517,-0.0923 0.22459,-0.15384 0.39755,-0.3678 0.49751,-0.61544 0.58681,-1.29242 0.24876,-2.78794 -0.22962,-4.11729 -0.47837,-1.32935 -1.1162,-2.64024 -1.14171,-4.04344 0,-2.64639 3.68028,-7.93302 -0.93761,-8.98542 -3.85887,-0.88008 -5.2621,4.52348 -6.35916,6.92985 z"
         id="path371"
         fill="#b2857f" />
      <path
         d="m 120.06054,162 c 0,0 -1.31258,1.19619 -1.01725,2.43161 0.29533,1.23541 5.66378,9.73951 12.72547,8.4322 7.06168,-1.30732 -4.89593,-7.74586 -4.89593,-7.74586 z"
         id="path373"
         fill="#68e1fd" />
      <path
         d="m 121.96567,159 c 0.56187,-0.006 1.04182,0.42505 1.12379,1.00995 0.41297,1.63002 1.60297,2.91606 3.14054,3.39397 1.73732,0.40906 3.24988,-1.15689 4.01527,-0.77339 0.76539,0.3835 3.19521,6.23186 2.68495,7.93843 -0.51027,1.70657 -3.16484,1.79606 -5.57643,0.74783 -2.41159,-1.04823 -6.91283,-5.48404 -7.28945,-7.29288 -0.37662,-1.80884 0.98408,-4.48694 1.90133,-5.02391 z"
         id="path375"
         fill="#ffffff" />
      <path
         d="m 136.51072,92.054964 c 0.17408,0.03035 0.3453,0.07525 0.51185,0.134251 4.04355,1.53429 8.91245,8.374665 11.6636,11.622245 3.57635,4.11287 6.55313,8.71004 8.84207,13.65519 4.64497,10.36285 5.07363,23.23811 -1.45235,32.53335 l -5.01605,-1.04843 c -0.43804,-0.0485 -0.85091,-0.22907 -1.18364,-0.51783 -0.34588,-0.50664 -0.46847,-1.13294 -0.33909,-1.73246 0.265,-3.58046 0.0996,-7.17974 -0.49265,-10.72086 -0.33102,-2.42699 -1.07541,-4.77945 -2.20092,-6.95545 -1.57392,-2.83204 -4.05635,-5.0248 -6.47481,-7.17281 -7.67763,-6.79563 -14.5619,-13.8214 -18.36873,-23.42989 3.43574,-1.68772 10.80627,-7.019379 14.51072,-6.367306 z"
         id="path377"
         fill="#473f47" />
      <path
         d="m 124.69089,97.357407 c 0.16667,0.06554 0.32458,0.151006 0.47021,0.25448 3.60066,2.417563 6.76331,10.179203 8.69569,13.945503 2.53081,4.8127 4.36514,9.95244 5.4493,15.26881 2.10629,11.10169 -0.48954,23.66028 -9.06284,31.1738 l -4.66991,-2.18217 c -0.41569,-0.14867 -0.77686,-0.41676 -1.03704,-0.7698 -0.21866,-0.57325 -0.19074,-1.20985 0.0773,-1.76227 1.10157,-3.40381 1.78495,-6.92605 2.03544,-10.49094 0.24687,-2.42503 0.0704,-4.87392 -0.52174,-7.23996 -0.86957,-3.09829 -2.78907,-5.79578 -4.65059,-8.44237 -5.89374,-8.34695 -11.0081,-16.75115 -12.4767,-26.93035 3.75525,-0.839788 12.22549,-4.287993 15.69089,-2.824733 z"
         id="path379"
         fill="#473f47" />
      <path
         d="m 144.77096,73.694901 c 0.003,0.02754 0.003,0.05535 0,0.08289 0.0554,1.064819 0.39366,2.002114 0.12917,3.086061 -0.28294,1.205095 -1.3655,2.295418 -2.54648,2.116885 -0.98415,-0.146651 -1.6546,-1.064818 -2.41116,-1.734315 -0.79179,-0.657197 -1.66996,-1.19395 -2.60799,-1.59404 -1.23018,-0.592983 -2.49728,-1.147709 -3.76437,-1.657802 -0.81192,-0.33156 -2.36195,-0.535597 -2.7064,-1.396379 -0.34445,-0.860781 -0.23374,-2.218903 -0.33215,-3.130694 L 129,55 143.25169,67.114704 c 0.58452,1.324762 1.0399,2.706751 1.35935,4.125375 0.13612,0.810208 0.18972,1.633 0.15992,2.454822 z"
         id="path381"
         fill="#ffffff" />
      <path
         d="m 134.91793,75.468143 c 0.0899,0.851308 0.28892,1.696262 0.39165,2.541217 0.53932,4.694899 -0.0449,9.669332 1.88122,14.122816 0.43659,0.991075 1.0016,2.04568 0.74478,3.100285 -0.31372,0.893771 -0.94605,1.643679 -1.77849,2.109211 -3.92937,2.719098 -8.69982,3.932538 -13.34829,5.082438 -3.49919,0.87672 -8.42374,2.47133 -11.9165,0.93389 -1.48957,-0.6353 -2.13162,-2.10921 -2.74157,-3.557701 -1.92616,-4.612309 -2.94061,-9.694744 -3.85232,-14.612 -0.11557,-0.635304 -0.23756,-1.270608 -0.34671,-1.937678 -0.75762,-4.434424 -1.35045,-8.906967 -1.77849,-13.417628 -0.29534,-3.27817 -0.43017,-6.835875 1.45746,-9.529565 2.50401,-3.595823 7.80737,-6.353044 11.93577,-7.623652 1.3351,-0.425276 2.72607,-0.65431 4.12841,-0.679776 1.99801,0.09239 3.96536,0.522117 5.817,1.270609 2.20224,0.79413 4.1605,1.454847 5.41251,3.386172 1.38806,2.243571 2.45137,4.668624 3.1589,7.204351 0.66625,2.374547 0.99684,4.828974 0.98234,7.293294 0,1.207078 -0.16693,2.426863 -0.16051,3.627588 -0.0203,0.228515 -0.016,0.458514 0.0128,0.686129 z"
         id="path383"
         fill="#ffffff" />
      <path
         d="m 117.95125,103.82333 c -1.30605,0.55024 -4.54606,-0.35419 -5.59467,-0.42376 -0.62791,-0.0379 -1.25582,-0.29093 -1.88373,-0.36683 -3.13955,-0.4364 -4.47699,-9.101226 -5.02328,-11.384438 -1.4693,-6.103324 -3.39071,-12.377414 -4.15676,-18.575608 -0.28883,-2.397056 -0.49604,-4.84471 0.0377,-7.191169 0.53372,-2.346459 1.88373,-4.610698 4.05001,-5.692219 3.76746,-1.859458 6.31049,10.530605 7.13305,13.06048 1.02977,3.162344 2.06583,6.324687 3.08932,9.487031 0.45209,1.41673 0.59651,2.991577 1.36884,4.288138 1.17419,1.966978 2.16629,1.593822 4.13164,1.264938 4.12537,-0.721015 7.98073,-2.485602 12.0433,-3.472254 0.3376,-0.127156 0.71225,-0.108859 1.03605,0.0506 0.21889,0.181348 0.36775,0.434237 0.4207,0.71469 0.23929,0.798674 0.37024,1.626275 0.38931,2.460303 0.0238,0.238762 -0.0107,0.479756 -0.10047,0.70204 -0.14179,0.227016 -0.33837,0.414146 -0.5714,0.543923 -2.7458,1.829574 -5.76137,3.210629 -8.93515,4.092073 -2.51163,0.708365 -4.89141,1.897407 -6.58676,4.009852 -1.52582,1.897407 0.45837,3.89601 -0.37047,5.95153 -0.0874,0.21901 -0.25978,0.39261 -0.47721,0.48068 z"
         id="path385"
         fill="#020202"
         opacity="0.1" />
      <polygon
         id="polygon387"
         fill="#3385e6"
         points="115,94.061097 139.22931,86 157,96 132.27144,106 " />
      <polygon
         id="polygon389"
         fill="url(#linearGradient-2)"
         points="115,94.061097 139.22931,86 157,96 132.27144,106 "
         style="fill:url(#linearGradient-2)" />
      <polygon
         id="polygon391"
         fill="#3385e6"
         points="116,93.061097 140.22931,85 158,95 133.27144,105 " />
      <polygon
         id="polygon393"
         fill="url(#linearGradient-3)"
         points="134.7618,103 155,94.286539 145.12335,89 125,96.426033 "
         style="fill:url(#linearGradient-3)" />
      <polygon
         id="polygon395"
         fill="#3385e6"
         points="133,105 157.18206,105 178,92 158.02629,94.712876 " />
      <path
         d="m 125.61937,45.762696 c -0.25087,0.917693 -0.52103,1.835386 -0.81048,2.746571 -0.64324,2.082708 -1.92971,3.983179 -4.16817,4.484331 -0.49473,0.09634 -0.99555,0.157235 -1.49874,0.182237 -0.0965,0 -0.20584,0 -0.33449,0 -0.0142,0.007 -0.0308,0.007 -0.045,0 h -0.0579 c -0.25119,-0.01195 -0.50272,0.01438 -0.74616,0.0781 -0.068,0.0036 -0.13422,0.02367 -0.19297,0.05858 -0.64324,0.29939 -0.59178,1.353761 -0.54675,1.952539 0.15842,0.673686 0.0811,1.382105 -0.2187,2.004607 0,0 0,0.03905 -0.0386,0.06508 -0.36021,0.39755 -0.86312,0.632051 -1.39583,0.650847 -1.10903,0.09068 -2.21061,-0.249051 -3.0811,-0.950236 -0.49813,-0.467989 -0.8984,-1.032345 -1.17712,-1.659658 -0.0872,-0.178277 -0.16035,-0.363261 -0.2187,-0.553219 -0.073,-0.322053 -0.10112,-0.652844 -0.0836,-0.982778 0.0117,-0.506079 0.059,-1.010672 0.14151,-1.509963 0.23726,-0.985379 0.42405,-1.982503 0.55962,-2.987385 0.008,-0.50911 0.0428,-1.017443 0.10291,-1.52298 0.0823,-0.323011 0.14249,-0.651383 0.18011,-0.982778 0,-0.956744 -0.48243,-1.880946 -0.48886,-2.850706 -0.009,-0.959011 0.0798,-1.916393 0.26373,-2.857216 0.34319,-1.866178 1.1463,-3.614536 2.33494,-5.083109 2.2063,-2.603385 6.11718,-3.905077 9.19185,-2.421148 1.53643,0.741756 2.72856,2.057656 3.32553,3.670773 1.02918,2.740063 -0.25729,5.792532 -0.99701,8.46751 z"
         id="path397"
         fill="#b2857f" />
      <path
         d="m 122.16376,92.181776 c 0.52989,-0.06123 1.06608,-0.11633 1.59597,-0.159189 0.31603,-0.04311 0.63776,-0.02438 0.94622,0.0551 0.30883,0.07843 0.55001,0.312521 0.63082,0.612267 -0.003,0.111945 0.0204,0.223086 0.0694,0.324502 0.0807,0.09071 0.19297,0.149527 0.31541,0.165312 1.89245,0.477568 3.84798,1.224534 4.97714,2.736833 0.27346,0.291159 0.36926,0.700317 0.25233,1.07759 -0.25863,0.514304 -1.01561,0.440832 -1.58335,0.287765 0.16677,0.231681 0.16677,0.539777 0,0.771457 -0.17263,0.225527 -0.44881,0.35383 -0.73806,0.34287 -0.18766,-0.03361 -0.38007,-0.03361 -0.56773,0 -0.12867,0.0581 -0.24772,0.134453 -0.35326,0.226538 -0.537,0.344274 -1.1961,0.45938 -1.82306,0.318379 -0.63082,-0.09184 -1.26163,-0.300011 -1.89245,-0.348992 -0.97777,-0.07347 -1.8546,0.238784 -2.76298,-0.146944 -1.00155,-0.481219 -2.06112,-0.839106 -3.15409,-1.065345 -0.34764,-0.0542 -0.66822,-0.215142 -0.91468,-0.4592 -0.21517,-0.420406 -0.21517,-0.914336 0,-1.334742 0.1633,-0.751169 0.45772,-1.46971 0.87053,-2.124566 0.53619,-0.734721 1.43195,-0.863297 2.30879,-1.010241 0.64343,-0.104086 1.21748,-0.18368 1.82306,-0.269398 z"
         id="path399"
         fill="#b2857f" />
      <path
         d="m 103.84663,60.311059 c -4.654602,7.638481 -9.252212,16.488325 -10.575766,25.38838 -0.348304,2.341129 -0.538288,5.102783 0.569951,7.299552 1.81118,3.577597 7.972995,4.274286 11.519355,4.632046 4.24667,0.426721 8.52292,0.483427 12.77958,0.169465 0.18912,0.03547 0.38361,-0.02498 0.51843,-0.161123 0.13482,-0.136141 0.19216,-0.330001 0.15285,-0.516737 l 0.17732,-4.060886 c 0.0294,-0.189571 0.003,-0.38351 -0.076,-0.558607 -0.22505,-0.259442 -0.56142,-0.396991 -0.90559,-0.370313 -2.4804,-0.196926 -4.91761,-0.757449 -7.23205,-1.663268 -2.19748,-0.866155 -6.49111,-3.138242 -6.18081,-6.00032 0.17099,-1.60678 1.9505,-3.565043 2.83076,-4.832893 2.11516,-3.044095 4.39496,-5.994043 6.72543,-8.881226 0,0 0.22798,-16.425561 -10.30346,-10.44407 z"
         id="path401"
         fill="#ffffff" />
      <path
         d="m 124.68925,42.011798 c 0.62401,-0.152349 1.15666,-0.578576 1.46396,-1.171462 0.25434,0.752615 1.45776,0.523558 1.76172,-0.215968 0.30395,-0.739527 0,-1.577221 -0.27294,-2.316747 0.57888,-0.143783 1.04994,-0.585994 1.25258,-1.175881 0.20263,-0.589888 0.1095,-1.247819 -0.24766,-1.749503 -0.20471,-0.242146 -0.49006,-0.45157 -0.54589,-0.778794 -0.0133,-0.249392 0.0226,-0.498975 0.10546,-0.732982 0.0788,-0.782056 -0.24549,-1.548728 -0.84984,-2.009156 -0.60984,-0.443789 -1.29075,-0.767501 -2.00985,-0.955495 0.39945,-0.685338 0.25325,-1.577158 -0.34117,-2.081145 -0.58825,-0.473833 -1.30126,-0.743631 -2.04086,-0.772249 -1.07316,-0.124346 -2.25797,-0.07199 -3.10161,0.654448 -1.18519,-0.776012 -2.71857,-0.603453 -3.72193,0.418847 -0.17327,0.253458 -0.41562,0.445215 -0.69476,0.549736 -0.19953,0.0152 -0.39958,-0.02072 -0.58311,-0.104711 -0.78215,-0.352896 -1.64754,-0.446478 -2.48129,-0.268324 -0.86389,0.217297 -1.42687,1.095433 -1.29647,2.022245 -0.63086,0.07994 -1.14799,0.565486 -1.29647,1.217274 -0.0141,0.199623 -0.0737,0.392702 -0.17369,0.562825 -0.1799,0.222513 -0.49626,0.209424 -0.763,0.235602 -1.05523,0.09697 -1.86209,1.034212 -1.85243,2.151666 0.01,1.117454 0.8329,2.038868 1.88965,2.115337 -0.11855,0.531565 -0.0219,1.091204 0.26674,1.544498 0.32877,0.556281 0.7692,0.595548 1.20342,0.942406 0.25434,0.209423 0.15508,0.229056 0.14268,0.654448 -0.0125,0.391448 0.006,0.783312 0.0558,1.171462 0.0846,0.747645 0.2619,1.480339 0.52727,2.179313 0.1861,0.503925 0.42182,0.988217 0.58931,1.498687 0.23073,0.781866 0.38456,1.586718 0.45903,2.401825 l 1.04835,-3.128263 c 0.0117,-0.04275 0.0117,-0.08814 0,-0.13089 -0.021,-0.05807 -0.0605,-0.10665 -0.11166,-0.137434 -0.94177,-0.774268 -1.24625,-2.135443 -0.73198,-3.272241 0.14176,-0.351976 0.4476,-0.600175 0.80642,-0.654448 0.42182,0 0.74439,0.386124 0.94909,0.772249 0.21783,0.411348 0.38264,0.851535 0.49006,1.308896 0.28381,-0.716147 0.67553,-1.379155 1.16,-1.963345 0.20471,-0.242146 0.45283,-0.654448 0.7816,-0.530103 0.32878,0.124345 0.48386,0.752616 0.62033,0.981672 0.4887,-0.200563 0.93391,-0.503313 1.30888,-0.890049 -0.0883,0.927399 0.34285,1.824253 1.10417,2.297113 0.78161,0.386125 1.91679,-0.163612 1.91679,-1.079839 0,0.412302 1.69348,-0.281413 1.81755,-0.359947 0.26769,0.541201 0.81977,0.85702 1.39572,0.798427 z"
         id="path403"
         fill="#473f47" />
      <path
         d="m 116.19681,53.386162 c 0.59765,0.06091 1.20112,0.0802 1.80319,0.05764 -0.0785,0.0032 -0.15484,0.02096 -0.22262,0.05187 -0.74205,0.265126 -0.68269,1.198831 -0.63074,1.729083 0.18275,0.596587 0.0936,1.223933 -0.2523,1.775193 -0.23108,0.0014 -0.46115,-0.02388 -0.68269,-0.07493 -0.22694,-0.06222 -0.43613,-0.158139 -0.61591,-0.282417 -1.37666,-0.880248 -1.92846,-2.321038 -1.39506,-3.642603 0.64241,0.191978 1.31284,0.321678 1.99613,0.386162 z"
         id="path405"
         fill="#96625e" />
      <path
         d="m 142.00515,65 c 0,0 11.4236,8.455683 9.84514,16.898849 C 150.38412,89.753685 149.0677,96 149.0677,96 l -5.34682,-3.129417 c 0,0 3.57494,-11.835453 -3.88689,-16.980213 C 132.37215,70.745609 142.00515,65 142.00515,65 Z"
         id="path407"
         fill="#ffffff" />
      <path
         d="m 142.60611,92.360336 -0.52543,2.840582 c -0.0925,0.359857 -0.10566,0.736899 -0.0385,1.102814 0.0732,0.375882 0.38234,0.651499 0.7497,0.668373 0.38446,0 0.71126,-0.441126 1.09572,-0.360921 0.13731,0.04264 0.26713,0.108085 0.38446,0.193828 0.82019,0.46786 1.81338,0 2.67842,-0.421075 0.13813,-0.08102 0.29825,-0.111601 0.45494,-0.08689 0.18583,0.05347 0.30117,0.247297 0.46136,0.367604 0.32777,0.205701 0.74324,0.179114 1.04445,-0.06684 0.29032,-0.251671 0.51143,-0.579173 0.64077,-0.949088 0.70089,-1.606123 0.57302,-3.473416 -0.33961,-4.959322 -1.00139,-1.291462 -2.59772,-1.91139 -4.165,-1.617461 -1.666,0.274033 -2.14017,1.637512 -2.44133,3.288391 z"
         id="path409"
         fill="#b2857f" />
      <polygon
         id="polygon411"
         fill="#3385e6"
         points="132,106 156.18206,106 177,93 157.02629,95.712876 " />
      <polygon
         id="polygon413"
         fill="url(#linearGradient-4)"
         points="133.00279,105 132,106 155.99721,106 157,105 "
         style="fill:url(#linearGradient-4)" />
      <polygon
         id="polygon415"
         fill="#68e1fd"
         points="178,92 176.98154,93.297225 156,106 157.01846,104.70278 " />
      <polygon
         id="polygon417"
         fill="url(#linearGradient-5)"
         points="178,92 176.98154,93.297225 156,106 157.01846,104.70278 "
         style="fill:url(#linearGradient-5)" />
      <polygon
         id="polygon419"
         fill="#ffffff"
         points="158.49362,95.329032 175,93 157.78511,103.67097 139,104 " />
      <polygon
         id="polygon421"
         fill="url(#linearGradient-6)"
         points="130.71739,94 140,90.410765 135.52355,87 126,90.410765 "
         style="fill:url(#linearGradient-6)" />
    </g>
  </g>
</svg>
