<svg xmlns="http://www.w3.org/2000/svg" width="742" height="575" viewBox="0 0 742 575"><defs><linearGradient id="99zba" x1="171.52" x2="219.31" y1="424.08" y2="605.46" gradientUnits="userSpaceOnUse"><stop offset=".01"/><stop offset=".08" stop-opacity=".69"/><stop offset=".21" stop-opacity=".32"/><stop offset="1" stop-opacity="0"/></linearGradient><linearGradient id="99zbb" x1="213.41" x2="264.99" y1="262.83" y2="251.31" gradientUnits="userSpaceOnUse"><stop offset=".01"/><stop offset=".08" stop-opacity=".69"/><stop offset=".21" stop-opacity=".32"/><stop offset="1" stop-opacity="0"/></linearGradient><linearGradient id="99zbc" x1="202.84" x2="249.37" y1="243.8" y2="223.54" gradientUnits="userSpaceOnUse"><stop offset=".01"/><stop offset=".08" stop-opacity=".69"/><stop offset=".21" stop-opacity=".32"/><stop offset="1" stop-opacity="0"/></linearGradient><linearGradient id="99zbd" x1="218" x2="142.22" y1="189.49" y2="230.76" gradientUnits="userSpaceOnUse"><stop offset=".01"/><stop offset=".08" stop-opacity=".69"/><stop offset=".21" stop-opacity=".32"/><stop offset="1" stop-opacity="0"/></linearGradient><linearGradient id="99zbe" x1="137.39" x2="242.58" y1="280.98" y2="263.97" gradientUnits="userSpaceOnUse"><stop offset=".01"/><stop offset=".08" stop-opacity=".69"/><stop offset=".21" stop-opacity=".32"/><stop offset="1" stop-opacity="0"/></linearGradient><linearGradient id="99zbf" x1="126.47" x2="197.91" y1="248.11" y2="301.98" gradientUnits="userSpaceOnUse"><stop offset=".01"/><stop offset=".08" stop-opacity=".69"/><stop offset=".21" stop-opacity=".32"/><stop offset="1" stop-opacity="0"/></linearGradient><linearGradient id="99zbg" x1="139.85" x2="226.03" y1="250.61" y2="203.32" gradientUnits="userSpaceOnUse"><stop offset=".01"/><stop offset=".08" stop-opacity=".69"/><stop offset=".21" stop-opacity=".32"/><stop offset="1" stop-opacity="0"/></linearGradient><linearGradient id="99zbh" x1="276.42" x2="253.45" y1="294.89" y2="224.39" gradientUnits="userSpaceOnUse"><stop offset=".01"/><stop offset=".08" stop-opacity=".69"/><stop offset=".21" stop-opacity=".32"/><stop offset="1" stop-opacity="0"/></linearGradient><linearGradient id="99zbi" x1="153.35" x2="240.72" y1="348.65" y2="367.96" gradientUnits="userSpaceOnUse"><stop offset=".01"/><stop offset=".08" stop-opacity=".69"/><stop offset=".21" stop-opacity=".32"/><stop offset="1" stop-opacity="0"/></linearGradient><linearGradient id="99zbj" x1="124.26" x2="212.78" y1="423.39" y2="453.77" gradientUnits="userSpaceOnUse"><stop offset=".01"/><stop offset=".08" stop-opacity=".69"/><stop offset=".21" stop-opacity=".32"/><stop offset="1" stop-opacity="0"/></linearGradient><linearGradient id="99zbk" x1="175.27" x2="263.82" y1="416.72" y2="447.47" gradientUnits="userSpaceOnUse"><stop offset=".01"/><stop offset=".08" stop-opacity=".69"/><stop offset=".21" stop-opacity=".32"/><stop offset="1" stop-opacity="0"/></linearGradient><linearGradient id="99zbl" x1="169" x2="297.98" y1="351.13" y2="362.31" gradientUnits="userSpaceOnUse"><stop offset=".01"/><stop offset=".08" stop-opacity=".69"/><stop offset=".21" stop-opacity=".32"/><stop offset="1" stop-opacity="0"/></linearGradient><linearGradient id="99zbm" x1="175.27" x2="263.82" y1="416.72" y2="447.47" gradientUnits="userSpaceOnUse"><stop offset=".01"/><stop offset=".08" stop-opacity=".69"/><stop offset=".21" stop-opacity=".32"/><stop offset="1" stop-opacity="0"/></linearGradient><linearGradient id="99zbn" x1="141.74" x2="190.95" y1="513.72" y2="458.7" gradientUnits="userSpaceOnUse"><stop offset=".01"/><stop offset=".08" stop-opacity=".69"/><stop offset=".21" stop-opacity=".32"/><stop offset="1" stop-opacity="0"/></linearGradient><linearGradient id="99zbo" x1="192.71" x2="241.97" y1="506.7" y2="451.69" gradientUnits="userSpaceOnUse"><stop offset=".01"/><stop offset=".08" stop-opacity=".69"/><stop offset=".21" stop-opacity=".32"/><stop offset="1" stop-opacity="0"/></linearGradient><linearGradient id="99zbp" x1="143.05" x2="194.24" y1="333.53" y2="297.05" gradientUnits="userSpaceOnUse"><stop offset=".01"/><stop offset=".08" stop-opacity=".69"/><stop offset=".21" stop-opacity=".32"/><stop offset="1" stop-opacity="0"/></linearGradient><linearGradient id="99zbq" x1="117.91" x2="299.06" y1="343.26" y2="289.59" gradientUnits="userSpaceOnUse"><stop offset=".01"/><stop offset=".08" stop-opacity=".69"/><stop offset=".21" stop-opacity=".32"/><stop offset="1" stop-opacity="0"/></linearGradient><mask id="99zbs" width="2" height="2" x="-1" y="-1"><path fill="#fff" d="M355 440h302v71H355z"/><path d="M506 511c83.395 0 151-15.894 151-35.5S589.395 440 506 440s-151 15.894-151 35.5S422.605 511 506 511z"/></mask><filter id="99zbr" width="330" height="101" x="341" y="426" filterUnits="userSpaceOnUse"><feOffset dy="2" in="SourceGraphic" result="FeOffset1325Out"/><feGaussianBlur in="FeOffset1325Out" result="FeGaussianBlur1326Out" stdDeviation="1.6 1.6"/></filter></defs><g><g><g opacity=".53"><path fill="#3489e4" d="M735.912 502.475c-11.252 22.774-36.638 34.65-60.906 42.262a366.286 366.286 0 0 1-119.928 16.514c-50.105-1.487-99.503-13.286-149.607-14.616-83.82-2.23-165.74 24.75-249.463 28.116-43.968 1.702-91.838-4.813-123.28-35.551-42.166-41.265-39.206-111.33-15.8-165.469 23.405-54.138 62.944-99.786 88.33-153.083 12.78-26.845 21.817-55.254 34.323-82.216 18.897-40.619 46.204-78.048 82.743-104.051C258.863 8.378 305.125-5.338 349.407 1.94c21.955 3.6 42.734 12.11 62.533 22.442 5.41 2.817 10.742 5.772 16.015 8.804 19.152 11.133 37.754 28.156 59.082 34.808 25.601 7.826 54.3 5.048 80.488 13.05 28.032 8.55 54.888 24.36 71.06 48.72 37.656 56.506 7.507 135.004 30.795 198.75 7.998 21.874 21.975 41.088 35.54 60.282 14.506 20.485 28.56 41.088 34.48 65.213 3.96 15.985 3.843 33.614-3.488 48.465z"/></g><g><path fill="url(#99zba)" d="M218.528 472a450.637 450.637 0 0 0-116.652 24.514c-2.684.947-5.876 2.544-5.876 5.424 0 2.88 2.938 4.615 5.582 5.561 11.418 4.103 23.816 4.26 35.94 4.359 46.888.454 94.794.73 139.234-14.318 3.917-1.341 8.716-4.043 8.207-8.244-.51-4.2-5.563-5.6-9.637-6.153l-68.49-9.407"/></g><g><path fill="#fff" d="M248.702 273.254a2.845 2.845 0 0 1-1.702.73c-3.826.354-10.082-5.046-12.244-6.8l-7.862-6.425c-5.031-4.099-9.757-10.8-4.783-16.948.149-.194.309-.378.479-.552a7.092 7.092 0 0 1 1.645-1.32 6.812 6.812 0 0 1 4.285-.887c3.405.433 6.007 3.35 8.13 6.188 4.113 5.518 7.653 11.45 11.287 17.343a13.994 13.994 0 0 1 1.913 4.296 4.606 4.606 0 0 1-1.148 4.375z"/></g><g><path fill="url(#99zbb)" d="M246.7 272.984c-3.926.345-10.343-4.906-12.561-6.612l-8.066-6.248c-5.162-3.986-10.01-10.502-4.907-16.481a7.197 7.197 0 0 1 3.808-.595c3.532.422 6.182 3.258 8.34 6.018 4.22 5.385 7.851 11.135 11.58 16.884a12.589 12.589 0 0 1 1.963 4.16c.235.952.18 1.95-.157 2.874z"/></g><g><path fill="#fff" d="M227.91 226.6a15.612 15.612 0 0 1 2.9 3.552l3.762 5.823a11.45 11.45 0 0 1 2.421 5.939 1.56 1.56 0 0 1-.36 1.145c-.25.205-.555.34-.88.388a55.129 55.129 0 0 1-12.725 1.552 9.913 9.913 0 0 1-4.302-.931c-2.153-1.381-3.673-3.516-4.242-5.959-1.16-3.28-4.501-10.092-.76-12.81 3.381-2.367 11.165-1.241 14.186 1.301z"/></g><g><path fill="url(#99zbc)" d="M227.9 226.552a15.638 15.638 0 0 1 2.904 3.558l3.766 5.833a11.473 11.473 0 0 1 2.423 5.949c.039.413-.09.825-.36 1.147-.251.206-.556.34-.882.389a55.162 55.162 0 0 1-12.74 1.555 9.937 9.937 0 0 1-4.286-.7c-2.156-1.383-3.678-3.522-4.247-5.969-1.161-3.285-4.487-10.11-.76-12.831 3.384-2.606 11.157-1.478 14.181 1.069z"/></g><g><path fill="#fff" d="M183.26 188.732a16.7 16.7 0 0 0 2.795 9.707c.496.608.934 1.257 1.308 1.941a8.878 8.878 0 0 1 .241 5.029c-.624 4.057-1.328 8.367-4.164 11.435-.17.161-.306.352-.402.563-.181.544.322 1.087.764 1.475a160.22 160.22 0 0 0 4.385 3.709 23.053 23.053 0 0 0 5.07 3.378 12.576 12.576 0 0 0 8.387.563c.4-.061.754-.288.966-.621a1.37 1.37 0 0 0 0-.855 102.33 102.33 0 0 1-1.71-10.755 8.08 8.08 0 0 1 0-2.31c.178-.666.413-1.315.704-1.942a21.812 21.812 0 0 0 1.207-5.98c.447-4.212.1-8.468-1.026-12.561-1.128-4.125-3.468-7.847-6.738-10.717-2.293-1.941-6.638-4.077-9.495-1.825a5.539 5.539 0 0 0-1.468 3.204 27.859 27.859 0 0 0-.825 6.562z"/></g><g><path fill="url(#99zbd)" d="M183.26 188.732a16.7 16.7 0 0 0 2.795 9.707c.496.608.934 1.257 1.308 1.941a8.878 8.878 0 0 1 .241 5.029c-.624 4.057-1.328 8.367-4.164 11.435-.17.161-.306.352-.402.563-.181.544.322 1.087.764 1.475a160.22 160.22 0 0 0 4.385 3.709 23.053 23.053 0 0 0 5.07 3.378 12.576 12.576 0 0 0 8.387.563c.4-.061.754-.288.966-.621a1.37 1.37 0 0 0 0-.855 102.33 102.33 0 0 1-1.71-10.755 8.08 8.08 0 0 1 0-2.31c.178-.666.413-1.315.704-1.942a21.812 21.812 0 0 0 1.207-5.98c.447-4.212.1-8.468-1.026-12.561-1.128-4.125-3.468-7.847-6.738-10.717-2.293-1.941-6.638-4.077-9.495-1.825a5.539 5.539 0 0 0-1.468 3.204 27.859 27.859 0 0 0-.825 6.562z"/></g><g><path fill="#fff" d="M181 176.41a8.396 8.396 0 0 1 1.353-4.199l2.447-4.526a15.237 15.237 0 0 1 2.11-3.196 10.835 10.835 0 0 1 5.61-2.928 33.961 33.961 0 0 1 9.789-.365c1.751.062 3.492.301 5.193.712 4.907 1.65 8.759 5.393 10.445 10.149a38.561 38.561 0 0 1 1.99 14.617 46.067 46.067 0 0 1-.518 7.395 40.918 40.918 0 0 1-3.979 11.112 20.103 20.103 0 0 1-3.163 4.968c-1.424 1.797-3.63 2.851-5.97 2.851-2.339 0-4.545-1.054-5.968-2.85a20.807 20.807 0 0 1-3.84-6.221 16.784 16.784 0 0 1-1.99-7.376c.238-1.465.338-2.947.299-4.43a10.357 10.357 0 0 0-2.427-4.621 16.752 16.752 0 0 0-4.199-4.352 30.445 30.445 0 0 1-4.297-3.159c-1.055-1.078-2.805-1.56-2.885-3.582z"/></g><g><path fill="#fff" d="M225.783 284.24a29.362 29.362 0 0 1-1.042 11.709c-.13.47-.397.89-.767 1.21a2.986 2.986 0 0 1-1.847.351c-4.244-.111-8.49.11-12.698.663-2.497.332-4.973.781-7.47 1.152-1.533.234-3.066.43-4.6.546a45.822 45.822 0 0 1-14.584-1.249c-.513-.098-1-.297-1.435-.585a4.235 4.235 0 0 1-1.219-1.698l-9.828-20.022a94.294 94.294 0 0 1-4.855-11.085 45.143 45.143 0 0 1-2.359-11.923c-.144-2.4-.091-4.81.158-7.201a3.885 3.885 0 0 1 1.009-3.113c.779-.841 1.89-1.301 3.04-1.259a46.891 46.891 0 0 0 6.84-1.229 8.76 8.76 0 0 0 5.386-4.06c1.474-2.829.55-6.302-.767-9.21-.78-2.022-2.09-3.8-3.793-5.152-1.042-.722-2.457-1.717-1.966-2.85.165-.321.417-.591.727-.78 4.089-2.849 8.236-1.112 11.519 1.757a17.78 17.78 0 0 0 13.76 3.903c2.81-.352 1.65-3.064 1.493-5.21 2.3.643 4.56 1.404 6.801 2.224a19.33 19.33 0 0 1 5.897 3.083 21.096 21.096 0 0 1 3.813 4.898c1.12 1.757 2.221 3.513 3.204 5.328 8.256 15.456 5.13 33.02 5.583 49.802z"/></g><g><path fill="url(#99zbe)" d="M202 299.32a61.403 61.403 0 0 1-4.614.55 45.728 45.728 0 0 1-14.63-1.26c-.514-.099-1.003-.3-1.439-.59a4.27 4.27 0 0 1-1.222-1.712l-9.859-20.191a95.35 95.35 0 0 1-4.87-11.178A45.737 45.737 0 0 1 163 252.974a10.995 10.995 0 0 1 5.777-2.165c3.08-.32 6.116-.98 9.05-1.968 1.104-.393 9.859-3.601 9.859-4.841.591 4.211-3.51 7.439-7.04 9.84a6.185 6.185 0 0 0-2.563 2.617 6.345 6.345 0 0 0 0 3.582 252.048 252.048 0 0 0 6.98 25.583 17.797 17.797 0 0 0 3.55 6.986c3.529 3.68 9.187 3.995 13.387 6.711z"/></g><g><path fill="#fff" d="M156.899 289.277a15.133 15.133 0 0 1-3.141 5.082 5.32 5.32 0 0 1-5.522 1.369 4.253 4.253 0 0 1-1.424-1.036 10.373 10.373 0 0 1-1.776-6.724c.05-12.18 1.61-24.307 4.644-36.102.8-3.108 1.385-8.639 4.487-10.418a12.466 12.466 0 0 1 4.507-.39c3.903.136 8.956.957 9.073 2.228 1.56 15.871-4.35 31.45-10.848 45.991z"/></g><g><path fill="url(#99zbf)" d="M150.475 288.945a14.839 14.839 0 0 1-3.26 5.111c-.4.37-.849.688-1.335.944a10.193 10.193 0 0 1-1.842-6.762 143.932 143.932 0 0 1 4.818-36.31c.83-3.125 1.437-8.688 4.656-10.477a13.327 13.327 0 0 1 4.676-.393c2.025.413 3.462.943 3.543 1.631 1.64 15.963-4.474 31.63-11.256 46.256z"/></g><g><path fill="#fff" d="M168.11 220.083c-3.642 1.963-6.313 5.43-7.353 9.545a15.366 15.366 0 0 0 1.21 12.29c3.157 4.724 9.141 6.404 14.169 3.978.84-.446 1.626-.993 2.342-1.631 4.535-4.199 5.814-11.012 3.13-16.665-2.842-5.727-6.413-10.918-13.497-7.517z"/></g><g><path fill="url(#99zbg)" d="M168.11 220.083c-3.642 1.963-6.313 5.43-7.353 9.545a15.366 15.366 0 0 0 1.21 12.29c3.157 4.724 9.141 6.404 14.169 3.978.84-.446 1.626-.993 2.342-1.631 4.535-4.199 5.814-11.012 3.13-16.665-2.842-5.727-6.413-10.918-13.497-7.517z"/></g><g><path fill="#fff" d="M167.875 248.786c1.945-.573 3.522-2.033 4.272-3.957a35.178 35.178 0 0 0 3.5-8.645 11.765 11.765 0 0 0-1.373-9.002 17.037 17.037 0 0 0-7.017-5.045 17.974 17.974 0 0 0-6.495-2.137c-4.718.014-8.939 3.004-10.613 7.518a21.436 21.436 0 0 0 0 13.849c1.54 4.44 3.341 8.78 5.393 12.998.948 2.196 5.104-1.978 5.626-2.394a24.428 24.428 0 0 1 6.707-3.185z"/></g><g><path fill="#fff" d="M155 293.334c-1.812-.36-3.68-.43-5.52-.207-1.828.24-3.472 1.135-4.56 2.48a4.59 4.59 0 0 0-.917 2.707c-.042.86.367 1.688 1.104 2.236.54.293 1.16.443 1.791.432 2.109.13 4.193-.467 5.832-1.672 1.643-1.24 2.355-3.219 1.833-5.093"/></g><g><path fill="#fff" d="M287.822 252.605a6.561 6.561 0 0 1-.18.667c-1.757 4.403-4.711 8.28-8.56 11.233a89.144 89.144 0 0 1-19.074 12.775c-5.068 2.532-12.091 4.703-16.321-.286l-.34-.419c-3.83-5.007 1.297-8.91 5.527-11.556 10.455-6.588 23.026-9.025 33.82-14.984 1.317-.723 3.033-1.504 4.29-.685.927.833 1.255 2.107.838 3.255z"/></g><g><path fill="url(#99zbh)" d="M288 252c-.047.23-.105.458-.175.682a27.105 27.105 0 0 1-8.337 11.48 86.678 86.678 0 0 1-18.58 13.058c-4.936 2.588-11.777 4.806-15.898-.292-.233-3.6 3.518-6.48 6.705-8.601 10.165-6.733 22.409-9.224 33.04-15.295A5.379 5.379 0 0 1 288 252z"/></g><g><path fill="#fff" d="M286.224 242.878c.611-3.59 1.795-7.508 4.99-9.36.355-.233.888 0 1.045.443.119.418.077.865-.118 1.255-.454 1.235-1.262 2.297-1.795 3.513a4.09 4.09 0 0 0-.098 3.763c4.415-2.471 7.734-6.462 9.31-11.195a4.7 4.7 0 0 1 .808-1.737 1.48 1.48 0 0 1 1.736-.444 39.37 39.37 0 0 1-3.215 11.948l6.707-8.705a20.135 20.135 0 0 1-3.512 10.983c2.087-2.073 4-4.306 5.72-6.679.79 4.189-2.208 8.05-5.03 11.311A20.455 20.455 0 0 1 308 244.21c-3.511 7.142-11.579 11.446-19.133 13.396-3.353.868-6.549.54-5.74-3.436.809-3.976 2.465-7.373 3.097-11.292z"/></g><g><path fill="#fff" d="M203.385 342.398a220.394 220.394 0 0 1-11.952 44.523 22.346 22.346 0 0 1-4.561 8.302 9.64 9.64 0 0 1-1.852 1.476 7.589 7.589 0 0 1-6.892.826c-3.805-1.652-4.82-6.394-5.2-10.447a202.271 202.271 0 0 1 .857-46.175c.897-6.552 1.813-18.356 7.51-22.92a11.917 11.917 0 0 1 10.617-1.28 17.259 17.259 0 0 1 7.967 4.585c4.86 5.528 4.502 13.81 3.506 21.11z"/></g><g><path fill="url(#99zbi)" d="M203.404 342.375a220.944 220.944 0 0 1-11.583 43.969 22.194 22.194 0 0 1-4.42 8.199 9.374 9.374 0 0 1-1.796 1.457c-2.586-2.06-3.378-6.043-3.706-9.501a202.39 202.39 0 0 1 .85-45.6c.849-6.47 1.737-18.128 7.277-22.636a7.592 7.592 0 0 1 2.259-1.263 16.655 16.655 0 0 1 7.721 4.527c4.71 5.46 4.363 13.64 3.398 20.848z"/></g><g><path fill="#fff" d="M180.864 391.01a9.376 9.376 0 0 0-4.026 1.44 8.76 8.76 0 0 0-3.02 2.722 6.377 6.377 0 0 0 1.228 7.806 8.21 8.21 0 0 0 8.053 1.58 5.913 5.913 0 0 0 1.711-.84 6.567 6.567 0 0 0 2.174-4.883c.222-3.603-1.892-8.066-6.12-7.826z"/></g><g><path fill="#fff" d="M185.901 410.357c-.66 15.205-5.58 29.903-10.42 44.346l-5.28 15.636a13.59 13.59 0 0 1-3.52 6.352 5.09 5.09 0 0 1-6.181.488 1.862 1.862 0 0 1-.5-.469c1.8-17.902 3.64-35.831 5.52-53.786a49.13 49.13 0 0 1 2.86-14.052c1.797-3.825 4.768-7.008 8.5-9.108 2.96-1.427 6-1.095 8 3.068a15.48 15.48 0 0 1 1.021 7.525z"/></g><g><path fill="url(#99zbj)" d="M179.899 410.536c-.625 15.124-5.43 29.743-10.155 44.109a7246.307 7246.307 0 0 1-5.175 15.551 13.434 13.434 0 0 1-3.417 6.318 4.158 4.158 0 0 1-.664.486 1.832 1.832 0 0 1-.488-.467c1.757-17.806 3.554-35.639 5.39-53.497a49.666 49.666 0 0 1 2.792-13.977 20.192 20.192 0 0 1 8.3-9.059 7.16 7.16 0 0 1 2.44 3.052 15.642 15.642 0 0 1 .977 7.484z"/></g><g><path fill="url(#99zbk)" d="M230.906 403.741c-.625 15.305-5.411 30.098-10.158 44.636a7397.349 7397.349 0 0 1-5.177 15.738 13.643 13.643 0 0 1-3.418 6.393c-.205.186-.428.35-.665.492-.186-.13-.35-.29-.488-.472l5.333-54.217a50.097 50.097 0 0 1 2.813-14.144 20.132 20.132 0 0 1 8.302-9.167 7.388 7.388 0 0 1 2.442 3.089 16.255 16.255 0 0 1 1.016 7.652z"/></g><g><path fill="#fff" d="M168.084 476.813a6.336 6.336 0 0 0-3.196-1.81 5.692 5.692 0 0 0-3.697 1.22 6.388 6.388 0 0 0-3.1 3.523 7.057 7.057 0 0 0 .116 2.834l1.175 6.849c.04.698.319 1.36.79 1.87.393.282.85.458 1.328.51l6.218 1.221a34.515 34.515 0 0 0 8.74.964 5.134 5.134 0 0 0 2.83-.826 4.689 4.689 0 0 0 1.483-2.637 4.019 4.019 0 0 0 0-2.677c-.867-1.968-2.35-.531-3.562-1.18-.905-.493-1.56-2.579-2.195-3.445a42.7 42.7 0 0 0-6.93-6.416z"/></g><g><path fill="#fff" d="M218.184 469.833a6.413 6.413 0 0 0-3.23-1.83 5.737 5.737 0 0 0-3.695 1.22 6.32 6.32 0 0 0-3.115 3.522 7.026 7.026 0 0 0 0 2.835l1.18 6.868c.043.693.324 1.348.793 1.85.4.276.857.452 1.335.512l6.248 1.22a34.931 34.931 0 0 0 8.782.965 5.08 5.08 0 0 0 2.844-.827 4.565 4.565 0 0 0 1.49-2.637 4 4 0 0 0-.098-2.677c-.87-1.968-2.34-.531-3.578-1.18-.91-.493-1.567-2.579-2.205-3.445a41.726 41.726 0 0 0-6.751-6.396z"/></g><g><path fill="#fff" d="M237.564 383.424c-.131 3.19-.9 6.316-2.26 9.183-1.462 2.919-4.487 4.642-7.663 4.364a5.894 5.894 0 0 1-1.149-.336c-3.18-1.244-4.96-5.134-6.149-8.57a207.75 207.75 0 0 1-10.228-45.141c-.747-6.576-2.72-18.286 1.513-24.13a8.171 8.171 0 0 1 3.467-2.706c4.81-1.851 10.178-1.32 14.558 1.442 5.957 4.146 7.662 12.282 8.428 19.648a230.383 230.383 0 0 1-.517 46.246z"/></g><g><path fill="url(#99zbl)" d="M230.476 383.108a21.8 21.8 0 0 1-2.382 9.026A9.829 9.829 0 0 1 225.43 395c-3.35-1.22-5.227-5.036-6.478-8.405a191.9 191.9 0 0 1-10.777-44.275c-.787-6.449-2.866-17.934 1.594-23.667a8.55 8.55 0 0 1 3.653-2.653c3.092.058 6.11.914 8.739 2.479 6.276 4.087 8.072 12.066 8.9 19.368a211.56 211.56 0 0 1-.585 45.261z"/></g><g><path fill="#fff" d="M231.85 384.01a9.368 9.368 0 0 0-4.024 1.44 8.957 8.957 0 0 0-3.018 2.722 6.42 6.42 0 0 0 1.227 7.806 8.202 8.202 0 0 0 8.048 1.58 5.546 5.546 0 0 0 1.73-.84 6.569 6.569 0 0 0 2.174-4.883c.201-3.603-1.912-8.066-6.137-7.826z"/></g><g><path fill="#fff" d="M218.328 401.825a47.585 47.585 0 0 0-2.883 14.021L210 469.686c1.868 1.752 4.82 1.752 6.687 0a13.574 13.574 0 0 0 3.523-6.326l5.285-15.623c4.865-14.452 9.79-29.137 10.41-44.33a15.386 15.386 0 0 0-1.04-7.5c-4.545-9.432-14.214.489-16.537 5.918z"/></g><g><path fill="url(#99zbm)" d="M230.906 403.741c-.625 15.305-5.411 30.098-10.158 44.636a7397.349 7397.349 0 0 1-5.177 15.738 13.643 13.643 0 0 1-3.418 6.393c-.205.186-.428.35-.665.492-.186-.13-.35-.29-.488-.472l5.333-54.217a50.097 50.097 0 0 1 2.813-14.144 20.132 20.132 0 0 1 8.302-9.167 7.388 7.388 0 0 1 2.442 3.089 16.255 16.255 0 0 1 1.016 7.652z"/></g><g><path fill="url(#99zbn)" d="M170.559 488.937a.89.89 0 0 0-.641.176c-.214.195-.194.547-.35.8-.155.255-.796.372-1.262.314a12.677 12.677 0 0 1-3.885-.958 4.641 4.641 0 0 1-2.564-2.853c-.563-2.17.933-4.808-.446-6.567a2.536 2.536 0 0 0-4.118.47 4.875 4.875 0 0 0-.214 2.54c.208 2.045.46 4.097.758 6.156-.014.464.172.911.511 1.226.34.315.798.467 1.256.415l11.48 2.13a7.722 7.722 0 0 0 2.738.157c1.418-.254 3.068-2.091 1.612-3.4-.913-.86-3.69-.626-4.875-.606z"/></g><g><path fill="url(#99zbo)" d="M221.564 481.923a.89.89 0 0 0-.641.176c-.214.215-.194.566-.35.8-.155.235-.816.372-1.263.314a12.126 12.126 0 0 1-3.886-.958 4.603 4.603 0 0 1-2.565-2.853c-.563-2.17.933-4.808-.447-6.567a2.557 2.557 0 0 0-4.119.47 4.873 4.873 0 0 0-.214 2.54c.214 2.052.447 4.104.739 6.156.026.33.125.651.291.938.392.42.925.678 1.496.723l11.484 2.11c.889.224 1.81.283 2.72.176 1.438-.254 3.09-2.11 1.613-3.4-.894-.88-3.672-.645-4.858-.625z"/></g><g><path fill="#fff" d="M185.936 327.344c1.127.985 2.412 2.297 1.977 3.726-.435 1.428-2.195 1.814-3.678 1.93a28.312 28.312 0 0 1-13.704-4.343 89.732 89.732 0 0 1-18.45-13.513c-4.172-3.996-8.562-10-4.41-15.578 3.797-5.077 9.235-1.563 13.131 1.487 9.69 7.296 15.939 18.106 25.134 26.291z"/></g><g><path fill="#fff" d="M187.906 331.069c-.417 1.352-2.103 1.815-3.55 1.931a28.546 28.546 0 0 1-13.766-4.365 89.834 89.834 0 0 1-18.505-13.52c-4.165-3.96-8.529-9.908-4.463-15.45v-.097c3.808-5.08 9.243-1.565 13.17 1.487 9.72 7.551 15.987 18.387 25.17 26.46 1.11.83 2.4 2.144 1.944 3.554z"/></g><g><path fill="url(#99zbp)" d="M184 334a26.569 26.569 0 0 1-13.279-4.437 87.032 87.032 0 0 1-17.851-13.741c-4.018-4.025-8.227-10.07-4.305-15.705 3.08-.687 6.544 1.786 9.26 3.926 9.376 7.695 15.307 18.689 24.3 26.914A5.18 5.18 0 0 1 184 334z"/></g><g><path fill="#fff" d="M180.064 312.345a5.556 5.556 0 0 0 2.638 5.614c6.614 5.176 15.373 7.963 20.078 14.87a13.387 13.387 0 0 0 3.346 4.121 9.572 9.572 0 0 0 5.236.996 7.109 7.109 0 0 0 5.374-1.553 6.493 6.493 0 0 0 1.22-2.31A96.376 96.376 0 0 0 224 303.448c0-2.27-.197-4.977-2.165-5.972a6.253 6.253 0 0 0-3.484-.378l-26.476 2.19c-3.11.258-7.5-.379-9.587 1.99-2.086 2.369-2.224 8.38-2.224 11.068z"/></g><g><path fill="url(#99zbq)" d="M197.563 302.593a75.395 75.395 0 0 1-3.355 4.17c5.644 1.429 9.394 6.79 11.84 12.11a38.887 38.887 0 0 1 3.948 16.321c.022.354-.04.707-.178 1.033a1.672 1.672 0 0 1-1.973.675 4.992 4.992 0 0 1-1.856-1.29 139.706 139.706 0 0 0-19.3-15.19 16.192 16.192 0 0 1-3.079-2.343 9.626 9.626 0 0 1-2.17-3.97c-.948-3.257-.514-9.153 2.802-11.12 3.315-1.965 9.808-.396 13.32-.396z"/></g><g><path fill="#fff" d="M192.807 328.308c3.63-.52 7.806-.637 10.519 1.757a.767.767 0 0 1-.117 1.12 1.81 1.81 0 0 1-1.23.289c-1.327 0-2.615-.463-3.903-.599a4.266 4.266 0 0 0-3.668 1.062 20.421 20.421 0 0 0 13.66 5.23 4.772 4.772 0 0 1 1.952.213c.626.21 1.028.815.975 1.467a41.108 41.108 0 0 1-12.49.714l10.441 3.533a20.806 20.806 0 0 1-11.709.135 58.588 58.588 0 0 0 8.177 3.262c-3.786 1.93-8.43.424-12.411-1.197a19.685 19.685 0 0 1 5.19 3.706c-7.923-1.08-14.519-7.258-18.695-13.685-1.951-2.857-2.517-5.926 1.542-6.408 4.059-.483 7.786 0 11.767-.599z"/></g><g><path fill="#1ac5ef" d="M206.507 186.292a3.578 3.578 0 0 0-3.126.844 3.246 3.246 0 0 0-.284 2.311c0 .905.182 1.789.324 2.673.027.178.09.348.183.502.184.183.43.29.69.302a57.805 57.805 0 0 0 15.003.944c.38.016.754-.082 1.076-.281.339-.369.527-.848.528-1.346.132-1.8.132-3.607 0-5.406 0-1.266-1.137-.744-2.03-.643-1.36.16-2.761.18-4.06.221-2.782.02-5.624 0-8.304-.12z"/></g><g opacity=".16"><path fill="#282328" d="M506 548c92.784 0 168-21.714 168-48.5S598.784 451 506 451s-168 21.714-168 48.5S413.216 548 506 548z"/></g><g><g filter="url(#99zbr)"><path fill="none" d="M506 511c83.395 0 151-15.894 151-35.5S589.395 440 506 440s-151 15.894-151 35.5S422.605 511 506 511z" mask="url(&quot;#99zbs&quot;)"/><path fill-opacity=".5" d="M506 511c83.395 0 151-15.894 151-35.5S589.395 440 506 440s-151 15.894-151 35.5S422.605 511 506 511z"/></g><path fill="#fff" d="M506 511c83.395 0 151-15.894 151-35.5S589.395 440 506 440s-151 15.894-151 35.5S422.605 511 506 511z"/></g></g></g></svg>