<?xml version="1.0" encoding="UTF-8" standalone="no"?>
<svg
   xmlns:svg="http://www.w3.org/2000/svg"
   xmlns="http://www.w3.org/2000/svg"
   width="318.43161mm"
   height="140.99614mm"
   viewBox="0 0 318.4316 140.99614"
   version="1.1"
   id="svg834">
  <defs
     id="defs830">
    <rect
       x="60.457031"
       y="-274.43414"
       width="54.364876"
       height="37.734367"
       id="rect922" />
  </defs>
  <path
     class="cls-1"
     d="m 69.678021,56.18686 v -1.26735 l -3.423709,0.35983 -1.534583,1.51871 v 0 q -0.918104,0.84931 -1.820333,1.71715 c -5.098521,4.93977 -14.2875,14.97806 -18.9865,20.30941 -3.135313,3.75709 -6.201834,7.56709 -9.114896,11.4988 -1.751542,2.36537 -3.439583,4.7625 -5.188479,7.14375 l -0.560917,0.74877 0.420688,0.24077 v 0 l 0.219604,0.11641 c 7.379229,3.85233 12.935479,9.47473 16.623771,16.93598 2.484437,5.02708 3.770312,11.13896 3.802062,16.75871 a 124.71929,124.71929 0 0 0 19.023542,-14.34306 c 0,-20.03954 0.529167,-41.39671 0.529167,-61.43625 0,-0.10319 0,-0.19844 0,-0.2884 z"
     id="path8"
     style="fill:#e14329;fill-opacity:1;stroke-width:0.264583" />
  <path
     class="cls-1"
     d="m 151.81527,0.35714 c -4.73075,-0.24342 -9.4615,-0.4154 -14.20019,-0.33867 Q 128.95527,0.1587 120.35102,1.10591 113.92165,1.82557 107.569,3.02414 A 172.14321,172.14321 0 0 0 78.655333,11.19182 C 67.302062,15.49395 56.533521,20.90732 46.571958,27.88703 A 146.61885,146.61885 0 0 0 6.543146,69.57743 c -0.336021,0.52916 -0.211667,0.68262 0.296333,0.86254 1.098021,0.39158 2.174875,0.83873 3.267604,1.23825 a 79.943854,79.943854 0 0 0 10.421938,3.02948 81.740375,81.740375 0 0 0 8.972021,1.39964 c 1.473729,0.15082 2.958041,0.19315 4.460875,0.28575 A 75.742271,75.742271 0 0 1 14.335125,66.64849 C 13.805958,66.28866 13.856229,66.11932 14.245165,65.6907 A 89.267771,89.267771 0 0 1 29.011562,52.92191 C 37.928021,46.69097 47.651458,42.17718 58.023125,38.95984 a 153.74937,153.74937 0 0 1 18.936229,-4.51908 c 4.410604,-0.77787 10.112375,-1.6166 14.552083,-2.14842 A 206.05221,206.05221 0 0 1 115.12021,18.59751 C 127.59796,12.51209 140.22387,6.72036 152.84715,0.93128 a 7.794625,7.794625 0 0 0 0.71437,-0.42333 c -0.6059,-0.0529 -1.17475,-0.11906 -1.74625,-0.15081 z"
     id="path10"
     style="fill:#e14329;fill-opacity:1;stroke-width:0.264583" />
  <path
     class="cls-2"
     d="m 33.959271,78.99659 -1.195917,-0.18256 a 60.028667,60.028667 0 0 1 -6.704542,-0.58473 77.271562,77.271562 0 0 1 -14.9225,-3.54541 c -0.508,-0.17463 -0.775229,-0.0979 -1.071562,0.36512 A 103.52087,103.52087 0 0 0 1.121833,92.40303 C 0.754062,93.31849 0.209021,94.5488 0,95.52247 A 156.73387,156.73387 0 0 1 30.673146,80.18722 Z"
     id="path12"
     style="fill:#e14329;fill-opacity:1;stroke-width:0.264583" />
  <path
     class="cls-3"
     d="m 10.125604,94.53557 c 5.722938,-0.30956 11.289771,0.48948 16.623771,2.71198 3.198812,-4.63021 6.521979,-9.16781 10.027708,-13.57312 l 3.063875,-3.84969 c -5.6515,0.76994 -31.342541,12.26608 -34.13125,15.25587 a 33.3375,33.3375 0 0 1 4.415896,-0.54504 z"
     id="path14"
     style="fill:#3385e6;fill-opacity:1;stroke-width:0.264583" />
  <path
     class="cls-3"
     d="m 139.14437,32.32939 a 284.12546,284.12546 0 0 0 -30.85306,0.70908 c -5.66473,0.43656 -11.305643,1.09802 -16.933331,1.79123 -7.077604,0.87312 -14.120812,1.93939 -21.084646,3.47662 -8.265583,1.82563 -16.330083,4.28096 -24.061208,7.76552 -10.519833,4.74134 -19.965458,11.05694 -28.146375,19.22727 -0.420688,0.42069 -0.381,0.5768 0.09525,0.87842 a 68.627625,68.627625 0 0 0 17.581562,8.03275 c 1.150938,0.33867 2.286,0.76994 3.503084,0.8599 l -0.441854,-0.5424 a 106.21698,106.21698 0 0 1 -7.28398,-7.9375 c -0.264583,-0.32544 -0.264583,-0.45244 0.113771,-0.67204 1.722438,-1.02129 3.439584,-2.03729 5.207,-2.98715 a 92.458646,92.458646 0 0 1 24.127354,-8.99583 95.554271,95.554271 0 0 1 10.231438,-1.75683 c 0.481542,-0.0529 0.957792,-0.0979 0.957792,-0.0979 0,0 0,0.45508 0,0.93133 v 27.78125 c 0,12.34546 -0.29898,25.64077 -0.29898,37.98623 -2.645833,2.46327 -5.341937,4.86569 -8.202083,7.0776 -1.788583,1.38378 -3.608917,2.73315 -5.413375,4.09575 l -0.185208,0.11378 a 0.82814583,0.82814583 0 0 0 0.264583,-0.0159 c 0.1905,-0.0556 0.381,-0.10848 0.568854,-0.16933 8.64923,-2.77019 18.041938,-7.10142 26.505959,-10.39813 -0.02117,-11.81629 0,-23.63258 -0.03175,-35.45417 l -0.01323,-0.82285 c 1.031875,0.082 2.886605,0.15875 3.923771,0.19844 5.677959,0.2196 11.350622,0.52916 16.954502,1.55575 h 0.0873 v 0 l 0.41804,0.0714 v -0.45244 c 0,0 0,-0.0185 0,-0.0291 0,-0.22489 0,-0.45244 0,-0.67733 V 75.9062 c 0,-0.13758 0,-0.26458 0,-0.41539 0,-0.0423 0,-0.0794 0,-0.11642 v -0.34658 l -0.32544,-0.0635 h -0.0238 l -0.0556,-0.0132 -0.26458,-0.045 -0.26459,-0.0476 v 0 c -1.97379,-0.34925 -3.95552,-0.63235 -5.94783,-0.82814 -4.630208,-0.45509 -9.823979,-0.67469 -14.472708,-0.79375 0.01323,-7.14375 0,-14.85636 0,-21.97365 6.982354,-0.0397 14.483291,0.4445 21.322768,1.95792 l 0.45244,-0.26458 c 1.19327,-0.66146 2.38125,-1.32292 3.60362,-1.93675 12.13644,-6.21507 24.55598,-11.7819 36.90409,-17.5313 l 1.3626,-0.64029 a 6.8500625,6.8500625 0 0 0 -1.00012,-0.12435 c -2.96863,-0.14288 -5.91873,-0.29369 -8.88207,-0.39423 z"
     id="path16"
     style="fill:#3385e6;fill-opacity:1;stroke-width:0.264583" />
  <path
     class="cls-3"
     d="M 39.235062,75.07547 Z"
     id="path18"
     style="fill:#1a4373;stroke-width:0.264583" />
  <g
     aria-label="lamy"
     transform="matrix(4.8290039,0,0,4.8290039,-180.29298,1358.1586)"
     id="text920"
     style="font-style:normal;font-weight:normal;font-size:19.7556px;line-height:1.25;font-family:sans-serif;white-space:pre;shape-inside:url(#rect922);fill:#3385e6;fill-opacity:1;stroke:none">
    <path
       d="m 64.469887,-256.26791 h -2.797423 v -14.8167 h 2.797423 z"
       style="font-style:normal;font-variant:normal;font-weight:bold;font-stretch:normal;font-size:19.7556px;font-family:Roboto;-inkscape-font-specification:Roboto;fill:#3385e6;fill-opacity:1"
       id="path843" />
    <path
       d="m 72.813928,-256.26791 q -0.192926,-0.37621 -0.279743,-0.93569 -1.01286,1.12861 -2.633437,1.12861 -1.53376,0 -2.54662,-0.88746 -1.003214,-0.88746 -1.003214,-2.23794 0,-1.65916 1.225079,-2.54662 1.234725,-0.88745 3.55948,-0.8971 h 1.282957 v -0.59807 q 0,-0.72347 -0.376205,-1.15756 -0.366559,-0.43408 -1.167201,-0.43408 -0.70418,0 -1.109324,0.33762 -0.395498,0.33762 -0.395498,0.92605 h -2.787777 q 0,-0.90676 0.559485,-1.67846 0.559484,-0.7717 1.581991,-1.20578 1.022507,-0.44373 2.295817,-0.44373 1.929258,0 3.057874,0.97427 1.138262,0.96463 1.138262,2.72025 v 4.52411 q 0.0096,1.48553 0.41479,2.24759 v 0.16399 z m -2.305463,-1.93891 q 0.617362,0 1.138262,-0.27009 0.520899,-0.27975 0.771703,-0.74277 v -1.79421 h -1.041799 q -2.093245,0 -2.228293,1.44695 l -0.0096,0.16398 q 0,0.5209 0.366558,0.85852 0.366559,0.33762 1.003215,0.33762 z"
       style="font-style:normal;font-variant:normal;font-weight:bold;font-stretch:normal;font-size:19.7556px;font-family:Roboto;-inkscape-font-specification:Roboto;fill:#3385e6;fill-opacity:1"
       id="path845" />
    <path
       d="m 79.971474,-266.7052 0.08682,1.1672 q 1.109323,-1.36012 2.999995,-1.36012 2.016075,0 2.768485,1.59163 1.099677,-1.59163 3.135044,-1.59163 1.697747,0 2.527328,0.99356 0.829581,0.98393 0.829581,2.97106 v 6.66559 H 89.5213 v -6.65594 q 0,-0.88746 -0.347266,-1.29261 -0.347267,-0.41479 -1.225079,-0.41479 -1.254018,0 -1.736332,1.19614 l 0.0096,7.1672 h -2.787777 v -6.6463 q 0,-0.90675 -0.356913,-1.31189 -0.356913,-0.40515 -1.215432,-0.40515 -1.186494,0 -1.71704,0.98393 v 7.37941 H 77.35733 v -10.43729 z"
       style="font-style:normal;font-variant:normal;font-weight:bold;font-stretch:normal;font-size:19.7556px;font-family:Roboto;-inkscape-font-specification:Roboto;fill:#3385e6;fill-opacity:1"
       id="path847" />
    <path
       d="m 98.3573,-260.21325 1.92926,-6.49195 h 2.99035 l -4.196138,12.05786 -0.231511,0.54984 q -0.93569,2.04501 -3.086812,2.04501 -0.607717,0 -1.234725,-0.18327 v -2.11254 l 0.424436,0.01 q 0.790996,0 1.176848,-0.24115 0.395497,-0.24116 0.617362,-0.80065 l 0.327974,-0.85851 -3.655944,-10.46623 h 2.999996 z"
       style="font-style:normal;font-variant:normal;font-weight:bold;font-stretch:normal;font-size:19.7556px;font-family:Roboto;-inkscape-font-specification:Roboto;fill:#3385e6;fill-opacity:1"
       id="path849" />
  </g>
</svg>
