<?xml version="1.0" encoding="UTF-8" standalone="no"?>
<svg
   xmlns:dc="http://purl.org/dc/elements/1.1/"
   xmlns:cc="http://creativecommons.org/ns#"
   xmlns:rdf="http://www.w3.org/1999/02/22-rdf-syntax-ns#"
   xmlns:svg="http://www.w3.org/2000/svg"
   xmlns="http://www.w3.org/2000/svg"
   viewBox="0 0 580.00002 580.00002"
   version="1.1"
   id="svg21"
   width="580"
   height="580">
  <defs
     id="defs4">
    <style
       id="style2">.cls-1{fill:#5e98e5;}.cls-2{fill:#fbb630;}.cls-3{fill:#1a4373;}</style>
  </defs>
  <title
     id="title6">SpacedLogoSVG</title>
  <path
     class="cls-1"
     d="m 263.35,252.40489 v -4.78999 l -12.94,1.36 -5.8,5.74 v 0 q -3.47,3.21 -6.88,6.49 c -19.27,18.67 -54,56.61 -71.76,76.76 -11.85,14.19999 -23.44,28.6 -34.45,43.45999 -6.62,8.94 -13,18 -19.61,27 l -2.12,2.83 1.59,0.91 v 0 l 0.83,0.44 c 27.89,14.56 48.89,35.81 62.83,64.01 9.39,19 14.25,42.10001 14.37,63.34001 a 471.38,471.38 0 0 0 71.9,-54.21 c 0,-75.74 2,-156.46 2,-232.2 0,-0.39 0,-0.75 0,-1.09 z"
     id="path8"
     style="fill:#e14329;fill-opacity:1" />
  <path
     class="cls-1"
     d="m 573.79,41.394894 c -17.88,-0.92 -35.76,-1.57 -53.67,-1.28 q -32.73,0.53 -65.25,4.11 -24.3,2.72 -48.31,7.25 a 650.62,650.62 0 0 0 -109.28,30.87 c -42.91,16.26 -83.61,36.719996 -121.26,63.099996 a 554.15,554.15 0 0 0 -151.29,157.57 c -1.27,2 -0.8,2.58 1.12,3.26 4.15,1.48 8.22,3.17 12.35,4.68 a 302.15,302.15 0 0 0 39.39,11.45 308.94,308.94 0 0 0 33.91,5.29 c 5.57,0.57 11.18,0.73 16.86,1.08 a 286.27,286.27 0 0 1 -74.18,-36.83 c -2,-1.36 -1.81,-2 -0.34,-3.62 a 337.39,337.39 0 0 1 55.81,-48.26 c 33.7,-23.55 70.45,-40.61 109.65,-52.77 a 581.1,581.1 0 0 1 71.57,-17.08 c 16.67,-2.94 38.22,-6.11 55,-8.12 a 778.78,778.78 0 0 1 89.23,-51.76 C 482.26,87.334894 529.98,65.444894 577.69,43.564894 a 29.46,29.46 0 0 0 2.7,-1.6 c -2.29,-0.2 -4.44,-0.45 -6.6,-0.57 z"
     id="path10"
     style="fill:#e14329;fill-opacity:1" />
  <path
     class="cls-2"
     d="m 128.35,338.61489 -4.52,-0.69 a 226.88,226.88 0 0 1 -25.34,-2.20999 292.05,292.05 0 0 1 -56.4,-13.4 c -1.92,-0.66001 -2.93,-0.37 -4.05,1.38 a 391.26,391.26 0 0 0 -33.8,65.59 c -1.39,3.46 -3.45,8.11 -4.24,11.79 a 592.38,592.38 0 0 1 115.93,-57.96 z"
     id="path12"
     style="fill:#e14329;fill-opacity:1" />
  <path
     class="cls-3"
     d="m 38.27,397.34489 c 21.63,-1.17 42.67,1.85 62.83,10.25 12.09,-17.5 24.65,-34.65 37.9,-51.3 l 11.58,-14.55 c -21.36,2.91 -118.46,46.36 -129,57.66 a 126,126 0 0 1 16.69,-2.06 z"
     id="path14"
     style="fill:#3385e6;fill-opacity:1" />
  <path
     class="cls-3"
     d="m 525.9,162.23489 a 1073.86,1073.86 0 0 0 -116.61,2.68 c -21.41,1.65 -42.73,4.15 -64,6.77 -26.75,3.30001 -53.37,7.33001 -79.69,13.14 -31.24,6.9 -61.72,16.18 -90.94,29.35 -39.76,17.92 -75.46,41.79 -106.38,72.67 -1.59,1.59 -1.44,2.18 0.36,3.32 a 259.38,259.38 0 0 0 66.45,30.36 c 4.35,1.28 8.64,2.91 13.24,3.25 l -1.67,-2.05 a 401.45,401.45 0 0 1 -27.53,-30 c -1,-1.23 -1,-1.71 0.43,-2.54 6.51,-3.86 13,-7.7 19.68,-11.29 a 349.45,349.45 0 0 1 91.19,-34 361.15,361.15 0 0 1 38.67,-6.64 c 1.82,-0.19999 3.62,-0.37 3.62,-0.37 0,0 0,1.72 0,3.52 v 105 c 0,46.66 -1.13,96.91 -1.13,143.57 -10,9.31 -20.19,18.39 -31,26.75 -6.76,5.23 -13.64,10.33 -20.46,15.48 l -0.7,0.43001 a 3.13,3.13 0 0 0 1,-0.06 c 0.72,-0.20999 1.44,-0.41 2.15,-0.64 32.69,-10.47 68.19,-26.84 100.18,-39.3 -0.08,-44.66 0,-89.32 -0.12,-134 l -0.05,-3.11 c 3.9,0.31 10.91,0.6 14.83,0.75 21.46,0.83 42.9,2 64.08,5.88 h 0.33 v 0 l 1.58,0.27 v -1.71 c 0,0 0,-0.07 0,-0.11 0,-0.85 0,-1.71 0,-2.56 v -30.11 c 0,-0.52 0,-1 0,-1.57 0,-0.16 0,-0.3 0,-0.44 v -1.31 l -1.23,-0.24 h -0.09 l -0.21,-0.05 -1,-0.17 -1,-0.18 v 0 c -7.46,-1.32 -14.95,-2.39 -22.48,-3.13 -17.5,-1.72 -37.13,-2.55 -54.7,-3 0.05,-27 0,-56.15 0,-83.05 26.39,-0.15 54.74,1.68 80.59,7.4 l 1.71,-1 c 4.51,-2.5 9,-5 13.62,-7.32 45.87,-23.49 92.81,-44.53 139.48,-66.26 l 5.15,-2.42 a 25.89,25.89 0 0 0 -3.78,-0.47 c -11.22,-0.54 -22.37,-1.11 -33.57,-1.49 z"
     id="path16"
     style="fill:#3385e6;fill-opacity:1" />
  <path
     class="cls-3"
     d="M 148.29,323.79489 Z"
     id="path18" />
  <metadata
     id="metadata985">
    <rdf:RDF>
      <cc:Work
         rdf:about="">
        <dc:title>SpacedLogoSVG</dc:title>
      </cc:Work>
    </rdf:RDF>
  </metadata>
</svg>
