<?xml version="1.0" encoding="UTF-8" standalone="no"?>
<svg
   xmlns:dc="http://purl.org/dc/elements/1.1/"
   xmlns:cc="http://creativecommons.org/ns#"
   xmlns:rdf="http://www.w3.org/1999/02/22-rdf-syntax-ns#"
   xmlns:svg="http://www.w3.org/2000/svg"
   xmlns="http://www.w3.org/2000/svg"
   viewBox="0 0 580.39003 499.90981"
   version="1.1"
   id="svg21"
   width="580.39001"
   height="499.90979">
  <defs
     id="defs4">
    <style
       id="style2">.cls-1{fill:#5e98e5;}.cls-2{fill:#fbb630;}.cls-3{fill:#1a4373;}</style>
  </defs>
  <title
     id="title6">SpacedLogoSVG</title>
  <path
     class="cls-1"
     d="m 263.35,212.35979 v -4.79 l -12.94,1.36 -5.8,5.74 v 0 q -3.47,3.21 -6.88,6.49 c -19.27,18.67 -54,56.61 -71.76,76.76 -11.85,14.2 -23.44,28.6 -34.45,43.46 -6.62,8.94 -13,18 -19.61,27 l -2.12,2.83 1.59,0.91 v 0 l 0.83,0.44 c 27.89,14.56 48.89,35.81 62.83,64.01 9.39,19 14.25,42.1 14.37,63.34 a 471.38,471.38 0 0 0 71.9,-54.21 c 0,-75.74 2,-156.46 2,-232.2 0,-0.39 0,-0.75 0,-1.09 z"
     id="path8"
     style="fill:#e14329;fill-opacity:1" />
  <path
     class="cls-1"
     d="M 573.79,1.3497887 C 555.91,0.42978869 538.03,-0.22021131 520.12,0.06978869 q -32.73,0.53 -65.25,4.11000001 -24.3,2.72 -48.31,7.2500003 a 650.62,650.62 0 0 0 -109.28,30.87 c -42.91,16.26 -83.61,36.72 -121.26,63.100001 a 554.15,554.15 0 0 0 -151.29,157.57 c -1.27,2 -0.8,2.58 1.12,3.26 4.15,1.48 8.22,3.17 12.35,4.68 a 302.15,302.15 0 0 0 39.39,11.45 308.94,308.94 0 0 0 33.91,5.29 c 5.57,0.57 11.18,0.73 16.86,1.08 a 286.27,286.27 0 0 1 -74.18,-36.83 c -2,-1.36 -1.81,-2 -0.34,-3.62 a 337.39,337.39 0 0 1 55.81,-48.26 c 33.7,-23.55 70.45,-40.61 109.65,-52.77 a 581.1,581.1 0 0 1 71.57,-17.08 c 16.67,-2.94 38.22,-6.11 55,-8.12 A 778.78,778.78 0 0 1 435.1,70.289789 c 47.16,-23 94.88,-44.89 142.59,-66.7700003 a 29.46,29.46 0 0 0 2.7,-1.6 c -2.29,-0.2 -4.44,-0.45 -6.6,-0.57 z"
     id="path10"
     style="fill:#e14329;fill-opacity:1" />
  <path
     class="cls-2"
     d="m 128.35,298.56979 -4.52,-0.69 a 226.88,226.88 0 0 1 -25.34,-2.21 292.05,292.05 0 0 1 -56.4,-13.4 c -1.92,-0.66 -2.93,-0.37 -4.05,1.38 a 391.26,391.26 0 0 0 -33.8,65.59 c -1.39,3.46 -3.45,8.11 -4.24,11.79 a 592.38,592.38 0 0 1 115.93,-57.96 z"
     id="path12"
     style="fill:#e14329;fill-opacity:1" />
  <path
     class="cls-3"
     d="m 38.27,357.29979 c 21.63,-1.17 42.67,1.85 62.83,10.25 12.09,-17.5 24.65,-34.65 37.9,-51.3 l 11.58,-14.55 c -21.36,2.91 -118.46,46.36 -129,57.66 a 126,126 0 0 1 16.69,-2.06 z"
     id="path14"
     style="fill:#3385e6;fill-opacity:1" />
  <path
     class="cls-3"
     d="M 148.29,283.74979 Z"
     id="path18" />
  <metadata
     id="metadata880">
    <rdf:RDF>
      <cc:Work
         rdf:about="">
        <dc:title>SpacedLogoSVG</dc:title>
      </cc:Work>
    </rdf:RDF>
  </metadata>
</svg>
