<svg viewBox="0 0 246 32">
  <title xmlns="http://www.w3.org/2000/svg">TravelBank-Logo</title>
  <path xmlns="http://www.w3.org/2000/svg" fill="#323a47" style="fill: var(--color1, #323a47)" d="M12.467 6.677c0.965-2.209 3.13-3.724 5.649-3.724s4.684 1.516 5.634 3.685l0.015 0.040h3.123c-1.118-3.858-4.62-6.631-8.77-6.631s-7.652 2.773-8.754 6.567l-0.016 0.064z" />
  <path xmlns="http://www.w3.org/2000/svg" fill="#318afb" style="fill: var(--color2, #318afb)" d="M32.662 9.115h-29.095c-1.97 0-3.567 1.597-3.567 3.567v0 15.257c0 1.97 1.597 3.567 3.567 3.567v0h29.095c1.97 0 3.567-1.597 3.567-3.567v0-15.257c0-1.97-1.597-3.567-3.567-3.567v0z" />
  <path xmlns="http://www.w3.org/2000/svg" fill="#323a47" style="fill: var(--color1, #323a47)" d="M145.167 3.349h5.806v28.136h-5.806v-28.136z" />
  <path xmlns="http://www.w3.org/2000/svg" fill="#323a47" style="fill: var(--color1, #323a47)" d="M109.073 31.485l-7.379-19.041h6.329l4.478 13.093 4.522-13.093h6.131l-7.28 19.041h-6.8z" />
  <path xmlns="http://www.w3.org/2000/svg" fill="#323a47" style="fill: var(--color1, #323a47)" d="M133.084 32c-6.008 0-10.046-3.991-10.046-9.927s4.018-10.165 9.768-10.165c5.683 0 9.511 4.038 9.531 10.046 0 0.018 0 0.039 0 0.060 0 0.586-0.033 1.165-0.098 1.734l0.006-0.070h-13.256l0.059 0.246c0.519 2.136 2.025 3.261 4.359 3.261 1.419 0 2.378-0.337 3.17-1.129h5.175c-0.901 3.085-3.502 5.38-6.694 5.821l-0.042 0.005c-0.57 0.076-1.228 0.119-1.897 0.119-0.013 0-0.026-0-0.039-0h0.002zM132.827 16.783c-1.981 0-3.246 1.050-3.761 3.123l-0.059 0.246h7.581l-0.063-0.246c-0.519-2.041-1.787-3.123-3.697-3.123z" />
  <path xmlns="http://www.w3.org/2000/svg" fill="#323a47" style="fill: var(--color1, #323a47)" d="M56.177 31.485v-22.39h-8.076v-5.746h22.374v5.746h-8.076v22.39h-6.222z" />
  <path xmlns="http://www.w3.org/2000/svg" fill="#323a47" style="fill: var(--color1, #323a47)" d="M67.539 31.485v-19.041h5.548v2.774l0.369-0.614c1.066-1.775 2.794-2.679 5.152-2.679 0.098-0.006 0.212-0.010 0.327-0.010 0.823 0 1.602 0.188 2.296 0.523l-0.032-0.014c-1.459 1.372-2.578 3.089-3.228 5.022l-0.025 0.086c-0.289-0.028-0.575-0.040-0.844-0.040-2.449 0-3.745 1.28-3.745 3.705v10.303z" />
  <path xmlns="http://www.w3.org/2000/svg" fill="#323a47" style="fill: var(--color1, #323a47)" d="M88.443 32c-5.037 0-8.837-4.327-8.837-10.066s3.808-10.026 8.857-10.026c2.291 0 4.109 0.86 5.409 2.556l0.357 0.464v-2.485h5.607v19.041h-4.359l-1.435-2.247-0.17 0.226c-1.292 1.684-3.123 2.536-5.429 2.536zM89.957 17.607c-2.407 0-4.359 1.952-4.359 4.359s1.952 4.359 4.359 4.359c2.407 0 4.359-1.952 4.359-4.359v0c0-2.407-1.952-4.359-4.359-4.359v0z" />
  <path xmlns="http://www.w3.org/2000/svg" fill="#323a47" style="fill: var(--color1, #323a47)" d="M155.502 31.485v-28.136h10.937c6.844 0 10.462 2.722 10.462 7.874 0 0.023 0 0.050 0 0.077 0 2.554-1.51 4.755-3.686 5.76l-0.039 0.016-0.436 0.202 0.452 0.166c2.488 0.952 4.23 3.303 4.268 6.066l0 0.005c0 5.219-3.567 7.973-10.343 7.973zM161.724 26.175h5.072c2.893 0 4.24-0.991 4.24-3.111s-1.387-3.071-4.24-3.071h-5.072zM161.724 14.682h4.557c2.774 0 4.121-0.991 4.121-3.032s-1.347-2.992-4.121-2.992h-4.557z" />
  <path xmlns="http://www.w3.org/2000/svg" fill="#323a47" style="fill: var(--color1, #323a47)" d="M216.328 31.485v-10.363c0-2.378-1.221-3.785-3.269-3.785-1.617 0-3.349 1.018-3.349 3.884v10.264h-5.806v-19.041h4.082l1.649 2.615 0.166-0.273c1.165-1.934 3.004-2.877 5.615-2.877 4.006 0 6.697 2.818 6.697 7.014v12.562z" />
  <path xmlns="http://www.w3.org/2000/svg" fill="#323a47" style="fill: var(--color1, #323a47)" d="M243.43 31.489c-0.006 0-0.014 0-0.021 0-3.277 0-6.158-1.7-7.807-4.267l-0.022-0.037-2.049-3.21h-1.633v7.529h-5.81v-28.136h5.806v15.534h1.787l4.597-6.44h7.002l-7.034 8.936 2.152 3.059c0.734 1.033 1.926 1.699 3.273 1.7h1.815v5.31z" />
  <path xmlns="http://www.w3.org/2000/svg" fill="#323a47" style="fill: var(--color1, #323a47)" d="M188.552 32c-5.037 0-8.837-4.327-8.837-10.066s3.808-10.026 8.857-10.026c2.291 0 4.109 0.86 5.409 2.556l0.357 0.464v-2.485h5.607v19.041h-4.359l-1.435-2.247-0.17 0.226c-1.292 1.684-3.119 2.536-5.429 2.536zM190.050 17.603c-2.407 0-4.359 1.952-4.359 4.359s1.952 4.359 4.359 4.359c2.407 0 4.359-1.952 4.359-4.359v0c-0.002-2.406-1.953-4.355-4.359-4.355-0.001 0-0.003 0-0.004 0h0z" />
</svg>
