<?xml version="1.0" encoding="UTF-8"?>
<svg width="344px" height="232px" viewBox="0 0 344 232" version="1.1" xmlns="http://www.w3.org/2000/svg" xmlns:xlink="http://www.w3.org/1999/xlink">
    <title>Group 8</title>
    <g id="Page-1" stroke="none" stroke-width="1" fill="none" fill-rule="evenodd">
        <g id="landing-page" transform="translate(-56.000000, -785.000000)" fill-rule="nonzero">
            <g id="Group-9" transform="translate(56.000000, 235.000000)">
                <g id="Group-8" transform="translate(0.000000, 550.000000)">
                    <path d="M24.7399998,93.4521003 L16.4985585,98.4343208 C11.3226234,101.561993 7.4807699,106.480953 5.70519884,112.25372 L0.573472274,128.953901 C-0.922867955,133.817879 0.565333689,139.105857 4.38043247,142.481048 L4.7290552,142.787218 C6.05167713,143.888957 7.58373765,144.712615 9.23326085,145.208744 L26.399444,150.455384 C30.4977836,151.70906 34.3342975,153.694181 37.7227102,156.314364 L128.545903,226.51079 C129.36203,227.130934 130.482977,227.164495 131.334885,226.594291 L131.334885,226.594291 C136.826494,222.827259 140.55174,216.997905 141.658336,210.43991 C142.764931,203.881916 141.158182,197.156463 137.205692,191.802248 L75.2902955,108.301344 C72.8385206,105.003676 69.5974753,102.372043 65.8635369,100.647095 L47.735155,92.2970044 C40.3495824,88.8671705 31.7431508,89.29949 24.7399998,93.4521003 Z" id="Path" fill="#FFFFFF"></path>
                    <path d="M5,143 L99.587402,226.356233 C106.808682,232.318773 116.804405,233.676336 125.364945,229.857195 L126.592447,229.301486 C127.355951,228.956303 127.883126,228.239176 127.982915,227.410004 C128.082704,226.580833 127.740627,225.759934 127.080658,225.244816 L37.9891175,156.50371 C34.5997383,153.888067 30.76213,151.906385 26.6626213,150.654881 L9.49154158,145.417331 C7.84647551,144.920348 6.31887206,144.098198 5,143 Z" id="Path" fill="#3385E6"></path>
                    <path d="M308.939901,65.0019074 L331.625027,17.8377797 L300.108607,39.156636 C298.839021,40.0228019 297.541533,40.8749973 296.230092,41.7132223 C286.976514,47.6613982 277.284872,52.8967533 267.238892,57.3740597 L260.472419,60.3916698 C252.803465,63.8269846 244.950749,66.8352125 236.950204,69.4025888 L214.153466,76.7230873 L214.153466,76.8208802 L214.013951,76.8208802 L213.860485,76.8208802 L213.860485,76.7230873 L191.063748,69.4025888 C183.06233,66.8376993 175.209479,63.8294193 167.541533,60.3916698 L160.775059,57.3740597 C150.726024,52.8938695 141.029958,47.6586441 131.769908,41.7132223 C130.472419,40.8749973 129.17493,40.0228019 127.891393,39.156636 L96.3889247,17.8377797 L119.060099,65.0019074 L84,42.1463052 L106.838592,133.247394 L107.75939,133.917974 L129.998068,150.151599 C146.299193,161.957488 164.203753,171.366486 183.167203,178.092433 L201.792445,184.742351 C209.706038,187.536256 218.335817,187.536256 226.24941,184.742351 L244.832797,178.092433 C263.796247,171.366486 281.700807,161.957488 298.001932,150.151599 L320.226658,133.931945 L321.161408,133.247394 L344,42.1463052 L308.939901,65.0019074 Z M127.422614,75.9475741 L127.422614,75.9475741 L157.915897,87.6130661 C158.253101,87.7400087 158.597096,87.8478016 158.946264,87.9359377 L213.346837,101.552697 L213.541772,101.552697 L213.694934,101.552697 L268.123356,87.9359377 C268.471956,87.8457716 268.815844,87.738012 269.153722,87.6130661 L299.633081,75.9475741 L299.633081,75.9475741 L313,70.8377797 L310.702561,83.0507497 L305.314022,111.758248 L304.812762,114.411411 L302.25077,115.969617 C302.217263,115.985166 302.188438,116.009383 302.167226,116.039807 L274.597957,132.885283 L274.597957,132.885283 L273.985306,133.264306 L273.303037,133.516988 L273.303037,133.516988 L272.27267,133.924087 L232.380772,149.365773 C220.269908,153.995115 206.897178,153.995115 194.786314,149.365773 L156.481738,134.541754 L153.808354,133.50295 L153.808354,133.50295 L153.140008,133.250268 L152.527358,132.871245 L152.527358,132.871245 L124.985936,116.025769 L124.874545,115.955579 L122.201161,114.4816 L121.685978,111.828438 L121.685978,111.828438 L116.297439,83.1209392 L114,70.9079692 L127.422614,75.9475741 Z" id="Shape" fill="#FFFFFF"></path>
                    <path d="M296,42.0543783 C286.777402,47.991269 277.116822,53.2150165 267.102179,57.6802427 L260.371407,60.6911139 C252.699402,64.1203964 244.844119,67.1219086 236.841516,69.6819101 L214.118206,77 L213.965234,77 L213.812262,77 L191.088951,69.6819101 C183.114142,67.1257369 175.286675,64.1288631 167.6425,60.7050532 L160.911727,57.6941819 C150.893859,53.2264457 141.228843,48.0028133 132,42.0683176 L137.089799,36.8689889 C143.240129,30.6323121 150.117824,25.1612262 157.574154,20.5740421 L163.971169,16.6013647 C174.127249,10.3437284 185.128818,5.58349266 196.637666,2.46699679 L197.736284,2.1742732 C208.409474,-0.724757733 219.660059,-0.724757733 230.333249,2.1742732 L231.431866,2.46699679 C242.94148,5.58129238 253.943356,10.3416607 264.098363,16.6013647 L270.495379,20.5740421 C277.924757,25.179777 284.774287,30.6647837 290.896294,36.9108066 L296,42.0543783 Z" id="Path" fill="#3385E6"></path>
                </g>
            </g>
        </g>
    </g>
</svg>