<?xml version="1.0" encoding="UTF-8"?>
<svg width="439px" height="365px" viewBox="0 0 439 365" version="1.1" xmlns="http://www.w3.org/2000/svg" xmlns:xlink="http://www.w3.org/1999/xlink">
    <title>problem_solving</title>
    <defs>
        <linearGradient x1="0%" y1="49.9925411%" x2="99.9971399%" y2="49.9925411%" id="linearGradient-1">
            <stop stop-color="#000000" stop-opacity="0" offset="0%"></stop>
            <stop stop-color="#000000" stop-opacity="0.8" offset="91%"></stop>
            <stop stop-color="#000000" offset="100%"></stop>
        </linearGradient>
        <linearGradient x1="158.266184%" y1="-62.4958018%" x2="92.8894083%" y2="-112.003616%" id="linearGradient-2">
            <stop stop-color="#0D4485" offset="0%"></stop>
            <stop stop-color="#000000" stop-opacity="0.8" offset="91%"></stop>
            <stop stop-color="#000000" offset="100%"></stop>
        </linearGradient>
        <linearGradient x1="25.2007941%" y1="-3.56574522%" x2="141.265682%" y2="-25.0411285%" id="linearGradient-3">
            <stop stop-color="#000000" stop-opacity="0" offset="0%"></stop>
            <stop stop-color="#000000" stop-opacity="0.8" offset="91%"></stop>
            <stop stop-color="#000000" offset="100%"></stop>
        </linearGradient>
        <linearGradient x1="99.3539671%" y1="81.799729%" x2="51.9159912%" y2="54.1076487%" id="linearGradient-4">
            <stop stop-color="#00272E" offset="0%"></stop>
            <stop stop-color="#69B9EB" stop-opacity="0" offset="100%"></stop>
        </linearGradient>
        <linearGradient x1="343.348594%" y1="750.138395%" x2="218.346811%" y2="497.706603%" id="linearGradient-5">
            <stop stop-color="#ECC4D7" offset="0%"></stop>
            <stop stop-color="#EFD4D1" offset="42%"></stop>
            <stop stop-color="#ECC4D7" offset="100%"></stop>
        </linearGradient>
        <linearGradient x1="186.29954%" y1="428.70299%" x2="286.273448%" y2="428.70299%" id="linearGradient-6">
            <stop stop-color="#ECC4D7" offset="0%"></stop>
            <stop stop-color="#EFD4D1" offset="42%"></stop>
            <stop stop-color="#F2EAC9" offset="100%"></stop>
        </linearGradient>
        <linearGradient x1="178.949562%" y1="32.1167883%" x2="278.949562%" y2="32.1167883%" id="linearGradient-7">
            <stop stop-color="#ECC4D7" offset="0%"></stop>
            <stop stop-color="#EFD4D1" offset="42%"></stop>
            <stop stop-color="#F2EAC9" offset="100%"></stop>
        </linearGradient>
        <linearGradient x1="92.3333317%" y1="-76.1674867%" x2="187.778078%" y2="-122.219569%" id="linearGradient-8">
            <stop stop-color="#000000" stop-opacity="0" offset="0%"></stop>
            <stop stop-color="#000000" stop-opacity="0.8" offset="91%"></stop>
            <stop stop-color="#000000" offset="100%"></stop>
        </linearGradient>
        <linearGradient x1="0%" y1="50.0337154%" x2="100%" y2="50.0337154%" id="linearGradient-9">
            <stop stop-color="#ECC4D7" offset="0%"></stop>
            <stop stop-color="#EFD4D1" offset="42%"></stop>
            <stop stop-color="#F2EAC9" offset="100%"></stop>
        </linearGradient>
        <linearGradient x1="540.528634%" y1="-2149.52251%" x2="640.6545%" y2="-2149.52251%" id="linearGradient-10">
            <stop stop-color="#ECC4D7" offset="0%"></stop>
            <stop stop-color="#EFD4D1" offset="42%"></stop>
            <stop stop-color="#F2EAC9" offset="100%"></stop>
        </linearGradient>
        <linearGradient x1="144.80442%" y1="35.5714511%" x2="96.2561474%" y2="65.517492%" id="linearGradient-11">
            <stop stop-color="#00272E" offset="0%"></stop>
            <stop stop-color="#69B9EB" stop-opacity="0" offset="100%"></stop>
        </linearGradient>
        <linearGradient x1="175.04075%" y1="-307.786499%" x2="275.04075%" y2="-307.786499%" id="linearGradient-12">
            <stop stop-color="#ECC4D7" offset="0%"></stop>
            <stop stop-color="#EFD4D1" offset="42%"></stop>
            <stop stop-color="#F2EAC9" offset="100%"></stop>
        </linearGradient>
        <linearGradient x1="242.334955%" y1="-767.97911%" x2="342.332327%" y2="-767.97911%" id="linearGradient-13">
            <stop stop-color="#ECC4D7" offset="0%"></stop>
            <stop stop-color="#EFD4D1" offset="42%"></stop>
            <stop stop-color="#F2EAC9" offset="100%"></stop>
        </linearGradient>
        <linearGradient x1="56.134709%" y1="-31.5070184%" x2="81.9293985%" y2="-37.7364471%" id="linearGradient-14">
            <stop stop-color="#00272E" offset="36%"></stop>
            <stop stop-color="#69B9EB" stop-opacity="0" offset="100%"></stop>
        </linearGradient>
        <linearGradient x1="171.550046%" y1="146.946061%" x2="271.55268%" y2="146.946061%" id="linearGradient-15">
            <stop stop-color="#ECC4D7" offset="0%"></stop>
            <stop stop-color="#EFD4D1" offset="42%"></stop>
            <stop stop-color="#F2EAC9" offset="100%"></stop>
        </linearGradient>
        <linearGradient x1="45.5650493%" y1="-130.324329%" x2="132.237196%" y2="-67.6747943%" id="linearGradient-16">
            <stop stop-color="#00272E" offset="36%"></stop>
            <stop stop-color="#69B9EB" stop-opacity="0" offset="100%"></stop>
        </linearGradient>
        <linearGradient x1="436.873104%" y1="-2020.3082%" x2="536.798101%" y2="-2020.3082%" id="linearGradient-17">
            <stop stop-color="#ECC4D7" offset="0%"></stop>
            <stop stop-color="#EFD4D1" offset="42%"></stop>
            <stop stop-color="#F2EAC9" offset="100%"></stop>
        </linearGradient>
        <linearGradient x1="220.25478%" y1="294.138452%" x2="123.678145%" y2="299.175854%" id="linearGradient-18">
            <stop stop-color="#000000" stop-opacity="0" offset="0%"></stop>
            <stop stop-color="#000000" stop-opacity="0.8" offset="91%"></stop>
            <stop stop-color="#000000" offset="100%"></stop>
        </linearGradient>
        <linearGradient x1="46.1170753%" y1="39.2045512%" x2="57.6889504%" y2="68.3467861%" id="linearGradient-19">
            <stop stop-color="#68E1FD" stop-opacity="0" offset="0%"></stop>
            <stop stop-color="#66DAF6" stop-opacity="0.04" offset="2%"></stop>
            <stop stop-color="#58A1BC" stop-opacity="0.39" offset="18%"></stop>
            <stop stop-color="#4D758F" stop-opacity="0.66" offset="35%"></stop>
            <stop stop-color="#45566F" stop-opacity="0.85" offset="53%"></stop>
            <stop stop-color="#40435C" stop-opacity="0.96" offset="73%"></stop>
            <stop stop-color="#3F3D56" offset="99%"></stop>
        </linearGradient>
        <linearGradient x1="188.195011%" y1="97.8864016%" x2="199.266264%" y2="63.9451994%" id="linearGradient-20">
            <stop stop-color="#68E1FD" stop-opacity="0" offset="0%"></stop>
            <stop stop-color="#66DAF6" stop-opacity="0.04" offset="2%"></stop>
            <stop stop-color="#58A1BC" stop-opacity="0.39" offset="18%"></stop>
            <stop stop-color="#4D758F" stop-opacity="0.66" offset="35%"></stop>
            <stop stop-color="#45566F" stop-opacity="0.85" offset="53%"></stop>
            <stop stop-color="#40435C" stop-opacity="0.96" offset="73%"></stop>
            <stop stop-color="#3F3D56" offset="99%"></stop>
        </linearGradient>
    </defs>
    <g id="Page-1" stroke="none" stroke-width="1" fill="none" fill-rule="evenodd">
        <g id="landing-page" transform="translate(-6993.000000, -380.000000)" fill-rule="nonzero">
            <g id="reverse-engineering" transform="translate(6202.000000, 380.000000)">
                <g id="problem_solving" transform="translate(791.000000, 0.000000)">
                    <path d="M122.097077,365 L31.5421322,334.299613 C31.5421322,334.299613 -1.78129098,292.796973 0.0747511549,223 L134.833366,278.38207 C134.833366,278.38207 193.430252,261.475439 228.339489,259.783348 C263.248725,258.091256 418.01135,241.777214 418.01135,241.777214 C418.01135,241.777214 447.878695,276.154508 434.594837,286.671175 C421.31098,297.187843 325.699921,298.95847 325.699921,298.95847 L259.209523,259.833325 L203.322032,303.213686 L160.654396,343.581125 L122.097077,365 Z" id="Path" fill="#000405" opacity="0.05"></path>
                    <path d="M271.421801,212 L270,215.608524 C270,215.608524 274.265403,219.380426 271.421801,221 C271.421801,221 286.222749,220.083662 271.421801,212 Z" id="Path" fill="#3F3D56"></path>
                    <path d="M101.701562,329 L100,333.928324 L113.95,340.602395 C113.95,340.602395 126.915625,342.269117 130.902344,338.777622 C133.320861,336.599957 135.08796,333.768397 136,330.609249 L101.701562,329 Z" id="Path" fill="#333333"></path>
                    <path d="M137.980603,282.002296 C137.980603,282.002296 154.364373,281.70632 159.157572,287.835187 C163.950771,293.964054 146.726088,312.11243 146.726088,312.11243 L107,315 L137.980603,282.002296 Z" id="Path" fill="#73B3FF"></path>
                    <path d="M137.980603,282.002296 C137.980603,282.002296 154.364373,281.70632 159.157572,287.835187 C163.950771,293.964054 146.726088,312.11243 146.726088,312.11243 L107,315 L137.980603,282.002296 Z" id="Path" fill="url(#linearGradient-1)"></path>
                    <path d="M137.755475,309.102682 C137.755475,309.102682 172.367072,312.305432 178.384642,314.582783 C189.757427,318.971203 186.375186,335.36813 181.203176,337.117714 C176.911958,338.599799 144.273335,350.854116 133.837713,354.779836 C132.04124,355.44572 130.050961,354.553308 129.30692,352.748294 L125.727382,343.993145 C125.330231,343.023734 125.352828,341.926914 125.789552,340.975589 C126.226276,340.024265 127.036068,339.307872 128.01744,339.004662 L148.55046,332.736524 C148.55046,332.736524 118.068016,335.888667 111.909519,334.486108 C98.2748608,331.420721 84.8304538,313.52002 91.9895301,297.889439 C99.1486064,282.258859 137.755475,309.102682 137.755475,309.102682 Z" id="Path" fill="#68E1FD"></path>
                    <path d="M137.755475,309.102682 C137.755475,309.102682 172.367072,312.305432 178.384642,314.582783 C189.757427,318.971203 186.375186,335.36813 181.203176,337.117714 C176.911958,338.599799 144.273335,350.854116 133.837713,354.779836 C132.04124,355.44572 130.050961,354.553308 129.30692,352.748294 L125.727382,343.993145 C125.330231,343.023734 125.352828,341.926914 125.789552,340.975589 C126.226276,340.024265 127.036068,339.307872 128.01744,339.004662 L148.55046,332.736524 C148.55046,332.736524 118.068016,335.888667 111.909519,334.486108 C98.2748608,331.420721 84.8304538,313.52002 91.9895301,297.889439 C99.1486064,282.258859 137.755475,309.102682 137.755475,309.102682 Z" id="Path" fill="url(#linearGradient-2)"></path>
                    <path d="M228.62285,222 L227,228.321662 L235.321576,235.66134 C235.321576,235.66134 232.940919,235.66134 231.032104,239.363214 L230.274297,247.457504 C230.274297,247.457504 235.864909,259.502833 251.292709,248.973849 L276.314629,271 L331.813246,251.536685 L333,244.004794 L228.62285,222 Z" id="Path" fill="#3F3D56"></path>
                    <path d="M379.096241,227.436225 L351.629248,216.551069 C348.189469,214.606605 344.024297,214.483324 340.47745,216.220999 C337.323679,217.72592 335.256139,220.870043 335.107802,224.386659 C334.161891,234.862814 339.752014,283.081827 339.752014,283.081827 C341.813441,283.886927 343.96199,284.443299 346.152919,284.739356 C350.043056,285.520824 354.076535,284.525148 357.169587,282.019861 L357.702995,245.747969 C357.702995,245.747969 388.662037,265.04275 399.707154,263.435449 C412.068012,261.641587 431.953489,251.409398 418.518701,227.68019 C405.083914,203.950982 379.096241,227.436225 379.096241,227.436225 Z" id="Path" fill="#0D4485"></path>
                    <path d="M379.096241,227.436225 L351.629248,216.551069 C348.189469,214.606605 344.024297,214.483324 340.47745,216.220999 C337.323679,217.72592 335.256139,220.870043 335.107802,224.386659 C334.161891,234.862814 339.752014,283.081827 339.752014,283.081827 C341.813441,283.886927 343.96199,284.443299 346.152919,284.739356 C350.043056,285.520824 354.076535,284.525148 357.169587,282.019861 L357.702995,245.747969 C357.702995,245.747969 388.662037,265.04275 399.707154,263.435449 C412.068012,261.641587 431.953489,251.409398 418.518701,227.68019 C405.083914,203.950982 379.096241,227.436225 379.096241,227.436225 Z" id="Path" fill="url(#linearGradient-3)"></path>
                    <path d="M355.634242,164 C355.634242,164 347.556129,189.78889 345.37632,195.318143 C343.196512,200.847395 305,205.447962 305,205.447962 L306.424711,222 L349.92115,216.585047 L363,197.618426 L355.634242,164 Z" id="Path" fill="#3F97FF"></path>
                    <path d="M355.634242,164 C355.634242,164 347.556129,189.78889 345.37632,195.318143 C343.196512,200.847395 305,205.447962 305,205.447962 L306.424711,222 L349.92115,216.585047 L363,197.618426 L355.634242,164 Z" id="Path" fill="url(#linearGradient-4)" opacity="0.61"></path>
                    <path d="M377.54806,155.172625 L386.383372,160.078966 C402.795871,167.410036 408.759529,183.728953 418,227.27451 C418,227.27451 410.238004,244.638692 381.663624,232.963022 C381.663624,232.963022 362.272851,204.620012 359.074226,193.996717 C355.875601,183.373421 347.822175,165.091967 362.628253,158.102208 C377.434331,151.11245 377.54806,155.172625 377.54806,155.172625 Z" id="Path" fill="#3F97FF"></path>
                    <path d="M396.474866,194 L407,234.128744 C407,234.128744 396.259358,240.745456 381.903743,233.889924 C367.548128,227.034392 372.629947,220.213981 368,211.883385 L382.063636,204.156864 L396.474866,194 Z" id="Path" fill="#000405" opacity="0.05"></path>
                    <path d="M377.225878,155 C376.064834,157.334681 373.952045,159.144807 371.353047,160.03153 C368.754049,160.918254 365.882118,160.80881 363.370062,159.727314 L362.940998,159.534923 C362.940998,159.534923 354.300532,173.531345 366.639827,171.861668 C373.179358,170.975297 378.905146,161.932935 380,157.349915 L377.225878,155 Z" id="Path" fill="#333333"></path>
                    <path d="M377,143 C377,143.16243 376.634705,150.259899 376.352118,155.372903 C376.14568,159.32906 374.489015,163.059475 371.71356,165.817836 C370.10499,167.529783 368.172489,168.887504 366.034255,169.807955 C364.982574,170.208931 363.800265,169.971555 362.974047,169.193548 C362.145155,168.411501 361.810308,167.221554 362.10561,166.107384 C362.381304,165.040998 362.656998,163.812182 362.877554,162.52687 C363.33245,159.857373 363.56679,156.96895 362.829307,154.927986 C362.808205,154.851255 362.782893,154.775806 362.753492,154.701997 C362.33995,153.649736 362.753492,152.498604 363.725314,151.34041 C365.062432,149.716113 367.405835,148.07063 369.749237,146.679385 C372.097969,145.316626 374.518602,144.088281 377,143 L377,143 Z" id="Path" fill="#ECC4D7"></path>
                    <path d="M363.636769,160.482404 C363.134659,160.718396 362.601444,160.892405 362.050696,161 C362.528691,158.459075 362.77493,155.709767 362,153.767102 L362.941504,150.352313 L363.665738,147.811388 L369.300279,145.915777 L375,144 C373.580501,153.39739 368.170474,158.512851 363.636769,160.482404 Z" id="Path" fill="url(#linearGradient-5)"></path>
                    <path d="M363.058982,114.011739 C354.243249,114.536194 347.517932,122.075926 348.027106,130.863928 C348.027106,131.270606 348.091528,131.677285 348.148792,132.083963 C348.649436,138.559397 350.317717,144.89174 353.073521,150.776908 C358.29173,159.652489 371.462517,152.346544 373.545506,148.693572 C375.628494,145.0406 383.502334,128.509473 380.202479,123.807698 C378.019278,120.611347 371.605678,113.676407 363.058982,114.011739 Z" id="Path" fill="url(#linearGradient-6)"></path>
                    <path d="M348.366833,106.995628 L351.013068,108.380002 C347.809773,108.304273 344.766536,109.804844 342.836341,112.411814 C340.419657,114.875764 339.043011,118.20466 339,121.688547 L343.5014,119.547763 C343.5014,119.547763 343.15837,125.199434 351.671126,125.634727 C360.183883,126.07002 369.207685,126.419682 369.207685,126.419682 L366.33743,122.337919 C366.33743,122.337919 371.6229,124.478703 372.553983,126.505313 C373.388712,129.704514 373.987766,132.96282 374.346142,136.253019 C374.346142,136.253019 376.446329,130.672707 377.335408,131.892954 C378.224487,133.113202 376.411325,138.17259 375.298227,139.278662 C374.185128,140.384734 374.374144,143.717222 374.269135,143.988388 C374.164126,144.259554 379.561605,139.706819 379.799627,138.144046 C380.037648,136.581273 385.400124,120.746602 381.899813,117.449794 L384,117.292803 C382.742554,116.420691 381.305559,115.854312 379.799627,115.637263 C379.799627,115.637263 365.875389,96.8768526 348.366833,106.995628 Z" id="Path" fill="#333333"></path>
                    <path d="M305.575657,207.240876 C302.848045,206.749328 300.166605,206.016693 297.561067,205.051095 C293.385647,203.934388 289.112933,203.247322 284.805752,203 C284.805752,203 283.976657,205.919708 286.22301,206.518248 C288.469362,207.116788 291.041684,208.094891 291.041684,208.094891 L281.673614,209.065693 L273,210.284672 C273,210.284672 273.829095,213.20438 276.160484,213.20438 C276.834572,214.461964 277.742328,215.570618 278.832013,216.467153 C280.481314,218.003965 282.011859,219.67081 283.409754,221.452555 C284.586678,222.409995 285.840777,223.262235 287.158399,224 C287.640267,224 305.901626,221.810219 307,220.014599 L305.575657,207.240876 Z" id="Path" fill="url(#linearGradient-7)"></path>
                    <path d="M381.820254,234.414133 C381.820254,234.414133 384.653197,248.442929 388.853035,251.973028 C388.853035,251.973028 361.316829,273.350911 360.034923,288.817112 C358.243086,310.194996 426,277.04307 426,277.04307 L421.311479,265.233798 L391.933861,278.191586 C391.933861,278.191586 409.809731,266.17093 418.719337,254.143228 C425.702541,244.602802 421.906397,235.823354 418.011101,229.002725 C417.940277,228.777249 401.077184,242.643984 381.820254,234.414133 Z" id="Path" fill="#0D4485"></path>
                    <path d="M381.820254,234.414133 C381.820254,234.414133 384.653197,248.442929 388.853035,251.973028 C388.853035,251.973028 361.316829,273.350911 360.034923,288.817112 C358.243086,310.194996 426,277.04307 426,277.04307 L421.311479,265.233798 L391.933861,278.191586 C391.933861,278.191586 409.809731,266.17093 418.719337,254.143228 C425.702541,244.602802 421.906397,235.823354 418.011101,229.002725 C417.940277,228.777249 401.077184,242.643984 381.820254,234.414133 Z" id="Path" fill="url(#linearGradient-8)"></path>
                    <polygon id="Path" fill="url(#linearGradient-9)" points="422 264.665543 427.353215 263 430 269.345246 424.087605 273"></polygon>
                    <path d="M346.513531,286.997671 L346,283.871385 C350.125101,284.520298 354.339167,283.484571 357.682819,281 L358,286.120512 C354.548674,288.267978 350.255091,288.595855 346.513531,286.997671 Z" id="Path" fill="url(#linearGradient-10)"></path>
                    <path d="M346.281729,287 L333.961963,291.259864 C333.961963,291.259864 327.113622,289.657211 325.743954,293.34123 C324.845862,295.23154 324.757404,297.383537 325.497559,299.335566 C325.497559,299.335566 328.729686,302.110721 336.781015,300.494193 C344.832344,298.877665 358,294.943882 358,294.943882 L357.507209,287.235888 C353.923364,288.799139 349.790475,288.712292 346.281729,287 Z" id="Path" fill="#333333"></path>
                    <path d="M427.725309,261.539635 C427.725309,261.539635 424.678288,262.809599 425.027946,263.629633 C425.377604,264.449667 426.455122,262.642689 429.181028,269.96494 L427.432738,271.263932 L431.229026,279.515071 C429.201489,281.071385 428.095509,283.572637 428.296179,286.147912 C428.674381,288.158084 432.178098,288.433848 434.982499,287.446904 C437.7869,286.45996 439,280.124653 439,280.124653 C439,280.124653 437.166079,264.935882 433.391198,262.40321 C429.616317,259.870539 427.725309,261.539635 427.725309,261.539635 Z" id="Path" fill="#333333"></path>
                    <path d="M337,246.957934 L280.010021,265 L253.879554,243.198278 C243.34926,254.01353 230.674564,245.902091 232.414228,239.588438 C234.153892,233.274785 245.834495,235.557688 245.834495,235.557688 L230,222.195572 L259.623996,214.704797 C259.808614,215.753506 261.04413,220.840098 268.237109,221.24674 C276.282169,221.710455 278.107041,215.132841 271.42531,211.915375 L290.213684,207 L337,246.957934 Z" id="Path" fill="#73B3FF"></path>
                    <path d="M320.553988,239.673307 C320.171522,239.779912 319.810406,239.956525 319.487586,240.194857 C319.189298,240.492478 318.922888,240.822786 318.693013,241.180007 C317.661461,242.512858 315.981705,243.041652 314.455288,243.671858 C312.730206,244.380177 311.092368,245.299354 309.576328,246.409996 C309.348517,246.544489 309.169695,246.753249 309.067522,247.003984 C308.837514,247.779066 309.994524,248.162984 310.384841,248.865628 C310.619879,249.405448 310.52701,250.038487 310.147863,250.480985 C309.772778,250.90829 309.326506,251.261664 308.830544,251.524085 C306.175752,253.208314 303.856905,255.406771 302,258 C310.432514,253.441054 319.223145,249.636421 328.276684,246.627309 C328.981622,246.444453 329.643296,246.114175 330.221298,245.656646 C330.806574,245.178426 331.043038,244.371776 330.813743,243.635639 C330.660405,243.280695 331.19709,243.186527 330.918292,242.911264 C329.559154,241.650851 327.273012,239.542919 325.453857,238 C325.481737,238.014488 321.982826,239.180732 320.553988,239.673307 Z" id="Path" fill="#000405" opacity="0.05"></path>
                    <path d="M397.654831,168.090141 C395.593782,165.661715 392.377729,164.544263 389.256145,165.171927 C386.134561,165.799591 383.599543,168.073423 382.635974,171.110015 C382.124694,172.751405 381.585009,174.719652 381.052426,177.142657 C378.21198,190.238251 365.351862,218.717438 365.351862,218.717438 L328,238.904406 L338.225605,252 L381.968469,230.441654 C381.968469,230.441654 401.34031,187.623395 400.992355,179.459078 C401.10658,175.411979 399.938333,171.432463 397.654831,168.090141 L397.654831,168.090141 Z" id="Path" fill="#3F97FF"></path>
                    <path d="M397.654831,168.090141 C395.593782,165.661715 392.377729,164.544263 389.256145,165.171927 C386.134561,165.799591 383.599543,168.073423 382.635974,171.110015 C382.124694,172.751405 381.585009,174.719652 381.052426,177.142657 C378.21198,190.238251 365.351862,218.717438 365.351862,218.717438 L328,238.904406 L338.225605,252 L381.968469,230.441654 C381.968469,230.441654 401.34031,187.623395 400.992355,179.459078 C401.10658,175.411979 399.938333,171.432463 397.654831,168.090141 L397.654831,168.090141 Z" id="Path" fill="url(#linearGradient-11)" opacity="0.61"></path>
                    <path d="M330.560513,241 C327.850351,241.738173 325.082897,242.240679 322.288305,242.502041 C318.01439,243.287279 313.827191,244.496669 309.787286,246.112716 C309.787286,246.112716 310.215159,249.073469 312.482885,248.661852 C314.750611,248.250235 317.517522,248.06248 317.517522,248.06248 L309.437857,252.965777 L302,257.782418 C302,257.782418 303.93969,260.057143 306.064792,259.038932 C307.205827,259.877002 308.496689,260.482767 309.865729,260.822606 C311.990942,261.492331 314.062624,262.325201 316.062755,263.313972 C317.531044,263.671804 319.026961,263.901323 320.534026,264 C320.96903,263.805024 336.893032,253.947881 337,251.897017 L330.560513,241 Z" id="Path" fill="url(#linearGradient-12)"></path>
                    <path d="M205.163511,236 L218.886395,241.433417 L218.886395,249.590712 C218.886395,249.590712 202.447524,249.941949 202.447524,257.088541 C202.447524,264.235134 217.950094,269.840586 228.34232,260.299849 L252,273.919233 L251.14232,280.900959 L179.211536,307 L138,256.572438 L138,248.422312 L205.163511,236 Z" id="Path" fill="#3F3D56"></path>
                    <path d="M205.146672,228 L218.894697,241.381564 C218.894697,241.381564 202.459947,241.738026 202.459947,248.845868 C202.459947,255.95371 217.958631,261.528768 228.348251,252.032634 L252,273.662717 L179.958631,299 L138,248.496536 L166.26777,239.870168 C166.26777,239.870168 157.278676,233.838839 165.917638,229.810824 C167.513531,229.028474 169.245943,228.561258 171.019556,228.434883 C177.800677,228.163972 178.879654,231.650166 179.772847,235.464304 L179.772847,235.763731 L205.146672,228 Z" id="Path" fill="#73B3FF"></path>
                    <path d="M150.454862,245 L150.454862,245 C150.454862,245 161.854847,269.692139 167.276965,273.788563 C170.297961,276.07461 191.181308,282.861753 208.91541,283.820188 C210.575532,283.912482 215.762526,279.120305 218.213522,279.752162 C221.776018,280.6822 217.565148,283.869885 218.391647,283.912482 C229.079133,284.416548 235,279.752162 235,279.752162 L178.712575,300 L141,246.114625 L150.454862,245 Z" id="Path" fill="#000405" opacity="0.05"></path>
                    <path d="M203.858087,289.524975 C205.823591,287.01592 208.072186,284.730626 210.561437,282.71222 C212.597302,281.526208 214.787986,280.61389 217.074101,280 C217.074101,280 218.100872,283.041408 216.340693,283.613909 C214.580514,284.186409 213.56841,287.192036 213.56841,287.192036 C213.56841,287.192036 226.373716,289.582225 227.921207,288.845131 C229.468698,288.108036 229.615379,290.448132 226.593738,290.884663 C223.572097,291.321195 223.660106,295.550541 221.606563,295.894041 C219.55302,296.237542 216.509377,298.148262 213.487736,298.856731 C209.985762,299.150674 206.459337,298.991862 203,298.384418 L203.858087,289.524975 Z" id="Path" fill="url(#linearGradient-13)"></path>
                    <path d="M148.266941,254.379251 C151.569952,236.355836 143.519204,218.144439 127.985749,208.501673 C125.28332,206.644351 122.185394,205.446754 118.939411,205.004536 C105.900993,204.246465 92,298.762143 92,298.762143 C92,298.762143 98.2803972,317.070264 117.292678,318.82956 C134.85783,320.460127 138.279612,309.85429 138.279612,309.85429 L148.266941,254.379251 Z" id="Path" fill="#0D4485"></path>
                    <path d="M148.266941,254.379251 C151.569952,236.355836 143.519204,218.144439 127.985749,208.501673 C125.28332,206.644351 122.185394,205.446754 118.939411,205.004536 C105.900993,204.246465 92,298.762143 92,298.762143 C92,298.762143 98.2803972,317.070264 117.292678,318.82956 C134.85783,320.460127 138.279612,309.85429 138.279612,309.85429 L148.266941,254.379251 Z" id="Path" fill="url(#linearGradient-14)" opacity="0.61"></path>
                    <path d="M118,204.455462 C118,204.455462 119.926568,190.292694 120.717324,181.080503 C121.50808,171.868312 124.570461,159.530937 140.220234,161.143248 C155.870007,162.755559 155.862818,186.144722 151.513662,195.946437 C147.164506,205.748152 141.384801,205.428531 141.384801,205.428531 C141.384801,205.428531 133.592264,203.730987 133.858245,213 L118,204.455462 Z" id="Path" fill="url(#linearGradient-15)"></path>
                    <path d="M125.245276,158.159308 C123.009271,160.364547 121.389994,163.146755 120.556548,166.21538 C119.865346,168.704647 119.393394,171.252843 119.146405,173.829129 L120.718715,172.074341 C120.629635,176.488905 120.300085,180.894867 119.731614,185.271506 C119.151708,189.351949 118.915806,193.476304 119.026542,197.598528 L121.84683,197.460755 L125.372189,202 L129.341743,199.244548 L132.324197,197.627533 L134.989369,190.883926 C133.655523,189.878095 133.134217,188.083101 133.713189,186.489706 C134.700289,183.741505 137.118686,183.1034 137.682743,184.727667 C138.114781,186.750787 138.350958,188.812935 138.387815,190.883926 L142.618246,178.556904 C142.618246,178.556904 145.283418,174.728276 147.603104,177.37496 C148.991691,178.971452 150.750047,180.181177 152.714875,180.891787 L151.304731,176.76586 L155.140322,177.781027 L154.844192,173.082256 L157.664479,175.141594 C157.664479,175.141594 158.940659,167.527845 156.515212,164.141539 C154.089765,160.755234 144.592447,147.297026 125.245276,158.159308 Z" id="Path" fill="#333333"></path>
                    <path d="M205,287.30937 L173.628479,283.843242 C164.935446,282.136483 158.274734,274.96297 157.069331,266.009222 L145.468771,229.873757 C144.03716,225.248594 140.156445,221.855308 135.460031,221.122143 C131.767878,220.558204 128.050972,221.971098 125.619055,224.862957 C123.187139,227.754816 122.381554,231.719742 123.486168,235.360595 L135.460031,278.989225 C136.621714,288.861752 144.389751,296.558791 154.089953,297.448874 L203.295485,304 L205,287.30937 Z" id="Path" fill="#3F97FF"></path>
                    <path d="M205,287.30937 L173.628479,283.843242 C164.935446,282.136483 158.274734,274.96297 157.069331,266.009222 L145.468771,229.873757 C144.03716,225.248594 140.156445,221.855308 135.460031,221.122143 C131.767878,220.558204 128.050972,221.971098 125.619055,224.862957 C123.187139,227.754816 122.381554,231.719742 123.486168,235.360595 L135.460031,278.989225 C136.621714,288.861752 144.389751,296.558791 154.089953,297.448874 L203.295485,304 L205,287.30937 Z" id="Path" fill="url(#linearGradient-16)" opacity="0.61"></path>
                    <path d="M126.333452,339 L117,341.146395 L120.737653,352 L130.505385,349.731976 C130.505385,349.731976 133.118182,341.339571 126.333452,339 Z" id="Path" fill="url(#linearGradient-17)"></path>
                    <path d="M112.984656,339.407416 C112.984656,339.407416 118.99369,338.084163 119.988192,340.207184 C120.982694,342.330205 117.789082,342.192064 118.426404,345.2021 C118.960422,347.491542 119.622206,349.746816 120.408404,351.956507 L123.3709,351.265798 L123.980208,354.901108 C124.250105,356.18962 125.357502,357.102024 126.627545,357.082294 C133.561046,357.49672 132.636579,364.025737 130.199348,364.272938 L121.227818,365 L116.486424,360.855746 C115.918849,360.446491 115.470621,359.883074 115.19077,359.227127 C113.460896,355.700876 108.145212,342.577406 112.984656,339.407416 Z" id="Path" fill="#333333"></path>
                    <path d="M263.021261,120.511293 C262.552662,121.18859 262.145687,121.906474 261.805213,122.656344 C259.752238,127.046549 252.806461,142.748323 251.790703,156.355098 C251.373187,163.20869 245.887896,168.663982 239.029356,169.046651 L226.625671,169.761668 L222.569794,169.976174 C215.832717,170.374193 209.83387,165.744997 208.513714,159.129365 C205.974321,146.602265 200.566485,127.461258 190.058403,119.002607 C190.058403,119.002607 143.726989,76.594944 174.621752,29.3037148 C176.69846,26.1084713 179.020727,23.0795761 181.567529,20.2444485 C213.993082,-15.6351081 267.513484,0.710182119 280.374975,34.0371278 C293.236467,67.3640736 268.135814,113.325371 263.021261,120.511293 Z" id="Path" fill="#3F97FF" opacity="0.477632068"></path>
                    <path d="M252.574491,174.126647 C251.505213,176.750949 250.273065,178.011168 251.342343,179.749162 C252.411621,181.487157 255.491992,186.161045 239.863534,188.238329 C236.626157,188.67544 233.365708,188.929752 230.098403,189 L224.985695,189 L221.9903,188.868439 C218.570026,188.66071 215.808314,188.321421 213.967172,188.030601 C211.943344,187.740635 210.141087,186.622839 209.010253,184.956221 C208.451913,183.692754 208.671201,182.229297 209.576758,181.175564 C209.979055,180.810333 210.216312,180.303666 210.236237,179.767235 C210.256162,179.230804 210.057119,178.708642 209.682978,178.315836 C209.47142,178.099876 209.215643,177.929993 208.932358,177.817288 C207.175089,176.201398 207.055702,173.510237 208.663269,171.751619 C209.046064,171.364285 209.363915,170.920281 209.605083,170.436006 C210.286656,168.910177 210.049582,167.140913 208.989009,165.838285 L208.557049,165.318964 C207.960585,164.530737 207.52538,163.637308 207.275331,162.687737 C206.745143,161.359446 206.991704,159.854596 207.919731,158.754746 C209.226543,165.157547 215.161941,169.637448 221.82743,169.251954 L225.842534,169.016529 C225.956941,168.864267 226.047624,168.696257 226.111624,168.517981 C226.819755,166.842305 225.22646,164.896583 226.03373,162.286129 L229.050369,162.154568 C236.467425,161.720826 243.792446,160.323703 250.832488,158 C252.417661,159.282654 252.864176,161.477282 251.901767,163.255528 C251.623997,163.836934 251.435492,164.455239 251.342343,165.090462 C251.159153,166.421303 251.391157,167.77522 252.007986,168.974983 C252.078546,169.120855 252.15898,169.261962 252.248751,169.397364 C253.119461,170.833691 253.240371,172.589127 252.574491,174.126647 L252.574491,174.126647 Z" id="Path" fill="#73B3FF"></path>
                    <path d="M208,159.103577 C222.071263,155.265256 236.805379,154.983055 251,158.280004 C251,158.280004 227.696774,168.327596 208,159.103577 Z" id="Path" fill="#333333"></path>
                    <path d="M228.176373,188.735018 C227.027611,188.963952 225.855094,189.045034 224.686431,188.976356 L221.726959,188.841491 C218.355674,188.628546 215.640499,188.280736 213.818748,187.982614 C211.823908,187.685366 210.047466,186.539502 208.932828,184.831032 C208.378892,183.537381 208.592453,182.036366 209.484239,180.955439 C209.987639,180.464872 210.217918,179.751682 210.098469,179.053133 C209.969897,178.355501 209.498108,177.773865 208.84907,177.512833 C207.115389,175.856078 207.000685,173.09437 208.590814,171.294847 C210.201469,169.654714 210.336929,167.043489 208.904909,165.24012 C208.130274,164.309096 207.572003,163.212454 207.271615,162.031753 C206.75015,160.671032 206.990239,159.130131 207.899805,158 C214.515606,160.576372 221.580062,161.747965 228.657986,161.442606 L229,161.605864 C229,161.605864 226.361603,162.627998 227.045632,164.97039 C227.729661,167.312782 228.734764,171.536185 226.466301,174.283171 C224.197839,177.030158 228.560267,177.782563 227.736641,180.877359 L227.736641,181.175481 C227.401202,182.097787 227.144328,183.047703 226.968853,184.014744 C226.494221,186.449412 226.717577,188.522074 228.176373,188.735018 Z" id="Path" fill="url(#linearGradient-18)"></path>
                    <path d="M230.291456,161.950521 C222.974719,162.263464 215.670867,161.089381 208.833153,158.501131 C206.295927,146.118888 200.846657,127.079679 190.258062,118.673124 C190.258062,118.673124 143.571657,76.4909982 174.703135,29.4512777 C176.795755,26.2730275 179.135815,23.2602408 181.702131,20.4401913 L185.897204,20.0632476 C185.897204,20.0632476 213.821109,5.54736168 225.663901,21.4358914 C237.506693,37.3244211 211.6587,55.2825848 210.303591,84.3001324 C208.948481,113.31768 242.588353,118.687349 230.291456,161.950521 Z" id="Path" fill="#FFFFFF" opacity="0.49"></path>
                    <path d="M249.434756,181.86247 C247.430555,183.20146 240.236905,185.717583 227.417176,184.805305 C221.407966,184.314157 215.458641,183.230128 209.651365,181.568187 C210.058011,181.180127 210.297833,180.64179 210.317973,180.071829 C210.338113,179.501868 210.136919,178.947068 209.758733,178.52971 C209.544889,178.300251 209.286347,178.119749 209,178 C215.225439,180.19234 221.746526,181.369017 228.326224,181.487259 C235.712913,181.699731 243.088237,180.759597 250.200647,178.698923 C250.200647,178.698923 252.4339,179.853986 249.434756,181.86247 Z" id="Path" fill="url(#linearGradient-19)"></path>
                    <path d="M252,169.184196 C249.589434,171.239719 240.478069,175.036219 227.306049,173.734144 C221.120671,173.5055 214.989434,172.470548 209.061797,170.654517 C209.752703,169.04508 209.512396,167.177851 208.437632,165.804653 L208,165.248711 C208.868091,165.585202 210.331648,166.053364 212.304582,166.580046 C216.750255,167.726896 221.288555,168.461392 225.864014,168.774555 L227.973259,168.774555 C235.939523,169.101347 243.890523,167.818553 251.368661,165 C251.15102,166.427743 251.37153,167.889178 252,169.184196 L252,169.184196 Z" id="Path" fill="url(#linearGradient-20)"></path>
                    <path d="M162,234 L162.198962,241 L167,239.803 C167,239.803 162,236.996 162,234 Z" id="Path" fill="#3F3D56"></path>
                    <path d="M248.97562,89.8524148 L248.105558,89.269792 C249.416544,85.351639 249.879559,81.2049797 249.464581,77.0986591 C248.429135,68.4019476 242.216455,63.0943958 231.99142,62.1778306 C216.315909,60.7070633 210.11042,68.7003642 207.809428,73.5887118 C201.165312,87.2519276 207.176655,109.377385 216.754536,119.303288 C228.561503,131.481526 224.002662,154.445392 222.334443,161.223711 C222.277392,161.389218 222.241167,161.561033 222.226584,161.735282 L222.226584,162.190012 L224.635435,163 L224.808009,162.332115 C226.237263,156.906592 227.066638,151.34387 227.281576,145.741575 C227.705822,133.662809 224.779247,123.893219 218.789476,117.498578 C209.945037,108.340032 204.199746,87.1950863 210.304567,74.6829059 C214.007726,67.1869659 221.478761,63.7338599 231.926705,64.693056 C243.295045,65.7588295 246.437338,72.2032063 247.070111,77.3970757 C247.399671,80.9552173 247.006063,84.5425575 245.912424,87.9482329 C243.37429,86.6813625 240.459752,86.3585711 237.700757,87.0387729 C232.314997,88.5024351 228.913843,94.0160365 227.008333,98.3643922 C226.034768,100.57349 226.477987,103.142622 228.137258,104.908241 C229.75647,106.634792 232.248204,107.265607 234.50813,106.521112 C239.361786,104.822979 244.42397,98.9399099 247.271448,91.7637019 L247.551881,91.9555411 C255.461543,97.4549322 249.816921,105.931384 243.323808,115.757815 C238.700251,122.642712 232.962151,131.21153 232.34376,139.652456 C231.624699,147.212342 231.955467,153.187779 232.47319,160.797402 L232.509143,161.40134 L235.09776,161.40134 L235.061807,160.690824 C234.558465,153.095412 234.256459,147.191027 234.932376,139.844295 C235.486052,132.113885 240.771144,124.163215 245.430654,117.107795 L245.639181,116.788063 C252.383965,106.535322 258.762029,96.8012578 248.97562,89.8524148 Z M233.558971,104.062728 C232.280182,104.495823 230.863255,104.129 229.96367,103.131952 C228.993682,102.114617 228.738366,100.620545 229.316516,99.3449038 C230.682731,96.2115298 233.674021,90.7476645 238.32634,89.4687364 C238.992094,89.2905004 239.678714,89.1997205 240.368471,89.1987404 C241.956188,89.2520337 243.512593,89.649853 244.927312,90.3639861 C242.216455,97.1352001 237.60728,102.726958 233.558971,104.076938 L233.558971,104.062728 Z M246.631484,89.7600478 L246.631484,89.7600478 L246.746534,89.8382045 L246.631484,89.7600478 Z" id="Shape" fill="#FFFFFF"></path>
                </g>
            </g>
        </g>
    </g>
</svg>