<?xml version="1.0" encoding="UTF-8" standalone="no"?>
<svg
   xmlns:svg="http://www.w3.org/2000/svg"
   xmlns="http://www.w3.org/2000/svg"
   width="66.410416mm"
   height="51.858334mm"
   viewBox="0 0 66.410416 51.858334"
   version="1.1"
   id="svg1707">
  <defs
     id="defs1703">
    <linearGradient
       x1="114.69762"
       y1="73.175781"
       x2="213.76477"
       y2="139.52592"
       id="linearGradient-7"
       gradientTransform="scale(1.0243938,0.97618706)"
       gradientUnits="userSpaceOnUse">
      <stop
         stop-color="#FFFFFF"
         offset="1%"
         id="stop58" />
      <stop
         stop-color="#FFFFFF"
         stop-opacity="0"
         offset="100%"
         id="stop60" />
    </linearGradient>
    <radialGradient
       cx="120.5"
       cy="57.5"
       fx="120.5"
       fy="57.5"
       r="54.5"
       id="radialGradient-8"
       gradientUnits="userSpaceOnUse">
      <stop
         stop-color="#FFFFFF"
         offset="1%"
         id="stop63" />
      <stop
         stop-color="#FFFFFF"
         stop-opacity="0.69"
         offset="66%"
         id="stop65" />
      <stop
         stop-color="#FFFFFF"
         stop-opacity="0.61"
         offset="67%"
         id="stop67" />
      <stop
         stop-color="#FFFFFF"
         stop-opacity="0.47"
         offset="68%"
         id="stop69" />
      <stop
         stop-color="#FFFFFF"
         stop-opacity="0.34"
         offset="70%"
         id="stop71" />
      <stop
         stop-color="#FFFFFF"
         stop-opacity="0.23"
         offset="72%"
         id="stop73" />
      <stop
         stop-color="#FFFFFF"
         stop-opacity="0.15"
         offset="75%"
         id="stop75" />
      <stop
         stop-color="#FFFFFF"
         stop-opacity="0.08"
         offset="78%"
         id="stop77" />
      <stop
         stop-color="#FFFFFF"
         stop-opacity="0.03"
         offset="81%"
         id="stop79" />
      <stop
         stop-color="#FFFFFF"
         stop-opacity="0.01"
         offset="86%"
         id="stop81" />
      <stop
         stop-color="#FFFFFF"
         stop-opacity="0"
         offset="100%"
         id="stop83" />
    </radialGradient>
    <linearGradient
       x1="105.88618"
       y1="68.172455"
       x2="23.544235"
       y2="143.00139"
       id="linearGradient-9"
       gradientTransform="scale(1.0561177,0.94686415)"
       gradientUnits="userSpaceOnUse">
      <stop
         stop-color="#FFFFFF"
         offset="1%"
         id="stop86" />
      <stop
         stop-color="#FFFFFF"
         stop-opacity="0"
         offset="100%"
         id="stop88" />
    </linearGradient>
    <linearGradient
       x1="114.25532"
       y1="45.349628"
       x2="88.914505"
       y2="-10.475009"
       id="linearGradient-10"
       gradientTransform="scale(0.98425098,1.016001)"
       gradientUnits="userSpaceOnUse">
      <stop
         stop-color="#FFFFFF"
         offset="1%"
         id="stop91" />
      <stop
         stop-color="#FFFFFF"
         stop-opacity="0"
         offset="100%"
         id="stop93" />
    </linearGradient>
    <linearGradient
       x1="129.78967"
       y1="9.3632574"
       x2="133.0435"
       y2="247.744"
       id="linearGradient-11"
       gradientTransform="scale(0.92819096,1.0773645)"
       gradientUnits="userSpaceOnUse">
      <stop
         stop-color="#FFFFFF"
         offset="0%"
         id="stop96" />
      <stop
         stop-color="#FFFFFF"
         stop-opacity="0.69"
         offset="13%"
         id="stop98" />
      <stop
         stop-color="#FFFFFF"
         stop-opacity="0.61"
         offset="15%"
         id="stop100" />
      <stop
         stop-color="#FFFFFF"
         stop-opacity="0.47"
         offset="20%"
         id="stop102" />
      <stop
         stop-color="#FFFFFF"
         stop-opacity="0.34"
         offset="25%"
         id="stop104" />
      <stop
         stop-color="#FFFFFF"
         stop-opacity="0.23"
         offset="30%"
         id="stop106" />
      <stop
         stop-color="#FFFFFF"
         stop-opacity="0.15"
         offset="36%"
         id="stop108" />
      <stop
         stop-color="#FFFFFF"
         stop-opacity="0.08"
         offset="44%"
         id="stop110" />
      <stop
         stop-color="#FFFFFF"
         stop-opacity="0.03"
         offset="52%"
         id="stop112" />
      <stop
         stop-color="#FFFFFF"
         stop-opacity="0.01"
         offset="65%"
         id="stop114" />
      <stop
         stop-color="#FFFFFF"
         stop-opacity="0"
         offset="100%"
         id="stop116" />
    </linearGradient>
  </defs>
  <g
     id="layer1"
     transform="translate(-89.259078,11.566071)">
    <g
       id="science_discovery"
       fill-rule="nonzero"
       style="fill:none;stroke:none;stroke-width:1"
       transform="matrix(0.26458333,0,0,0.26458333,89.259078,-11.566071)">
      <path
         d="m 176.17362,31.667573 c 4.77565,8.859647 9.63223,18.497003 13.33071,27.76728 3.73584,9.425819 11.83016,17.420655 19.30183,23.990731 8.22507,7.279346 17.16618,13.756096 24.90559,21.551836 7.73941,7.79575 14.35807,17.19046 16.5124,27.95393 2.43452,12.16335 -1.1083,24.88665 -7.16658,35.73101 -1.96754,3.52146 -4.22772,6.92471 -7.17904,9.67469 -2.95131,2.74997 -6.61243,4.82801 -10.27355,6.6634 -9.77544,4.884 -20.05522,8.673 -30.90783,10.13509 -11.30091,1.51808 -22.78861,0.84614 -34.07084,-0.54751 -15.1675,-1.8665 -30.1918,-5.04577 -45.4527,-5.94791 -11.00204,-0.62217 -22.041438,-0.11199 -33.037253,0.70927 -11.755437,0.88348 -23.735023,2.07181 -35.204045,-0.6595 C 31.876885,185.09377 18.832585,174.69115 10.856571,161.43279 3.9452715,149.87916 -3.8999878,127.88559 2.1832014,114.93208 8.6648799,101.12621 26.217091,91.762612 37.717245,82.722536 42.380816,79.057977 46.988349,75.032561 49.634568,69.731705 52.58588,63.827347 52.803803,56.995961 54.030403,50.512989 58.009071,29.496213 73.92374,11.167195 94.184433,4.2673706 122.68265,-5.4322014 157.07104,1.0072194 173.88231,27.660822 c 0.79075,1.300328 1.55659,2.631763 2.29131,4.006751 z"
         id="path424"
         fill="#3385e6"
         opacity="0.357665" />
      <path
         d="M 140,80.370171 195.20079,150 225,115.34716 150.04104,69 c 0,0 -8.37792,4.675235 -10.04104,11.370171 z"
         id="path426"
         fill="url(#linearGradient-7)"
         style="fill:url(#linearGradient-7)" />
      <circle
         id="Oval"
         fill="url(#radialGradient-8)"
         cx="120.5"
         cy="57.5"
         r="54.5"
         style="fill:url(#radialGradient-8)" />
      <path
         d="M 95.523524,73 18,115.75126 46.987596,151 105,84.824418 c 0,0 -3.17536,-9.055409 -9.476476,-11.824418 z"
         id="path429"
         fill="url(#linearGradient-9)"
         style="fill:url(#linearGradient-9)" />
      <path
         d="M 83,9.1329423 99.233002,33 114,24.773216 105.31094,1 c 0,0 -18.667952,2.5587488 -22.31094,8.1329423 z"
         id="path431"
         fill="url(#linearGradient-10)"
         style="fill:url(#linearGradient-10)" />
      <path
         d="m 188.84014,168.74541 c 1.4121,0.76097 2.86833,1.55313 3.82655,2.83182 0.88308,1.30808 1.34667,2.84939 1.33015,4.42237 0.0751,3.42631 -1.18957,6.74902 -3.53026,9.27514 -0.2816,0.36451 -0.6829,0.62039 -1.13472,0.72355 -0.34445,0.0154 -0.68543,-0.0738 -0.97713,-0.25573 -1.61383,-0.86701 -2.47117,-2.6447 -3.04484,-4.36624 -0.57367,-1.72155 -0.99604,-3.54913 -2.11185,-4.98999 -2.09924,-2.71331 -9.96666,-5.30186 -6.18425,-9.86146 3.10789,-3.85477 8.82564,0.62374 11.82635,2.22054 z"
         id="path433"
         fill="#ffbbab" />
      <path
         d="m 164.4293,126.81028 c -2.30431,3.77549 -4.38119,7.69122 -6.21907,11.72537 -3.20964,7.07245 -3.24605,13.07162 2.04471,18.97773 4.85391,5.4036 9.74422,10.86303 15.71453,14.88936 1.40157,0.9554 3.03369,1.86117 4.69009,1.52616 2.42695,-0.49011 3.64043,-3.56104 3.15504,-6.05501 -0.48539,-2.49396 -2.2328,-4.51644 -3.82852,-6.47066 -2.71819,-3.31289 -9.88377,-10.05032 -8.39726,-14.3124 1.9901,-5.68278 7.80266,-9.92624 10.7332,-15.13132 0.37026,-0.51065 0.51941,-1.15428 0.41258,-1.78052 -0.15168,-0.47149 1.58359,-4.05114 1.21348,-4.34273 -3.79211,-2.76693 -10.05972,-1.79913 -14.39184,-3.55483 -0.42631,-0.21726 -0.90246,-0.31163 -1.37729,-0.27297 -0.67406,0.22256 -1.23462,0.70876 -1.55932,1.35245 -0.75236,1.16013 -1.48044,2.30165 -2.19033,3.44937 z"
         id="path435"
         fill="#282328" />
      <path
         d="m 193.80294,170 c 0,0 2.15044,0.16464 2.74985,1.60211 0.5994,1.43747 1.78585,13.74146 -5.85809,17.73091 -7.64395,3.98946 -1.05669,-11.22113 -1.05669,-11.22113 z"
         id="path437"
         fill="#1ac5ef" />
      <path
         d="m 189.88266,168.01871 c -0.57028,0.43253 -0.7363,1.20433 -0.39243,1.82427 0.62291,1.1128 0.82224,3.94651 -0.66652,5.69172 -1.48877,1.74522 -4.22959,1.41686 -4.74038,2.39588 -0.51079,0.97903 1.42024,8.45246 3.23915,9.69296 1.81891,1.24051 4.62826,-0.74187 6.32259,-3.64854 1.69433,-2.90667 2.98376,-10.62334 2.0307,-12.67261 -0.95306,-2.04926 -4.43515,-3.48435 -5.79311,-3.28368 z"
         id="path439"
         fill="#ffffff" />
      <path
         d="m 152.82365,171.05428 c 0.18118,1.59097 0.34942,3.24483 -0.18117,4.76035 -0.59446,1.4763 -1.63712,2.74183 -2.9894,3.62842 -2.87949,2.02928 -6.4534,2.90099 -9.97762,2.43363 -0.47997,-0.0203 -0.93764,-0.20264 -1.29411,-0.51565 -0.21505,-0.27408 -0.33918,-0.60527 -0.35589,-0.94956 -0.20058,-1.81735 0.8153,-3.54667 1.94117,-5.03075 1.12588,-1.48407 2.45235,-2.85495 3.02823,-4.59684 1.07412,-3.26999 -1.29411,-11.21228 4.78822,-10.7658 5.1441,0.39617 4.65234,7.62158 5.04057,11.0362 z"
         id="path441"
         fill="#ffbbab" />
      <path
         d="m 172.97233,127.04697 c -4.47101,0.21288 -8.92465,0.70275 -13.33546,1.46681 -7.7327,1.34145 -12.7171,4.76401 -14.50349,12.65596 -1.63649,7.21495 -3.27921,14.52394 -3.12306,21.93949 0.0375,1.74262 0.2436,3.64822 1.48657,4.85803 1.84261,1.79904 5.10308,1.06563 6.87074,-0.80236 1.76765,-1.86799 2.42974,-4.48819 3.12306,-6.97049 1.15553,-4.21238 2.49844,-14.17918 6.92694,-15.36391 7.49534,-2.01844 15.25302,2.58259 22.54225,-0.38865 2.58997,-0.97014 5.04913,-2.26097 7.32045,-3.84254 2.28258,-1.60412 4.02527,-3.86678 4.99689,-6.48782 0.43765,-1.39188 0.66915,-2.84073 0.68707,-4.30014 0.0772,-1.20528 0.0291,-2.41536 -0.14366,-3.61062 -0.24984,-1.37278 -0.48719,-1.2098 -1.87383,-1.17846 -2.35479,0.0501 -4.69708,0.26327 -7.03313,0.53282 -4.63462,0.4952 -9.25675,1.25368 -13.94134,1.49188 z"
         id="path443"
         fill="#473f47" />
      <path
         d="m 155.41724,177 c 0,0 1.09839,1.7838 0.27925,3.03247 -0.81914,1.24866 -10.04068,8.75847 -17.64876,4.85194 -7.60808,-3.90653 8.43343,-6.82602 8.43343,-6.82602 z"
         id="path445"
         fill="#1ac5ef" />
      <path
         d="m 153.88943,172.07371 c -0.69006,-0.23155 -1.43905,0.0977 -1.76043,0.77382 -0.61987,1.18652 -2.8452,3.08237 -5.15111,2.86957 -2.30591,-0.2128 -3.58284,-2.7406 -4.69241,-2.57939 -1.10956,0.16121 -6.27927,6.32594 -6.28548,8.60225 -0.006,2.27631 3.24192,3.48862 6.61401,3.22424 3.37209,-0.26439 10.59357,-3.86908 11.77752,-5.92614 1.18395,-2.05706 0.4339,-5.93259 -0.5021,-6.96435 z"
         id="path447"
         fill="#ffffff" />
      <path
         d="m 155.02066,99.81255 c 0.10449,1.84037 0.68228,3.44675 2.23738,3.97799 0.12992,0.0492 0.26354,0.0872 0.39953,0.11384 2.85818,0.58816 6.60762,-1.65065 9.21994,-3.60486 1.08751,-0.809842 2.12998,-1.681861 3.12249,-2.611938 V 78 l -13.90368,14.647105 c 0,0 -1.27235,3.933722 -1.07566,7.165445 z"
         id="path449"
         fill="#ffffff" />
      <path
         d="m 167.02549,100.3343 c 0,0.89807 -0.11369,1.81472 -0.12,2.71899 0,4.95488 1.18105,10.12033 -0.33474,15.00089 -0.34105,1.09007 -0.81473,2.25447 -0.42315,3.33215 0.44077,0.89781 1.19627,1.61011 2.12841,2.00673 4.47156,2.39692 9.65049,3.13396 14.69678,3.82764 3.78946,0.52646 9.18944,1.62892 12.70101,-0.37781 1.49683,-0.85472 2.00209,-2.44647 2.48209,-4.03203 1.5221,-5.05398 1.97052,-10.48576 2.36841,-15.71315 0.0505,-0.68749 0.10106,-1.38118 0.14527,-2.06867 0.29052,-4.76907 0.38947,-9.540198 0.29684,-14.313397 -0.0695,-3.46222 -0.34737,-7.203152 -2.65262,-9.81685 -3.06946,-3.480801 -8.99997,-5.784819 -13.50311,-6.59618 -1.45375,-0.291769 -2.94323,-0.37315 -4.42103,-0.24155 -2.10298,0.329265 -4.13384,1.005688 -6.0063,2.000531 -2.23578,1.08388 -4.22524,2.000532 -5.32419,4.168291 -1.20425,2.504843 -2.04402,5.163054 -2.49472,7.896835 -0.4114,2.563902 -0.46028,5.171191 -0.14527,7.748189 0.13264,1.23872 0.46737,2.520794 0.59369,3.771901 0,0.229163 0.0126,0.45833 0.0126,0.68749 z"
         id="path451"
         fill="#ffffff" />
      <path
         d="m 186.79767,127.9147 c 1.45718,0.43049 4.82182,-0.8984 5.94128,-1.09805 0.66918,-0.11854 1.2508,-0.4492 1.93874,-0.62389 3.32711,-0.82978 3.72111,-10.16321 4.05258,-12.67126 0.86304,-6.64445 2.18263,-13.51351 2.26394,-20.176679 0.0313,-2.564198 -0.0375,-5.184547 -0.88181,-7.605249 -0.84429,-2.420703 -2.57039,-4.666716 -5.00319,-5.533927 -0.46508,-0.19847 -0.9787,-0.25492 -1.47594,-0.162212 -2.03254,0.517831 -2.45156,3.855656 -2.80178,5.477776 -0.52534,2.49557 -1.4134,5.053529 -3.57728,6.582066 -5.2596,3.743355 -14.134,0.967033 -19.81887,0.04367 -0.50689,-0.135376 -1.04286,-0.115815 -1.53848,0.05615 -0.73251,0.456605 -1.06603,1.34727 -0.81302,2.171146 0.26465,0.792622 0.61926,1.552465 1.05693,2.26473 1.36336,2.72641 1.00063,5.976889 1.76987,8.927899 0.92559,3.54995 3.47096,6.48849 6.41033,8.69083 2.93938,2.20234 6.29151,3.74335 9.53733,5.49025 0.74832,0.34051 1.42688,0.81648 2.00127,1.40376 0.67946,0.85116 1.02415,1.92045 0.96937,3.00716 0,0.69876 -0.88807,2.82 -0.6254,3.31287 0.12807,0.22331 0.34317,0.38369 0.59413,0.44296 z"
         id="path453"
         fill="#020202"
         opacity="0.1" />
      <path
         d="m 176.72079,69.478235 c 0.5314,0.570484 1.25488,0.928901 2.03434,1.007818 0.65086,0.07064 1.30682,0.08298 1.95992,0.03687 h 0.36593 c 0.092,-0.01569 0.18658,0.0017 0.2667,0.04916 0.076,0.07727 0.11826,0.180974 0.11784,0.288825 0.14262,1.291802 0.16753,2.593704 0.0744,3.889933 v 0 c 0,0.233519 -0.0372,0.467038 -0.062,0.700556 -0.0484,0.244729 -0.0269,0.497994 0.062,0.731283 0.18505,0.269585 0.47063,0.455273 0.79389,0.5162 0.57184,0.191317 1.17034,0.292915 1.77385,0.301116 1.29007,0 2.4809,-0.645249 3.60971,-1.259773 -0.0871,-2.216296 0.0312,-4.435837 0.35353,-6.630706 0.41555,-2.832952 1.16603,-5.67205 0.85591,-8.517292 -0.0695,-1.118864 -0.48042,-2.190404 -1.17842,-3.072617 -1.03578,-1.149158 -2.70419,-1.524017 -4.26096,-1.517872 -2.06253,-0.03688 -4.09243,0.51338 -5.84873,1.58547 -0.62023,0.436311 -0.71947,0.989382 -0.86832,1.71452 -0.22328,1.118432 -0.40315,2.249155 -0.52719,3.379878 -0.14472,1.290499 -0.22535,2.587143 -0.24189,3.889932 -0.0124,0.995528 0.0496,2.120105 0.71946,2.906695 z"
         id="path455"
         fill="#ffbbab" />
      <path
         d="m 178.75358,58.332259 c 1.48773,0.242216 3.12045,0 4.52623,0.544987 1.96682,0.769039 2.80525,3.221484 2.14964,5.165274 0.56735,0.193774 0.66821,-0.787204 1.10949,-1.211084 0.44128,-0.423879 1.43099,0.133219 1.50034,0.817482 -0.0403,0.687903 -0.25687,1.355596 -0.6304,1.94379 -0.53943,1.207352 -0.63286,2.555593 -0.26476,3.82097 0.0883,0.296716 0.31519,0.653986 0.63039,0.575265 0.3152,-0.07872 0.52953,-0.605542 0.71865,-0.811426 0.30616,-0.346563 0.63911,-0.670438 0.99602,-0.968867 0.69343,-0.605543 1.44991,-1.096032 2.16225,-1.665241 1.26079,-1.0052 2.42071,-2.37978 2.34506,-3.95419 -0.0279,-0.650474 -0.24641,-1.280167 -0.63039,-1.816626 -0.33242,-0.460273 -0.762,-0.848158 -1.26079,-1.138419 -0.19542,-0.121108 -0.42866,-0.254328 -0.47279,-0.478378 -0.008,-0.125096 0.009,-0.250513 0.0504,-0.369381 0.43497,-1.592575 -0.49171,-3.306259 -1.89118,-4.305404 -1.43314,-0.916848 -3.06939,-1.499514 -4.77838,-1.701573 -1.09689,-0.187718 -2.20007,-0.333048 -3.30326,-0.460212 -0.91799,-0.04293 -1.81984,-0.248216 -2.66026,-0.605542 0.22041,-0.577009 0.51701,-1.124452 0.88255,-1.628908 -0.78727,0.22185 -1.53684,0.552288 -2.22529,0.980978 0.0437,-0.36799 0.14576,-0.727394 0.30259,-1.065754 -1.20405,0.399658 -2.47745,0.835648 -3.27174,1.816626 -0.94083,1.256352 -0.98583,2.937656 -0.11347,4.238794 0.85733,1.289805 2.20007,1.816627 3.67519,2.15573 0.1681,0.06459 0.3194,0.104961 0.45388,0.121109 z"
         id="path457"
         fill="#e14329" />
      <path
         d="m 181,70.413333 h 0.329 c 0.0827,-0.01703 0.16775,0.0019 0.23979,0.05333 0.0683,0.08382 0.10632,0.19633 0.10595,0.313333 0.12823,1.401413 0.15062,2.813784 0.0669,4.22 v 0 c 0,0 3.34582,-1.02 3.2566,-6 -1.28052,0.633849 -2.61313,1.10532 -3.97595,1.406667 z"
         id="path459"
         fill="#e0a194" />
      <path
         d="m 135.48322,83.321892 c 0.73804,0.510884 1.72978,0.662257 2.20835,1.475887 0.5766,0.952389 0,2.169681 -0.12108,3.286057 -0.12763,1.23081 0.19119,2.467274 0.88795,3.443737 0.21086,0.306201 0.45049,0.58736 0.71498,0.838859 1.14369,1.016878 2.56283,1.591248 4.03616,1.633568 0,0 0.813,-3.569881 0.78994,-3.9357 -0.098,-1.261442 -0.88796,-2.409354 -1.01481,-3.714947 -0.0513,-1.384686 -0.16678,-2.765636 -0.34596,-4.13753 -0.52851,-2.686255 -2.18481,-4.942214 -4.4686,-6.086459 -0.28253,-0.138758 -0.68615,-0.220752 -0.84183,0.07569 -0.0538,0.126008 -0.068,0.26792 -0.0404,0.403661 v 0 c 0.17298,1.431737 1.02634,2.642722 1.85087,3.784327 -0.74504,-0.466162 -1.54408,-0.820447 -2.37557,-1.053304 -0.36903,-0.107223 -0.91679,-0.04415 -0.92255,0.372125 0.0281,0.199615 0.13031,0.37766 0.28253,0.491963 l 2.22565,2.182295 c -0.90322,-0.320587 -1.85709,-0.434376 -2.80225,-0.334283 -0.15844,0.0014 -0.31221,0.0589 -0.43821,0.163988 -0.27677,0.321668 0.0231,0.870395 0.37479,1.110069 z"
         id="path461"
         fill="#ffbbab" />
      <path
         d="m 135.4805,83.54713 c 0.74386,0.495162 1.74343,0.641876 2.22578,1.430466 0.58114,0.923078 0,2.102906 -0.12204,3.184925 -0.12863,1.19293 0.1927,2.391341 0.89496,3.337753 0.26389,0.168264 0.54451,0.305609 0.83684,0.409578 0.20234,0.09692 0.43053,0.116386 0.64507,0.05502 0.3507,-0.202636 0.51433,-0.639388 0.38936,-1.039227 -0.13456,-0.381952 -0.30185,-0.750252 -0.49978,-1.100358 -0.27289,-0.626843 -0.30822,-1.33957 -0.0988,-1.99287 0.26275,-0.502549 0.42678,-1.055531 0.48234,-1.626085 -0.0551,-0.355334 -0.18405,-0.693492 -0.37774,-0.990322 l -0.67993,-1.22262 c -0.11946,-0.183207 -0.19885,-0.39198 -0.23246,-0.61131 -0.0332,-0.216852 0.0669,-0.432213 0.24989,-0.537953 0.22605,-0.0566 0.46402,0.01 0.63345,0.17728 0.37774,0.287315 1.27851,1.503822 1.16228,0.372899 -0.13992,-0.765762 -0.40539,-1.500089 -0.78454,-2.170151 -0.73001,-1.369426 -1.5844,-2.661247 -2.55122,-3.857366 -0.1017,-0.13262 -0.2145,-0.255374 -0.33706,-0.366786 v 0 c 0.17434,1.387674 1.03443,2.561389 1.86547,3.66786 -0.75092,-0.451815 -1.55626,-0.795197 -2.39431,-1.020888 -0.37193,-0.103922 -0.92401,-0.04279 -0.92983,0.360673 0.0283,0.193471 0.13135,0.366037 0.28476,0.476822 l 2.24321,2.115133 c -0.91034,-0.310721 -1.87174,-0.421007 -2.82435,-0.323995 -0.15969,0.0013 -0.31467,0.05709 -0.44167,0.158941 -0.29638,0.348447 0.006,0.880286 0.36031,1.112584 z"
         id="path463"
         fill="#e0a194" />
      <path
         d="m 155.58575,81.321892 c 0.9023,0.510884 2.13215,0.630721 2.69455,1.475887 0.67363,0.952389 0,2.169681 -0.14215,3.286057 -0.14936,1.253999 0.24572,2.511991 1.08153,3.443737 0.26124,0.309643 0.55327,0.59077 0.8714,0.838859 1.45123,1.036149 3.17321,1.605103 4.94411,1.633568 0,0 0.99501,-3.569881 0.9641,-3.9357 -0.11742,-1.261442 -1.08152,-2.409354 -1.23602,-3.714947 -0.0674,-1.386137 -0.20976,-2.767417 -0.42643,-4.13753 -0.75273,-2.807161 -2.78394,-5.072642 -5.45707,-6.086459 -0.34609,-0.138758 -0.8405,-0.220752 -1.03208,0.07569 -0.0626,0.124392 -0.0801,0.267368 -0.0495,0.403661 v 0 c 0.21013,1.431737 1.23603,2.642722 2.26194,3.784327 -0.92227,-0.47127 -1.89781,-0.825025 -2.90467,-1.053304 -0.44497,-0.107223 -1.11861,-0.04415 -1.12479,0.372125 0,0.201831 0.18541,0.359511 0.34609,0.491963 l 2.71927,2.182295 c -1.11199,-0.322291 -2.27212,-0.43556 -3.4238,-0.334283 -0.19104,1.62e-4 -0.37788,0.05715 -0.53768,0.163988 -0.34609,0.321668 0.0371,0.870395 0.45115,1.110069 z"
         id="path465"
         fill="#ffbbab" />
      <path
         d="m 155.54272,82.533336 c 0.86593,0.49597 2.0462,0.612309 2.58593,1.432803 0.64648,0.924586 0,2.106342 -0.13642,3.190129 -0.14334,1.217392 0.23582,2.43866 1.03794,3.343207 0.31005,0.170142 0.63593,0.307585 0.97269,0.410247 0.23976,0.09722 0.50259,0.11645 0.75324,0.05511 0.39068,-0.172025 0.58712,-0.625653 0.45076,-1.040925 -0.16126,-0.387062 -0.35997,-0.756321 -0.59311,-1.102156 -0.31091,-0.618527 -0.35189,-1.344499 -0.11269,-1.996127 0.20759,-0.544955 0.59311,-1.059294 0.55752,-1.628741 -0.065,-0.362912 -0.21571,-0.703647 -0.43889,-0.991941 l -0.78883,-1.224618 c -0.13741,-0.178425 -0.23101,-0.388491 -0.27283,-0.612308 -0.0146,-0.229242 0.12154,-0.440102 0.33214,-0.51434 0.2604,-0.05668 0.53175,0.0083 0.74138,0.17757 0.43889,0.287785 1.48276,1.506279 1.35821,0.373508 -0.16925,-0.777449 -0.47914,-1.514926 -0.91338,-2.173697 -0.86013,-1.387573 -1.85367,-2.682018 -2.96552,-3.863669 C 157.99165,76.232696 157.86061,76.109708 157.71941,76 v 0 c 0.20165,1.389941 1.1862,2.565574 2.17076,3.673853 -0.88509,-0.457512 -1.82131,-0.800941 -2.78759,-1.022556 -0.42704,-0.104092 -1.07352,-0.04286 -1.07945,0.361263 0,0.195939 0.17793,0.349016 0.33214,0.477601 l 2.60966,2.118589 c -1.06716,-0.312883 -2.18054,-0.422845 -3.2858,-0.324524 -0.18333,1.57e-4 -0.36265,0.05548 -0.516,0.1592 -0.38552,0.324524 -0.0178,0.857232 0.37959,1.08991 z"
         id="path467"
         fill="#e0a194" />
      <path
         d="m 143,94.760828 c 1.85907,2.682371 4.16187,5.016074 6.80581,6.897152 1.90404,1.31655 4.10576,2.11936 6.39847,2.33305 0.30242,0.0272 0.60713,-0.008 0.89616,-0.10199 0.49869,-0.14411 0.9383,-0.44817 1.25338,-0.86693 0.95722,-1.16172 1.53155,-2.5999 1.64191,-4.111517 0.15668,-3.952157 -4.05466,-6.253333 -4.05466,-6.253333 0,0 -9.5883,-3.11073 -10.72887,-2.600774 -0.62668,0.274101 -1.21577,1.644607 -1.62938,2.836629 C 143.21307,93.893903 143,94.760828 143,94.760828 Z"
         id="path469"
         fill="#ffffff" />
      <path
         d="m 190.727,79.638266 c 3.9474,7.99e-4 7.14721,3.200605 7.14801,7.148012 l 0.004,19.381272 c 7.9e-4,3.94534 -3.19689,7.14432 -7.14224,7.14512 -9.6e-4,0 -0.002,0 -0.003,0 -3.9474,-8e-4 -7.14721,-3.20061 -7.14801,-7.14802 l -0.004,-19.381263 c -7.9e-4,-3.945343 3.19689,-7.144323 7.14224,-7.145121 9.6e-4,0 0.002,0 0.003,0 z"
         id="path471"
         fill="#ffffff"
         transform="rotate(-160.47,190.7304,96.475467)" />
      <path
         d="M 183.12813,95.547605 167.15827,87 161,93.856666 c 0,0 20.10903,19.907244 26.04646,19.120624 5.93743,-0.78663 3.42617,-6.96197 3.42617,-6.96197 0,0 2.23994,-6.615099 -7.3445,-10.467715 z"
         id="path473"
         fill="#ffffff" />
      <path
         d="m 143,94.833209 c 1.86622,2.632817 4.17787,4.923407 6.83198,6.769731 1.91135,1.29223 4.12154,2.08021 6.42307,2.28995 0.30358,0.0267 0.60945,-0.007 0.8996,-0.10011 0.13297,0.0486 0.26974,0.0863 0.40891,0.11262 2.9253,0.58187 6.76278,-1.63299 9.43644,-3.56631 v -0.0626 l -0.9059,-5.818722 c -1.75311,1.800716 -3.79113,3.303471 -6.03303,4.448503 -1.58229,0.844258 -3.38994,1.176699 -5.17116,0.951016 -0.48042,-0.07633 -0.94815,-0.217359 -1.3903,-0.419198 C 149.92677,97.730976 146.59368,95.566592 143.58506,93 143.21389,93.9823 143,94.833209 143,94.833209 Z"
         id="path475"
         fill="#020202"
         opacity="0.1" />
      <g
         id="I4ccdY"
         transform="translate(68,24)"
         fill="#3385e6">
        <path
           d="m 70.245,78.938823 c 2.285294,2.824589 2.303823,5.674118 -0.05559,8.548589 1.193546,1.207038 1.826178,2.867093 1.741765,4.57047 -0.149687,3.178265 -2.771799,5.662494 -5.923236,5.611765 -1.185882,0 -2.371765,0 -3.613235,0 -0.111177,0.355412 -0.222353,0.62353 -0.308824,0.960235 -1.144739,4.180808 -4.9084,7.079588 -9.205057,7.089788 -4.296658,0.0101 -8.07374,-2.87079 -9.237884,-7.046141 -0.216176,-0.760705 -0.50647,-1.07247 -1.309412,-1.016352 -1.045298,0.06446 -2.093808,0.05404 -3.137647,-0.03118 -2.197433,-0.08015 -4.138326,-1.468858 -4.941176,-3.535412 -0.925559,-2.007372 -0.607033,-4.375219 0.815294,-6.060706 0.111176,-0.143411 0.216177,-0.293059 0.321176,-0.442706 0.02226,-0.05808 0.0368,-0.118884 0.04324,-0.180823 -2.279118,-2.805882 -2.279118,-5.692824 0.03706,-8.598471 -1.523178,-1.53046 -2.092336,-3.780892 -1.482353,-5.861176 0.360486,-1.637485 1.497289,-2.990381 3.038823,-3.616471 0.852353,-0.33047 0.809118,-0.866706 0.722647,-1.527647 C 37.200511,62.680163 35.035375,57.871499 31.574118,54.084941 28.541471,50.805177 25.83,47.344588 24.199412,43.129529 23.754706,41.976 23.445882,40.772588 22.995,39.625294 c -0.123529,-0.318 -0.531177,-0.735765 -0.809118,-0.742 -4.515,-0.04365 -9.023823,-0.03118 -13.6314702,-0.03118 -0.030882,0.311764 -0.092647,0.586117 -0.092647,0.86047 0,3.242353 0,6.490941 0,9.733294 -0.084632,0.539842 0.2487979,1.056868 0.7720588,1.197177 2.9262654,1.117307 4.6167254,4.213417 3.9900004,7.307764 C 12.581407,61.0491 9.8496389,63.250018 6.7145465,63.195187 3.5794541,63.140357 0.9248426,60.845235 0.38911765,57.726353 -0.12443592,54.697459 1.5656722,51.727303 4.4161765,50.649294 4.9755343,50.49132 5.3235702,49.929159 5.2191176,49.352353 c 0,-3.741177 0,-7.51353 0,-11.273412 0,-2.244706 0.4447059,-2.699882 2.6311765,-2.699882 H 21.969706 C 20.820882,25.065882 23.723824,16.224235 30.919412,8.9601177 36.341577,3.36933 43.725452,0.15739503 51.474706,0.01870588 61.011176,-0.26811765 69.083823,3.2485882 75.445588,10.406706 c 6.361765,7.158117 8.83853,15.550823 7.597059,25.115765 h 13.458529 c 0,-0.380353 0.05559,-0.698353 0.05559,-1.016353 0,-3.173765 0,-6.34753 0,-9.515059 0.121733,-0.550631 -0.207719,-1.100366 -0.747353,-1.247059 -2.925245,-1.113574 -4.623551,-4.199638 -4.014706,-7.295294 0.616469,-3.112388 3.342834,-5.339116 6.486624,-5.297879 3.143789,0.04124 5.811919,2.338725 6.348079,5.466232 0.51209,3.066318 -1.19556,6.070104 -4.07647,7.170588 -0.2347,0.09353 -0.46323,0.199529 -0.734998,0.318 v 12.370824 c 0,1.957882 -0.413823,2.375647 -2.340882,2.375647 -4.545882,0 -9.097941,0 -13.65,0 -0.291227,-0.04605 -0.588404,0.03069 -0.821964,0.212243 -0.23356,0.181554 -0.382998,0.451987 -0.41333,0.747992 -1.302493,4.659639 -3.715751,8.926274 -7.028824,12.426941 -3.014118,3.229883 -5.521764,6.746588 -6.658235,11.092588 -0.377174,1.626605 -0.64951,3.276181 -0.815294,4.938353 0.012,0.398141 0.211674,0.766542 0.537353,0.991412 3.600882,2.12 4.372941,6.085647 1.791176,9.352941 -0.0638,0.104616 -0.121546,0.212875 -0.172942,0.324235 z M 52.617353,77.068235 c 4.323529,0 8.585294,0 12.884118,0 0.877305,0.09175 1.736521,-0.295611 2.254411,-1.016353 0.633608,-0.784663 0.761158,-1.868224 0.327353,-2.780941 -0.507935,-1.005514 -1.574057,-1.594373 -2.686764,-1.484 -8.511177,0 -17.02853,0 -25.545883,0 -1.883823,0 -2.995588,1.041294 -2.970882,2.706118 0.02471,1.664823 1.093235,2.562706 2.964706,2.562706 z m 0.03706,3.310941 h -2.600294 c -3.427942,0 -6.862059,0 -10.29,0 -1.852941,0 -3.088236,1.359295 -2.859706,3.055295 0.185294,1.39047 1.266176,2.213529 3.001764,2.213529 5.311765,0 10.619412,0 15.922942,0 3.143823,0 6.287647,0 9.425294,0 1.550294,0 2.587941,-0.766941 2.853529,-2.007765 0.207332,-0.812094 0.01686,-1.675309 -0.512303,-2.321785 -0.529167,-0.646476 -1.333015,-0.998006 -2.162109,-0.945509 -4.261764,0 -8.517353,0 -12.779117,0 z m -0.03706,8.586 H 39.418235 c -1.007836,-0.07861 -1.951819,0.504736 -2.340882,1.446589 -0.457115,0.873356 -0.296805,1.945527 0.395294,2.643764 0.562959,0.540452 1.289493,0.874239 2.062941,0.947765 8.727353,0.06235 17.460883,0.04365 26.188235,0.03118 0.359559,-0.0084 0.714899,-0.08015 1.050001,-0.212 1.057866,-0.388309 1.70546,-1.467535 1.55647,-2.593883 -0.128674,-1.165526 -1.033458,-2.089248 -2.186471,-2.232235 -0.394131,-0.03747 -0.790202,-0.04996 -1.185882,-0.03741 z m -6.003529,8.423883 c 0.40147,2.743531 3.162352,4.857291 6.17647,4.738821 2.841177,-0.11223 5.47853,-2.331998 5.620588,-4.738821 z m 48.35553,-79.59353 c 0.0539,1.83713 1.564567,3.287041 3.384764,3.248589 1.747012,-0.05688 3.137642,-1.496537 3.150002,-3.261059 -0.0203,-1.839488 -1.506886,-3.317907 -3.32912,-3.310966 -1.788563,0.03748 -3.216099,1.517482 -3.205646,3.323436 z M 6.8435294,59.796471 c 0.8555191,0.0067 1.6781773,-0.332205 2.2848761,-0.941169 C 9.7351044,58.246338 10.075497,57.417808 10.07383,56.554118 9.9761351,54.736079 8.5222684,53.292693 6.72,53.224471 c -1.7727599,0.09607 -3.1616238,1.574838 -3.1623529,3.367058 0.047075,1.793805 1.5084327,3.219165 3.2858823,3.204942 z"
           id="Shape" />
      </g>
      <path
         d="m 132.79379,92 c 0.30074,-1.730192 0.49496,-3.348758 0.86462,-4.961123 1.25307,-5.3022 4.1226,-9.680392 7.87554,-13.581075 4.25867,-4.371762 6.85377,-10.070068 7.34298,-16.12365 0.81155,-8.548738 -2.4224,-16.987563 -8.75781,-22.853044 -6.3354,-5.865481 -15.05799,-8.496323 -23.62149,-7.124542 -17.173303,2.685208 -27.836918,20.774703 -21.790862,36.92936 1.566336,4.198351 4.160189,7.683539 7.192612,10.939277 3.50914,3.689154 5.89761,8.281951 6.89188,13.2524 0.23182,1.159662 0.35086,2.337929 0.52629,3.509994 z"
         id="path479"
         fill="url(#linearGradient-11)"
         style="fill:url(#linearGradient-11)" />
      <path
         d="m 126.88205,70.841234 c -0.34649,1.56129 -0.61873,2.881908 -0.9281,4.208696 C 125.59509,76.734642 125.28572,77 123.54708,77 c -2.17174,0 -4.33112,0 -6.50905,0 -1.62726,0 -2.00469,-0.314727 -2.32024,-1.925386 -0.29699,-1.511921 -0.61873,-3.023843 -0.91572,-4.727068 l -3.83614,2.523983 c -1.16321,0.765217 -1.8067,0.715848 -2.7781,-0.240674 -1.59014,-1.573632 -3.18028,-3.153436 -4.75186,-4.745582 -0.9776,-0.981206 -1.03328,-1.629172 -0.27843,-2.770827 0.87241,-1.320617 1.7572,-2.628892 2.71623,-4.06676 l -4.07125,-1.018233 c -1.484956,-0.370267 -1.781948,-0.740533 -1.788135,-2.233941 0,-2.307994 0,-4.615989 0,-6.923983 -0.06082,-0.471245 0.07281,-0.946922 0.37026,-1.318052 0.29745,-0.371129 0.733235,-0.605902 1.207505,-0.650532 1.58395,-0.327068 3.16172,-0.684993 4.94985,-1.079944 l -2.47492,-3.640953 c -0.85385,-1.234222 -0.79817,-1.851333 0.26605,-2.937448 1.51795,-1.538663 3.05241,-3.071155 4.60336,-4.597475 1.06422,-1.049089 1.70151,-1.104629 2.95135,-0.2777 l 3.97844,2.635063 c 0.31556,-1.524264 0.61874,-2.925105 0.90335,-4.319775 0.27843,-1.308275 0.7301,-1.678542 2.09131,-1.684713 2.38418,0 4.77042,0 7.15873,0 1.29314,0 1.74482,0.376438 2.02325,1.629173 0.35267,1.573632 0.69916,3.147265 1.07659,4.875175 1.3179,-0.88864 2.47493,-1.697055 3.71239,-2.468443 1.23746,-0.771389 1.85619,-0.771389 2.85854,0.228331 1.56332,1.551005 3.12253,3.108181 4.67761,4.671528 1.00853,1.012062 1.0704,1.690884 0.29699,2.863394 -0.89098,1.345302 -1.78814,2.684432 -2.77192,4.159327 l 4.46724,0.950351 c 1.23746,0.271529 1.63345,0.697335 1.63964,2.00561 0,2.345021 0,4.690042 0,7.035063 0,1.357644 -0.37743,1.758766 -1.73245,2.030295 l -4.94985,0.981206 2.47493,3.745862 c 0.84766,1.289762 0.79816,1.851333 -0.28462,2.931277 -1.47877,1.487237 -2.96372,2.962131 -4.44868,4.443197 -1.23746,1.234222 -1.77576,1.289762 -3.20503,0.357925 z M 101.92861,52.118093 c 0,1.721739 0,3.381767 0.0309,5.035624 0.0959,0.334517 0.34664,0.602974 0.67441,0.722019 0.9776,0.253016 1.98613,0.382609 2.9761,0.580085 1.06272,0.152192 1.96498,0.854681 2.37093,1.845979 0.40597,0.991298 0.25482,2.122925 -0.39717,2.973656 -0.22275,0.33324 -0.44549,0.660308 -0.66205,0.993548 -1.54683,2.314166 -1.54683,2.314166 0.40218,4.258065 1.65201,1.641514 1.70151,1.709397 3.6072,0.370266 1.46021,-1.030575 2.80904,-1.610659 4.5353,-0.549228 0.72392,0.45049 1.27459,0.857784 1.43546,1.734081 0.21656,1.166339 0.48261,2.326508 0.7796,3.480505 0.0681,0.246844 0.3403,0.617111 0.53211,0.617111 1.54064,0.05554 3.09366,0 4.64667,0 0.25368,-1.234222 0.48261,-2.388219 0.71154,-3.511361 0.25787,-1.009587 0.97269,-1.841676 1.93342,-2.250613 0.96074,-0.408937 2.05766,-0.348015 2.96694,0.164779 1.1199,0.715848 2.23362,1.444039 3.5082,2.264796 0.61873,-0.715848 1.23747,-1.407012 1.8562,-2.042636 1.60251,-1.623002 1.68913,-1.672371 0.35886,-3.511361 -1.08278,-1.499579 -1.61489,-2.881907 -0.55067,-4.62216 0.31118,-0.689845 0.9223,-1.199301 1.6582,-1.382328 1.20034,-0.240673 2.40687,-0.481346 3.59483,-0.796073 0.30374,-0.10693 0.53517,-0.356222 0.61873,-0.666479 0.0557,-1.468724 0.0309,-2.943619 0.0309,-4.486396 -1.31171,-0.246844 -2.55536,-0.475175 -3.78664,-0.72202 -0.92179,-0.258956 -1.67919,-0.915468 -2.0648,-1.789771 -0.38561,-0.874302 -0.35902,-1.874779 0.0725,-2.72748 0.64967,-1.079944 1.33646,-2.147545 2.05419,-3.184292 0.3403,-0.493688 0.3898,-0.833099 -0.10519,-1.277419 -0.85385,-0.771388 -1.67057,-1.598317 -2.47492,-2.468443 -0.42074,-0.456662 -0.75486,-0.543057 -1.28078,-0.160449 -0.7796,0.580084 -1.62107,1.079944 -2.44399,1.610659 -0.86696,0.544821 -1.94815,0.626135 -2.88721,0.21714 -0.93907,-0.408994 -1.61416,-1.255223 -1.80277,-2.259776 -0.27843,-1.394671 -0.57542,-2.789341 -0.85385,-4.140814 h -4.90035 c -0.16706,0.728191 -0.32174,1.388499 -0.47024,2.054979 -0.14849,0.66648 -0.2908,1.413184 -0.45786,2.110519 -0.24698,0.867476 -0.88132,1.572843 -1.7192,1.9117 -0.83788,0.338857 -1.78563,0.27332 -2.56861,-0.177619 -1.30552,-0.833099 -2.59248,-1.684712 -4.03413,-2.616549 l -2.78429,2.925105 -0.66204,0.789902 2.07894,3.190463 c 0.48802,0.836735 0.55405,1.853395 0.17834,2.745936 -0.3757,0.89254 -1.14959,1.557494 -2.09022,1.795999 z"
         id="path481"
         fill="#ffffff" />
      <path
         d="m 131.99979,55.10454 c -0.0579,6.069919 -5.02164,10.945806 -11.0917,10.895068 -6.07005,-0.05074 -10.95164,-5.00892 -10.9078,-11.078954 0.0438,-6.070034 4.99654,-10.957186 11.0667,-10.920448 6.08111,0.05753 10.97002,5.023149 10.9328,11.104334 z m -18.78121,-0.312706 c -0.0477,4.302782 3.39849,7.831233 7.70125,7.885095 4.25648,-0.03846 7.71539,-3.445785 7.81775,-7.70115 0.0328,-2.067599 -0.76274,-4.062429 -2.20932,-5.540091 -1.44659,-1.477662 -3.42407,-2.315408 -5.49193,-2.326609 -4.25613,0.02215 -7.72152,3.427709 -7.81775,7.682755 z"
         id="path483"
         fill="#ffffff" />
    </g>
  </g>
</svg>
