<?xml version="1.0" encoding="UTF-8"?>
<svg width="299px" height="300px" viewBox="0 0 299 300" version="1.1" xmlns="http://www.w3.org/2000/svg" xmlns:xlink="http://www.w3.org/1999/xlink">
    <title>coding_-2</title>
    <defs>
        <linearGradient x1="48.871774%" y1="22.1475143%" x2="52.9504634%" y2="122.651114%" id="linearGradient-1">
            <stop stop-color="#FFFFFF" stop-opacity="0" offset="0%"></stop>
            <stop stop-color="#FFFFFF" offset="100%"></stop>
        </linearGradient>
        <linearGradient x1="47.190027%" y1="49.737815%" x2="-15.1553235%" y2="43.8915087%" id="linearGradient-2">
            <stop stop-color="#FFFFFF" stop-opacity="0" offset="0%"></stop>
            <stop stop-color="#FFFFFF" offset="100%"></stop>
        </linearGradient>
        <linearGradient x1="51.0994315%" y1="103.325904%" x2="49.3060174%" y2="16.6170187%" id="linearGradient-3">
            <stop stop-color="#FFFFFF" stop-opacity="0" offset="0%"></stop>
            <stop stop-color="#FFFFFF" offset="100%"></stop>
        </linearGradient>
        <linearGradient x1="47.8552822%" y1="15.7051713%" x2="53.0191027%" y2="98.3552198%" id="linearGradient-4">
            <stop stop-color="#FFFFFF" stop-opacity="0" offset="0%"></stop>
            <stop stop-color="#FFFFFF" offset="100%"></stop>
        </linearGradient>
        <linearGradient x1="53.8171263%" y1="36.8808542%" x2="48.3570392%" y2="55.7379085%" id="linearGradient-5">
            <stop stop-color="#3385E6" offset="0%"></stop>
            <stop stop-color="#FFFFFF" offset="100%"></stop>
        </linearGradient>
        <linearGradient x1="53.8171263%" y1="15.9469087%" x2="48.3570392%" y2="64.8937686%" id="linearGradient-6">
            <stop stop-color="#3385E6" offset="0%"></stop>
            <stop stop-color="#FFFFFF" offset="100%"></stop>
        </linearGradient>
        <linearGradient x1="53.8171263%" y1="46.3526606%" x2="48.3570392%" y2="51.5952334%" id="linearGradient-7">
            <stop stop-color="#3385E6" offset="0%"></stop>
            <stop stop-color="#FFFFFF" offset="100%"></stop>
        </linearGradient>
        <linearGradient x1="53.8171263%" y1="38.519041%" x2="48.3570392%" y2="55.0214163%" id="linearGradient-8">
            <stop stop-color="#3385E6" offset="0%"></stop>
            <stop stop-color="#FFFFFF" offset="100%"></stop>
        </linearGradient>
        <linearGradient x1="53.8171263%" y1="30.8451361%" x2="48.3570392%" y2="58.3777448%" id="linearGradient-9">
            <stop stop-color="#3385E6" offset="0%"></stop>
            <stop stop-color="#FFFFFF" offset="100%"></stop>
        </linearGradient>
        <linearGradient x1="53.8171263%" y1="6.90155632%" x2="48.3570392%" y2="68.8499259%" id="linearGradient-10">
            <stop stop-color="#3385E6" offset="0%"></stop>
            <stop stop-color="#FFFFFF" offset="100%"></stop>
        </linearGradient>
        <linearGradient x1="53.8171263%" y1="27.204129%" x2="48.3570392%" y2="59.9702087%" id="linearGradient-11">
            <stop stop-color="#3385E6" offset="0%"></stop>
            <stop stop-color="#FFFFFF" offset="100%"></stop>
        </linearGradient>
        <linearGradient x1="53.8171263%" y1="44.5515054%" x2="48.3570392%" y2="52.383003%" id="linearGradient-12">
            <stop stop-color="#3385E6" offset="0%"></stop>
            <stop stop-color="#FFFFFF" offset="100%"></stop>
        </linearGradient>
        <linearGradient x1="0.157599648%" y1="50.0645643%" x2="99.9963699%" y2="50.0645643%" id="linearGradient-13">
            <stop stop-color="#E5C6D6" offset="0%"></stop>
            <stop stop-color="#EAD4D0" offset="42%"></stop>
            <stop stop-color="#F0E9CB" offset="100%"></stop>
        </linearGradient>
        <linearGradient x1="-0.130958186%" y1="50.038758%" x2="100.054988%" y2="50.038758%" id="linearGradient-14">
            <stop stop-color="#E5C6D6" offset="0%"></stop>
            <stop stop-color="#EAD4D0" offset="42%"></stop>
            <stop stop-color="#F0E9CB" offset="100%"></stop>
        </linearGradient>
        <linearGradient x1="-0.291606646%" y1="49.9114649%" x2="99.7692962%" y2="49.9114649%" id="linearGradient-15">
            <stop stop-color="#E5C6D6" offset="0%"></stop>
            <stop stop-color="#EAD4D0" offset="42%"></stop>
            <stop stop-color="#F0E9CB" offset="100%"></stop>
        </linearGradient>
        <linearGradient x1="-0.435759331%" y1="49.7843136%" x2="99.7806048%" y2="49.7843136%" id="linearGradient-16">
            <stop stop-color="#E5C6D6" offset="0%"></stop>
            <stop stop-color="#EAD4D0" offset="42%"></stop>
            <stop stop-color="#F0E9CB" offset="100%"></stop>
        </linearGradient>
        <linearGradient x1="-0.00859097584%" y1="49.9990858%" x2="100.102726%" y2="49.9990858%" id="linearGradient-17">
            <stop stop-color="#E5C6D6" offset="0%"></stop>
            <stop stop-color="#EAD4D0" offset="42%"></stop>
            <stop stop-color="#F0E9CB" offset="100%"></stop>
        </linearGradient>
        <linearGradient x1="0%" y1="50.0075169%" x2="100.075387%" y2="50.0075169%" id="linearGradient-18">
            <stop stop-color="#010101" stop-opacity="0" offset="0%"></stop>
            <stop stop-color="#010101" offset="95%"></stop>
        </linearGradient>
        <linearGradient x1="0%" y1="49.9877059%" x2="95%" y2="49.9877059%" id="linearGradient-19">
            <stop stop-color="#010101" stop-opacity="0" offset="0%"></stop>
            <stop stop-color="#010101" offset="100%"></stop>
        </linearGradient>
        <linearGradient x1="50.9452485%" y1="18.2540232%" x2="46.4910638%" y2="163.453088%" id="linearGradient-20">
            <stop stop-color="#010101" stop-opacity="0" offset="0%"></stop>
            <stop stop-color="#010101" offset="95%"></stop>
        </linearGradient>
        <linearGradient x1="44.3146837%" y1="86.7388826%" x2="58.3065214%" y2="-26.7291361%" id="linearGradient-21">
            <stop stop-color="#010101" stop-opacity="0" offset="0%"></stop>
            <stop stop-color="#010101" offset="100%"></stop>
        </linearGradient>
        <linearGradient x1="50.509165%" y1="56.1060255%" x2="49.5076075%" y2="44.336153%" id="linearGradient-22">
            <stop stop-color="#010101" stop-opacity="0" offset="0%"></stop>
            <stop stop-color="#010101" offset="100%"></stop>
        </linearGradient>
        <linearGradient x1="50.009173%" y1="62.244865%" x2="50.1477687%" y2="162.335323%" id="linearGradient-23">
            <stop stop-color="#010101" stop-opacity="0" offset="0%"></stop>
            <stop stop-color="#010101" offset="100%"></stop>
        </linearGradient>
        <linearGradient x1="45.5378241%" y1="33.3823703%" x2="76.6349334%" y2="131.58428%" id="linearGradient-24">
            <stop stop-color="#010101" stop-opacity="0" offset="0%"></stop>
            <stop stop-color="#010101" offset="95%"></stop>
        </linearGradient>
        <linearGradient x1="57.1780364%" y1="23.8288558%" x2="5.97563292%" y2="168.890597%" id="linearGradient-25">
            <stop stop-color="#010101" stop-opacity="0" offset="0%"></stop>
            <stop stop-color="#010101" offset="95%"></stop>
        </linearGradient>
        <linearGradient x1="57.3454475%" y1="9.64161116%" x2="9.40616269%" y2="171.379638%" id="linearGradient-26">
            <stop stop-color="#010101" stop-opacity="0" offset="0%"></stop>
            <stop stop-color="#010101" offset="100%"></stop>
        </linearGradient>
    </defs>
    <g id="Page-1" stroke="none" stroke-width="1" fill="none" fill-rule="evenodd">
        <g id="landing-page" transform="translate(-7075.000000, -971.000000)" fill-rule="nonzero">
            <g id="backend-development" transform="translate(6202.000000, 971.000000)">
                <g id="coding_-2" transform="translate(873.000000, 0.000000)">
                    <path d="M79.3767823,282.006907 C78.1517651,283.361156 80.1601266,285.245329 81.8768173,285.901424 C93.0777524,290.22759 104.96769,292.451104 116.960641,292.462382 L114.918946,295.969971 C133.717033,301.238597 153.568222,301.343139 172.419751,296.272784 L169.51971,291.730583 L186.361612,290.889434 C189.03665,290.763262 198.420114,291.873578 200.195139,289.476305 C205.303544,282.570477 184.511587,282.301309 182.278222,282.208783 C160.094578,281.272304 137.897045,280.91061 115.685624,281.123701 C109.629983,281.179778 103.574343,281.277912 97.5187028,281.418103 C94.651996,281.519041 81.1601406,280.089089 79.3767823,282.006907 Z" id="Path" fill="#73B3FF" opacity="0.42"></path>
                    <path d="M173.689318,219.856226 C173.236891,228.768867 172.697888,237.698218 172.07231,246.644281 C171.886336,251.166041 171.297538,255.662351 170.312872,260.080086 C169.652155,262.706518 168.719968,265.257494 167.531284,267.692038 C167.020209,268.736488 166.291299,269.872849 165.143475,269.989828 C163.694033,270.140229 162.688639,268.594443 162.169186,267.23248 C159.580298,260.548 159.580298,253.228494 159.412733,246.0761 C159.317779,242.377354 159.169763,238.675823 158.968684,234.971507 C158.725714,230.501261 158.239774,225.663369 155.206838,222.354551 C154.285227,221.351879 153.162538,220.53303 152.257684,219.505291 C148.562864,215.327491 149.668796,208.28372 153.648478,204.348232 C156.740062,201.298438 165.713197,197.271039 170.044767,199.79443 C175.189029,202.785735 173.932288,215.035045 173.689318,219.856226 Z" id="Path" fill="#606161"></path>
                    <path d="M148.206769,205.657989 C149.525212,207.6819 150.14351,210.060109 149.971931,212.447469 C149.758747,219.625156 145.358634,225.976872 143.15005,232.84069 C139.841438,243.206624 141.683346,254.315932 142.015912,265.193968 C142.169798,266.691872 141.977548,268.204172 141.453107,269.621172 C140.882755,271.059444 139.453727,272.006339 137.863092,272 C136.737761,271.797421 135.724432,271.211436 135.00643,270.348026 C129.583035,264.731424 129.762109,256.166107 128.866737,248.534136 C127.86051,240.034896 125.140285,231.824745 122.820845,223.573296 C121.771981,219.848168 120.791336,216.032183 121.038629,212.183158 C121.285922,208.334134 122.957283,204.377734 126.240313,202.197171 C132.200931,198.24903 143.951621,199.752297 148.206769,205.657989 Z" id="Path" fill="#606161"></path>
                    <rect id="Rectangle" fill="#3385E6" transform="translate(55.500000, 65.500000) rotate(-180.000000) translate(-55.500000, -65.500000) " x="0" y="4" width="111" height="123" rx="12.14"></rect>
                    <rect id="Rectangle" fill="url(#linearGradient-1)" transform="translate(55.500000, 65.500000) rotate(-180.000000) translate(-55.500000, -65.500000) " x="0" y="4" width="111" height="123" rx="12.14"></rect>
                    <rect id="Rectangle" fill="#73B3FF" transform="translate(237.500000, 65.000000) rotate(-180.000000) translate(-237.500000, -65.000000) " x="176" y="27" width="123" height="76" rx="11.56"></rect>
                    <rect id="Rectangle" fill="url(#linearGradient-2)" transform="translate(237.500000, 65.000000) rotate(-180.000000) translate(-237.500000, -65.000000) " x="176" y="27" width="123" height="76" rx="11.56"></rect>
                    <rect id="Rectangle" fill="#3385E6" opacity="0.99484189" transform="translate(186.000000, 23.500000) rotate(-180.000000) translate(-186.000000, -23.500000) " x="147" y="0" width="78" height="47" rx="7.26"></rect>
                    <rect id="Rectangle" fill="url(#linearGradient-3)" transform="translate(186.000000, 23.500000) rotate(-180.000000) translate(-186.000000, -23.500000) " x="147" y="0" width="78" height="47" rx="7.26"></rect>
                    <rect id="Rectangle" fill="#73B3FF" opacity="0.52" transform="translate(142.000000, 188.500000) rotate(-180.000000) translate(-142.000000, -188.500000) " x="48" y="184" width="188" height="9"></rect>
                    <rect id="Rectangle" fill="#3385E6" transform="translate(147.000000, 119.000000) rotate(-180.000000) translate(-147.000000, -119.000000) " x="75" y="66" width="144" height="106" rx="12.56"></rect>
                    <rect id="Rectangle" fill="url(#linearGradient-4)" transform="translate(147.000000, 119.000000) rotate(-180.000000) translate(-147.000000, -119.000000) " x="75" y="66" width="144" height="106" rx="12.56"></rect>
                    <rect id="Rectangle" fill="url(#linearGradient-5)" x="93" y="82" width="29" height="2"></rect>
                    <rect id="Rectangle" fill="url(#linearGradient-6)" x="93" y="87" width="18" height="2"></rect>
                    <rect id="Rectangle" fill="url(#linearGradient-7)" x="118" y="87" width="55" height="2"></rect>
                    <rect id="Rectangle" fill="url(#linearGradient-8)" x="178" y="87" width="31" height="2"></rect>
                    <rect id="Rectangle" fill="url(#linearGradient-9)" x="102" y="91" width="24" height="2"></rect>
                    <rect id="Rectangle" fill="url(#linearGradient-5)" x="109" y="94" width="29" height="2"></rect>
                    <rect id="Rectangle" fill="url(#linearGradient-10)" x="140" y="94" width="24" height="3"></rect>
                    <rect id="Rectangle" fill="url(#linearGradient-11)" x="110" y="99" width="22" height="2"></rect>
                    <rect id="Rectangle" fill="url(#linearGradient-12)" x="134" y="99" width="45" height="2"></rect>
                    <rect id="Rectangle" fill="url(#linearGradient-5)" x="93" y="105" width="29" height="2"></rect>
                    <rect id="Rectangle" fill="url(#linearGradient-6)" x="93" y="108" width="18" height="2"></rect>
                    <rect id="Rectangle" fill="url(#linearGradient-7)" x="118" y="108" width="55" height="2"></rect>
                    <rect id="Rectangle" fill="url(#linearGradient-8)" x="178" y="108" width="31" height="2"></rect>
                    <rect id="Rectangle" fill="url(#linearGradient-9)" x="102" y="112" width="24" height="2"></rect>
                    <rect id="Rectangle" fill="url(#linearGradient-5)" x="109" y="117" width="29" height="2"></rect>
                    <rect id="Rectangle" fill="url(#linearGradient-10)" x="140" y="116" width="24" height="3"></rect>
                    <rect id="Rectangle" fill="url(#linearGradient-11)" x="110" y="120" width="22" height="2"></rect>
                    <rect id="Rectangle" fill="url(#linearGradient-12)" x="134" y="120" width="45" height="2"></rect>
                    <rect id="Rectangle" fill="url(#linearGradient-5)" x="93" y="126" width="29" height="2"></rect>
                    <rect id="Rectangle" fill="url(#linearGradient-6)" x="93" y="130" width="18" height="2"></rect>
                    <rect id="Rectangle" fill="url(#linearGradient-7)" x="118" y="130" width="55" height="2"></rect>
                    <rect id="Rectangle" fill="url(#linearGradient-8)" x="178" y="130" width="31" height="2"></rect>
                    <rect id="Rectangle" fill="url(#linearGradient-9)" x="102" y="134" width="24" height="2"></rect>
                    <rect id="Rectangle" fill="url(#linearGradient-5)" x="109" y="138" width="29" height="2"></rect>
                    <rect id="Rectangle" fill="url(#linearGradient-10)" x="140" y="138" width="24" height="3"></rect>
                    <rect id="Rectangle" fill="url(#linearGradient-11)" x="110" y="143" width="22" height="2"></rect>
                    <rect id="Rectangle" fill="url(#linearGradient-12)" x="134" y="143" width="45" height="2"></rect>
                    <g id="Group" opacity="0.52" transform="translate(157.000000, 6.000000)" fill="#3385E6">
                        <rect id="Rectangle" x="0.29" y="0.597894737" width="14.2017143" height="1.06105263"></rect>
                        <rect id="Rectangle" x="0.29" y="2.65263158" width="8.66685714" height="1"></rect>
                        <rect id="Rectangle" x="12.4534286" y="2.65263158" width="27.2765714" height="1.00210526"></rect>
                        <rect id="Rectangle" x="42.2737143" y="2.65263158" width="15.3534286" height="1.00210526"></rect>
                        <rect id="Rectangle" x="4.79742857" y="4.69894737" width="11.9148571" height="1.04421053"></rect>
                        <rect id="Rectangle" x="8.62542857" y="6.75368421" width="14.2017143" height="1.06105263"></rect>
                        <rect id="Rectangle" x="23.7468571" y="6.75368421" width="11.8982857" height="1.17894737"></rect>
                        <rect id="Rectangle" x="8.60057143" y="8.8" width="10.962" height="1"></rect>
                        <rect id="Rectangle" x="20.6231429" y="8.8" width="22.6282857" height="1.10315789"></rect>
                        <rect id="Rectangle" x="0.29" y="11.5705263" width="14.2017143" height="1.06105263"></rect>
                        <rect id="Rectangle" x="0.29" y="13.6168421" width="8.66685714" height="1"></rect>
                        <rect id="Rectangle" x="12.4534286" y="13.6168421" width="27.2765714" height="1.00210526"></rect>
                        <rect id="Rectangle" x="42.2737143" y="13.6168421" width="15.3534286" height="1.00210526"></rect>
                        <rect id="Rectangle" x="4.79742857" y="15.6631579" width="11.9148571" height="1.04421053"></rect>
                        <rect id="Rectangle" x="8.62542857" y="17.7178947" width="14.2017143" height="1.06105263"></rect>
                        <rect id="Rectangle" x="23.7468571" y="17.7178947" width="11.8982857" height="1.17894737"></rect>
                        <rect id="Rectangle" x="8.60057143" y="19.7642105" width="10.962" height="1"></rect>
                        <rect id="Rectangle" x="20.6231429" y="19.7642105" width="22.6282857" height="1.10315789"></rect>
                        <rect id="Rectangle" x="0.29" y="22.5347368" width="14.2017143" height="1.06105263"></rect>
                        <rect id="Rectangle" x="0.29" y="24.5894737" width="8.66685714" height="1"></rect>
                        <rect id="Rectangle" x="12.4534286" y="24.5894737" width="27.2765714" height="1.00210526"></rect>
                        <rect id="Rectangle" x="42.2737143" y="24.5894737" width="15.3534286" height="1.00210526"></rect>
                        <rect id="Rectangle" x="4.79742857" y="26.6357895" width="11.9148571" height="1.04421053"></rect>
                        <rect id="Rectangle" x="8.62542857" y="28.6821053" width="14.2017143" height="1.06105263"></rect>
                        <rect id="Rectangle" x="23.7468571" y="28.6821053" width="11.8982857" height="1.17894737"></rect>
                        <rect id="Rectangle" x="8.60057143" y="30.7368421" width="10.962" height="1"></rect>
                        <rect id="Rectangle" x="20.6231429" y="30.7368421" width="22.6282857" height="1.10315789"></rect>
                    </g>
                    <path d="M182.06778,177.813681 C182.68027,179.488204 183.258254,181.246452 182.878683,182.97121 C182.741316,183.568049 182.49282,184.13553 182.14542,184.645733 C180.420096,187.241242 176.331077,187.643128 173.518798,186.085822 C170.706519,184.528516 169.119221,181.547866 168.342825,178.550471 C168.036748,177.54651 167.934211,176.494461 168.040893,175.452605 C168.291065,173.635748 169.533299,172.10356 170.827292,170.763942 C172.552616,169.022439 175.718587,166.745088 178.039148,168.838241 C180.12679,170.713706 181.144732,175.31027 182.06778,177.813681 Z" id="Path" fill="url(#linearGradient-13)"></path>
                    <path d="M113.495015,177.717674 C113.132617,178.415358 112.963718,179.200637 113.006505,179.988947 C113.107019,180.495834 113.303922,180.977736 113.586093,181.407437 C114.282723,182.682361 115.213138,183.808876 116.326717,184.725691 C117.450262,185.643944 118.873488,186.093528 120.309316,185.983757 C122.428952,185.747342 124.109758,184.033333 125.235815,182.184229 C126.406246,180.42721 127.021644,178.347145 126.999419,176.223193 C126.868156,173.957402 125.750559,171.870064 123.952441,170.532345 C122.354434,169.35027 119.025942,168.277959 117.220939,169.628902 C115.415936,170.979845 114.397517,175.539278 113.495015,177.717674 Z" id="Path" fill="url(#linearGradient-14)"></path>
                    <path d="M162.68412,116.079355 C163.23442,115.906228 163.827485,116.019767 164.290193,116.38683 C164.609234,116.78183 164.795305,117.282887 164.817902,117.807861 C165.012845,118.866476 165.051568,119.952046 164.932622,121.02388 C164.804627,122.089257 164.323302,123.067293 163.578932,123.774532 C162.99928,124.238261 162.34594,124.581946 161.651644,124.788367 C161.130386,125.04536 160.537009,125.06924 159.999683,124.854848 C159.525188,124.503845 159.221718,123.939006 159.173703,123.317475 C158.569513,120.101456 159.494917,116.710925 162.68412,116.079355 Z" id="Path" fill="url(#linearGradient-15)"></path>
                    <path d="M132.005672,115.057114 C131.707912,114.980962 131.396237,114.980962 131.098477,115.057114 C130.434602,115.375165 130.01315,116.056574 130.018839,116.802686 C129.970292,117.519594 130.015674,118.239881 130.153794,118.944632 C130.283136,120.124336 130.758589,121.237188 131.518336,122.138495 C132.305732,123.031195 133.592643,123.258192 134.629792,122.687321 C137.816222,120.446281 134.817229,115.682166 132.005672,115.057114 Z" id="Path" fill="url(#linearGradient-16)"></path>
                    <path d="M154.82762,138.475189 C154.995078,139.263571 155.04091,140.073993 154.963447,140.87693 C154.649348,143.104631 152.484615,144.662281 150.311393,144.940744 C148.138171,145.219207 145.964949,144.470838 143.936043,143.644152 C143.312939,143.428913 142.736386,143.09204 142.238213,142.652129 C141.740808,142.119439 141.402116,141.452245 141.261961,140.728996 C141.018522,139.474858 140.944256,138.192391 141.041243,136.917539 L141.177069,132.427328 C141.135353,131.548954 141.304414,130.673495 141.66944,129.877654 C142.518355,128.389619 144.46237,128.137263 146.15171,128.024137 C148.367378,127.928416 151.703614,128.024137 153.163747,130.095203 C154.623881,132.166269 154.454098,136.064747 154.82762,138.475189 Z" id="Path" fill="url(#linearGradient-17)"></path>
                    <path d="M161.263325,103.324367 C161.906508,105.170121 162.132846,107.141271 161.925315,109.089568 C161.740997,113.58822 161.282224,118.070654 160.551685,122.510619 C160.005543,125.842566 159.144956,129.420382 156.571469,131.522985 C155.83571,132.029986 155.14112,132.597046 154.494475,133.218633 C154.047632,133.710371 153.733186,134.320804 153.319443,134.854933 C151.225899,137.542534 147.005711,137.542534 144.126054,135.753626 C141.246397,133.964718 139.401099,130.895596 137.713024,127.911256 C135.851177,124.6217 134.005879,121.179535 133.674884,117.389763 C133.401813,114.388467 134.088628,111.226084 132.97152,108.436744 C132.144032,106.385011 130.431132,104.740233 130.050488,102.561326 C129.903395,101.093278 130.07869,99.6101111 130.56353,98.2204679 C131.233796,95.7533007 132.25988,92.9046129 134.700969,92.2348321 C136.480068,91.7430943 138.31709,92.6757004 140.162388,92.7350481 C142.512453,92.8198305 144.903893,91.4717907 147.138109,92.2348321 C150.009492,93.2183077 151.275548,96.6096027 154.138655,97.7117736 C157.001763,98.8139445 159.931069,100.204375 161.263325,103.324367 Z" id="Path" fill="#606161"></path>
                    <path d="M170.711011,146.196639 C162.171395,139.16947 149.85043,139.344941 138.860096,140.832261 C134.320793,141.442229 129.697273,142.252735 125.705382,144.49207 C119.018543,148.252148 115.060338,155.521633 112.980175,162.874675 C111.876931,166.776801 111.295833,171.230405 113.502321,174.656254 C115.818292,178.199084 120.43339,179.41902 124.66109,179.886941 C125.308752,179.901287 125.941488,180.082709 126.497023,180.413352 C127.079396,180.948789 127.444744,181.676732 127.524472,182.460506 C128.703511,188.560188 126.311745,195.411887 129.469887,200.767909 C132.526969,205.940106 139.356977,207.30209 145.378501,207.761655 C153.168585,208.354912 161.615562,208.137663 167.940268,203.58379 C168.989438,202.884241 169.881216,201.97669 170.55942,200.918312 C171.603712,199.146898 171.662664,196.991119 171.68793,194.943966 C171.755303,190.482006 170.113069,181.507952 172.302714,177.572404 C174.138648,174.296958 179.368531,174.280246 181.204464,170.536879 C184.682631,163.417798 175.940894,150.491484 170.711011,146.196639 Z" id="Path" fill="#FFFFFF"></path>
                    <path d="M140.484147,202.75327 L140.542395,212.2468 C140.583656,212.612378 140.514055,212.981944 140.342688,213.307203 C140.065896,213.650259 139.665007,213.869403 139.227657,213.916726 C136.664751,214.5179 133.985349,214.175565 131.355874,214.183914 C128.726399,214.192264 125.888895,214.659843 124,216.505112 C126.870788,218.634267 130.573688,219.218742 134.126808,219.636223 C139.385759,220.265229 144.655804,220.68271 149.936944,220.888668 C153.360204,221.142049 156.801631,220.962515 160.180248,220.354291 C163.150557,219.755852 165.935152,218.453259 168.301665,216.555209 C165.980072,214.05032 162.135712,214.100418 158.740694,214.100418 C155.437468,214.099286 152.136978,213.909722 148.855198,213.532643 C148.105603,213.542943 147.385378,213.240562 146.866449,212.69768 C146.589907,212.202972 146.47906,211.632205 146.550247,211.069502 C146.613459,208.961523 146.878175,206.864499 147.340753,204.807279 C147.439346,204.12847 147.711717,203.486925 148.13126,202.945312 C148.872524,202.309717 149.803434,201.939602 150.777378,201.893258 C154.630264,201.249021 158.40801,200.213926 162.052501,198.803895 C163.553509,198.304727 164.949863,197.531978 166.171457,196.524446 C169.44998,193.535278 169.308521,188.383556 168.551299,184 C162.517651,187.514808 155.704243,189.460785 148.730381,189.661049 C143.962377,189.794644 133.61922,187.740634 130.265807,192.349631 C128.601582,194.679177 130.373981,196.833382 132.21295,198.444861 C133.011778,199.129531 140.484147,202.661424 140.484147,202.75327 Z" id="Path" fill="url(#linearGradient-18)"></path>
                    <rect id="Rectangle" fill="#0D4485" x="123" y="160" width="48" height="33" rx="16.5"></rect>
                    <rect id="Rectangle" fill="url(#linearGradient-19)" x="123" y="160" width="48" height="33" rx="16.5"></rect>
                    <rect id="Rectangle" fill="#73B3FF" x="123" y="163" width="48" height="33" rx="16.5"></rect>
                    <path d="M154.421026,181.286591 C153.03019,181.918839 151.565865,182.365259 150.064024,182.614885 C146.014765,183.378653 141.28523,183.212617 138.369764,180.199051 C137.912878,179.741118 137.542252,179.200772 137.276464,178.605099 C136.466612,176.587754 137.527518,174.155316 139.268699,172.876834 C141.009881,171.598352 143.220776,171.257977 145.350686,171.150053 C147.958409,171.017223 152.914702,170.560623 155.190385,172.36212 C157.911487,174.520597 157.490364,179.808865 154.421026,181.286591 Z" id="Path" fill="url(#linearGradient-20)"></path>
                    <rect id="Rectangle" fill="#FFFFFF" transform="translate(147.000000, 203.000000) rotate(180.000000) translate(-147.000000, -203.000000) " x="144" y="176" width="6" height="54" rx="3"></rect>
                    <path d="M166.829356,267.008876 C168.542959,268.392323 168.971359,270.790297 169.725344,272.878045 C170.770642,275.728784 172.707013,278.319603 172.964054,281.338033 C173.076221,282.232958 172.924608,283.140611 172.527085,283.954005 C171.747335,285.234318 170.331575,286.01323 168.808567,286 C167.309039,285.969447 165.847246,285.534208 164.584536,284.742151 C162.351453,283.44065 160.507589,281.587116 159.238096,279.367669 C158.59031,278.281737 158.176277,277.077651 158.021438,275.829398 C157.670149,272.047976 161.679979,262.984302 166.829356,267.008876 Z" id="Path" fill="#464748"></path>
                    <path d="M169.826032,283.142726 C170.057989,283.577417 170.057989,284.099848 169.826032,284.53454 C169.638905,284.735946 169.391284,284.870301 169.120988,284.917085 C168.004504,285.133925 166.847652,284.92188 165.879406,284.322919 C164.923906,283.73448 164.04701,283.026077 163.269932,282.214849 C162.066975,281.154583 161.002317,279.945813 160.101286,278.617295 C159.198471,277.267272 158.831328,275.626805 159.072084,274.018611 C159.931103,269.60713 163.804793,273.562812 165.231089,275.190665 C167.266908,277.513227 168.828169,280.215163 169.826032,283.142726 Z" id="Path" fill="#606161"></path>
                    <path d="M134.170981,268.02027 C132.45725,269.402884 132.028817,271.799414 131.274776,273.885903 C130.2294,276.734925 128.292884,279.332562 128.035824,282.340794 C127.923906,283.237895 128.075482,284.147615 128.472826,284.96357 C129.254776,286.239893 130.670243,287.014927 132.191622,286.999782 C133.691973,286.973805 135.155072,286.538472 136.415969,285.742861 C138.65124,284.444651 140.495838,282.591635 141.762809,280.371617 C142.411977,279.286932 142.826136,278.083295 142.979558,276.835478 C143.322304,273.056335 139.312174,263.964604 134.170981,268.02027 Z" id="Path" fill="#464748"></path>
                    <path d="M131.170701,284.147667 C130.9431,284.583407 130.9431,285.103678 131.170701,285.539418 C131.360975,285.740933 131.61108,285.875134 131.883596,285.921946 C132.999712,286.130076 134.153039,285.918612 135.124027,285.327807 C136.074455,284.736148 136.947972,284.028058 137.724474,283.219833 C138.931622,282.158857 139.998813,280.947192 140.900097,279.614302 C141.800593,278.266531 142.167519,276.629429 141.928934,275.023965 C141.062119,270.604545 137.197904,274.560048 135.764013,276.195966 C133.730971,278.519909 132.170513,281.221293 131.170701,284.147667 Z" id="Path" fill="#606161"></path>
                    <path d="M151.786651,248.105586 C150.400024,248.765557 148.868895,249.062239 147.336615,248.967854 C145.640643,249.065389 143.939217,248.940744 142.275453,248.597079 C141.714516,248.486059 141.1888,248.240487 140.743332,247.881397 C140.371615,247.540231 140.077983,247.122535 139.88259,246.656977 C138.479581,243.552814 136.895816,237.120298 139.073493,234.507627 C141.561037,231.506936 151.433747,230.980953 154.566847,234.12823 C157.605266,237.077184 155.401767,245.975785 151.786651,248.105586 Z" id="Path" fill="#3385E6"></path>
                    <path d="M151.786651,248.105586 C150.400024,248.765557 148.868895,249.062239 147.336615,248.967854 C145.640643,249.065389 143.939217,248.940744 142.275453,248.597079 C141.714516,248.486059 141.1888,248.240487 140.743332,247.881397 C140.371615,247.540231 140.077983,247.122535 139.88259,246.656977 C138.479581,243.552814 136.895816,237.120298 139.073493,234.507627 C141.561037,231.506936 151.433747,230.980953 154.566847,234.12823 C157.605266,237.077184 155.401767,245.975785 151.786651,248.105586 Z" id="Path" fill="url(#linearGradient-21)"></path>
                    <rect id="Rectangle" fill="#FFFFFF" transform="translate(147.500000, 262.000000) rotate(-180.000000) translate(-147.500000, -262.000000) " x="145" y="248" width="5" height="28"></rect>
                    <path d="M163.961604,277.619488 C164.93412,278.438088 165.881484,279.463493 167.130663,279.618596 C168.036109,279.721998 168.941554,279.325623 169.863767,279.325623 C171.077633,279.413408 172.22163,279.941757 173.091512,280.816338 C173.913125,281.484791 174.530145,282.38221 174.868868,283.401392 C175.547952,285.779642 173.485549,288.38193 171.079411,288.623202 C168.673274,288.864474 166.359358,287.175571 165.303005,284.952425 C165.0754,284.343274 164.777011,283.764623 164.414327,283.229055 C164.066401,282.844747 163.661833,282.519073 163.21545,282.263968 C159.655091,279.994429 155.728275,278.398125 151.620718,277.550553 C150.908099,277.404066 150.036188,277.335132 149.583465,277.91246 C149.364179,278.242979 149.244613,278.632632 149.239732,279.032651 C149.054106,280.749058 148.978489,282.476153 149.01337,284.202759 C148.991264,284.534608 149.05186,284.866769 149.189429,285.167846 C149.407045,285.478054 149.673375,285.748876 149.977502,285.969213 C150.972769,287.056958 151.150363,288.689211 150.413457,289.976047 C149.655017,291.211329 148.492656,292.127962 147.135409,292.561101 C145.525728,293.172897 143.49686,293.276299 142.297983,292.009623 C141.434817,291.011092 141.191682,289.598354 141.669201,288.35608 C142.152276,287.13974 143.045025,286.142647 144.184328,285.546987 C144.58039,285.392754 144.924157,285.123269 145.173611,284.771471 C145.312274,284.446661 145.364358,284.08978 145.324518,283.737449 L145.207146,279.894335 C145.279243,279.299458 145.066827,278.705494 144.63705,278.300218 C144.302057,278.12106 143.918031,278.063372 143.547162,278.136498 C137.385192,278.625197 131.484163,280.898861 126.528141,284.693919 C127.433587,285.417735 127.274295,286.986001 126.461071,287.813218 C125.565361,288.572183 124.414607,288.937534 123.258477,288.830006 C121.987717,288.84343 120.741722,288.468536 119.678614,287.7529 C118.59639,287.026072 117.960943,285.772093 118.001863,284.444031 C118.175762,283.098166 119.026212,281.945801 120.240326,281.4109 C121.439689,280.894765 122.759162,280.748073 124.038166,280.988675 C124.696306,281.132553 125.369893,281.187591 126.041883,281.152395 C126.79563,280.991436 127.512646,280.684373 128.15459,280.247626 C133.961172,276.877811 140.40098,274.821354 147.043188,274.215833 C152.610001,273.707439 159.459528,273.828075 163.961604,277.619488 Z" id="Path" fill="#FFFFFF"></path>
                    <rect id="Rectangle" fill="#FFFFFF" transform="translate(244.500000, 139.500000) rotate(-180.000000) translate(-244.500000, -139.500000) " x="209" y="113" width="71" height="53" rx="11.02"></rect>
                    <rect id="Rectangle" fill="#FFFFFF" transform="translate(43.000000, 156.000000) rotate(-180.000000) translate(-43.000000, -156.000000) " x="2" y="141" width="82" height="30" rx="10.67"></rect>
                    <polygon id="Path" fill="#0D4485" points="18 38.7936953 38 28 38 31.1271454 21.1528279 39.9285464 21.1528279 40.0294221 38 48.8728546 38 52 18 41.2063047"></polygon>
                    <polygon id="Path" fill="#0D4485" points="41 52 53.8686327 20 57 20 44.1313673 52"></polygon>
                    <polygon id="Path" fill="#0D4485" points="78 41.3008017 58 52 58 48.8128268 74.9687249 40.0125479 74.9687249 39.8703381 58 31.0700593 58 28 78 38.6991983"></polygon>
                    <rect id="Rectangle" fill="#0D4485" transform="translate(146.000000, 226.500000) rotate(-180.000000) translate(-146.000000, -226.500000) " x="111" y="216" width="70" height="21" rx="10.5"></rect>
                    <rect id="Rectangle" fill="url(#linearGradient-22)" transform="translate(146.000000, 226.500000) rotate(-180.000000) translate(-146.000000, -226.500000) " x="111" y="216" width="70" height="21" rx="10.5"></rect>
                    <g id="Group" opacity="0.52" transform="translate(215.000000, 127.000000)" fill="#3F97FF">
                        <rect id="Rectangle" x="0.646285714" y="0.347878788" width="18.8914286" height="1.4169697"></rect>
                        <rect id="Rectangle" x="0.646285714" y="3.08848485" width="11.5337143" height="1.33212121"></rect>
                        <rect id="Rectangle" x="16.8282857" y="3.08848485" width="36.2831429" height="1.34060606"></rect>
                        <rect id="Rectangle" x="6.64514286" y="5.84606061" width="15.8588571" height="1.40848485"></rect>
                        <rect id="Rectangle" x="11.7325714" y="8.58666667" width="18.8914286" height="1.4169697"></rect>
                        <rect id="Rectangle" x="31.8502857" y="8.58666667" width="15.834" height="1.57818182"></rect>
                        <rect id="Rectangle" x="11.6994286" y="11.3357576" width="14.5911429" height="1.33212121"></rect>
                        <rect id="Rectangle" x="27.6908571" y="11.3357576" width="30.102" height="1.47636364"></rect>
                        <rect id="Rectangle" x="0.646285714" y="15.0521212" width="18.8914286" height="1.4169697"></rect>
                        <rect id="Rectangle" x="0.646285714" y="17.7927273" width="11.5337143" height="1.33212121"></rect>
                        <rect id="Rectangle" x="16.8282857" y="17.7927273" width="36.2831429" height="1.34060606"></rect>
                        <rect id="Rectangle" x="6.64514286" y="20.5418182" width="15.8588571" height="1.40848485"></rect>
                        <rect id="Rectangle" x="11.7325714" y="23.2909091" width="18.8914286" height="1.4169697"></rect>
                        <rect id="Rectangle" x="31.8502857" y="23.2909091" width="15.834" height="1.57818182"></rect>
                        <rect id="Rectangle" x="11.6994286" y="26.04" width="14.5911429" height="1.33212121"></rect>
                        <rect id="Rectangle" x="27.6908571" y="26.04" width="30.102" height="1.47636364"></rect>
                    </g>
                    <g id="Group" opacity="0.52" transform="translate(15.000000, 146.000000)" fill="#3385E6">
                        <rect id="Rectangle" x="0.530285714" y="0.4" width="18.8914286" height="1.45217391"></rect>
                        <rect id="Rectangle" x="0.530285714" y="3.2173913" width="11.5337143" height="1.36521739"></rect>
                        <rect id="Rectangle" x="16.7122857" y="3.2173913" width="36.2831429" height="1.37391304"></rect>
                        <rect id="Rectangle" x="6.52914286" y="6.03478261" width="15.8588571" height="1.44347826"></rect>
                        <rect id="Rectangle" x="11.6165714" y="8.85217391" width="18.8914286" height="1.45217391"></rect>
                        <rect id="Rectangle" x="31.7425714" y="8.85217391" width="15.834" height="1.6173913"></rect>
                        <rect id="Rectangle" x="11.5917143" y="11.6608696" width="14.5911429" height="1.36521739"></rect>
                        <rect id="Rectangle" x="27.5748571" y="11.6608696" width="30.102" height="1.51304348"></rect>
                        <rect id="Rectangle" x="0.530285714" y="15.4695652" width="18.8914286" height="1.45217391"></rect>
                        <rect id="Rectangle" x="0.530285714" y="18.2869565" width="11.5337143" height="1.36521739"></rect>
                        <rect id="Rectangle" x="16.7122857" y="18.2869565" width="36.2831429" height="1.37391304"></rect>
                    </g>
                    <path d="M52.3813023,243.753855 C49.7138725,238.326103 46.4500989,232.690868 47.0786775,226.640667 C47.4574364,222.980669 49.2545266,219.660943 51.0113232,216.449108 L58.9249668,202 C61.3425769,205.236733 65.3235747,207.203671 66.9191974,210.938363 C69.481864,216.938768 64.5015873,223.57822 64.7675244,230.12638 C64.9448158,235.164064 68.192472,239.753585 67.9910045,244.79127 C67.8620653,248.451268 62.2370926,260.443779 57.683927,259.987316 C55.2743756,259.746636 53.8963379,246.824602 52.3813023,243.753855 Z" id="Path" fill="#73B3FF"></path>
                    <path d="M52.3813023,243.753855 C49.7138725,238.326103 46.4500989,232.690868 47.0786775,226.640667 C47.4574364,222.980669 49.2545266,219.660943 51.0113232,216.449108 L58.9249668,202 C61.3425769,205.236733 65.3235747,207.203671 66.9191974,210.938363 C69.481864,216.938768 64.5015873,223.57822 64.7675244,230.12638 C64.9448158,235.164064 68.192472,239.753585 67.9910045,244.79127 C67.8620653,248.451268 62.2370926,260.443779 57.683927,259.987316 C55.2743756,259.746636 53.8963379,246.824602 52.3813023,243.753855 Z" id="Path" fill="url(#linearGradient-23)"></path>
                    <path d="M80.24448,241.006942 C82.0927357,241.006942 84.388551,241.371366 84.9189921,243.1125 C85.3499755,244.63498 83.9824321,246.035986 82.6811938,246.975388 C78.14758,250.214708 72.4702026,252.700885 70.2489805,257.746125 C66.5607573,266.119766 56.1176982,260.750594 61.5215669,253.502617 C63.7593652,250.506246 65.6656379,246.481392 68.4504537,243.979018 C71.6496766,241.087925 76.1252733,240.958353 80.24448,241.006942 Z" id="Path" fill="#73B3FF"></path>
                    <path d="M80.24448,241.006942 C82.0927357,241.006942 84.388551,241.371366 84.9189921,243.1125 C85.3499755,244.63498 83.9824321,246.035986 82.6811938,246.975388 C78.14758,250.214708 72.4702026,252.700885 70.2489805,257.746125 C66.5607573,266.119766 56.1176982,260.750594 61.5215669,253.502617 C63.7593652,250.506246 65.6656379,246.481392 68.4504537,243.979018 C71.6496766,241.087925 76.1252733,240.958353 80.24448,241.006942 Z" id="Path" fill="url(#linearGradient-24)"></path>
                    <path d="M53.6624677,245.16759 C51.5956572,242.79193 48.5242616,241.620713 45.5928491,240.524255 C44.2012516,240.009252 42.4144075,239.58562 41.4756968,240.715304 C40.8414344,241.618566 40.8414344,242.827304 41.4756968,243.730565 C42.1214459,244.593808 42.9097337,245.338429 43.806005,245.931788 C45.6094363,247.264622 47.0879027,248.99468 48.1290149,250.990448 C49.1747716,253.141832 49.454738,255.592251 50.3852144,257.80178 C51.3156908,260.01131 53.2589867,262.096242 55.6304665,261.996564 C57.53061,261.803794 59.1290572,260.476463 59.6817444,258.632431 C60.6039865,255.766687 59.3770751,254.479179 57.8537287,252.452393 C56.1656963,250.20133 55.5481234,247.318974 53.6624677,245.16759 Z" id="Path" fill="#73B3FF"></path>
                    <path d="M53.6624677,245.16759 C51.5956572,242.79193 48.5242616,241.620713 45.5928491,240.524255 C44.2012516,240.009252 42.4144075,239.58562 41.4756968,240.715304 C40.8414344,241.618566 40.8414344,242.827304 41.4756968,243.730565 C42.1214459,244.593808 42.9097337,245.338429 43.806005,245.931788 C45.6094363,247.264622 47.0879027,248.99468 48.1290149,250.990448 C49.1747716,253.141832 49.454738,255.592251 50.3852144,257.80178 C51.3156908,260.01131 53.2589867,262.096242 55.6304665,261.996564 C57.53061,261.803794 59.1290572,260.476463 59.6817444,258.632431 C60.6039865,255.766687 59.3770751,254.479179 57.8537287,252.452393 C56.1656963,250.20133 55.5481234,247.318974 53.6624677,245.16759 Z" id="Path" fill="url(#linearGradient-25)"></path>
                    <path d="M72,259 L69.1723875,285 L66.1769641,285 C63.8695652,283.713606 61.5369947,282.451951 59.2044241,281.165557 L52.4080854,277.42182 L50,259 L72,259 Z" id="Path" fill="#73B3FF"></path>
                    <path d="M72,259 L69.1723875,285 L66.1769641,285 C63.8695652,283.713606 61.5369947,282.451951 59.2044241,281.165557 L52.4080854,277.42182 L50,259 L72,259 Z" id="Path" fill="url(#linearGradient-26)"></path>
                </g>
            </g>
        </g>
    </g>
</svg>