<?xml version="1.0" encoding="UTF-8"?>
<svg width="450px" height="223px" viewBox="0 0 450 223" version="1.1" xmlns="http://www.w3.org/2000/svg" xmlns:xlink="http://www.w3.org/1999/xlink">
    <title>network_</title>
    <defs>
        <linearGradient x1="64.075205%" y1="41.5223195%" x2="2.47607385%" y2="126.938539%" id="linearGradient-1">
            <stop stop-color="#000000" stop-opacity="0" offset="0%"></stop>
            <stop stop-color="#000000" offset="99%"></stop>
        </linearGradient>
        <linearGradient x1="56.746799%" y1="73.3265201%" x2="31.7782074%" y2="31.9590851%" id="linearGradient-2">
            <stop stop-color="#000000" stop-opacity="0" offset="0%"></stop>
            <stop stop-color="#000000" offset="100%"></stop>
        </linearGradient>
        <linearGradient x1="146.415519%" y1="47.5627301%" x2="-15.1672758%" y2="51.6376912%" id="linearGradient-3">
            <stop stop-color="#000000" stop-opacity="0" offset="0%"></stop>
            <stop stop-color="#000000" offset="99%"></stop>
        </linearGradient>
        <linearGradient x1="44.9249367%" y1="20.9988003%" x2="60.7393871%" y2="111.413421%" id="linearGradient-4">
            <stop stop-color="#FFFFFF" stop-opacity="0" offset="0%"></stop>
            <stop stop-color="#FFFFFF" stop-opacity="0.39" offset="32%"></stop>
            <stop stop-color="#FFFFFF" stop-opacity="0.68" offset="68%"></stop>
            <stop stop-color="#FFFFFF" offset="100%"></stop>
        </linearGradient>
        <linearGradient x1="45.8094556%" y1="49.8722008%" x2="147.77937%" y2="53.0010772%" id="linearGradient-5">
            <stop stop-color="#000000" stop-opacity="0" offset="0%"></stop>
            <stop stop-color="#000000" offset="99%"></stop>
        </linearGradient>
        <linearGradient x1="111.330967%" y1="91.2818865%" x2="-109.396628%" y2="-57.3124822%" id="linearGradient-6">
            <stop stop-color="#000000" stop-opacity="0" offset="0%"></stop>
            <stop stop-color="#000000" offset="99%"></stop>
        </linearGradient>
        <linearGradient x1="43.197506%" y1="71.1221351%" x2="68.1195773%" y2="33.4884772%" id="linearGradient-7">
            <stop stop-color="#000000" stop-opacity="0" offset="0%"></stop>
            <stop stop-color="#000000" offset="100%"></stop>
        </linearGradient>
        <linearGradient x1="-46.4206231%" y1="47.6537068%" x2="115.170623%" y2="51.5846692%" id="linearGradient-8">
            <stop stop-color="#000000" stop-opacity="0" offset="0%"></stop>
            <stop stop-color="#000000" offset="99%"></stop>
        </linearGradient>
        <linearGradient x1="55.074184%" y1="21.969535%" x2="39.2618694%" y2="109.357533%" id="linearGradient-9">
            <stop stop-color="#FFFFFF" stop-opacity="0" offset="0%"></stop>
            <stop stop-color="#FFFFFF" stop-opacity="0.39" offset="32%"></stop>
            <stop stop-color="#FFFFFF" stop-opacity="0.68" offset="68%"></stop>
            <stop stop-color="#FFFFFF" offset="100%"></stop>
        </linearGradient>
        <linearGradient x1="45.7939509%" y1="50.0986193%" x2="147.778828%" y2="47.7229238%" id="linearGradient-10">
            <stop stop-color="#000000" stop-opacity="0" offset="0%"></stop>
            <stop stop-color="#000000" offset="99%"></stop>
        </linearGradient>
        <linearGradient x1="-8.00302451%" y1="90.052231%" x2="200.52929%" y2="-58.3501701%" id="linearGradient-11">
            <stop stop-color="#000000" stop-opacity="0" offset="0%"></stop>
            <stop stop-color="#000000" offset="99%"></stop>
        </linearGradient>
        <linearGradient x1="49.7693009%" y1="-56.4970384%" x2="50.7634266%" y2="272.6826%" id="linearGradient-12">
            <stop stop-color="#000000" stop-opacity="0" offset="0%"></stop>
            <stop stop-color="#000000" offset="99%"></stop>
        </linearGradient>
        <linearGradient x1="49.5407032%" y1="47.1606252%" x2="50.7636997%" y2="55.1301929%" id="linearGradient-13">
            <stop stop-color="#0D4485" offset="0%"></stop>
            <stop stop-color="#000000" offset="100%"></stop>
        </linearGradient>
        <linearGradient x1="5.40616875%" y1="-6.07758208%" x2="146.252596%" y2="193.194988%" id="linearGradient-14">
            <stop stop-color="#000000" stop-opacity="0" offset="0%"></stop>
            <stop stop-color="#000000" offset="99%"></stop>
        </linearGradient>
        <linearGradient x1="49.5371957%" y1="47.1580549%" x2="50.758999%" y2="55.1328164%" id="linearGradient-15">
            <stop stop-color="#000000" stop-opacity="0" offset="0%"></stop>
            <stop stop-color="#000000" offset="100%"></stop>
        </linearGradient>
        <linearGradient x1="50.1292096%" y1="78.3062331%" x2="50.337917%" y2="124.358672%" id="linearGradient-16">
            <stop stop-color="#000000" stop-opacity="0" offset="0%"></stop>
            <stop stop-color="#000000" offset="100%"></stop>
        </linearGradient>
    </defs>
    <g id="Page-1" stroke="none" stroke-width="1" fill="none" fill-rule="evenodd">
        <g id="landing-page" transform="translate(-6220.000000, -714.000000)" fill-rule="nonzero">
            <g id="Group-16" transform="translate(6220.000000, 714.000000)">
                <g id="network_">
                    <path d="M210.50614,157 C140.682497,157 86,140.746451 86,119.99382 C86,99.2411892 140.682497,83 210.50614,83 C280.329783,83 335,99.2535494 335,119.99382 C335,140.734091 280.317503,157 210.50614,157 Z M210.50614,86.3495908 C144.820831,86.3495908 89.3278592,101.762652 89.3278592,119.99382 C89.3278592,138.224987 144.820831,153.650409 210.50614,153.650409 C276.191448,153.650409 331.672141,138.237348 331.672141,119.99382 C331.672141,101.750292 276.166889,86.3495908 210.50614,86.3495908 Z" id="Shape" fill="#73B3FF"></path>
                    <path d="M214.457018,192 C157.462514,192 103.845189,185.132267 63.4909684,172.659975 C22.5227149,159.991461 0,142.895712 0,124.5 C0,106.104288 22.5595569,89.0085392 63.5278104,76.3400254 C103.882031,63.8799964 157.499356,57 214.49386,57 C271.488363,57 325.117969,63.8799964 365.459909,76.3400254 C406.440443,89.0085392 429,106.116552 429,124.5 C429,142.883448 406.440443,159.991461 365.459909,172.659975 C325.081127,185.132267 271.463802,192 214.457018,192 Z M214.457018,60.4583939 C157.794092,60.4583939 104.545186,67.2770712 64.5225432,79.6512536 C25.691123,91.645258 3.41402113,107.992914 3.41402113,124.5 C3.41402113,141.007086 25.691123,157.354742 64.5225432,169.36101 C104.545186,181.735193 157.855495,188.541606 214.457018,188.541606 C271.058541,188.541606 324.38113,181.735193 364.403773,169.36101 C403.235193,157.354742 425.500014,141.007086 425.500014,124.5 C425.500014,107.992914 403.235193,91.645258 364.403773,79.6512536 C324.38113,67.3138626 271.132225,60.4583939 214.457018,60.4583939 Z" id="Shape" fill="#73B3FF"></path>
                    <g id="TWXE3W" transform="translate(163.000000, 55.000000)">
                        <path d="M48.6892308,0.0338461538 C31.6193275,-0.174960009 15.7621282,8.833145 7.2009088,23.6023941 C-1.36031065,38.3716432 -1.2962208,56.6087651 7.36859164,71.3174776 C16.0334041,86.0261901 31.9535244,94.9226216 49.0215385,94.5938462 C74.8418695,94.0964778 95.4874674,72.9752496 95.39701,47.1502882 C95.3059565,21.3253268 74.5124197,0.349726152 48.6892308,0.0338461538 L48.6892308,0.0338461538 Z M55.7046154,21.8061538 C55.6898949,21.6744254 55.7156537,21.5413383 55.7784615,21.4246154 C55.9138462,21.2276923 56.0615385,20.9692308 56.2584615,20.92 C56.4553846,20.8707692 56.6646154,21.08 56.9353846,21.2153846 C56.4307692,21.72 56.6523077,22.0030769 57.0830769,22.2246154 C57.1873205,22.2742835 57.2765116,22.3507329 57.3415385,22.4461538 C57.4547394,22.7929886 57.6119167,23.1238883 57.8092308,23.4307692 C58.1025082,23.6680496 58.4304169,23.8589838 58.7815385,23.9969231 C58.4966715,24.2578374 58.1921864,24.4964879 57.8707692,24.7107692 C57.559948,24.8997059 57.2244515,25.0446735 56.8738462,25.1415385 C56.5874888,25.1722703 56.298665,25.1722703 56.0123077,25.1415385 C56.017343,25.088324 56.017343,25.0347529 56.0123077,24.9815385 L56.6030769,24.6123077 C56.3938462,24.3538462 56.0861538,24.1323077 56.0615385,23.8861538 C56.0369231,23.64 56.32,23.3938462 56.4923077,23.1107692 C56.2215385,22.6676923 55.8276923,22.4707692 55.5446154,22.6553846 C54.7076923,23.2215385 54.6461538,23.3692308 55.0276923,23.9723077 C54.4861538,24.1815385 53.9569231,24.3907692 53.4030769,24.5876923 C53.28,24.0092308 53.9446154,23.5046154 53.4030769,22.9876923 C53.6312863,22.6023444 54.0508041,22.3713739 54.4984615,22.3846154 L55.1384615,22.3846154 C55.4830769,22.4092308 55.7538462,22.2492308 55.7046154,21.8061538 L55.7046154,21.8061538 Z M42.1661538,9.75692308 C43.2738462,9.91692308 44.3815385,9.99076923 45.4892308,10.0769231 C45.8989268,10.1554409 46.3205088,10.0210906 46.6092308,9.72 C46.7323077,9.56 47.0276923,9.53538462 47.2492308,9.49846154 C48.1107692,9.36307692 48.9846154,9.20307692 49.8461538,9.11692308 C50.3035904,9.05553087 50.7671789,9.05553087 51.2246154,9.11692308 C52.2830769,9.27692308 53.3415385,9.48615385 54.3876923,9.68307692 C54.560593,9.70594866 54.7230992,9.7786488 54.8553846,9.89230769 C54.4246154,9.89230769 53.9692308,9.89230769 53.5384615,9.99076923 C53.2586625,10.0110188 52.984164,10.0775639 52.7261538,10.1876923 C52.3323077,10.3846154 51.9630769,10.5938462 51.9384615,11.1846154 C51.9504439,11.7787825 51.5361517,12.2966478 50.9538462,12.4153846 C50.3744764,12.6247783 49.8109632,12.8756856 49.2676923,13.1661538 C48.9846154,13.3015385 48.9846154,13.4615385 49.2676923,13.6215385 C49.5507692,13.7815385 50.0676923,14.0523077 50.4984615,14.3107692 C49.8215385,14.5692308 49.8215385,14.5692308 48.4184615,13.9169231 C48.6153846,14.2615385 48.8123077,14.5815385 49.0215385,14.9138462 C48.1230769,15.1476923 47.1876923,15.4184615 46.2523077,15.6276923 C45.3825345,15.776176 44.5697582,16.1591596 43.9015385,16.7353846 C43.221214,17.2133477 42.4183334,17.4866688 41.5876923,17.5230769 C41.1569231,17.6092308 40.8,17.6830769 40.8,18.2615385 C40.8,18.4707692 40.6030769,18.7169231 40.4307692,18.8892308 C40.1996588,19.1039224 39.943441,19.2898869 39.6676923,19.4430769 C39.2132185,19.7696649 38.6131912,19.8113216 38.1179483,19.5506675 C37.6227054,19.2900133 37.317331,18.7718294 37.3292308,18.2123077 C37.2926573,17.9139371 37.2926573,17.6122167 37.3292308,17.3138462 C37.425951,16.9573434 37.566511,16.6142119 37.7476923,16.2923077 C37.8451419,16.1615942 37.9565713,16.0419107 38.08,15.9353846 C38.660334,15.4590143 38.9388985,14.7068602 38.8088551,13.9673976 C38.6788117,13.227935 38.1603465,12.6159482 37.4523077,12.3661538 C36.7832339,11.9662288 36.0361861,11.7144149 35.2615385,11.6276923 C34.9978015,11.5491799 34.7484481,11.4286591 34.5230769,11.2707692 C35.5692308,11.0984615 36.5784615,10.9630769 37.5630769,10.7784615 C37.9832525,10.6549547 38.3944719,10.5028035 38.7938462,10.3230769 C39.8454509,9.84503722 41.0036563,9.64988175 42.1538462,9.75692308 L42.1661538,9.75692308 Z M52.5169231,16.92 C52.5160357,17.1653431 52.4026193,17.3967125 52.2092308,17.5476923 C51.8170326,17.7871076 51.4053127,17.9929676 50.9784615,18.1630769 C50.5811394,18.3686453 50.0936022,18.2597274 49.8215385,17.9046154 C49.6861538,17.7446154 49.4030769,17.6953846 49.1938462,17.5969231 C49.1898207,17.5395577 49.1898207,17.4819808 49.1938462,17.4246154 C49.3944469,17.3280556 49.5998419,17.2417897 49.8092308,17.1661538 C50.4861538,16.9815385 51.1384615,16.8092308 51.8030769,16.6492308 C52.0123077,16.5753846 52.3938462,16.5753846 52.48,16.92 L52.5169231,16.92 Z M28.9723077,11.2338462 C29.28,11.1353846 29.6,11.0738462 29.9323077,10.9876923 C30.2646154,10.9015385 30.6830769,10.8276923 30.8307692,10.3476923 C30.9249629,10.1496156 31.099834,10.0016478 31.3107692,9.94153846 L31.7784615,9.85538462 C32.2707692,9.75692308 32.7753846,9.67076923 33.28,9.59692308 C33.6949031,9.57986306 34.1071327,9.52215091 34.5107692,9.42461538 C35.2397847,9.14493482 36.0209546,9.02733935 36.8,9.08 C37.0418983,9.09217211 37.2842556,9.09217211 37.5261538,9.08 L38.2276923,9.08 C38.2210795,9.13724556 38.2210795,9.19506214 38.2276923,9.25230769 C37.3899042,9.90407976 36.3977723,10.3280678 35.3476923,10.4830769 C33.8959997,10.7234329 32.5117362,11.2687488 31.2861538,12.0830769 C30.8923077,12.3292308 30.4984615,12.5261538 30.2030769,11.9353846 C30.2030769,11.8246154 29.9323077,11.7630769 29.76,11.7384615 C29.3779813,11.702636 28.9993758,11.6367915 28.6276923,11.5415385 C28.723899,11.4242882 28.8357066,11.3207627 28.96,11.2338462 L28.9723077,11.2338462 Z M26.5107692,12.5876923 C26.5107692,12.5876923 26.4369231,12.5876923 26.3753846,12.5138462 C26.7446154,11.8984615 27.1384615,11.7138462 27.7661538,12.0092308 C28.3691151,12.3144275 29.0686311,12.3675553 29.7107692,12.1569231 C29.7466177,12.1865691 29.7795848,12.2195361 29.8092308,12.2553846 C29.7107692,12.3907692 29.6492308,12.5876923 29.5261538,12.6369231 C29.4030769,12.6861538 28.8984615,12.7846154 28.5784615,12.8953846 C28.4338774,12.95447 28.3248035,13.077178 28.2830769,13.2276923 C28.2830769,13.3015385 28.4307692,13.4861538 28.5415385,13.5230769 L28.96,13.6338462 L32.2584615,14.5692308 C32.3650257,14.6356172 32.4404236,14.7420613 32.4676923,14.8646154 C32.460298,15.0308427 32.4355481,15.1958419 32.3938462,15.3569231 C32.1969231,16.2307692 32.3938462,16.5876923 33.3415385,16.5876923 C33.3588774,16.9045301 33.1370319,17.1844779 32.8246154,17.24 C32.2338462,17.3876923 31.5938462,17.5846154 31.0769231,17.7692308 C30.7938462,17.8553846 30.5107692,17.9415385 30.5969231,18.3353846 C30.5891517,18.4302307 30.5450601,18.5184137 30.4738462,18.5815385 C29.9679567,18.9509646 29.2812741,18.9509646 28.7753846,18.5815385 C28.5642677,18.3486383 28.4967549,18.0192415 28.5992284,17.7220682 C28.701702,17.4248948 28.9578946,17.2071205 29.2676923,17.1538462 C29.6123077,17.0676923 29.9815385,17.0430769 30.3384615,16.9446154 C30.5003134,16.9098272 30.6418688,16.8125078 30.7323077,16.6738462 C30.7323077,16.5876923 30.6215385,16.3784615 30.5107692,16.2676923 C29.8283933,15.6253696 28.9725145,15.1974302 28.0492308,15.0369231 C27.7784615,15.0369231 27.4830769,14.9630769 27.2,14.9384615 C26.5353846,14.9384615 25.8584615,14.8276923 25.1815385,14.7538462 C24.8984615,14.7538462 24.5415385,14.7538462 24.5169231,14.3230769 C24.4825061,14.1406236 24.5340503,13.9524874 24.6566556,13.8130539 C24.7792609,13.6736205 24.9592585,13.5984346 25.1446154,13.6092308 C25.5943916,13.5952403 26.0426513,13.5500031 26.4861538,13.4738462 C26.6830769,13.4738462 26.9661538,13.3015385 26.9907692,13.1661538 C27.0030769,12.7969231 26.8061538,12.5630769 26.4615385,12.5630769 L26.5107692,12.5876923 Z M32.3569231,25.6584615 C32.5292308,25.8553846 32.8369231,26.1630769 32.7876923,26.3230769 C32.7022786,26.6748318 32.3552508,26.8971465 32,26.8276923 C31.3998339,26.7496959 30.7958594,26.7045006 30.1907692,26.6923077 C30.7089647,25.9369551 31.4485356,25.3607777 32.3076923,25.0430769 L31.8769231,25.4246154 C32.0327245,25.4775956 32.1783883,25.5566702 32.3076923,25.6584615 L32.3569231,25.6584615 Z M34.0184615,67.7876923 C33.5330298,68.1029102 33.086818,68.4747534 32.6892308,68.8953846 C32.4599397,69.2715104 32.3092165,69.6901859 32.2461538,70.1261538 C32.0720114,70.9130322 31.8542392,71.689616 31.5938462,72.4523077 C31.4092308,72.8830769 30.88,73.1661538 30.5476923,73.56 C30.027608,74.2555005 29.0666369,74.4466328 28.32,74.0030769 C28.1353846,74.5323077 28.4923077,74.8769231 28.7138462,75.2338462 C29.0338462,75.8123077 29.0338462,75.8123077 28.48,76.1938462 C27.9916384,76.579923 27.5233348,76.9907156 27.0769231,77.4246154 C26.7369079,77.7356941 26.5991678,78.2106601 26.72,78.6553846 C26.7188009,79.070748 26.6650404,79.4842898 26.56,79.8861538 C26.5020108,80.0903138 26.4730091,80.301612 26.4738462,80.5138462 C26.4738462,80.92 26.6461538,81.3138462 26.6953846,81.7446154 C26.7815385,82.4215385 26.8307692,83.1230769 26.8923077,83.8123077 C26.8923077,84.0707692 26.9907692,84.2307692 27.2984615,84.2553846 C27.453268,84.2926792 27.5838149,84.3962163 27.6553846,84.5384615 C27.84,84.9323077 28,85.3261538 28.16,85.7692308 C27.9467997,85.9384247 27.6736919,86.0130921 27.4040665,85.9759024 C27.1344411,85.9387127 26.8917444,85.7928998 26.7323077,85.5723077 C26.4812818,85.1015479 26.0712986,84.7351799 25.5753846,84.5384615 C24.7658539,84.1887285 24.113166,83.5535625 23.7415385,82.7538462 C23.1970438,81.9675749 22.9207931,81.0265958 22.9538462,80.0707692 C23.1155728,79.3928131 22.7457978,78.7008057 22.0923077,78.4584615 C21.9569231,78.4584615 21.8707692,78.1630769 21.8461538,77.9907692 C21.7723077,77.3261538 21.7353846,76.6369231 21.6738462,75.9723077 C21.5384615,74.5323077 21.3661538,73.1046154 21.28,71.6769231 C21.28,70.6061538 21.28,69.5230769 21.28,68.4523077 C21.28,67.96 21.28,67.48 21.28,67.0123077 C21.1777869,65.7349951 20.3035229,64.6507125 19.0769231,64.28 C18.4075146,64.1572071 17.9333134,63.5565522 17.9692308,62.8769231 C17.9908787,62.2787235 17.6580104,61.723943 17.12,61.4615385 C16.4041775,61.0664522 15.8636162,60.4160207 15.6061538,59.64 C15.5088654,59.4060737 15.361881,59.1960961 15.1753846,59.0246154 C14.7868186,58.6548306 14.6229478,58.1070342 14.7446154,57.5846154 C14.7624863,57.2301106 14.7376931,56.8747427 14.6707692,56.5261538 C14.6203655,56.2917328 14.5996899,56.0518964 14.6092308,55.8123077 C14.706842,55.1208422 14.9592683,54.4603269 15.3476923,53.88 C15.7709515,53.2572427 16.1219298,52.5883194 16.3938462,51.8861538 C16.7105022,51.1058166 16.4509598,50.2101409 15.7661538,49.72 C15.5381182,49.622865 15.2803433,49.622865 15.0523077,49.72 C14.5957477,50.0233895 13.9935726,49.9882627 13.5753846,49.6338462 C12.6916562,49.0767679 11.9667237,48.3009629 11.4707692,47.3815385 C11.3845997,47.2519232 11.2596795,47.1528485 11.1138462,47.0984615 C10.8976538,47.0130235 10.6690558,46.9631476 10.4369231,46.9507692 C9.81535399,46.9059222 9.23630355,46.6186071 8.82461538,46.1507692 C8.32671874,45.6250497 7.61240671,45.3611637 6.89230769,45.4369231 C6.79543466,45.4619356 6.69379611,45.4619356 6.59692308,45.4369231 C5.1608097,45.0658997 3.85393536,44.308168 2.81846154,43.2461538 C2.50856858,42.8302923 2.39204129,42.3014377 2.49846154,41.7938462 C2.86863711,38.9145596 3.51995185,36.0784549 4.44307692,33.3261538 C5.8351503,29.0886547 7.84222144,25.0786592 10.4,21.4246154 C11.3476923,20.0584615 12.4430769,18.7661538 13.4769231,17.4492308 C13.6246154,17.2523077 13.7846154,17.1538462 14.0061538,17.3138462 C14.3161874,17.5020624 14.6896673,17.5554167 15.04,17.4615385 C15.8892308,17.3630769 16.7507692,17.4 17.5753846,17.2276923 C18.5699975,17.015819 19.5424833,16.7108869 20.48,16.3169231 C21.184742,15.9174014 21.6626705,15.2118879 21.7723077,14.4092308 C21.8297436,14.1876923 21.9035897,13.9661538 21.9938462,13.7446154 C22.24,12.9323077 22.24,12.9323077 23.0646154,13.1169231 C23.6553846,13.2646154 24.2953846,13.4 24.7876923,13.5107692 C24.3076923,13.6830769 23.8030769,13.8430769 23.3230769,14.04 C22.8430769,14.2369231 22.9907692,14.3476923 23.2,14.5815385 C23.4092308,14.8153846 23.8523077,15.4061538 24.1969231,15.8123077 C24.3076923,15.9107692 24.5538462,15.9969231 24.64,15.9476923 C25.3350402,15.6712808 26.0873418,15.5698469 26.8307692,15.6523077 C26.6394033,15.9799303 26.4123816,16.2853777 26.1538462,16.5630769 C25.8877579,16.7680988 25.574709,16.9034713 25.2430769,16.9569231 C24.3938462,17.1292308 23.52,17.24 22.6584615,17.3753846 C22.5555355,17.972401 22.033452,18.4057304 21.4276923,18.3969231 C20.3124956,18.5822183 19.2671484,19.0623981 18.4,19.7876923 C17.7591289,20.13555 17.4874222,20.913377 17.7723077,21.5846154 C17.8584615,21.8553846 17.9446154,22.2123077 18.3876923,21.9784615 C18.4492308,21.9784615 18.5969231,21.9784615 18.6953846,22.0646154 C19.1138462,22.2861538 19.5076923,22.52 19.9261538,22.7292308 C20.3446154,22.9384615 20.6153846,23.16 21.0707692,23 C21.1692308,23 21.3046154,23 21.3046154,23 C21.1938462,23.6892308 21.0830769,24.3046154 20.96,24.9938462 C21.4501026,25.0202628 21.917841,24.7863936 22.1907692,24.3784615 C22.9907692,23.1476923 23.84,22.0892308 24.6523077,20.9569231 C24.7834524,20.7976653 24.9027465,20.6290082 25.0092308,20.4523077 L25.0092308,20.4523077 C25.4739133,19.5566574 26.4902399,19.0942288 27.4707692,19.3323077 C28.0369231,19.4184615 28.4184615,19.5415385 28.3692308,20.2184615 C28.3692308,20.3169231 28.64,20.4892308 28.7876923,20.5138462 C29.5403406,20.5697206 30.2920352,20.3936093 30.9415385,20.0092308 C30.9816945,20.1124843 31.01058,20.2197732 31.0276923,20.3292308 C31.0460977,20.4763497 31.0460977,20.6251888 31.0276923,20.7723077 C30.7216843,21.9241361 31.3165586,23.1244135 32.4184615,23.5784615 L32.64,23.6892308 C31.8220187,24.4688841 30.752914,24.9314356 29.6246154,24.9938462 C28.8427889,24.9896382 28.0739221,25.1935366 27.3969231,25.5846154 C26.8312894,25.8483432 26.2471762,26.0704707 25.6492308,26.2492308 C25.4381893,26.3759429 25.2473481,26.5335943 25.0830769,26.7169231 L25.1569231,26.8646154 L27.3846154,26.6676923 C27.2984615,27.2092308 27.3846154,27.5292308 27.9630769,27.5784615 C28.1723077,27.5784615 28.3569231,27.8984615 28.6276923,28.12 C27.68,28.3046154 27.1876923,29.3507692 25.9692308,29.1046154 L26.9292308,28.2184615 C26.4861538,27.7138462 26.3630769,27.6646154 25.7723077,28.0461538 C25.1815385,28.4276923 24.6523077,28.8707692 24.0861538,29.2769231 C23.9384615,29.3876923 23.8030769,29.56 23.6430769,29.5846154 C22.6584615,29.7692308 22.1784615,30.5815385 21.5384615,31.2215385 L21.4030769,31.3569231 C21.1508005,31.6940719 20.7646121,31.9051284 20.3446154,31.9353846 C20.1501332,31.9345141 19.9619938,32.0045194 19.8153846,32.1323077 C19.6419078,32.2849503 19.5284637,32.4943856 19.4953846,32.7230769 C19.5715495,33.5720171 19.1094809,34.3781795 18.3384615,34.7415385 C17.6555827,35.0942621 17.0048937,35.5060906 16.3938462,35.9723077 C15.8631275,36.5174499 15.7125923,37.3283977 16.0123077,38.0276923 C16.2461579,38.5095359 16.2461579,39.0720026 16.0123077,39.5538462 C16.0123077,39.6769231 15.68,39.7753846 15.4953846,39.7753846 C15.3107692,39.7753846 15.1876923,39.6030769 15.1507692,39.4676923 C15.0030769,38.8523077 14.8923077,38.2369231 14.7446154,37.5969231 C14.6599225,37.3888673 14.5526111,37.1907539 14.4246154,37.0061538 L14.3015385,37.0061538 C14.3015385,37.24 14.3015385,37.4738462 14.3015385,37.7076923 C14.2697574,37.7506421 14.2273401,37.7845759 14.1784615,37.8061538 C14.0061538,37.6215385 13.8584615,37.4369231 13.6861538,37.2769231 C13.451906,37.0570994 13.1914856,36.8669512 12.9107692,36.7107692 C12.6113002,36.5669781 12.2517621,36.6868241 12.0984615,36.9815385 C11.7907692,37.3753846 11.4461538,37.7446154 11.1384615,38.1015385 C10.8855627,37.7902567 10.6143112,37.494346 10.3261538,37.2153846 C10.2036654,37.1116811 10.0399566,37.0707539 9.88307692,37.1046154 C9.28411248,37.1980363 8.74068434,37.5091928 8.35692308,37.9784615 C7.95799031,38.4635867 7.5128175,38.9087595 7.02769231,39.3076923 C6.5808145,39.6266715 6.44331068,40.2295729 6.70769231,40.7107692 C6.76412945,40.92037 6.76412945,41.1411685 6.70769231,41.3507692 C6.47842766,42.545185 7.20796728,43.7145941 8.38153846,44.0338462 C9.00012579,44.2454291 9.68115207,43.9802967 9.99384615,43.4061538 C10.1169231,43.1353846 10.2030769,42.8523077 10.3261538,42.5815385 C10.3748107,42.4174235 10.492259,42.2824814 10.6480919,42.2116483 C10.8039247,42.1408152 10.9828198,42.1410557 11.1384615,42.2123077 C11.3337099,42.4101138 11.4248417,42.688066 11.3846154,42.9630769 C11.278397,43.4279947 11.1385417,43.8845811 10.9661538,44.3292308 C10.8061538,44.8461538 10.9661538,45.0676923 11.4461538,45.1907692 C11.9261538,45.3138462 12.2338462,45.3138462 12.6769231,45.3630769 C12.8953776,45.3491733 13.107448,45.4398666 13.2482974,45.6074289 C13.3891469,45.7749912 13.4420265,45.999497 13.3907692,46.2123077 C13.3352727,46.7935501 13.3352727,47.3787576 13.3907692,47.96 C13.4841358,48.297664 13.6669873,48.6038341 13.92,48.8461538 C14.1081117,48.9643159 14.3472729,48.9643159 14.5353846,48.8461538 C14.9010298,48.6049518 15.363317,48.5633459 15.7661538,48.7353846 C15.9138462,48.7969231 16.0861538,48.8338462 16.2338462,48.8830769 C16.9476923,49.0553846 17.1323077,48.8830769 17.6246154,48.4030769 C17.9381431,48.0992782 18.3,47.8497217 18.6953846,47.6646154 C18.819628,47.627368 18.9541882,47.6658138 19.04,47.7630769 C19.1020228,47.8651641 19.1020228,47.9932975 19.04,48.0953846 C18.6461538,48.44 18.8553846,48.6123077 19.2,48.76 L20.0369231,49.1169231 C19.4953846,48.2430769 20.2092308,47.9476923 20.5292308,47.4184615 C20.6523077,47.5169231 20.7876923,47.5784615 20.8984615,47.6769231 C21.3585068,48.1907506 22.0326296,48.4594887 22.72,48.4030769 L22.8184615,48.4030769 C23.7376129,48.4134685 24.618102,48.774469 25.28,49.4123077 C26.2073906,50.2141412 27.3198202,50.7724709 28.5169231,51.0369231 C29.0383011,51.1268921 29.4908561,51.4482062 29.7476923,51.9107692 C29.9692308,52.28 30.2523077,52.6123077 30.4738462,52.9692308 C30.8307692,53.5353846 30.72,53.9292308 30.1292308,54.2 L29.5630769,54.4830769 C29.7107692,54.7661538 29.8953846,54.8523077 30.1661538,54.6923077 C30.3669724,54.577928 30.5822246,54.4909992 30.8061538,54.4338462 C30.9661538,54.4338462 31.1384615,54.5692308 31.2738462,54.68 C31.4092308,54.7907692 31.2,54.8769231 31.1630769,54.9876923 C31.1261538,55.0984615 31.0892308,55.2584615 31.1630769,55.2707692 C31.2653738,55.3365452 31.386477,55.366821 31.5076923,55.3569231 C31.6076413,55.3453665 31.6997431,55.2971227 31.7661538,55.2215385 C31.9646697,54.9984452 32.2490636,54.8708237 32.5476923,54.8708237 C32.8463211,54.8708237 33.1307149,54.9984452 33.3292308,55.2215385 C33.3907692,55.2830769 33.5138462,55.32 33.5138462,55.3692308 C33.5876923,56.1938462 34.1415385,55.8615385 34.4984615,55.7261538 C34.8477029,55.5922195 35.2376329,55.6146293 35.5692308,55.7876923 C36.4184615,56.1569231 37.3169231,56.4523077 38.2153846,56.7723077 C38.4852834,56.8433557 38.6758544,57.0840769 38.6830769,57.3630769 C38.8745198,58.7707897 38.4225592,60.1899459 37.4523077,61.2276923 C37.3827148,61.3207191 37.2891124,61.3930482 37.1815385,61.4369231 C36.7876923,61.6092308 36.7630769,61.9292308 36.7507692,62.2861538 C36.7550969,63.2027961 36.7099029,64.1190028 36.6153846,65.0307692 C36.498671,65.5925443 36.3039647,66.1352363 36.0369231,66.6430769 C35.84,67.0615385 35.6430769,67.4923077 34.9784615,67.3815385 C34.7690329,67.3805703 34.5653379,67.4499132 34.4,67.5784615 C34.24,67.6153846 34.1169231,67.7138462 34.0184615,67.7876923 Z M83.5692308,64.0953846 C83.2,65.0061538 82.9784615,65.9907692 82.6707692,66.9261538 C82.5701053,67.2052153 82.4335757,67.47 82.2646154,67.7138462 C81.8092308,68.5876923 81.8092308,68.5876923 80.8615385,68.4153846 C80.1053802,68.1584844 79.698517,67.33926 79.9507692,66.5815385 C80.2007916,66.2746455 80.4078247,65.9351112 80.5661538,65.5723077 C80.6576422,65.1671518 80.6576422,64.7466943 80.5661538,64.3415385 C80.5333093,63.7653708 80.8693112,63.2317207 81.4030769,63.0123077 C81.5413951,62.9957706 81.6707866,62.9353879 81.7723077,62.84 C82.24,62.3723077 82.72,61.88 83.1630769,61.3876923 C83.26652,61.2332641 83.3531657,61.0682247 83.4215385,60.8953846 C83.8453295,61.9127012 83.8890149,63.0485222 83.5446154,64.0953846 L83.5692308,64.0953846 Z M92.5415385,39.7507692 C92.2656268,39.3994042 91.8291116,39.213653 91.3846154,39.2584615 C89.8622912,39.348045 88.3385258,39.1087761 86.9169231,38.5569231 C85.8956625,38.2966668 84.920262,37.8816028 84.0246154,37.3261538 C83.2925093,36.9396609 82.5028976,36.6736864 81.6861538,36.5384615 C81.7323027,36.6653153 81.7612775,36.7977717 81.7723077,36.9323077 C81.5876923,38.0646154 82.4369231,38.5938462 83.0892308,39.2461538 C83.3723077,39.5169231 83.6430769,39.8 83.9507692,40.1323077 L85.9076923,39.6030769 C86.3798637,39.4510537 86.8938855,39.6515222 87.1384615,40.0830769 C87.4777616,40.4885213 87.8437003,40.8709068 88.2338462,41.2276923 C88.5784615,41.6092308 88.4923077,41.7076923 88.0984615,42.0030769 C87.026331,42.6028865 86.0579921,43.3717393 85.2307692,44.28 C85.1367574,44.4148711 85.0150802,44.5281568 84.8738462,44.6123077 C84.2461538,45.0184615 83.6430769,45.4 82.9907692,45.8430769 C82.5534448,46.0914258 82.0294449,46.1363143 81.5562526,45.9659651 C81.0830603,45.7956158 80.70791,45.4270332 80.5292308,44.9569231 C80.2530974,44.0490092 79.7874587,43.2100206 79.1630769,42.4953846 C78.85554,42.0424779 78.6112356,41.5497284 78.4369231,41.0307692 C78.1804606,40.4911483 77.7457748,40.0564624 77.2061538,39.8 C76.7031892,39.6150062 76.3159746,39.2050143 76.16,38.6923077 C75.9138462,37.9907692 75.5569231,37.3015385 75.2615385,36.6 C74.56,36.8953846 74.56,36.8953846 74.7569231,37.5846154 C75.1011864,38.7743756 75.6196226,39.9066403 76.2953846,40.9446154 C77.475831,42.548158 78.4670207,44.28274 79.2492308,46.1138462 C79.4215385,46.6061538 79.5446154,47.1353846 79.7415385,47.6153846 C80.0369231,48.3415385 80.3692308,48.4276923 81.0461538,48.0338462 C81.1156495,47.9837565 81.195606,47.9500906 81.28,47.9353846 L83.9384615,47.9353846 C83.8364834,48.6488581 83.6926455,49.3557187 83.5076923,50.0523077 C83.351914,50.6415304 83.0659153,51.1882927 82.6707692,51.6523077 C82.0568431,52.175016 81.4024904,52.64829 80.7138462,53.0676923 C80.5394196,53.1779676 80.3955209,53.3303309 80.2953846,53.5107692 C79.5323077,54.9138462 78.8061538,56.3169231 78.0553846,57.7076923 C77.8584615,58.0646154 77.7969231,58.3476923 78.0553846,58.6430769 C79.1015385,59.7630769 78.7938462,61.1046154 78.8061538,62.4707692 C78.8061538,62.6184615 78.5723077,62.8030769 78.4,62.9015385 C77.549971,63.2778343 76.7903771,63.8317923 76.1723077,64.5261538 C75.9292168,64.8272778 75.760551,65.1814761 75.68,65.56 C75.535004,66.6901295 75.1713117,67.7812065 74.6092308,68.7723077 C73.76,70.2123077 73.0092308,71.7261538 72.2338462,73.2030769 C72.1069938,73.5352851 71.8005924,73.7650862 71.4461538,73.7938462 L69.1692308,73.9292308 C68.8369231,73.9292308 68.5169231,74.0276923 68.1846154,74.0523077 C68.0327301,74.0640039 67.8812491,74.0250516 67.7538462,73.9415385 C67.4830769,73.7323077 67.2492308,73.4738462 67.04,73.2892308 C67.0527838,72.5290088 66.8569736,71.7798221 66.4738462,71.1230769 C66.3279152,70.8847637 66.1632956,70.6584117 65.9815385,70.4461538 C65.4783016,69.7238141 65.2077649,68.8649673 65.2061538,67.9846154 C65.1645667,67.4992596 65.0175565,67.028827 64.7753846,66.6061538 C64.2091165,65.7453253 63.8548277,64.7625958 63.7415385,63.7384615 C63.7447202,63.1627425 63.8488623,62.5920437 64.0492308,62.0523077 C64.1222146,61.8203013 64.2213112,61.5973341 64.3446154,61.3876923 C64.5758871,60.9256535 64.6199742,60.392199 64.4676923,59.8984615 C64.1035683,58.1950825 63.3820268,56.588394 62.3507692,55.1846154 C62.1309135,54.8038141 62.1309135,54.3346475 62.3507692,53.9538462 C62.5103621,53.6288465 62.6870187,53.312508 62.88,53.0061538 C63.0646154,52.7353846 63.0523077,52.5138462 62.72,52.3907692 C62.3919911,52.2954402 62.1448993,52.0245896 62.08,51.6892308 C62.08,51.5907692 61.7969231,51.4430769 61.6615385,51.4553846 C60.9938252,51.5283045 60.3300604,51.2873488 59.8646154,50.8030769 C59.6307692,50.5692308 59.1138462,50.5692308 58.7076923,50.5446154 C58.4137275,50.5603735 58.1235668,50.6184056 57.8461538,50.7169231 L53.7969231,51.6892308 C53.1335292,51.8396828 52.4407487,51.6181815 51.9876923,51.1107692 C51.8687221,50.9788781 51.7367746,50.8593007 51.5938462,50.7538462 C51.0011687,50.4008142 50.6298344,49.7695459 50.6092308,49.08 C50.5592794,48.7798556 50.3664599,48.522763 50.0923077,48.3907692 C48.8615385,47.9969231 48.6892308,46.8892308 48.3569231,45.9292308 C48.31413,45.6259992 48.3987812,45.3185817 48.5907692,45.08 C48.9090371,44.7949404 49.0039192,44.3355113 48.8246154,43.9476923 C48.3689255,42.9260849 48.4663951,41.7425252 49.0830769,40.8092308 C49.3923283,40.1291689 49.871252,39.5400504 50.4738462,39.0984615 C50.7076923,38.9384615 50.7692308,38.5323077 50.9907692,38.3476923 C51.6684731,37.7193136 52.1476247,36.9064671 52.3692308,36.0092308 C52.5598391,35.6433214 52.8287885,35.323944 53.1569231,35.0738462 C53.6492308,34.6061538 54.1784615,34.1753846 54.6707692,33.7076923 C54.9415385,33.4615385 55.1261538,33.4369231 55.3230769,33.7815385 C55.4159746,33.9170672 55.5653807,34.0030889 55.7292308,34.0153846 L57.9692308,33.72 C58.1868047,33.6572218 58.409052,33.6119492 58.6338462,33.5846154 C59.7146961,33.6086334 60.7859031,33.3766791 61.76,32.9076923 C61.9861227,32.8226956 62.2354158,32.8226956 62.4615385,32.9076923 C62.5353846,32.9076923 62.5353846,33.24 62.5230769,33.4246154 C62.5336516,33.9410695 62.7838282,34.423228 63.2,34.7292308 L64.2953846,35.7876923 C64.3692308,35.8492308 64.4553846,35.9476923 64.5415385,35.96 C65.28,36.0830769 66.0307692,36.2184615 66.7938462,36.28 C67.1630769,36.28 67.4092308,36.1446154 67.5323077,35.6892308 C67.6553846,35.2338462 68.0369231,35.0861538 68.2953846,34.7907692 C68.2903493,34.8439837 68.2903493,34.8975547 68.2953846,34.9507692 C68.4499529,35.1144002 68.6234863,35.2590113 68.8123077,35.3815385 C69.2018161,35.6027482 69.6145777,35.7802357 70.0430769,35.9107692 C70.3653309,35.9597239 70.6931307,35.9597239 71.0153846,35.9107692 C71.1995403,35.8923436 71.3850751,35.8923436 71.5692308,35.9107692 C72.3569231,36.0215385 73.1323077,36.12 73.92,36.28 C74.1767181,36.3388419 74.4451722,36.2540669 74.6215385,36.0584615 C75.3290546,35.6939338 75.6718373,34.8733326 75.4338462,34.1138462 C75.3577664,33.7814383 75.3043105,33.4442549 75.2738462,33.1046154 C74.7763302,32.916382 74.2205761,32.9615653 73.76,33.2276923 C73.200342,33.5960138 72.4606,33.5296921 71.9753846,33.0676923 C71.1935178,32.5869703 70.618722,31.8322764 70.3630769,30.9507692 C71.1261538,31.3323077 71.4338462,30.8646154 71.7907692,30.1876923 C70.8430769,30.4092308 69.9938462,30.5815385 69.1569231,30.8153846 C68.9868066,30.8544274 68.8468791,30.974836 68.7829061,31.1372288 C68.7189332,31.2996216 68.7391421,31.4831142 68.8369231,31.6276923 C68.899158,31.7223852 68.9293571,31.834553 68.9230769,31.9476923 C68.8900236,32.1390281 68.8320968,32.3252213 68.7507692,32.5015385 C68.5169231,32.4030769 68.1723077,32.3661538 68.0738462,32.1692308 C67.9753846,31.9723077 67.84,31.5415385 67.4461538,31.4184615 C67.3870116,31.3906604 67.3455139,31.3353301 67.3353846,31.2707692 C67.4092308,30.4707692 66.7076923,30.04 66.3753846,29.4984615 C66.2297299,29.3492021 66.0300896,29.2649095 65.8215385,29.2646154 C65.2977784,29.2700182 64.805055,29.0167492 64.5046154,28.5876923 C64.3865185,28.4062066 64.2363803,28.2477273 64.0615385,28.12 C63.8030769,27.9230769 63.4830769,27.7876923 63.2369231,28.12 C63.1002053,28.2369158 63.0214911,28.4078005 63.0214911,28.5876923 C63.0214911,28.7675841 63.1002053,28.9384688 63.2369231,29.0553846 C63.6922704,29.5947854 64.2705509,30.0168879 64.9230769,30.2861538 C65.3325852,30.4680281 65.6487945,30.8109594 65.7969231,31.2338462 C65.4681059,31.4986765 65.0338016,31.5932619 64.6246348,31.4891544 C64.215468,31.3850469 63.8791829,31.0943943 63.7169231,30.7046154 C63.5574363,30.4705497 63.3761118,30.252136 63.1753846,30.0523077 C62.86446,29.6415181 62.5229775,29.2547789 62.1538462,28.8953846 C61.6492308,28.44 60.6646154,28.4030769 60.5538462,29.2769231 C60.5376684,29.3692715 60.5129468,29.4599173 60.48,29.5476923 L60.1476923,29.4492308 C59.5592533,29.2230981 58.8950807,29.4781404 58.6092308,30.04 C58.4861538,30.2246154 58.3015385,30.3846154 58.1661538,30.5569231 C58.0261179,30.6898082 57.9132546,30.8486528 57.8338462,31.0246154 C57.6630756,31.7507676 57.0871652,32.3122802 56.3569231,32.4646154 C55.4217607,32.6234027 54.4746959,32.7016385 53.5261538,32.6984615 C53.3261309,32.6439976 53.1681015,32.4906161 53.1076923,32.2923077 C53.0279547,31.638319 53.0279547,30.9770656 53.1076923,30.3230769 C53.253407,29.6431472 53.8789134,29.1753314 54.5723077,29.2276923 L56.5661538,29.2276923 C56.8123077,29.2276923 56.9723077,29.1538462 56.9476923,28.8461538 C56.9353807,28.7316119 56.9353807,28.6160804 56.9476923,28.5015385 C57.0830769,27.7138462 57.0461538,27.6276923 56.3323077,27.2092308 C56.1230769,27.0861538 55.8892308,27 55.68,26.8769231 C55.4707692,26.7538462 55.4461538,26.6923077 55.4584615,26.6061538 C55.4845572,26.4816381 55.5729167,26.3793271 55.6923077,26.3353846 C55.9402424,26.2595083 56.1964801,26.2140468 56.4553846,26.2 C57.5128528,26.2242462 58.48224,25.6135323 58.9169231,24.6492308 C59.1232971,24.0932457 59.6308673,23.7053854 60.2215385,23.6523077 C61.1692308,23.5046154 61.3415385,23.2584615 61.4523077,22.2861538 C61.512892,22.0357484 61.5995177,21.7923714 61.7107692,21.56 L61.9076923,21.56 C62.0715264,21.8885018 62.2073915,22.2302232 62.3138462,22.5815385 C62.3679896,22.9533558 62.6568548,23.2472014 63.0276923,23.3076923 C63.3880567,23.3385937 63.7504048,23.3385937 64.1107692,23.3076923 C64.7384615,23.2215385 65.3415385,23.0984615 65.9692308,23.0123077 C66.1907692,23.0123077 66.3261538,23.0123077 66.4,22.68 C66.4738462,22.3476923 66.7692308,22.2369231 66.9784615,22.0276923 C67.1876923,21.8184615 67.4707692,21.72 67.4830769,21.3261538 C67.6157759,20.8832303 68.0177927,20.5755138 68.48,20.5630769 C68.6801683,20.6077267 68.8560389,20.7264393 68.9723077,20.8953846 C69.0928902,21.1263772 69.187815,21.3698798 69.2553846,21.6215385 C69.9136434,21.0274923 70.1885077,20.1175966 69.9692308,19.2584615 C69.7197403,19.3328298 69.464504,19.3863471 69.2061538,19.4184615 C68.8468188,19.4678718 68.482412,19.4678718 68.1230769,19.4184615 C67.0892308,19.1969231 66.8923077,18.7169231 67.4830769,17.8553846 C67.68,17.5476923 67.9015385,16.9323077 67.8030769,16.8707692 C67.4092308,16.5753846 67.0523077,16.9446154 66.7815385,17.1907692 C66.1103161,17.7329472 65.6207711,18.4672648 65.3784615,19.2953846 C65.1887769,20.02527 64.8900284,20.7223499 64.4923077,21.3630769 C64.3323077,21.6338462 63.8153846,21.7446154 63.4461538,21.7938462 C63.3107692,21.7938462 63.0892308,21.4984615 62.9415385,21.3015385 C62.7999298,21.0886017 62.6724754,20.8665844 62.56,20.6369231 C62.5546533,20.6901224 62.5546533,20.7437237 62.56,20.7969231 L60.3692308,20.9076923 C60.3322768,20.8076146 60.3034653,20.7047161 60.2830769,20.6 C59.9630769,19.0246154 59.8153846,19.2338462 61.3415385,18.6307692 C61.8073098,18.3735455 62.2239705,18.0360503 62.5723077,17.6338462 L63.6061538,16.7476923 C63.6765901,16.6957461 63.738823,16.6335132 63.7907692,16.5630769 C64.8246154,15.1846154 66.3630769,14.9630769 67.9138462,14.7169231 C69.3040777,14.6652463 70.6891839,14.9128865 71.9753846,15.4430769 L74.1907692,16.0953846 C73.1815385,16.9076923 72.2707692,16.0953846 71.4092308,16.2430769 C71.4092308,16.2430769 71.3476923,16.3415385 71.4092308,16.3538462 C71.900577,16.8924784 72.4268426,17.3981868 72.9846154,17.8676923 C73.1944927,17.9715707 73.4404458,17.9733289 73.6517867,17.8724616 C73.8631277,17.7715943 74.0164515,17.5792722 74.0676923,17.3507692 C74.1538462,17.0430769 74.2892308,16.8953846 74.6215385,16.8953846 C75.045842,16.8863408 75.4237186,16.6247339 75.5815385,16.2307692 C75.7538462,15.8984615 75.9753846,15.7507692 76.3323077,15.8861538 C76.3323077,16.2676923 76.4553846,16.44 76.8369231,16.3169231 C76.9811872,16.2714417 77.1180209,16.2050981 77.2430769,16.12 C77.6849203,15.8485346 78.2044645,15.7316372 78.72,15.7876923 C79.4442,15.7495298 80.1582063,15.6000866 80.8369231,15.3446154 C81.4892308,15.1723077 81.8338462,15.2338462 82.1661538,15.6030769 C85.221045,18.7682427 87.8147428,22.3480428 89.8707692,26.2369231 C92.3353684,30.8460991 94.0000199,35.8400535 94.7938462,41.0061538 C94.8000576,41.0593063 94.8000576,41.1130014 94.7938462,41.1661538 C93.6492308,41.24 93.0953846,40.3907692 92.5169231,39.7507692 L92.5415385,39.7507692 Z" id="Shape" fill="#3F97FF"></path>
                        <path d="M94.8061538,40.9938462 C93.6369231,41.24 93.12,40.3907692 92.5046154,39.7630769 C92.23821,39.3995151 91.7943859,39.2106537 91.3476923,39.2707692 C88.7542793,39.274572 86.2062047,38.5908386 83.9630769,37.2892308 C83.2372477,36.890669 82.4447803,36.6279035 81.6246154,36.5138462 C81.6711599,36.6320711 81.7001843,36.7564614 81.7107692,36.8830769 C81.5261538,38.0276923 82.3630769,38.5569231 83.0276923,39.2092308 C83.3107692,39.48 83.5692308,39.7630769 83.8892308,40.0953846 L85.8461538,39.5661538 C86.3153758,39.411974 86.8285051,39.6069631 87.0769231,40.0338462 C87.4119531,40.4430264 87.7737741,40.829517 88.16,41.1907692 C88.5169231,41.5723077 88.4307692,41.6830769 88.0246154,41.9661538 C86.9583916,42.5693401 85.994617,43.3378673 85.1692308,44.2430769 C85.0723798,44.372106 84.9511055,44.4808347 84.8123077,44.5630769 C84.1846154,44.9815385 83.5815385,45.3753846 82.9292308,45.7938462 C82.4943795,46.04715 81.970057,46.0961418 81.4958063,45.9277828 C81.0215557,45.7594238 80.6454889,45.3907938 80.4676923,44.92 C80.1915589,44.0120861 79.7259203,43.1730975 79.1015385,42.4584615 C78.7942007,42.0098505 78.5498708,41.5211907 78.3753846,41.0061538 C78.1412227,40.4365964 77.7020799,39.9754964 77.1446154,39.7138462 C76.6475683,39.5266512 76.2626181,39.1235856 76.0984615,38.6184615 C75.8523077,37.8923077 75.5076923,37.2153846 75.2,36.5138462 C74.4984615,36.8092308 74.4984615,36.8092308 74.6830769,37.4984615 C75.0397379,38.685695 75.5617851,39.8167973 76.2338462,40.8584615 C77.4142925,42.4620042 78.4054822,44.1965861 79.1876923,46.0276923 C79.36,46.52 79.4830769,47.0492308 79.68,47.5292308 C79.9876923,48.2553846 80.3076923,48.3415385 80.9846154,47.9476923 C81.0478719,47.8949144 81.1245901,47.8608174 81.2061538,47.8492308 L83.8769231,47.8492308 C83.7292308,48.5753846 83.6553846,49.3015385 83.4461538,49.9784615 C83.2906437,50.5640984 83.0045116,51.1069078 82.6092308,51.5661538 C81.9922285,52.0849327 81.3381832,52.5579843 80.6523077,52.9815385 C80.4790806,53.0972024 80.3322778,53.2481995 80.2215385,53.4246154 C79.4707692,54.8153846 78.7569231,56.2307692 77.9938462,57.6215385 C77.7969231,57.9784615 77.7353846,58.2615385 77.9938462,58.5569231 C79.0276923,59.6769231 78.7323077,61.0184615 78.7446154,62.3846154 C78.7446154,62.52 78.5107692,62.7169231 78.3384615,62.8153846 C77.4921281,63.1980547 76.7337785,63.7511052 76.1107692,64.44 C75.8676783,64.741124 75.6990125,65.0953222 75.6184615,65.4738462 C75.4824071,66.6077541 75.1136834,67.7013551 74.5353846,68.6861538 C73.6984615,70.1384615 72.9476923,71.64 72.1846154,73.1169231 C72.050992,73.4491844 71.7414849,73.6777435 71.3846154,73.7076923 C70.6215385,73.7076923 69.8707692,73.7815385 69.1076923,73.8430769 C68.7753846,73.8430769 68.4553846,73.9415385 68.1230769,73.9661538 C67.974778,73.9811272 67.8260848,73.9417672 67.7046154,73.8553846 C67.4215385,73.6461538 67.1876923,73.3876923 66.9784615,73.2030769 C66.9820565,72.4455521 66.79137,71.6997562 66.4246154,71.0369231 C66.2646154,70.8030769 66.1046154,70.5692308 65.92,70.3476923 C65.4267907,69.6481376 65.1565139,68.8158567 65.1446154,67.96 C65.1068221,67.4700325 64.9596199,66.9947795 64.7138462,66.5692308 C64.1469517,65.7076514 63.7887516,64.7257615 63.6676923,63.7015385 C63.6781217,63.1282765 63.7906509,62.5614629 64,62.0276923 C64.0626849,61.7842117 64.162302,61.5517717 64.2953846,61.3384615 C64.5128441,60.876073 64.5480022,60.3487014 64.3938462,59.8615385 C64.0334307,58.1591433 63.3161156,56.5525254 62.2892308,55.1476923 C62.069375,54.766891 62.069375,54.2977244 62.2892308,53.9169231 C62.4503705,53.5903425 62.6312169,53.2738612 62.8307692,52.9692308 C63.0153846,52.6861538 63.0030769,52.4769231 62.6584615,52.3538462 C62.3298974,52.2666749 62.0866987,51.9894283 62.0430769,51.6523077 C61.9449994,51.5101192 61.7849746,51.4232486 61.6123077,51.4184615 C60.9487243,51.4874522 60.2903695,51.2468122 59.8276923,50.7661538 C59.4766131,50.5661459 59.0735871,50.4761082 58.6707692,50.5076923 C58.3726505,50.5222681 58.0782601,50.5803169 57.7969231,50.68 L53.7476923,51.6523077 C53.0870013,51.7952357 52.3998269,51.5802015 51.9384615,51.0861538 C51.8194063,50.9506519 51.6875086,50.8269978 51.5446154,50.7169231 C50.9516907,50.3582274 50.5810069,49.7234315 50.56,49.0307692 C50.5045059,48.7360475 50.3127859,48.4849856 50.0430769,48.3538462 C48.8123077,47.96 48.6523077,46.8523077 48.32,45.8923077 C48.2661363,45.5942863 48.3472842,45.2877277 48.5415385,45.0553846 C48.8592571,44.7693737 48.9495768,44.3077393 48.7630769,43.9230769 C48.3247401,42.8971595 48.4262733,41.7202975 49.0338462,40.7846154 C49.3435691,40.1048458 49.8224036,39.515837 50.4246154,39.0738462 C50.6584615,38.9138462 50.72,38.5076923 50.9415385,38.3230769 C51.6192423,37.6946982 52.0983939,36.8818517 52.32,35.9846154 C52.5106083,35.618706 52.7795577,35.2993286 53.1076923,35.0492308 C53.6,34.5815385 54.1292308,34.1507692 54.6215385,33.6830769 C54.8923077,33.4369231 55.0769231,33.4 55.2861538,33.7569231 C55.3693802,33.8965221 55.5175946,33.9845244 55.68,33.9907692 C56.4184615,33.9046154 57.1692308,33.7938462 57.92,33.6830769 C58.1420327,33.6242212 58.3683833,33.5830666 58.5969231,33.56 C59.6730992,33.5766409 60.7386296,33.3450039 61.7107692,32.8830769 C61.9325924,32.7977616 62.1781769,32.7977616 62.4,32.8830769 C62.4861538,32.8830769 62.4861538,33.2276923 62.4738462,33.4 C62.4786283,33.9179131 62.7300694,34.4025086 63.1507692,34.7046154 C63.5076923,35.0615385 63.8892308,35.4061538 64.2584615,35.7507692 C64.32,35.8246154 64.3938462,35.9230769 64.48,35.9353846 C65.2307692,36.0584615 65.9815385,36.1938462 66.7323077,36.2553846 C67.1138462,36.2553846 67.36,36.12 67.4953846,35.6646154 C67.6307692,35.2092308 67.9753846,35.0615385 68.2338462,34.7661538 L68.3076923,34.9261538 C68.4665644,35.0900389 68.6442002,35.2346262 68.8369231,35.3569231 C69.2266969,35.5775984 69.6393984,35.75506 70.0676923,35.8861538 C70.3903779,35.9290139 70.7173144,35.9290139 71.04,35.8861538 C71.2241556,35.8677282 71.4096905,35.8677282 71.5938462,35.8861538 C72.3692308,35.9969231 73.1692308,36.0953846 73.9446154,36.2553846 C74.2012199,36.3115691 74.4683544,36.2272109 74.6461538,36.0338462 C75.3536699,35.6693184 75.6964527,34.8487172 75.4584615,34.0892308 C75.3885187,33.7603229 75.3391919,33.4273667 75.3107692,33.0923077 C74.8109619,32.8999649 74.25141,32.9405775 73.7846154,33.2030769 C73.223805,33.5667824 72.4871705,33.5007393 72,33.0430769 C71.2181332,32.5623549 70.6433374,31.8076611 70.3876923,30.9261538 C71.1384615,31.3076923 71.4584615,30.84 71.8153846,30.1630769 C70.8676923,30.3846154 70.0184615,30.5569231 69.1815385,30.8030769 C69.0118803,30.8383569 68.8711862,30.9562997 68.8068288,31.1171931 C68.7424715,31.2780864 68.7630136,31.4605238 68.8615385,31.6030769 C68.919983,31.7039334 68.9497727,31.8188365 68.9476923,31.9353846 C68.9057368,32.1190659 68.8522985,32.299934 68.7876923,32.4769231 C68.5415385,32.3784615 68.1969231,32.3292308 68.0984615,32.1569231 C68,31.9846154 67.8523077,31.5169231 67.4830769,31.3938462 C67.4205231,31.367494 67.37464,31.3124342 67.36,31.2461538 C67.4338462,30.4461538 66.7323077,30.0153846 66.4,29.4738462 C66.3261538,29.3261538 66.0430769,29.2523077 65.8461538,29.24 C65.3243814,29.2371441 64.8352294,28.9857109 64.5292308,28.5630769 C64.4076984,28.384328 64.2580773,28.2263946 64.0861538,28.0953846 C63.8276923,27.8861538 63.5076923,27.7507692 63.2492308,28.0953846 C63.1129885,28.2099722 63.0343342,28.3788999 63.0343342,28.5569231 C63.0343342,28.7349463 63.1129885,28.903874 63.2492308,29.0184615 C63.704247,29.5582176 64.2826211,29.9803885 64.9353846,30.2492308 C65.342333,30.4346581 65.6573536,30.7763002 65.8092308,31.1969231 C65.4804135,31.4617534 65.0461093,31.5563389 64.6369425,31.4522313 C64.2277757,31.3481238 63.8914906,31.0574712 63.7292308,30.6676923 C63.5702581,30.4366705 63.3932983,30.2185573 63.2,30.0153846 C62.8781554,29.6060847 62.5329665,29.2156926 62.1661538,28.8461538 C61.6615385,28.4030769 60.6769231,28.3661538 60.5661538,29.24 C60.5558745,29.3335675 60.5309551,29.4249385 60.4923077,29.5107692 L60.16,29.4123077 C59.5747025,29.1842854 58.9116073,29.4336091 58.6215385,29.9907692 C58.4984615,30.1876923 58.3138462,30.3353846 58.1784615,30.52 C58.0343429,30.6568319 57.9174146,30.8196962 57.8338462,31 C57.6696268,31.7160179 57.1015471,32.2696549 56.3815385,32.4153846 C55.4392446,32.5843619 54.4834646,32.6667568 53.5261538,32.6615385 C53.3278454,32.6011293 53.1744639,32.4430999 53.12,32.2430769 C53.045676,31.5928863 53.045676,30.9363444 53.12,30.2861538 C53.2497428,29.6068079 53.8706703,29.1344785 54.56,29.1907692 C55.2246154,29.1907692 55.8892308,29.1907692 56.5538462,29.1907692 C56.8123077,29.1907692 56.9723077,29.1046154 56.9476923,28.8092308 C56.9353807,28.6946889 56.9353807,28.5791573 56.9476923,28.4646154 C57.0830769,27.6892308 57.0461538,27.5907692 56.3323077,27.1723077 C56.1230769,27.0492308 55.8892308,26.9630769 55.68,26.84 C55.4707692,26.7169231 55.4461538,26.6553846 55.4584615,26.5692308 C55.4845572,26.444715 55.5729167,26.3424041 55.6923077,26.2984615 C55.9458104,26.2284868 56.2054763,26.1831483 56.4676923,26.1630769 C57.5269956,26.1940042 58.4997817,25.581149 58.9292308,24.6123077 C59.1356048,24.0563226 59.643175,23.6684623 60.2338462,23.6153846 C61.1815385,23.4676923 61.3415385,23.2215385 61.4646154,22.2492308 C61.5267435,21.9992881 61.6133144,21.756065 61.7230769,21.5230769 L61.9323077,21.5230769 C62.0889805,21.8532489 62.2206329,22.1947222 62.3261538,22.5446154 C62.4246154,22.9507692 62.6338462,23.2215385 63.04,23.2584615 C63.3997402,23.3015472 63.7633368,23.3015472 64.1230769,23.2584615 C64.7507692,23.1846154 65.3538462,23.0615385 65.9815385,22.9876923 C66.2153846,22.9876923 66.3507692,22.9876923 66.4246154,22.6430769 C66.4984615,22.2984615 66.7815385,22.2 66.9907692,21.9907692 C67.2,21.7815385 67.4830769,21.6830769 67.4953846,21.2769231 C67.5076923,20.8707692 68.1476923,20.4769231 68.5046154,20.5261538 C68.7016921,20.5777876 68.8726789,20.7005473 68.9846154,20.8707692 C69.1072868,21.0964923 69.20233,21.3361663 69.2676923,21.5846154 C69.9119557,20.9817851 70.1842974,20.0802401 69.9815385,19.2215385 C69.7284852,19.2983595 69.4689463,19.3519151 69.2061538,19.3815385 C68.8513796,19.4369272 68.4901588,19.4369272 68.1353846,19.3815385 C67.1015385,19.16 66.9046154,18.6923077 67.4953846,17.8184615 C67.6923077,17.5230769 67.9015385,16.8953846 67.8153846,16.8215385 C67.4215385,16.5384615 67.0646154,16.9076923 66.7938462,17.1538462 C66.1249432,17.6981368 65.635921,18.4316701 65.3907692,19.2584615 C65.2027146,19.9889034 64.9038632,20.6862233 64.5046154,21.3261538 C64.3323077,21.5969231 63.8276923,21.7076923 63.4584615,21.7569231 C63.3107692,21.7569231 63.1015385,21.4615385 62.9538462,21.2646154 C62.814838,21.0500807 62.6874744,20.8282215 62.5723077,20.6 L62.5723077,20.76 L60.3815385,20.8707692 C60.3815385,20.7476923 60.3076923,20.6615385 60.2830769,20.5630769 C59.9753846,18.9753846 59.8276923,19.1969231 61.3415385,18.5938462 C61.8008358,18.3321339 62.2161573,17.9998767 62.5723077,17.6092308 L63.6061538,16.6984615 C63.673224,16.651867 63.7351149,16.5982282 63.7907692,16.5384615 C64.8246154,15.1476923 66.3630769,14.9261538 67.9138462,14.68 C69.3092865,14.6277053 70.6993941,14.8796885 71.9876923,15.4184615 C72.6769231,15.6030769 73.3661538,15.8246154 74.1907692,16.0584615 C73.1938462,16.8584615 72.2707692,16.0584615 71.3969231,16.2061538 L71.3969231,16.3169231 C71.8924528,16.85191 72.4228424,17.3535187 72.9846154,17.8184615 C73.3661538,18.1015385 73.9446154,17.8184615 74.08,17.3138462 C74.2153846,16.8092308 74.2892308,16.8584615 74.6092308,16.8584615 C75.0394973,16.8495778 75.4246959,16.5895688 75.5938462,16.1938462 C75.7538462,15.8615385 75.9753846,15.7138462 76.3323077,15.8492308 C76.3323077,16.2430769 76.4553846,16.4030769 76.8369231,16.28 C76.9773077,16.2344081 77.1100649,16.1680295 77.2307692,16.0830769 C77.682947,15.8147877 78.2091497,15.6983331 78.7323077,15.7507692 C79.4509577,15.7094926 80.1598476,15.5643982 80.8369231,15.32 C81.2874781,15.0986437 81.8293735,15.1931025 82.1784615,15.5538462 C85.2268478,18.729015 87.8197905,22.311915 89.8830769,26.2 C92.3212768,30.8152246 93.9647747,35.8081296 94.7446154,40.9692308 L94.8061538,40.9938462 Z" id="Path" fill="#FFFFFF"></path>
                        <path d="M21.28,22.8769231 L20.9353846,24.8584615 C21.4295613,24.8900604 21.9015633,24.6493394 22.1661538,24.2307692 C22.9661538,23.0861538 23.8153846,21.9661538 24.6276923,20.8338462 C24.7618011,20.6653947 24.8851241,20.4886318 24.9969231,20.3046154 C25.4616056,19.4089651 26.4779322,18.9465365 27.4584615,19.1846154 C28.0246154,19.2707692 28.4184615,19.3938462 28.3692308,20.0707692 C28.3692308,20.1692308 28.6153846,20.3415385 28.7753846,20.3661538 C29.5239239,20.4194837 30.2709434,20.2434619 30.9169231,19.8615385 C30.96093,19.9644368 30.993934,20.0716997 31.0153846,20.1815385 C31.03379,20.3286573 31.03379,20.4774965 31.0153846,20.6246154 C30.7106135,21.7731109 31.3060723,22.969298 32.4061538,23.4184615 L32.6276923,23.5292308 C31.810313,24.3115634 30.7417074,24.7782605 29.6123077,24.8461538 C28.834192,24.8405482 28.0689293,25.0446183 27.3969231,25.4369231 C26.8262254,25.6986407 26.2381647,25.9207056 25.6369231,26.1015385 C25.4288614,26.2324177 25.2385701,26.3896148 25.0707692,26.5692308 L25.1446154,26.7169231 L27.3723077,26.52 C27.2861538,27.0615385 27.3723077,27.3815385 27.9507692,27.4430769 C28.16,27.4430769 28.3569231,27.7384615 28.6276923,27.96 C27.6553846,28.1569231 27.1753846,29.1907692 25.9692308,28.9569231 L26.9169231,28.0707692 C26.4615385,27.5784615 26.3507692,27.5292308 25.76,27.8984615 C25.1692308,28.2676923 24.64,28.7230769 24.0738462,29.1292308 C23.9261538,29.24 23.7907692,29.4123077 23.6307692,29.4492308 C22.6461538,29.6215385 22.1661538,30.4338462 21.5384615,31.0738462 C21.2448976,31.4721184 20.7991655,31.730643 20.3076923,31.7876923 C20.1132101,31.7868218 19.9250707,31.8568271 19.7784615,31.9846154 C19.6032273,32.1358507 19.4894018,32.3459901 19.4584615,32.5753846 C19.5404998,33.4224816 19.075814,34.2282666 18.3015385,34.5815385 C17.6238809,34.943299 16.9739034,35.3546772 16.3569231,35.8123077 C15.826291,36.3530586 15.6798961,37.1631106 15.9876923,37.8553846 C16.2148809,38.343043 16.2148809,38.9061878 15.9876923,39.3938462 C15.9876923,39.5169231 15.6553846,39.6153846 15.4707692,39.6276923 C15.2861538,39.64 15.1753846,39.4430769 15.1384615,39.3076923 C14.9784615,38.6923077 14.88,38.0769231 14.72,37.4369231 C14.6327802,37.2261664 14.5256269,37.0242235 14.4,36.8338462 L14.2769231,36.8953846 L14.2769231,37.6092308 L14.1538462,37.6953846 C13.9992473,37.5142694 13.8349014,37.3417062 13.6615385,37.1784615 C13.4284103,36.9538258 13.1678952,36.7594733 12.8861538,36.6 C12.5898911,36.4543076 12.2314467,36.5683581 12.0738462,36.8584615 C11.7728135,37.2476435 11.4524092,37.6214485 11.1138462,37.9784615 C10.8579498,37.6736997 10.5868358,37.3820467 10.3015385,37.1046154 C10.1736146,37.0021229 10.0068613,36.9615613 9.84615385,36.9938462 C9.25783617,37.0897476 8.72430406,37.3958726 8.34461538,37.8553846 C7.94568262,38.3405098 7.50050981,38.7856826 7.01538462,39.1846154 C6.55559432,39.5053593 6.41218432,40.1214911 6.68307692,40.6123077 C6.73863272,40.8136743 6.73863272,41.0263257 6.68307692,41.2276923 C6.45295244,42.4251447 7.18156965,43.5984327 8.35692308,43.9230769 C8.97551041,44.1346598 9.65653669,43.8695275 9.96923077,43.2953846 C10.0923077,43.0246154 10.1907692,42.7415385 10.3015385,42.4707692 C10.3501953,42.3066543 10.4676436,42.1717121 10.6234765,42.100879 C10.7793093,42.0300459 10.9582044,42.0302865 11.1138462,42.1015385 C11.2861538,42.1876923 11.3969231,42.6061538 11.36,42.8523077 C11.2520077,43.3221713 11.1079922,43.7830209 10.9292308,44.2307692 C10.7692308,44.7353846 10.9292308,44.9569231 11.4215385,45.08 C11.9138462,45.2030769 12.2092308,45.2030769 12.6523077,45.2523077 C12.8718521,45.2426102 13.083255,45.33635 13.2234648,45.5055687 C13.3636746,45.6747875 13.4164883,45.8999298 13.3661538,46.1138462 C13.3046901,46.6865608 13.3046901,47.2642085 13.3661538,47.8369231 C13.4588414,48.1820042 13.6414708,48.4962967 13.8953846,48.7476923 C14.0886572,48.8463213 14.3174966,48.8463213 14.5107692,48.7476923 C14.8714152,48.4925622 15.3411335,48.4502875 15.7415385,48.6369231 L16.2215385,48.76 C16.9230769,48.9323077 17.12,48.76 17.5876923,48.2923077 C17.9079378,47.9911027 18.2733942,47.7419279 18.6707692,47.5538462 C18.7928159,47.5217905 18.9227814,47.5542819 19.0153846,47.64 C19.0825206,47.7450625 19.0825206,47.8795529 19.0153846,47.9846154 C18.6338462,48.3292308 18.8430769,48.5015385 19.1876923,48.6492308 L20.0246154,48.9938462 C19.4953846,48.1323077 20.1969231,47.8369231 20.5169231,47.32 C20.6462114,47.3859868 20.7662226,47.4687531 20.8738462,47.5661538 C21.345894,48.0776588 22.025973,48.3451565 22.72,48.2923077 C23.665445,48.2796118 24.5772964,48.6425818 25.2553846,49.3015385 C26.1830192,50.1100751 27.3012054,50.6691682 28.5046154,50.9261538 C29.0239256,51.0210602 29.4745689,51.3410169 29.7353846,51.8 C29.9569231,52.1692308 30.24,52.5015385 30.4738462,52.8584615 C30.6434731,53.0540495 30.7023592,53.3223043 30.6302499,53.5709571 C30.5581405,53.8196099 30.3648729,54.0147401 30.1169231,54.0892308 L29.5507692,54.3476923 C29.7107692,54.6430769 29.8707692,54.7292308 30.1538462,54.5692308 C30.3500648,54.4481929 30.5670915,54.3647211 30.7938462,54.3230769 C30.9687629,54.3472495 31.1320278,54.4245856 31.2615385,54.5446154 C31.2615385,54.5446154 31.1876923,54.7538462 31.1507692,54.8646154 C31.1138462,54.9753846 31.0646154,55.1353846 31.1507692,55.16 C31.2549493,55.2213008 31.3746136,55.2512169 31.4953846,55.2461538 C31.5944299,55.2240333 31.6845039,55.1725624 31.7538462,55.0984615 C31.9502196,54.8716926 32.2354069,54.7413986 32.5353846,54.7413986 C32.8353624,54.7413986 33.1205497,54.8716926 33.3169231,55.0984615 C33.3784615,55.0984615 33.5015385,55.1846154 33.5015385,55.2461538 C33.5753846,56.0584615 34.1292308,55.7261538 34.4861538,55.5907692 C34.8301778,55.450472 35.219168,55.4730877 35.5446154,55.6523077 C36.4184615,56.0215385 37.3046154,56.3292308 38.2030769,56.6246154 C38.4774363,56.6995098 38.6716516,56.9435239 38.6830769,57.2276923 C38.8689078,58.6311786 38.4174514,60.0442372 37.4523077,61.08 C37.3864885,61.1794901 37.292092,61.2567236 37.1815385,61.3015385 C36.7876923,61.4738462 36.7507692,61.7938462 36.7507692,62.1630769 C36.7507692,63.0738462 36.7507692,63.9969231 36.6153846,64.8953846 C36.4946902,65.4560303 36.3001738,65.9981928 36.0369231,66.5076923 C35.84,66.9261538 35.6430769,67.3569231 34.9784615,67.2461538 C34.6830769,67.2461538 34.3015385,67.4923077 34.0061538,67.7015385 C33.515567,68.0048577 33.0684102,68.373348 32.6769231,68.7969231 C32.4479393,69.1731959 32.2972393,69.5918069 32.2338462,70.0276923 C32.0686948,70.8167969 31.8507692,71.5939278 31.5815385,72.3538462 C31.3969231,72.7969231 30.8676923,73.08 30.5353846,73.4615385 C30.0256745,74.1717792 29.0552395,74.3701555 28.3076923,73.9169231 C28.1230769,74.4584615 28.48,74.7907692 28.6892308,75.1476923 C29.0215385,75.7261538 29.0215385,75.7138462 28.4676923,76.1076923 C27.9793307,76.4937692 27.5110271,76.9045618 27.0646154,77.3384615 C26.7361593,77.6567623 26.5963804,78.1226919 26.6953846,78.5692308 C26.7003884,78.9849814 26.6465207,79.3993476 26.5353846,79.8 C26.482598,80.0010328 26.4536807,80.2075847 26.4492308,80.4153846 C26.4492308,80.8215385 26.6338462,81.2276923 26.6830769,81.6461538 C26.7692308,82.3353846 26.8184615,83.0246154 26.88,83.7015385 C26.88,83.96 26.9784615,84.1323077 27.2984615,84.1569231 C27.4215385,84.1569231 27.5815385,84.3169231 27.6430769,84.44 C27.8276923,84.8215385 27.9753846,85.2276923 28.1476923,85.6707692 C27.9312223,85.8372343 27.6571149,85.9101 27.3865582,85.8731008 C27.1160015,85.8361016 26.8715214,85.6923179 26.7076923,85.4738462 C26.4558175,85.0037536 26.0461152,84.6376367 25.5507692,84.44 C24.7458272,84.0921808 24.1003511,83.4554867 23.7415385,82.6553846 C23.1861946,81.874337 22.9088419,80.9296043 22.9538462,79.9723077 C23.1026916,79.2925352 22.7308033,78.606375 22.08,78.36 C21.9569231,78.36 21.8584615,78.0646154 21.8338462,77.9046154 C21.76,77.2276923 21.7230769,76.5507692 21.6615385,75.8738462 C21.5261538,74.4338462 21.3538462,73.0061538 21.2676923,71.5784615 C21.2676923,70.5076923 21.2676923,69.4246154 21.2676923,68.3538462 C21.2676923,67.8615385 21.2676923,67.3815385 21.2676923,66.9015385 C21.1639891,65.6275199 20.289308,64.5476064 19.0646154,64.1815385 C18.3952069,64.0587455 17.9210057,63.4580907 17.9569231,62.7784615 C17.9723196,62.1818896 17.6413247,61.6302315 17.1076923,61.3630769 C16.3949663,60.9642565 15.8555461,60.315198 15.5938462,59.5415385 C15.4949898,59.3151653 15.3528373,59.1102985 15.1753846,58.9384615 C14.780264,58.5673933 14.611612,58.0145898 14.7323077,57.4861538 C14.7501786,57.1316491 14.7253855,56.7762812 14.6584615,56.4276923 C14.6074147,56.1892037 14.5867378,55.9452162 14.5969231,55.7015385 C14.6991178,55.015081 14.9512432,54.3595549 15.3353846,53.7815385 C15.7586438,53.1587812 16.1096221,52.4898579 16.3815385,51.7876923 C16.6889013,51.0068983 16.4310429,50.1170339 15.7538462,49.6215385 C15.5316593,49.517107 15.2744946,49.517107 15.0523077,49.6215385 C14.585918,49.9038412 13.9938011,49.8695865 13.5630769,49.5353846 C12.6802618,48.9719028 11.9558638,48.1924336 11.4584615,47.2707692 C11.3696534,47.1406827 11.2459383,47.0382978 11.1015385,46.9753846 C10.8816364,46.902788 10.6547717,46.8532902 10.4246154,46.8276923 C9.8027426,46.794082 9.22103639,46.5098896 8.81230769,46.04 C8.31441105,45.5142805 7.60009902,45.2503945 6.88,45.3261538 C6.78239203,45.3444889 6.68222335,45.3444889 6.58461538,45.3261538 C5.15107795,44.9507616 3.84826176,44.1886567 2.81846154,43.1230769 C2.49815427,42.7120408 2.37646078,42.1801952 2.48615385,41.6707692 C2.86398805,38.7980042 3.51093435,35.967099 4.41846154,33.2153846 C5.814245,28.9732981 7.82544648,24.9591888 10.3876923,21.3015385 C11.3353846,19.9230769 12.4307692,18.6553846 13.4523077,17.3261538 C13.6123077,17.1292308 13.7723077,17.0430769 13.9938462,17.2030769 C14.309447,17.3891656 14.6874253,17.4380805 15.04,17.3384615 C15.8769231,17.24 16.7384615,17.2769231 17.5015385,17.1046154 C18.5006767,16.894783 19.477438,16.5898027 20.4184615,16.1938462 C21.125294,15.7942942 21.6070961,15.0897721 21.7230769,14.2861538 C21.7846154,14.0646154 21.8584615,13.8430769 21.92,13.6215385 C22.1661538,12.8092308 22.1661538,12.8092308 23.0153846,13.0061538 L24.7261538,13.3876923 C24.2461538,13.56 23.7415385,13.72 23.2615385,13.9169231 C22.9784615,14.0276923 22.9292308,14.2123077 23.1384615,14.4584615 C23.3476923,14.7046154 23.7907692,15.2953846 24.1476923,15.6892308 C24.2573044,15.8077763 24.4191709,15.8632734 24.5784615,15.8369231 C25.2677133,15.5549308 26.0174664,15.4532694 26.7569231,15.5415385 C26.5736482,15.871283 26.3504267,16.1771791 26.0923077,16.4523077 C25.8262194,16.6573296 25.5131706,16.7927021 25.1815385,16.8461538 C24.3323077,17.0184615 23.4584615,17.1292308 22.5969231,17.2646154 C22.4994112,17.8665327 21.975868,18.3063089 21.3661538,18.2984615 C20.2538436,18.4734288 19.2108583,18.9502221 18.3507692,19.6769231 C17.7004759,20.0164765 17.4215319,20.7996653 17.7107692,21.4738462 C17.7969231,21.7446154 17.8830769,22.0892308 18.3261538,21.88 C18.4,21.88 18.5353846,21.88 18.6338462,21.9661538 C19.04,22.1753846 19.4461538,22.4092308 19.8646154,22.6184615 C20.2830769,22.8276923 20.5538462,23.0492308 21.0092308,22.9015385 C21.091341,22.8534921 21.1905718,22.8444712 21.28,22.8769231 L21.28,22.8769231 Z" id="Path" fill="#FFFFFF"></path>
                        <path d="M34.4369231,11.3323077 C35.4953846,11.16 36.5046154,11.0246154 37.4892308,10.8276923 C37.9108613,10.7137398 38.3224849,10.5655553 38.72,10.3846154 C39.7791604,9.87155183 40.9561077,9.65060865 42.1292308,9.74461538 C43.2246154,9.90461538 44.3323077,9.97846154 45.44,10.0646154 C45.8558213,10.1445089 46.2835145,10.0050438 46.5723077,9.69538462 C46.6830769,9.54769231 46.9907692,9.52307692 47.2123077,9.48615385 C48.0738462,9.35076923 48.9353846,9.19076923 49.8092308,9.10461538 C50.2666673,9.04322318 50.7302558,9.04322318 51.1876923,9.10461538 C52.2461538,9.27692308 53.3046154,9.47384615 54.3630769,9.67076923 C54.5331298,9.69077468 54.6925123,9.76400447 54.8184615,9.88 C54.3753846,9.88 53.9323077,9.88 53.5015385,9.97846154 C53.2219801,10.0002371 52.9477258,10.066723 52.6892308,10.1753846 C52.2953846,10.3723077 51.9261538,10.5938462 51.9138462,11.1723077 C51.9013426,11.7619948 51.4911596,12.2683935 50.9169231,12.4030769 C50.3418079,12.6228974 49.7789423,12.8735164 49.2307692,13.1538462 C48.9353846,13.2892308 48.9353846,13.4492308 49.2307692,13.6092308 L50.4615385,14.2861538 C49.7846154,14.5569231 49.7846154,14.5569231 48.3815385,13.9169231 L48.9846154,14.9015385 C48.0738462,15.1353846 47.1507692,15.4061538 46.2153846,15.6153846 C45.3497447,15.7768367 44.5402047,16.1582953 43.8646154,16.7230769 C43.1836668,17.1998111 42.3811549,17.4730066 41.5507692,17.5107692 C41.12,17.5846154 40.7630769,17.6707692 40.7753846,18.2615385 C40.7198482,18.5032526 40.5856529,18.7196966 40.3938462,18.8769231 C40.1648208,19.0887095 39.9130272,19.2744589 39.6430769,19.4307692 C39.1884805,19.7647293 38.5833604,19.8105862 38.0836285,19.5489464 C37.5838967,19.2873067 37.2768367,18.7638687 37.2923077,18.2 C37.2495495,17.9061627 37.2495495,17.6076834 37.2923077,17.3138462 C37.374875,16.9546351 37.5118399,16.6101477 37.6984615,16.2923077 C37.7850447,16.1494425 37.8977822,16.0241786 38.0307692,15.9230769 C38.6111032,15.4467066 38.8896678,14.6945525 38.7596243,13.9550899 C38.6295809,13.2156273 38.1111158,12.6036405 37.4030769,12.3538462 C36.7393373,11.9520461 35.9958676,11.7000225 35.2246154,11.6153846 C34.9460665,11.5734423 34.67845,11.4772676 34.4369231,11.3323077 Z" id="Path" fill="#FFFFFF"></path>
                        <path d="M26.3384615,12.5630769 C26.6953846,11.9476923 27.0892308,11.7630769 27.7046154,12.0461538 C28.3082465,12.3645285 29.0169606,12.4180163 29.6615385,12.1938462 L29.76,12.3046154 C29.6738462,12.44 29.6,12.6369231 29.4769231,12.6984615 C29.3538462,12.76 28.8369231,12.8338462 28.5415385,12.9446154 C28.3970319,13.0010313 28.284554,13.1180084 28.2338462,13.2646154 C28.2338462,13.3507692 28.3815385,13.5353846 28.4923077,13.5723077 L32.1846154,14.6184615 C32.3033551,14.6797688 32.3856735,14.7940998 32.4061538,14.9261538 C32.4003375,15.0894292 32.3713291,15.2510475 32.32,15.4061538 C32.1230769,16.2923077 32.32,16.6369231 33.28,16.6369231 C33.2919051,16.9520086 33.0725458,17.228819 32.7630769,17.2892308 C32.1723077,17.4492308 31.5323077,17.6215385 31.0030769,17.8184615 C30.7446154,17.9046154 30.4615385,17.9907692 30.5353846,18.3846154 C30.5353846,18.4584615 30.4738462,18.5692308 30.4123077,18.6307692 C29.9039517,18.9925564 29.2222021,18.9925564 28.7138462,18.6307692 C28.5027293,18.3978691 28.4352164,18.0684722 28.53769,17.7712989 C28.6401635,17.4741256 28.8963561,17.2563513 29.2061538,17.2030769 C29.5507692,17.1169231 29.92,17.0923077 30.2769231,16.9938462 C30.4387749,16.9590579 30.5803304,16.8617386 30.6707692,16.7230769 C30.6707692,16.6369231 30.56,16.4276923 30.4492308,16.3292308 C29.5456577,15.5050497 28.3735144,15.0370671 27.1507692,15.0123077 C26.4738462,15.0123077 25.7969231,14.9015385 25.12,14.8276923 C24.8369231,14.8276923 24.4676923,14.8276923 24.4430769,14.3969231 C24.4123906,14.21082 24.4687448,14.0209226 24.5959797,13.8816844 C24.7232147,13.7424462 24.9072763,13.669247 25.0953846,13.6830769 C25.5406079,13.6623433 25.9843545,13.6171468 26.4246154,13.5476923 C26.6092308,13.5476923 26.9046154,13.3753846 26.9292308,13.24 C26.9907692,12.92 26.7938462,12.7107692 26.4369231,12.7107692 C26.4246154,12.5630769 26.4,12.5630769 26.3384615,12.5630769 Z" id="Path" fill="#FFFFFF"></path>
                        <path d="M83.3969231,60.9323077 C83.8197303,61.935783 83.8720771,63.0568773 83.5446154,64.0953846 C83.1753846,65.0061538 82.9538462,65.9907692 82.6461538,66.9261538 C82.539849,67.2044066 82.4080039,67.4722168 82.2523077,67.7261538 C81.7846154,68.5876923 81.7846154,68.5876923 80.8369231,68.4153846 C80.4716882,68.2947638 80.1698897,68.0330376 79.9988001,67.6885464 C79.8277105,67.3440551 79.8015514,66.9454342 79.9261538,66.5815385 C80.1675743,66.2686465 80.3739372,65.9302114 80.5415385,65.5723077 C80.6330268,65.1671518 80.6330268,64.7466943 80.5415385,64.3415385 C80.5024255,63.7667563 80.8414631,63.2332707 81.3784615,63.0246154 C81.5153827,62.9958991 81.6425666,62.9323077 81.7476923,62.84 C82.2276923,62.36 82.6953846,61.88 83.1384615,61.3876923 C83.2418408,61.2463418 83.328568,61.0935368 83.3969231,60.9323077 L83.3969231,60.9323077 Z" id="Path" fill="#FFFFFF"></path>
                        <path d="M38.1907692,9.17846154 C37.3507355,9.82641382 36.3596406,10.2499586 35.3107692,10.4092308 C33.8590767,10.6495867 32.4748131,11.1949027 31.2492308,12.0092308 C30.8430769,12.2553846 30.4492308,12.4646154 30.1538462,11.8492308 C30.0923077,11.7384615 29.8707692,11.6769231 29.7230769,11.6523077 C29.3366291,11.6127786 28.9539029,11.5428179 28.5784615,11.4430769 C28.687437,11.3416234 28.8121293,11.2584952 28.9476923,11.1969231 C29.2676923,11.0984615 29.6,11.0369231 29.92,10.9507692 C30.24,10.8646154 30.6830769,10.7907692 30.8184615,10.3107692 C30.9085122,10.1095403 31.0851032,9.96011714 31.2984615,9.90461538 C31.9384615,9.75692308 32.6030769,9.67076923 33.2676923,9.56 C33.6831575,9.54944667 34.0960714,9.49163871 34.4984615,9.38769231 C35.2277775,9.10915268 36.0086957,8.9915951 36.7876923,9.04307692 C37.0295772,9.05576861 37.2719612,9.05576861 37.5138462,9.04307692 L38.2153846,9.04307692 L38.1907692,9.17846154 Z" id="Path" fill="#FFFFFF"></path>
                        <path d="M56.48,23.1107692 C56.1969231,22.68 55.7907692,22.4830769 55.5076923,22.6676923 C54.6830769,23.2338462 54.6215385,23.3815385 55.0030769,23.9846154 L53.3784615,24.6 C53.2553846,24.0338462 53.92,23.5169231 53.3784615,23 C53.6066709,22.6146521 54.0261887,22.3836816 54.4738462,22.3969231 L55.1138462,22.3969231 C55.4584615,22.3969231 55.7292308,22.2615385 55.68,21.8307692 C55.6660525,21.6990728 55.6917674,21.5662124 55.7538462,21.4492308 C55.8892308,21.2523077 56.0369231,20.9815385 56.2338462,20.9446154 C56.4307692,20.9076923 56.64,21.1046154 56.9107692,21.24 C56.4184615,21.7446154 56.6276923,22.0276923 57.0584615,22.2492308 C57.1627051,22.2988989 57.2518962,22.3753483 57.3169231,22.4707692 C57.430124,22.8176039 57.5873013,23.1485037 57.7846154,23.4553846 C58.081657,23.6937544 58.4137907,23.8847312 58.7692308,24.0215385 C58.4780249,24.2800751 58.1696254,24.5185707 57.8461538,24.7353846 C57.5364029,24.9263841 57.2006048,25.071482 56.8492308,25.1661538 C56.5632589,25.2033994 56.2736642,25.2033994 55.9876923,25.1661538 L55.9876923,25.0061538 L56.5907692,24.6246154 C56.3815385,24.3661538 56.0615385,24.1446154 56.0369231,23.8984615 C56.0123077,23.6523077 56.3076923,23.4061538 56.48,23.1107692 Z" id="Path" fill="#FFFFFF"></path>
                        <path d="M49.0830769,17.4861538 C49.2868887,17.3873863 49.4965045,17.3010739 49.7107692,17.2276923 C50.3630769,17.0430769 51.0276923,16.8707692 51.6923077,16.7107692 C52.0246154,16.6369231 52.3815385,16.6369231 52.4923077,16.9815385 C52.6030769,17.3261538 52.3569231,17.4861538 52.1846154,17.5969231 C51.7982107,17.8499523 51.3855505,18.0604091 50.9538462,18.2246154 C50.556524,18.4301838 50.0689869,18.3212659 49.7969231,17.9661538 C49.6615385,17.7938462 49.3784615,17.7569231 49.1569231,17.6461538 L49.0830769,17.4861538 Z" id="Path" fill="#FFFFFF"></path>
                        <path d="M30.1415385,26.68 C30.6639347,25.9314339 31.4025332,25.3603083 32.2584615,25.0430769 L31.8276923,25.4246154 C32.0246154,25.5107692 32.2092308,25.5476923 32.2953846,25.6584615 C32.3815385,25.7692308 32.7876923,26.1630769 32.7384615,26.3230769 C32.6530478,26.6748318 32.30602,26.8971465 31.9507692,26.8276923 C31.3723077,26.7292308 30.7815385,26.7292308 30.1415385,26.68 Z" id="Path" fill="#FFFFFF"></path>
                    </g>
                    <path d="M236,142.695825 L235.926897,143.237751 C219.778206,153.049557 199.384307,152.117802 184.177014,140.873406 C168.969722,129.62901 161.913498,110.263921 166.27172,91.7341462 C170.629943,73.2043718 185.553033,59.1220488 204.139329,56 C200.82811,58.7605725 197.792058,61.8420633 195.074572,65.2004236 C194.550668,65.8531979 194.002396,66.5429218 193.490676,67.2449622 C192.978956,67.9470025 192.649993,68.3780799 192.272295,68.9815883 C191.894596,69.5850967 191.663104,69.8806926 191.370692,70.336403 C190.267619,72.0457636 189.270687,73.8227634 188.385658,75.6571299 L188.385658,75.6571299 C186.705309,79.1038845 185.515755,82.7736097 184.852352,86.5572301 C183.871881,92.3314741 184.349634,98.2625041 186.241307,103.800327 C187.183223,106.608851 188.408032,109.31214 189.896451,111.867632 C192.157579,115.79108 194.763229,119.500977 197.681908,122.95248 C215.372804,143.742728 236,142.695825 236,142.695825 Z" id="Path" fill="url(#linearGradient-1)"></path>
                    <path d="M430.86773,134.525828 C429.558005,139.594992 423.627178,138.712858 423.627178,138.712858 C423.627178,138.712858 389.030685,139.358928 388.351111,138.712858 C387.671537,138.066788 388.165773,136.128578 388.289332,135.395537 L388.351111,135.134624 L398.235823,135.134624 C398.235823,135.134624 402.90635,132.64974 395.258054,121.629278 C388.820635,112.323386 413.087603,111.900955 421.020085,112.012775 C422.527504,112.012775 423.491263,112.012775 423.491263,112.012775 C423.491263,112.012775 432.165098,129.456663 430.86773,134.525828 Z" id="Path" fill="#3F97FF"></path>
                    <path d="M427.862311,130.667772 C426.615126,135.630309 420.516387,134.703643 420.516387,134.703643 C420.516387,134.703643 398.378838,135.130397 389,134.959695 L389.062359,134.703643 L399.039846,134.703643 C399.039846,134.703643 403.754209,132.26505 396.034128,121.449891 C389.53629,112.317361 414.03102,111.9028 422.037953,112.012537 C424.532325,117.267705 428.822645,127.095234 427.862311,130.667772 Z" id="Path" fill="#3385E6"></path>
                    <path d="M428.895843,131.39935 C427.597714,136.361886 420.241647,134.703643 420.241647,134.703643 C420.241647,134.703643 398.297079,135.130397 389,134.959695 L389.061816,134.703643 L398.952325,134.703643 C398.952325,134.703643 403.625591,132.26505 395.972809,121.449891 C389.531615,112.317361 413.812816,111.9028 421.74995,112.012537 C424.173125,117.267705 429.835442,127.826811 428.895843,131.39935 Z" id="Path" fill="url(#linearGradient-2)"></path>
                    <rect id="Rectangle" fill="#68E1FD" x="363" y="62" width="87" height="59" rx="5.63"></rect>
                    <rect id="Rectangle" fill="url(#linearGradient-3)" x="363" y="62" width="87" height="59" rx="5.63"></rect>
                    <rect id="Rectangle" fill="#3385E6" x="361" y="62" width="87" height="59" rx="5.63"></rect>
                    <rect id="Rectangle" fill="url(#linearGradient-4)" x="361" y="62" width="87" height="59" rx="5.63"></rect>
                    <path d="M447.938853,109 L448,114.485048 C448,116.214925 447.272926,117.873782 445.979063,119.095904 C444.685199,120.318025 442.930789,121.003062 441.102615,121 L367.885156,121 C364.082589,121 361,118.083151 361,114.485048 L361,109 L447.938853,109 Z" id="Path" fill="#3385E6"></path>
                    <rect id="Rectangle" fill="url(#linearGradient-5)" x="389" y="135" width="34" height="3"></rect>
                    <path d="M428.66087,131 L429,136.792219 C427.235675,137.890283 425.065577,138.260758 423,137.816527 L423,134.572885 C423,134.572885 428.165217,135.963017 428.66087,131 Z" id="Path" fill="url(#linearGradient-6)"></path>
                    <path d="M20.0947861,96.7115609 C21.1076454,100.470356 25.6842687,99.7891506 25.6842687,99.7891506 C25.6842687,99.7891506 52.2436895,100.263562 52.7438669,99.7891506 C53.2440443,99.3147396 52.8814157,97.8671776 52.7438669,97.3562734 C52.7515833,97.2956831 52.7515833,97.2343979 52.7438669,97.1738076 L45.1536746,97.1738076 C45.1536746,97.1738076 41.5774061,95.3613141 47.4419863,87.1503534 C52.4437605,80.240982 33.762134,79.924708 27.6849784,80.0098587 C26.5220659,80.0098587 25.8218175,80.0098587 25.8218175,80.0098587 C25.8218175,80.0098587 19.1319446,92.9527656 20.0947861,96.7115609 Z" id="Path" fill="#3385E6"></path>
                    <path d="M24.1014602,94.7925501 C25.0682273,98.4672006 29.5594113,97.7893524 29.5594113,97.7893524 C29.5594113,97.7893524 46.0311653,98.0985463 52.9943362,97.9677335 C53.0018879,97.9084996 53.0018879,97.8485863 52.9943362,97.7893524 L45.5294254,97.7893524 C45.5294254,97.7893524 42.0294836,96.0174336 47.7688986,87.9902846 C52.6639221,81.2355874 34.3810095,80.9263935 28.4335559,81.009638 C26.573447,84.8864537 23.3916818,92.15251 24.1014602,94.7925501 Z" id="Path" fill="#3F97FF"></path>
                    <path d="M22.0816953,95.3395855 C23.0792788,99.0142359 28.8122269,97.7893524 28.8122269,97.7893524 C28.8122269,97.7893524 45.8090291,98.0985463 52.9941557,97.9677335 C53.0019481,97.9084996 53.0019481,97.8485863 52.9941557,97.7893524 L45.2912959,97.7893524 C45.2912959,97.7893524 41.6797911,96.0174336 47.6021538,87.9902846 C52.6532094,81.2355874 33.7875167,80.9263935 27.6504841,81.009638 C25.731083,84.8269933 21.3492923,92.640085 22.0816953,95.3395855 Z" id="Path" fill="url(#linearGradient-7)"></path>
                    <rect id="Rectangle" fill="#68E1FD" x="6" y="43" width="66" height="44" rx="4.27"></rect>
                    <rect id="Rectangle" fill="url(#linearGradient-8)" x="6" y="43" width="66" height="44" rx="4.27"></rect>
                    <rect id="Rectangle" fill="#3385E6" x="8" y="43" width="66" height="44" rx="4.27"></rect>
                    <rect id="Rectangle" fill="url(#linearGradient-9)" x="8" y="43" width="66" height="44" rx="4.27"></rect>
                    <path d="M8,78 L8,82.5743329 C8,85.5708461 10.3413456,88 13.2295417,88 L68.7704583,88 C71.6586544,88 74,85.5708461 74,82.5743329 L74,78 L8,78 Z" id="Path" fill="#3F97FF"></path>
                    <rect id="Rectangle" fill="url(#linearGradient-10)" transform="translate(39.000000, 99.000000) rotate(-180.000000) translate(-39.000000, -99.000000) " x="26" y="98" width="26" height="2"></rect>
                    <path d="M22.286533,95 L22,99.9620617 C23.4700964,100.90408 25.2781338,101.22307 27,100.844206 L27,98.0875051 C27,98.0875051 22.6876791,99.1350514 22.286533,95 Z" id="Path" fill="url(#linearGradient-11)"></path>
                    <path d="M297.119622,68.9707189 L262.624439,63.9864349 C261.475844,63.8213471 260.597026,62.9105436 260.50511,61.7899707 L258.011783,34.6479493 C257.936955,33.9050058 258.221427,33.1703485 258.782292,32.6580844 C259.343157,32.1458203 260.117302,31.9135951 260.87911,32.0290881 L295.411692,37.0254407 C296.574332,37.1812673 297.467277,38.1009772 297.555954,39.2339733 L299.986948,66.3397893 C300.065944,67.0847235 299.783301,67.8229606 299.221865,68.3381087 C298.660429,68.8532568 297.8838,69.0869613 297.119622,68.9707189 L297.119622,68.9707189 Z" id="Path" fill="#73B3FF"></path>
                    <path d="M294.483918,66.965009 L264.165214,62.3660563 C263.171652,62.2259916 262.397869,61.4190094 262.285455,60.4056448 L260.005488,36.3382033 C259.958304,35.6681291 260.217299,35.013302 260.707624,34.5629682 C261.197948,34.1126344 261.864955,33.9169846 262.515877,34.0325621 L292.834581,38.6315149 C293.830209,38.7674142 294.606075,39.5765691 294.71434,40.5919263 L296.994307,64.6716975 C297.042456,65.3411007 296.783212,65.9954817 296.292145,66.4440847 C295.801079,66.8926877 295.133466,67.0850176 294.483918,66.965009 L294.483918,66.965009 Z" id="Path" fill="url(#linearGradient-12)"></path>
                    <path d="M263.289832,66.6025819 L308.077362,66.6048304 C308.910913,66.6048722 309.586716,67.280855 309.586716,68.1146802 L309.586716,68.1146802 C309.586716,68.5150972 309.427743,68.8991062 309.144712,69.1822295 C308.861682,69.4653529 308.477799,69.6243785 308.077514,69.6243785 L263.289983,69.6221301 C262.463209,69.6220886 261.792697,68.9516016 261.792697,68.1245554 L261.792697,68.1245554 C261.786301,67.7231572 261.941092,67.3359329 262.222538,67.0497794 C262.503983,66.7636258 262.888512,66.6025078 263.289832,66.6025819 Z" id="Path" fill="#73B3FF" transform="translate(285.689707, 68.113480) rotate(8.500000) translate(-285.689707, -68.113480) "></path>
                    <path d="M282.479283,68.8392358 L318.997581,68.8410691 C319.610595,68.8411556 320.107525,69.3381105 320.107581,69.9511248 L320.107581,70.7629476 C320.107637,71.3759836 319.610673,71.8729476 318.997637,71.8729476 C318.997618,71.8729476 318.9976,71.8729476 318.997581,71.8728918 L282.479283,71.8710585 C281.866268,71.870972 281.369338,71.3740171 281.369283,70.7610028 L281.369283,69.94918 C281.369227,69.336144 281.866191,68.83918 282.479227,68.83918 C282.479246,68.83918 282.479264,68.83918 282.479283,68.8392358 Z" id="Rectangle" fill="#68E1FD" transform="translate(300.738432, 70.356064) rotate(8.500000) translate(-300.738432, -70.356064) "></path>
                    <path d="M282.479283,68.8392358 L318.997581,68.8410691 C319.610595,68.8411556 320.107525,69.3381105 320.107581,69.9511248 L320.107581,70.7629476 C320.107637,71.3759836 319.610673,71.8729476 318.997637,71.8729476 C318.997618,71.8729476 318.9976,71.8729476 318.997581,71.8728918 L282.479283,71.8710585 C281.866268,71.870972 281.369338,71.3740171 281.369283,70.7610028 L281.369283,69.94918 C281.369227,69.336144 281.866191,68.83918 282.479227,68.83918 C282.479246,68.83918 282.479264,68.83918 282.479283,68.8392358 Z" id="Rectangle" fill="url(#linearGradient-13)" transform="translate(300.738432, 70.356064) rotate(8.500000) translate(-300.738432, -70.356064) "></path>
                    <path d="M120.530538,114.61202 L90.6356557,125.848051 C89.6446458,126.228197 88.5206832,125.876468 87.9280546,125.000743 L73.4009714,103.818062 C73.0027641,103.239272 72.8942111,102.510913 73.1065173,101.842361 C73.3188235,101.173808 73.8284714,100.639118 74.4889572,100.391993 L104.38384,89.1436822 C105.385379,88.7766538 106.510012,89.1304621 107.116168,90.0032693 L121.593797,111.161391 C121.99309,111.740886 122.105128,112.469383 121.898226,113.140849 C121.691324,113.812316 121.187976,114.353748 120.530538,114.61202 L120.530538,114.61202 Z" id="Path" fill="#73B3FF"></path>
                    <path d="M118.638224,113.515578 L92.2173573,123.833789 C91.345982,124.219335 90.3316424,123.916234 89.7956464,123.110141 L77.3359435,104.519894 C76.9939496,103.998043 76.9075286,103.341771 77.1022023,102.744887 C77.296876,102.148003 77.750402,101.678705 78.328845,101.475585 L104.749711,91.1573742 C105.62194,90.7869727 106.626842,91.0872538 107.171422,91.8810214 L119.679559,110.471269 C120.014865,111.001115 120.091816,111.661557 119.887753,112.258127 C119.683691,112.854697 119.221851,113.319464 118.638224,113.515578 L118.638224,113.515578 Z" id="Path" fill="url(#linearGradient-14)"></path>
                    <path d="M90.7053678,117.912429 L132.083157,117.907721 C132.855744,117.907633 133.481891,118.534029 133.481891,119.306815 L133.481891,119.306815 C133.481891,120.079601 132.855426,120.706139 132.082838,120.706227 L90.7050495,120.710935 C90.3309571,120.720915 89.9687486,120.579227 89.700719,120.318064 C89.4326894,120.056901 89.2815485,119.698437 89.2815485,119.324118 L89.2815485,119.324118 C89.2749805,118.945559 89.4232038,118.580644 89.6920468,118.314049 C89.9608899,118.047455 90.3269805,117.902358 90.7053678,117.912429 Z" id="Path" fill="#73B3FF" transform="translate(111.381720, 119.309575) rotate(-20.750000) translate(-111.381720, -119.309575) "></path>
                    <path d="M107.680856,112.916222 L141.415661,112.912384 C141.984515,112.912203 142.445714,113.373297 142.445779,113.94215 C142.445779,113.942189 142.445779,113.942228 142.445661,113.942267 L142.445661,114.680773 C142.445544,115.249581 141.984469,115.710709 141.415661,115.71089 L107.680856,115.714728 C107.112003,115.71491 106.650804,115.253816 106.650739,114.684963 C106.650739,114.684924 106.650739,114.684885 106.650856,114.684846 L106.650856,113.94634 C106.650973,113.377532 107.112048,112.916404 107.680856,112.916222 Z" id="Rectangle" fill="#73B3FF" transform="translate(124.548259, 114.313556) rotate(-20.750000) translate(-124.548259, -114.313556) "></path>
                    <path d="M107.680856,112.916222 L141.415661,112.912384 C141.984515,112.912203 142.445714,113.373297 142.445779,113.94215 C142.445779,113.942189 142.445779,113.942228 142.445661,113.942267 L142.445661,114.680773 C142.445544,115.249581 141.984469,115.710709 141.415661,115.71089 L107.680856,115.714728 C107.112003,115.71491 106.650804,115.253816 106.650739,114.684963 C106.650739,114.684924 106.650739,114.684885 106.650856,114.684846 L106.650856,113.94634 C106.650973,113.377532 107.112048,112.916404 107.680856,112.916222 Z" id="Rectangle" fill="url(#linearGradient-15)" transform="translate(124.548259, 114.313556) rotate(-20.750000) translate(-124.548259, -114.313556) "></path>
                    <path d="M122.881328,129.677875 L155.295805,129.676838 C158.902225,129.676305 161.825899,132.599792 161.826014,136.206211 C161.826014,136.206351 161.826014,136.20649 161.825596,136.206629 L161.823116,213.733481 C161.822583,217.339737 158.899164,220.263157 155.292908,220.26369 L122.87843,220.264727 C119.272011,220.265261 116.348337,217.341773 116.348221,213.735354 C116.348221,213.735215 116.348221,213.735076 116.348639,213.734936 L116.351119,136.208084 C116.351652,132.601828 119.275072,129.678408 122.881328,129.677875 Z" id="Rectangle" fill="#3385E6" transform="translate(139.087118, 174.970783) rotate(-5.370000) translate(-139.087118, -174.970783) "></path>
                    <path d="M122.881328,129.677875 L155.295805,129.676838 C158.902225,129.676305 161.825899,132.599792 161.826014,136.206211 C161.826014,136.206351 161.826014,136.20649 161.825596,136.206629 L161.823116,213.733481 C161.822583,217.339737 158.899164,220.263157 155.292908,220.26369 L122.87843,220.264727 C119.272011,220.265261 116.348337,217.341773 116.348221,213.735354 C116.348221,213.735215 116.348221,213.735076 116.348639,213.734936 L116.351119,136.208084 C116.351652,132.601828 119.275072,129.678408 122.881328,129.677875 Z" id="Rectangle" fill="url(#linearGradient-16)" transform="translate(139.087118, 174.970783) rotate(-5.370000) translate(-139.087118, -174.970783) "></path>
                    <path d="M122.713544,129.593473 L155.268021,129.592432 C158.83578,129.591904 161.728113,132.484052 161.728227,136.051811 C161.728227,136.051949 161.728227,136.052087 161.727814,136.052225 L161.725391,211.791958 C161.724864,215.359556 158.832783,218.251637 155.265185,218.252165 L122.710708,218.253207 C119.142948,218.253734 116.250615,215.361586 116.250501,211.793827 C116.250501,211.793689 116.250501,211.793551 116.250914,211.793413 L116.253337,136.05368 C116.253864,132.486082 119.145946,129.594001 122.713544,129.593473 Z" id="Rectangle" fill="#3F97FF" transform="translate(138.989364, 173.922819) rotate(-5.370000) translate(-138.989364, -173.922819) "></path>
                    <path d="M124.225237,131.628331 L153.522818,131.627393 C156.726069,131.62692 159.322901,134.223585 159.323003,137.426837 C159.323003,137.42696 159.323003,137.427084 159.322632,137.427208 L159.320457,205.415981 C159.319984,208.619088 156.723378,211.215693 153.520272,211.216167 L124.222692,211.217104 C121.01944,211.217578 118.422609,208.620913 118.422506,205.417661 C118.422506,205.417537 118.422506,205.417414 118.422877,205.41729 L118.425052,137.428516 C118.425526,134.22541 121.022131,131.628804 124.225237,131.628331 Z" id="Rectangle" fill="#FFFFFF" transform="translate(138.872755, 171.422249) rotate(-5.370000) translate(-138.872755, -171.422249) "></path>
                    <path d="M192.810796,44.99931 C191.220544,45.03078 189.785518,43.9831838 189.233106,42.3875292 C188.680694,40.7918746 189.131661,38.9969895 190.357418,37.9126693 C196.098322,32.8076633 210.376979,25.9834907 223.392147,36.6003284 C224.5244,37.4443168 225.132476,38.8848973 224.975607,40.3516717 C224.818738,41.818446 223.922224,43.0748576 222.641039,43.6234299 C221.359854,44.1720021 219.900624,43.9242631 218.841131,42.9783051 C207.359325,33.5950678 195.644447,43.6475989 195.141504,44.0806714 C194.484066,44.660056 193.662451,44.9838919 192.810796,44.99931 Z" id="Path" fill="#73B3FF"></path>
                    <path d="M184.724478,31.9987649 C183.733726,32.0080844 182.781504,31.6024812 182.084687,30.8743347 C180.638438,29.3671234 180.638438,26.9362721 182.084687,25.4290607 C182.30467,25.214282 203.850737,3.28157741 231.421883,23.6729283 C233.109285,24.9114507 233.505979,27.3295853 232.307923,29.0739831 C231.109867,30.8183809 228.770741,31.2284739 227.083338,29.9899515 C204.767331,13.5025209 188.085322,30.1920962 187.388711,30.9122369 C186.67986,31.632849 185.718323,32.0249834 184.724478,31.9987649 L184.724478,31.9987649 Z" id="Path" fill="#73B3FF"></path>
                    <path d="M241.253026,19 C240.459909,18.9978139 239.687142,18.7514118 239.041938,18.2949796 C205.679079,-5.80942615 177.291167,17.1402047 176.099637,18.1369577 C174.506868,19.391365 172.194426,19.163141 170.8834,17.6221469 C169.572375,16.0811527 169.739244,13.7874464 171.259811,12.4481721 C171.591474,12.1685951 205.249145,-15.3150466 243.476398,12.2901503 C244.778952,13.2436885 245.31747,14.9158584 244.812642,16.4393645 C244.307814,17.9628706 242.873257,18.9948293 241.253026,19 L241.253026,19 Z" id="Path" fill="#73B3FF"></path>
                </g>
            </g>
        </g>
    </g>
</svg>