<?xml version="1.0" encoding="UTF-8"?>
<svg width="331px" height="339px" viewBox="0 0 331 339" version="1.1" xmlns="http://www.w3.org/2000/svg" xmlns:xlink="http://www.w3.org/1999/xlink">
    <title>mobile_phone</title>
    <defs>
        <linearGradient x1="50.3101427%" y1="-72.1678915%" x2="49.8421718%" y2="111.114952%" id="linearGradient-1">
            <stop stop-color="#0D4485" offset="0%"></stop>
            <stop stop-color="#000000" stop-opacity="0.1" offset="100%"></stop>
        </linearGradient>
        <linearGradient x1="0%" y1="50%" x2="100%" y2="50%" id="linearGradient-2">
            <stop stop-color="#ECC4D7" offset="0%"></stop>
            <stop stop-color="#EFD4D1" offset="42%"></stop>
            <stop stop-color="#F2EAC9" offset="100%"></stop>
        </linearGradient>
        <linearGradient x1="-0.00736077433%" y1="49.996141%" x2="99.9880124%" y2="49.996141%" id="linearGradient-3">
            <stop stop-color="#ECC4D7" offset="0%"></stop>
            <stop stop-color="#EFD4D1" offset="42%"></stop>
            <stop stop-color="#F2EAC9" offset="100%"></stop>
        </linearGradient>
        <linearGradient x1="0.0483386568%" y1="50.0006819%" x2="99.9978526%" y2="50.0006819%" id="linearGradient-4">
            <stop stop-color="#ECC4D7" offset="0%"></stop>
            <stop stop-color="#EFD4D1" offset="42%"></stop>
            <stop stop-color="#F2EAC9" offset="100%"></stop>
        </linearGradient>
        <linearGradient x1="-0.0113753332%" y1="50.0012034%" x2="99.9999083%" y2="50.0012034%" id="linearGradient-5">
            <stop stop-color="#ECC4D7" offset="0%"></stop>
            <stop stop-color="#EFD4D1" offset="42%"></stop>
            <stop stop-color="#F2EAC9" offset="100%"></stop>
        </linearGradient>
        <linearGradient x1="0.0302341421%" y1="49.99078%" x2="100.007115%" y2="49.99078%" id="linearGradient-6">
            <stop stop-color="#ECC4D7" offset="0%"></stop>
            <stop stop-color="#EFD4D1" offset="42%"></stop>
            <stop stop-color="#F2EAC9" offset="100%"></stop>
        </linearGradient>
        <linearGradient x1="9.92047093%" y1="54.314416%" x2="50.7498042%" y2="50.5422118%" id="linearGradient-7">
            <stop stop-color="#000000" offset="0%"></stop>
            <stop stop-color="#000000" stop-opacity="0.1" offset="97%"></stop>
        </linearGradient>
        <linearGradient x1="14.3590635%" y1="54.0411156%" x2="54.5703749%" y2="50.1633347%" id="linearGradient-8">
            <stop stop-color="#000000" offset="0%"></stop>
            <stop stop-color="#000000" stop-opacity="0.1" offset="97%"></stop>
        </linearGradient>
        <linearGradient x1="25.9237516%" y1="53.4461992%" x2="53.7061364%" y2="49.9943873%" id="linearGradient-9">
            <stop stop-color="#000000" offset="0%"></stop>
            <stop stop-color="#000000" stop-opacity="0.1" offset="97%"></stop>
        </linearGradient>
        <linearGradient x1="-1.33376982%" y1="54.7841607%" x2="58.4166107%" y2="49.8722056%" id="linearGradient-10">
            <stop stop-color="#000000" offset="0%"></stop>
            <stop stop-color="#000000" stop-opacity="0.1" offset="97%"></stop>
        </linearGradient>
        <linearGradient x1="42.0734542%" y1="44.6184032%" x2="67.1883878%" y2="64.8094086%" id="linearGradient-11">
            <stop stop-color="#183866" offset="0%"></stop>
            <stop stop-color="#1A7FC1" offset="100%"></stop>
        </linearGradient>
        <linearGradient x1="44.256627%" y1="48.8307839%" x2="51.1653221%" y2="50.2374946%" id="linearGradient-12">
            <stop stop-color="#183866" offset="0%"></stop>
            <stop stop-color="#1A7FC1" offset="100%"></stop>
        </linearGradient>
        <linearGradient x1="39.8194391%" y1="47.9265944%" x2="46.7281342%" y2="49.3333051%" id="linearGradient-13">
            <stop stop-color="#183866" offset="0%"></stop>
            <stop stop-color="#1A7FC1" offset="100%"></stop>
        </linearGradient>
        <linearGradient x1="35.3822512%" y1="47.022984%" x2="42.2909463%" y2="48.4296946%" id="linearGradient-14">
            <stop stop-color="#183866" offset="0%"></stop>
            <stop stop-color="#1A7FC1" offset="100%"></stop>
        </linearGradient>
        <linearGradient x1="-114.062765%" y1="49.9427498%" x2="-113.469042%" y2="49.9427498%" id="linearGradient-15">
            <stop stop-color="#0D4485" offset="0%"></stop>
            <stop stop-color="#1A7FC1" offset="100%"></stop>
        </linearGradient>
    </defs>
    <g id="Page-1" stroke="none" stroke-width="1" fill="none" fill-rule="evenodd">
        <g id="landing-page" transform="translate(-7101.000000, -414.000000)" fill-rule="nonzero">
            <g id="mobile-app-development" transform="translate(6200.000000, 414.000000)">
                <g id="mobile_phone" transform="translate(901.000000, 0.000000)">
                    <rect id="Rectangle" fill="#73B3FF" x="175" y="26" width="113" height="216" rx="22.11"></rect>
                    <path d="M282,43.5037309 L282,217.496269 C281.996889,223.850505 276.783397,229 270.353305,229 L192.635425,229 C186.209734,228.993857 181.003106,223.846159 181,217.496269 L181,43.509299 C181.003106,37.1563341 186.212257,32.0061433 192.64106,32 L204.473696,32 L204.473696,32.9076032 C204.473696,34.6250711 205.164102,36.272196 206.393033,37.4866292 C207.621964,38.7010624 209.288752,39.3833239 211.026722,39.3833239 L251.359107,39.3833239 C253.097536,39.384803 254.765194,38.7030165 255.99445,37.4882625 C257.223705,36.2735085 257.913631,34.6255241 257.912134,32.9076032 L257.912134,32 L270.35894,32 C276.785545,32.006139 281.993788,37.1529404 282,43.5037309 Z" id="Path" fill="#0D4485"></path>
                    <path d="M280,43.5037309 L280,217.496269 C279.996889,223.850505 274.783397,229 268.353305,229 L190.635425,229 C184.209734,228.993857 179.003106,223.846159 179,217.496269 L179,43.509299 C179.003106,37.1563341 184.212257,32.0061433 190.64106,32 L202.473696,32 L202.473696,32.9076032 C202.473696,34.6250711 203.164102,36.272196 204.393033,37.4866292 C205.621964,38.7010624 207.288752,39.3833239 209.026722,39.3833239 L249.359107,39.3833239 C251.097536,39.384803 252.765194,38.7030165 253.99445,37.4882625 C255.223705,36.2735085 255.913631,34.6255241 255.912134,32.9076032 L255.912134,32 L268.35894,32 C274.785545,32.006139 279.993788,37.1529404 280,43.5037309 Z" id="Path" fill="url(#linearGradient-1)" opacity="0.81"></path>
                    <rect id="Rectangle" fill="#FFFFFF" opacity="0.17" x="197" y="146" width="70" height="25" rx="10.2"></rect>
                    <rect id="Rectangle" fill="#FFFFFF" opacity="0.17" x="197" y="186" width="70" height="25" rx="10.2"></rect>
                    <path d="M304.831446,161.346606 L277.108034,135 C277.108034,135 267.016125,142.924929 271.322788,157.26777 C275.629452,171.61061 289.634909,188.874387 289.634909,188.874387 L289.634909,228.440844 C289.634909,228.440844 289.793328,241.31158 276.656245,241.31158 L188,241.31158 C188,241.31158 195.733218,261.502111 211.469555,278.643697 C227.205892,295.785282 255.439767,316.959156 254.231085,339 L331,339 C331,339 311.332513,269.578323 318.091745,241.334855 C324.850977,213.091386 322.327999,177.958699 304.831446,161.346606 Z" id="Path" fill="url(#linearGradient-2)"></path>
                    <path d="M187.862167,106.91328 C185.00163,106.230586 177.832334,101.410883 171.991572,96.2585866 C168.281251,92.9909918 165.103542,89.5891923 163.90068,87.0217964 C160.800767,80.4165869 160.256188,65.951645 171.991572,67.0602932 C171.991572,67.0602932 176.779081,65.9983249 187.862167,82.1087342 C198.945252,98.2191435 192.541958,108.033598 187.862167,106.91328 Z" id="Path" fill="url(#linearGradient-3)"></path>
                    <path d="M191.245323,134.994738 C188.240327,134.822157 179.826337,131.180688 172.992976,127.044486 C168.978301,124.61684 165.480485,122.016613 163.893847,119.842087 C159.602712,113.974317 156.387366,100.041241 168.190992,99.0920434 C168.190992,99.0920434 169.52521,98.5167719 172.998986,100.242586 C175.901812,101.675013 180.295117,104.683682 186.659699,110.936884 C200.608891,124.645604 196.089377,135.270869 191.245323,134.994738 Z" id="Path" fill="url(#linearGradient-4)"></path>
                    <path d="M183.343851,167.928582 C181.433056,167.402621 177.064701,164.042311 172.89203,159.99825 C168.863244,156.111978 165.05892,151.594552 163.763953,148.36281 C161.116465,141.75907 160.310708,127.166558 169.669001,128.037316 C169.669001,128.037316 170.664687,127.727583 172.89203,129.603513 C174.992754,131.356718 178.192761,135.09689 182.676224,142.881122 C191.925164,158.911263 187.084866,168.951286 183.343851,167.928582 Z" id="Path" fill="url(#linearGradient-5)"></path>
                    <path d="M188.663275,195.994016 C186.312873,195.814699 179.479402,192.362839 174.359881,188.675625 C171.948068,186.938488 169.89356,185.150918 168.905387,183.632324 C165.778962,178.897224 163.322485,167.717906 171.802913,167.062277 C171.802913,167.062277 172.523107,166.737264 174.359881,167.57221 C176.39764,168.496816 179.819959,170.861564 185.15163,176.70619 C195.267847,187.795849 192.124674,196.257389 188.663275,195.994016 Z" id="Path" fill="url(#linearGradient-6)"></path>
                    <rect id="Rectangle" fill="#FFFFFF" opacity="0.17" x="196" y="67" width="70" height="25" rx="10.2"></rect>
                    <rect id="Rectangle" fill="#FFFFFF" opacity="0.17" x="197" y="106" width="70" height="25" rx="10.2"></rect>
                    <path d="M172,67.0598092 L172,96 C167.910871,92.7586986 164.40873,89.3842724 163.083061,86.8375356 C159.693042,80.3086285 159.066482,65.9600819 172,67.0598092 Z" id="Path" fill="url(#linearGradient-7)" opacity="0.81"></path>
                    <path d="M172,99.2289498 L172,126 C168.292143,123.575669 165.061644,120.978992 163.596264,118.807435 C159.633075,112.947677 156.663459,99.0336246 167.565003,98.0857226 C167.565003,98.0857226 168.797255,97.534216 172,99.2289498 Z" id="Path" fill="url(#linearGradient-8)" opacity="0.81"></path>
                    <path d="M172,130.65974 L172,162 C167.931278,157.992063 164.089242,153.333213 162.781438,150.000297 C160.107707,143.189817 159.293962,128.140465 168.745022,129.038484 C168.745022,129.044511 169.750578,128.707001 172,130.65974 Z" id="Path" fill="url(#linearGradient-9)" opacity="0.81"></path>
                    <path d="M172,167.607172 L172,190 C169.115015,188.156724 166.657435,186.259934 165.475392,184.648554 C161.735597,179.624141 158.797186,167.76177 168.941381,167.066082 C168.941381,167.066082 169.80287,166.721211 172,167.607172 Z" id="Path" fill="url(#linearGradient-10)" opacity="0.81"></path>
                    <path d="M163,12.9057076 L163,239.094292 C163.001558,242.516562 161.634428,245.799194 159.199527,248.219652 C156.764626,250.640109 153.461529,252 150.01728,252 L41.9827204,252 C38.5384707,252 35.2353743,250.640109 32.8004732,248.219652 C30.365572,245.799194 28.9984421,242.516562 29,239.094292 L29,12.9057076 C28.9984421,9.48343823 30.365572,6.20080592 32.8004732,3.78034824 C35.2353743,1.35989057 38.5384707,0 41.9827204,0 L150.01728,0 C153.461529,0 156.764626,1.35989057 159.199527,3.78034824 C161.634428,6.20080592 163.001558,9.48343823 163,12.9057076 Z" id="Path" fill="#73B3FF"></path>
                    <path d="M63,0 L63,252 L42.3213914,252 C38.787294,252 35.3980321,250.640109 32.8996134,248.219652 C30.4011948,245.799194 28.9984015,242.516562 29,239.094292 L29,12.9057076 C28.9984015,9.48343823 30.4011948,6.20080592 32.8996134,3.78034824 C35.3980321,1.35989057 38.787294,0 42.3213914,0 L63,0 Z" id="Path" fill="#FFFFFF" opacity="0.478151972"></path>
                    <path d="M145,119.436086 L145,159.55817 C145,163.115895 142.096361,166 138.514541,166 L33,166 L33,113 L138.514541,113 C140.234059,112.998478 141.883676,113.67589 143.100103,114.883055 C144.316529,116.09022 145,117.728134 145,119.436086 L145,119.436086 Z" id="Path" fill="url(#linearGradient-11)" opacity="0.19"></path>
                    <rect id="Rectangle" fill="#73B3FF" x="0" y="103" width="136" height="53" rx="11.21"></rect>
                    <path d="M136.928544,54 L53.071456,54 C51.3773856,54 50.0031784,52.8825185 50,51.5023452 L50,51.5023452 C50,50.1203381 51.3751377,49 53.071456,49 L136.928544,49 C138.624862,49 140,50.1203381 140,51.5023452 L140,51.5023452 C140,52.1655775 139.676219,52.8015772 139.100043,53.2701127 C138.523867,53.7386482 137.742614,54.0012423 136.928544,54 Z" id="Path" fill="url(#linearGradient-12)" opacity="0.19"></path>
                    <path d="M136.928544,71 L53.071456,71 C51.3751377,71 50,69.8796619 50,68.4976548 L50,68.4976548 C50.0031784,67.1174815 51.3773856,66 53.071456,66 L136.928544,66 C137.742614,65.9987577 138.523867,66.2613518 139.100043,66.7298873 C139.676219,67.1984228 140,67.8344225 140,68.4976548 L140,68.4976548 C140,69.8796619 138.624862,71 136.928544,71 L136.928544,71 Z" id="Path" fill="url(#linearGradient-13)" opacity="0.19"></path>
                    <path d="M136.928544,91 L53.071456,91 C51.3773856,91 50.0031784,89.8825185 50,88.5023452 L50,88.5023452 C50,87.1203381 51.3751377,86 53.071456,86 L136.928544,86 C138.624862,86 140,87.1203381 140,88.5023452 L140,88.5023452 C140,89.1655775 139.676219,89.8015772 139.100043,90.2701127 C138.523867,90.7386482 137.742614,91.0012423 136.928544,91 L136.928544,91 Z" id="Path" fill="url(#linearGradient-14)" opacity="0.19"></path>
                    <path d="M44,117.888215 L44,143.113286 C43.9991877,145.731529 41.9363338,147.884211 39.3214589,147.995558 C39.250335,148.001481 39.1788422,148.001481 39.1077184,147.995558 L13.8922816,147.995558 C11.1903491,147.995558 9,145.804372 9,143.101407 L9,117.888215 C9,116.590751 9.51562378,115.346514 10.4332756,114.429626 C11.3509275,113.512738 12.5953141,112.998427 13.8922816,113 L39.1077184,113 C40.4046859,112.998427 41.6490725,113.512738 42.5667244,114.429626 C43.4843762,115.346514 44,116.590751 44,117.888215 L44,117.888215 Z" id="Path" fill="url(#linearGradient-15)" opacity="0.669399182"></path>
                    <path d="M37,141.279767 C37.0007916,142.538364 36.8154892,143.790288 36.4499871,144.995665 C36.3798948,145.001445 36.309439,145.001445 36.2393468,144.995665 L11.5534724,144.995665 C9.54042703,138.355218 13.1836182,131.325625 19.8035513,129.077013 C17.0581016,127.539005 15.6761676,124.382731 16.4185122,121.345739 C17.1608567,118.308746 19.8471946,116.128597 22.998681,116.005476 C26.1501674,115.882355 29.0014351,117.846162 29.9828445,120.815812 C30.9642539,123.785461 29.8374607,127.039745 27.2227712,128.787161 C32.981002,130.247465 37.0064138,135.390837 37,141.279767 Z" id="Path" fill="#FFFFFF" opacity="0.781142113"></path>
                </g>
            </g>
        </g>
    </g>
</svg>